G04 #@! TF.GenerationSoftware,KiCad,Pcbnew,5.0.0-rc2-dev-unknown-c6ef0d5~62~ubuntu16.04.1*
G04 #@! TF.CreationDate,2018-03-19T15:53:38+01:00*
G04 #@! TF.ProjectId,AS5306A_board_5x9_panel,415335333036415F626F6172645F3578,rev?*
G04 #@! TF.SameCoordinates,Original*
G04 #@! TF.FileFunction,Copper,L1,Top,Signal*
G04 #@! TF.FilePolarity,Positive*
%FSLAX46Y46*%
G04 Gerber Fmt 4.6, Leading zero omitted, Abs format (unit mm)*
G04 Created by KiCad (PCBNEW 5.0.0-rc2-dev-unknown-c6ef0d5~62~ubuntu16.04.1) date Mon Mar 19 15:53:38 2018*
%MOMM*%
%LPD*%
G01*
G04 APERTURE LIST*
%ADD10R,0.600000X1.550000*%
%ADD11R,1.200000X1.800000*%
%ADD12C,1.100000*%
%ADD13R,0.300000X1.600000*%
%ADD14R,0.600000X0.500000*%
%ADD15C,0.600000*%
%ADD16C,0.250000*%
G04 APERTURE END LIST*
D10*
X181486000Y-60500000D03*
X182486000Y-60500000D03*
X179486000Y-60500000D03*
X180486000Y-60500000D03*
X178486000Y-60500000D03*
D11*
X176186000Y-64375000D03*
X183786000Y-64375000D03*
D10*
X177486000Y-60500000D03*
D12*
X178086000Y-64100000D03*
X181886000Y-64100000D03*
X181286000Y-62400000D03*
X183086000Y-62400000D03*
X178686000Y-62400000D03*
X176886000Y-62400000D03*
D13*
X168311000Y-84300000D03*
X167661000Y-84300000D03*
X168961000Y-84300000D03*
X169611000Y-84300000D03*
X170261000Y-84300000D03*
X170911000Y-84300000D03*
X171561000Y-84300000D03*
X172211000Y-84300000D03*
X173511000Y-89900000D03*
X172861000Y-89900000D03*
X172211000Y-89900000D03*
X171561000Y-89900000D03*
X167661000Y-89900000D03*
X168311000Y-89900000D03*
X168961000Y-89900000D03*
X169611000Y-89900000D03*
X170261000Y-89900000D03*
X170911000Y-89900000D03*
X172861000Y-84300000D03*
X173511000Y-84300000D03*
D14*
X167136000Y-109300000D03*
X168236000Y-109300000D03*
D10*
X181486000Y-128500000D03*
X182486000Y-128500000D03*
X179486000Y-128500000D03*
X180486000Y-128500000D03*
X178486000Y-128500000D03*
D11*
X176186000Y-132375000D03*
X183786000Y-132375000D03*
D10*
X177486000Y-128500000D03*
D12*
X178086000Y-132100000D03*
X181886000Y-132100000D03*
X181286000Y-130400000D03*
X183086000Y-130400000D03*
X178686000Y-130400000D03*
X176886000Y-130400000D03*
D14*
X167136000Y-75300000D03*
X168236000Y-75300000D03*
X176536000Y-75300000D03*
X177636000Y-75300000D03*
D10*
X181486000Y-77500000D03*
X182486000Y-77500000D03*
X179486000Y-77500000D03*
X180486000Y-77500000D03*
X178486000Y-77500000D03*
D11*
X176186000Y-81375000D03*
X183786000Y-81375000D03*
D10*
X177486000Y-77500000D03*
D12*
X178086000Y-81100000D03*
X181886000Y-81100000D03*
X181286000Y-79400000D03*
X183086000Y-79400000D03*
X178686000Y-79400000D03*
X176886000Y-79400000D03*
D13*
X177711000Y-101300000D03*
X177061000Y-101300000D03*
X178361000Y-101300000D03*
X179011000Y-101300000D03*
X179661000Y-101300000D03*
X180311000Y-101300000D03*
X180961000Y-101300000D03*
X181611000Y-101300000D03*
X182911000Y-106900000D03*
X182261000Y-106900000D03*
X181611000Y-106900000D03*
X180961000Y-106900000D03*
X177061000Y-106900000D03*
X177711000Y-106900000D03*
X178361000Y-106900000D03*
X179011000Y-106900000D03*
X179661000Y-106900000D03*
X180311000Y-106900000D03*
X182261000Y-101300000D03*
X182911000Y-101300000D03*
X177711000Y-50300000D03*
X177061000Y-50300000D03*
X178361000Y-50300000D03*
X179011000Y-50300000D03*
X179661000Y-50300000D03*
X180311000Y-50300000D03*
X180961000Y-50300000D03*
X181611000Y-50300000D03*
X182911000Y-55900000D03*
X182261000Y-55900000D03*
X181611000Y-55900000D03*
X180961000Y-55900000D03*
X177061000Y-55900000D03*
X177711000Y-55900000D03*
X178361000Y-55900000D03*
X179011000Y-55900000D03*
X179661000Y-55900000D03*
X180311000Y-55900000D03*
X182261000Y-50300000D03*
X182911000Y-50300000D03*
X177711000Y-118300000D03*
X177061000Y-118300000D03*
X178361000Y-118300000D03*
X179011000Y-118300000D03*
X179661000Y-118300000D03*
X180311000Y-118300000D03*
X180961000Y-118300000D03*
X181611000Y-118300000D03*
X182911000Y-123900000D03*
X182261000Y-123900000D03*
X181611000Y-123900000D03*
X180961000Y-123900000D03*
X177061000Y-123900000D03*
X177711000Y-123900000D03*
X178361000Y-123900000D03*
X179011000Y-123900000D03*
X179661000Y-123900000D03*
X180311000Y-123900000D03*
X182261000Y-118300000D03*
X182911000Y-118300000D03*
X168311000Y-118300000D03*
X167661000Y-118300000D03*
X168961000Y-118300000D03*
X169611000Y-118300000D03*
X170261000Y-118300000D03*
X170911000Y-118300000D03*
X171561000Y-118300000D03*
X172211000Y-118300000D03*
X173511000Y-123900000D03*
X172861000Y-123900000D03*
X172211000Y-123900000D03*
X171561000Y-123900000D03*
X167661000Y-123900000D03*
X168311000Y-123900000D03*
X168961000Y-123900000D03*
X169611000Y-123900000D03*
X170261000Y-123900000D03*
X170911000Y-123900000D03*
X172861000Y-118300000D03*
X173511000Y-118300000D03*
X177711000Y-84300000D03*
X177061000Y-84300000D03*
X178361000Y-84300000D03*
X179011000Y-84300000D03*
X179661000Y-84300000D03*
X180311000Y-84300000D03*
X180961000Y-84300000D03*
X181611000Y-84300000D03*
X182911000Y-89900000D03*
X182261000Y-89900000D03*
X181611000Y-89900000D03*
X180961000Y-89900000D03*
X177061000Y-89900000D03*
X177711000Y-89900000D03*
X178361000Y-89900000D03*
X179011000Y-89900000D03*
X179661000Y-89900000D03*
X180311000Y-89900000D03*
X182261000Y-84300000D03*
X182911000Y-84300000D03*
X177711000Y-67300000D03*
X177061000Y-67300000D03*
X178361000Y-67300000D03*
X179011000Y-67300000D03*
X179661000Y-67300000D03*
X180311000Y-67300000D03*
X180961000Y-67300000D03*
X181611000Y-67300000D03*
X182911000Y-72900000D03*
X182261000Y-72900000D03*
X181611000Y-72900000D03*
X180961000Y-72900000D03*
X177061000Y-72900000D03*
X177711000Y-72900000D03*
X178361000Y-72900000D03*
X179011000Y-72900000D03*
X179661000Y-72900000D03*
X180311000Y-72900000D03*
X182261000Y-67300000D03*
X182911000Y-67300000D03*
D14*
X176536000Y-58300000D03*
X177636000Y-58300000D03*
X176536000Y-126300000D03*
X177636000Y-126300000D03*
D13*
X168311000Y-101300000D03*
X167661000Y-101300000D03*
X168961000Y-101300000D03*
X169611000Y-101300000D03*
X170261000Y-101300000D03*
X170911000Y-101300000D03*
X171561000Y-101300000D03*
X172211000Y-101300000D03*
X173511000Y-106900000D03*
X172861000Y-106900000D03*
X172211000Y-106900000D03*
X171561000Y-106900000D03*
X167661000Y-106900000D03*
X168311000Y-106900000D03*
X168961000Y-106900000D03*
X169611000Y-106900000D03*
X170261000Y-106900000D03*
X170911000Y-106900000D03*
X172861000Y-101300000D03*
X173511000Y-101300000D03*
D14*
X176536000Y-92300000D03*
X177636000Y-92300000D03*
D10*
X172086000Y-60500000D03*
X173086000Y-60500000D03*
X170086000Y-60500000D03*
X171086000Y-60500000D03*
X169086000Y-60500000D03*
D11*
X166786000Y-64375000D03*
X174386000Y-64375000D03*
D10*
X168086000Y-60500000D03*
D12*
X168686000Y-64100000D03*
X172486000Y-64100000D03*
X171886000Y-62400000D03*
X173686000Y-62400000D03*
X169286000Y-62400000D03*
X167486000Y-62400000D03*
D14*
X167136000Y-58300000D03*
X168236000Y-58300000D03*
X167136000Y-92300000D03*
X168236000Y-92300000D03*
D13*
X168311000Y-50300000D03*
X167661000Y-50300000D03*
X168961000Y-50300000D03*
X169611000Y-50300000D03*
X170261000Y-50300000D03*
X170911000Y-50300000D03*
X171561000Y-50300000D03*
X172211000Y-50300000D03*
X173511000Y-55900000D03*
X172861000Y-55900000D03*
X172211000Y-55900000D03*
X171561000Y-55900000D03*
X167661000Y-55900000D03*
X168311000Y-55900000D03*
X168961000Y-55900000D03*
X169611000Y-55900000D03*
X170261000Y-55900000D03*
X170911000Y-55900000D03*
X172861000Y-50300000D03*
X173511000Y-50300000D03*
D10*
X172086000Y-77500000D03*
X173086000Y-77500000D03*
X170086000Y-77500000D03*
X171086000Y-77500000D03*
X169086000Y-77500000D03*
D11*
X166786000Y-81375000D03*
X174386000Y-81375000D03*
D10*
X168086000Y-77500000D03*
D12*
X168686000Y-81100000D03*
X172486000Y-81100000D03*
X171886000Y-79400000D03*
X173686000Y-79400000D03*
X169286000Y-79400000D03*
X167486000Y-79400000D03*
D10*
X172086000Y-94500000D03*
X173086000Y-94500000D03*
X170086000Y-94500000D03*
X171086000Y-94500000D03*
X169086000Y-94500000D03*
D11*
X166786000Y-98375000D03*
X174386000Y-98375000D03*
D10*
X168086000Y-94500000D03*
D12*
X168686000Y-98100000D03*
X172486000Y-98100000D03*
X171886000Y-96400000D03*
X173686000Y-96400000D03*
X169286000Y-96400000D03*
X167486000Y-96400000D03*
D14*
X167136000Y-126300000D03*
X168236000Y-126300000D03*
D10*
X172086000Y-111500000D03*
X173086000Y-111500000D03*
X170086000Y-111500000D03*
X171086000Y-111500000D03*
X169086000Y-111500000D03*
D11*
X166786000Y-115375000D03*
X174386000Y-115375000D03*
D10*
X168086000Y-111500000D03*
D12*
X168686000Y-115100000D03*
X172486000Y-115100000D03*
X171886000Y-113400000D03*
X173686000Y-113400000D03*
X169286000Y-113400000D03*
X167486000Y-113400000D03*
D10*
X181486000Y-94500000D03*
X182486000Y-94500000D03*
X179486000Y-94500000D03*
X180486000Y-94500000D03*
X178486000Y-94500000D03*
D11*
X176186000Y-98375000D03*
X183786000Y-98375000D03*
D10*
X177486000Y-94500000D03*
D12*
X178086000Y-98100000D03*
X181886000Y-98100000D03*
X181286000Y-96400000D03*
X183086000Y-96400000D03*
X178686000Y-96400000D03*
X176886000Y-96400000D03*
D10*
X172086000Y-128500000D03*
X173086000Y-128500000D03*
X170086000Y-128500000D03*
X171086000Y-128500000D03*
X169086000Y-128500000D03*
D11*
X166786000Y-132375000D03*
X174386000Y-132375000D03*
D10*
X168086000Y-128500000D03*
D12*
X168686000Y-132100000D03*
X172486000Y-132100000D03*
X171886000Y-130400000D03*
X173686000Y-130400000D03*
X169286000Y-130400000D03*
X167486000Y-130400000D03*
D14*
X176536000Y-109300000D03*
X177636000Y-109300000D03*
D13*
X168311000Y-67300000D03*
X167661000Y-67300000D03*
X168961000Y-67300000D03*
X169611000Y-67300000D03*
X170261000Y-67300000D03*
X170911000Y-67300000D03*
X171561000Y-67300000D03*
X172211000Y-67300000D03*
X173511000Y-72900000D03*
X172861000Y-72900000D03*
X172211000Y-72900000D03*
X171561000Y-72900000D03*
X167661000Y-72900000D03*
X168311000Y-72900000D03*
X168961000Y-72900000D03*
X169611000Y-72900000D03*
X170261000Y-72900000D03*
X170911000Y-72900000D03*
X172861000Y-67300000D03*
X173511000Y-67300000D03*
D10*
X181486000Y-111500000D03*
X182486000Y-111500000D03*
X179486000Y-111500000D03*
X180486000Y-111500000D03*
X178486000Y-111500000D03*
D11*
X176186000Y-115375000D03*
X183786000Y-115375000D03*
D10*
X177486000Y-111500000D03*
D12*
X178086000Y-115100000D03*
X181886000Y-115100000D03*
X181286000Y-113400000D03*
X183086000Y-113400000D03*
X178686000Y-113400000D03*
X176886000Y-113400000D03*
D14*
X158840000Y-92300000D03*
X157740000Y-92300000D03*
D12*
X148690000Y-62400000D03*
X150490000Y-62400000D03*
X154890000Y-62400000D03*
X153090000Y-62400000D03*
X153690000Y-64100000D03*
X149890000Y-64100000D03*
D10*
X149290000Y-60500000D03*
D11*
X155590000Y-64375000D03*
X147990000Y-64375000D03*
D10*
X150290000Y-60500000D03*
X152290000Y-60500000D03*
X151290000Y-60500000D03*
X154290000Y-60500000D03*
X153290000Y-60500000D03*
D14*
X149440000Y-58300000D03*
X148340000Y-58300000D03*
X149440000Y-92300000D03*
X148340000Y-92300000D03*
D12*
X158090000Y-62400000D03*
X159890000Y-62400000D03*
X164290000Y-62400000D03*
X162490000Y-62400000D03*
X163090000Y-64100000D03*
X159290000Y-64100000D03*
D10*
X158690000Y-60500000D03*
D11*
X164990000Y-64375000D03*
X157390000Y-64375000D03*
D10*
X159690000Y-60500000D03*
X161690000Y-60500000D03*
X160690000Y-60500000D03*
X163690000Y-60500000D03*
X162690000Y-60500000D03*
D13*
X154715000Y-84300000D03*
X154065000Y-84300000D03*
X152115000Y-89900000D03*
X151465000Y-89900000D03*
X150815000Y-89900000D03*
X150165000Y-89900000D03*
X149515000Y-89900000D03*
X148865000Y-89900000D03*
X152765000Y-89900000D03*
X153415000Y-89900000D03*
X154065000Y-89900000D03*
X154715000Y-89900000D03*
X153415000Y-84300000D03*
X152765000Y-84300000D03*
X152115000Y-84300000D03*
X151465000Y-84300000D03*
X150815000Y-84300000D03*
X150165000Y-84300000D03*
X148865000Y-84300000D03*
X149515000Y-84300000D03*
D12*
X148690000Y-130400000D03*
X150490000Y-130400000D03*
X154890000Y-130400000D03*
X153090000Y-130400000D03*
X153690000Y-132100000D03*
X149890000Y-132100000D03*
D10*
X149290000Y-128500000D03*
D11*
X155590000Y-132375000D03*
X147990000Y-132375000D03*
D10*
X150290000Y-128500000D03*
X152290000Y-128500000D03*
X151290000Y-128500000D03*
X154290000Y-128500000D03*
X153290000Y-128500000D03*
D14*
X158840000Y-109300000D03*
X157740000Y-109300000D03*
X149440000Y-109300000D03*
X148340000Y-109300000D03*
D12*
X158090000Y-130400000D03*
X159890000Y-130400000D03*
X164290000Y-130400000D03*
X162490000Y-130400000D03*
X163090000Y-132100000D03*
X159290000Y-132100000D03*
D10*
X158690000Y-128500000D03*
D11*
X164990000Y-132375000D03*
X157390000Y-132375000D03*
D10*
X159690000Y-128500000D03*
X161690000Y-128500000D03*
X160690000Y-128500000D03*
X163690000Y-128500000D03*
X162690000Y-128500000D03*
D14*
X149440000Y-75300000D03*
X148340000Y-75300000D03*
X158840000Y-75300000D03*
X157740000Y-75300000D03*
D12*
X158090000Y-79400000D03*
X159890000Y-79400000D03*
X164290000Y-79400000D03*
X162490000Y-79400000D03*
X163090000Y-81100000D03*
X159290000Y-81100000D03*
D10*
X158690000Y-77500000D03*
D11*
X164990000Y-81375000D03*
X157390000Y-81375000D03*
D10*
X159690000Y-77500000D03*
X161690000Y-77500000D03*
X160690000Y-77500000D03*
X163690000Y-77500000D03*
X162690000Y-77500000D03*
D13*
X164115000Y-101300000D03*
X163465000Y-101300000D03*
X161515000Y-106900000D03*
X160865000Y-106900000D03*
X160215000Y-106900000D03*
X159565000Y-106900000D03*
X158915000Y-106900000D03*
X158265000Y-106900000D03*
X162165000Y-106900000D03*
X162815000Y-106900000D03*
X163465000Y-106900000D03*
X164115000Y-106900000D03*
X162815000Y-101300000D03*
X162165000Y-101300000D03*
X161515000Y-101300000D03*
X160865000Y-101300000D03*
X160215000Y-101300000D03*
X159565000Y-101300000D03*
X158265000Y-101300000D03*
X158915000Y-101300000D03*
X154715000Y-50300000D03*
X154065000Y-50300000D03*
X152115000Y-55900000D03*
X151465000Y-55900000D03*
X150815000Y-55900000D03*
X150165000Y-55900000D03*
X149515000Y-55900000D03*
X148865000Y-55900000D03*
X152765000Y-55900000D03*
X153415000Y-55900000D03*
X154065000Y-55900000D03*
X154715000Y-55900000D03*
X153415000Y-50300000D03*
X152765000Y-50300000D03*
X152115000Y-50300000D03*
X151465000Y-50300000D03*
X150815000Y-50300000D03*
X150165000Y-50300000D03*
X148865000Y-50300000D03*
X149515000Y-50300000D03*
D12*
X148690000Y-79400000D03*
X150490000Y-79400000D03*
X154890000Y-79400000D03*
X153090000Y-79400000D03*
X153690000Y-81100000D03*
X149890000Y-81100000D03*
D10*
X149290000Y-77500000D03*
D11*
X155590000Y-81375000D03*
X147990000Y-81375000D03*
D10*
X150290000Y-77500000D03*
X152290000Y-77500000D03*
X151290000Y-77500000D03*
X154290000Y-77500000D03*
X153290000Y-77500000D03*
D12*
X148690000Y-96400000D03*
X150490000Y-96400000D03*
X154890000Y-96400000D03*
X153090000Y-96400000D03*
X153690000Y-98100000D03*
X149890000Y-98100000D03*
D10*
X149290000Y-94500000D03*
D11*
X155590000Y-98375000D03*
X147990000Y-98375000D03*
D10*
X150290000Y-94500000D03*
X152290000Y-94500000D03*
X151290000Y-94500000D03*
X154290000Y-94500000D03*
X153290000Y-94500000D03*
D14*
X149440000Y-126300000D03*
X148340000Y-126300000D03*
D12*
X148690000Y-113400000D03*
X150490000Y-113400000D03*
X154890000Y-113400000D03*
X153090000Y-113400000D03*
X153690000Y-115100000D03*
X149890000Y-115100000D03*
D10*
X149290000Y-111500000D03*
D11*
X155590000Y-115375000D03*
X147990000Y-115375000D03*
D10*
X150290000Y-111500000D03*
X152290000Y-111500000D03*
X151290000Y-111500000D03*
X154290000Y-111500000D03*
X153290000Y-111500000D03*
D12*
X158090000Y-96400000D03*
X159890000Y-96400000D03*
X164290000Y-96400000D03*
X162490000Y-96400000D03*
X163090000Y-98100000D03*
X159290000Y-98100000D03*
D10*
X158690000Y-94500000D03*
D11*
X164990000Y-98375000D03*
X157390000Y-98375000D03*
D10*
X159690000Y-94500000D03*
X161690000Y-94500000D03*
X160690000Y-94500000D03*
X163690000Y-94500000D03*
X162690000Y-94500000D03*
D14*
X158840000Y-58300000D03*
X157740000Y-58300000D03*
D13*
X154715000Y-67300000D03*
X154065000Y-67300000D03*
X152115000Y-72900000D03*
X151465000Y-72900000D03*
X150815000Y-72900000D03*
X150165000Y-72900000D03*
X149515000Y-72900000D03*
X148865000Y-72900000D03*
X152765000Y-72900000D03*
X153415000Y-72900000D03*
X154065000Y-72900000D03*
X154715000Y-72900000D03*
X153415000Y-67300000D03*
X152765000Y-67300000D03*
X152115000Y-67300000D03*
X151465000Y-67300000D03*
X150815000Y-67300000D03*
X150165000Y-67300000D03*
X148865000Y-67300000D03*
X149515000Y-67300000D03*
D12*
X158090000Y-113400000D03*
X159890000Y-113400000D03*
X164290000Y-113400000D03*
X162490000Y-113400000D03*
X163090000Y-115100000D03*
X159290000Y-115100000D03*
D10*
X158690000Y-111500000D03*
D11*
X164990000Y-115375000D03*
X157390000Y-115375000D03*
D10*
X159690000Y-111500000D03*
X161690000Y-111500000D03*
X160690000Y-111500000D03*
X163690000Y-111500000D03*
X162690000Y-111500000D03*
D13*
X164115000Y-50300000D03*
X163465000Y-50300000D03*
X161515000Y-55900000D03*
X160865000Y-55900000D03*
X160215000Y-55900000D03*
X159565000Y-55900000D03*
X158915000Y-55900000D03*
X158265000Y-55900000D03*
X162165000Y-55900000D03*
X162815000Y-55900000D03*
X163465000Y-55900000D03*
X164115000Y-55900000D03*
X162815000Y-50300000D03*
X162165000Y-50300000D03*
X161515000Y-50300000D03*
X160865000Y-50300000D03*
X160215000Y-50300000D03*
X159565000Y-50300000D03*
X158265000Y-50300000D03*
X158915000Y-50300000D03*
X164115000Y-118300000D03*
X163465000Y-118300000D03*
X161515000Y-123900000D03*
X160865000Y-123900000D03*
X160215000Y-123900000D03*
X159565000Y-123900000D03*
X158915000Y-123900000D03*
X158265000Y-123900000D03*
X162165000Y-123900000D03*
X162815000Y-123900000D03*
X163465000Y-123900000D03*
X164115000Y-123900000D03*
X162815000Y-118300000D03*
X162165000Y-118300000D03*
X161515000Y-118300000D03*
X160865000Y-118300000D03*
X160215000Y-118300000D03*
X159565000Y-118300000D03*
X158265000Y-118300000D03*
X158915000Y-118300000D03*
X154715000Y-118300000D03*
X154065000Y-118300000D03*
X152115000Y-123900000D03*
X151465000Y-123900000D03*
X150815000Y-123900000D03*
X150165000Y-123900000D03*
X149515000Y-123900000D03*
X148865000Y-123900000D03*
X152765000Y-123900000D03*
X153415000Y-123900000D03*
X154065000Y-123900000D03*
X154715000Y-123900000D03*
X153415000Y-118300000D03*
X152765000Y-118300000D03*
X152115000Y-118300000D03*
X151465000Y-118300000D03*
X150815000Y-118300000D03*
X150165000Y-118300000D03*
X148865000Y-118300000D03*
X149515000Y-118300000D03*
X164115000Y-84300000D03*
X163465000Y-84300000D03*
X161515000Y-89900000D03*
X160865000Y-89900000D03*
X160215000Y-89900000D03*
X159565000Y-89900000D03*
X158915000Y-89900000D03*
X158265000Y-89900000D03*
X162165000Y-89900000D03*
X162815000Y-89900000D03*
X163465000Y-89900000D03*
X164115000Y-89900000D03*
X162815000Y-84300000D03*
X162165000Y-84300000D03*
X161515000Y-84300000D03*
X160865000Y-84300000D03*
X160215000Y-84300000D03*
X159565000Y-84300000D03*
X158265000Y-84300000D03*
X158915000Y-84300000D03*
X164115000Y-67300000D03*
X163465000Y-67300000D03*
X161515000Y-72900000D03*
X160865000Y-72900000D03*
X160215000Y-72900000D03*
X159565000Y-72900000D03*
X158915000Y-72900000D03*
X158265000Y-72900000D03*
X162165000Y-72900000D03*
X162815000Y-72900000D03*
X163465000Y-72900000D03*
X164115000Y-72900000D03*
X162815000Y-67300000D03*
X162165000Y-67300000D03*
X161515000Y-67300000D03*
X160865000Y-67300000D03*
X160215000Y-67300000D03*
X159565000Y-67300000D03*
X158265000Y-67300000D03*
X158915000Y-67300000D03*
D14*
X158840000Y-126300000D03*
X157740000Y-126300000D03*
D13*
X154715000Y-101300000D03*
X154065000Y-101300000D03*
X152115000Y-106900000D03*
X151465000Y-106900000D03*
X150815000Y-106900000D03*
X150165000Y-106900000D03*
X149515000Y-106900000D03*
X148865000Y-106900000D03*
X152765000Y-106900000D03*
X153415000Y-106900000D03*
X154065000Y-106900000D03*
X154715000Y-106900000D03*
X153415000Y-101300000D03*
X152765000Y-101300000D03*
X152115000Y-101300000D03*
X151465000Y-101300000D03*
X150815000Y-101300000D03*
X150165000Y-101300000D03*
X148865000Y-101300000D03*
X149515000Y-101300000D03*
X140125000Y-118300000D03*
X139475000Y-118300000D03*
X140775000Y-118300000D03*
X141425000Y-118300000D03*
X142075000Y-118300000D03*
X142725000Y-118300000D03*
X143375000Y-118300000D03*
X144025000Y-118300000D03*
X145325000Y-123900000D03*
X144675000Y-123900000D03*
X144025000Y-123900000D03*
X143375000Y-123900000D03*
X139475000Y-123900000D03*
X140125000Y-123900000D03*
X140775000Y-123900000D03*
X141425000Y-123900000D03*
X142075000Y-123900000D03*
X142725000Y-123900000D03*
X144675000Y-118300000D03*
X145325000Y-118300000D03*
X130725000Y-118300000D03*
X130075000Y-118300000D03*
X131375000Y-118300000D03*
X132025000Y-118300000D03*
X132675000Y-118300000D03*
X133325000Y-118300000D03*
X133975000Y-118300000D03*
X134625000Y-118300000D03*
X135925000Y-123900000D03*
X135275000Y-123900000D03*
X134625000Y-123900000D03*
X133975000Y-123900000D03*
X130075000Y-123900000D03*
X130725000Y-123900000D03*
X131375000Y-123900000D03*
X132025000Y-123900000D03*
X132675000Y-123900000D03*
X133325000Y-123900000D03*
X135275000Y-118300000D03*
X135925000Y-118300000D03*
X121325000Y-118300000D03*
X120675000Y-118300000D03*
X121975000Y-118300000D03*
X122625000Y-118300000D03*
X123275000Y-118300000D03*
X123925000Y-118300000D03*
X124575000Y-118300000D03*
X125225000Y-118300000D03*
X126525000Y-123900000D03*
X125875000Y-123900000D03*
X125225000Y-123900000D03*
X124575000Y-123900000D03*
X120675000Y-123900000D03*
X121325000Y-123900000D03*
X121975000Y-123900000D03*
X122625000Y-123900000D03*
X123275000Y-123900000D03*
X123925000Y-123900000D03*
X125875000Y-118300000D03*
X126525000Y-118300000D03*
X111925000Y-118300000D03*
X111275000Y-118300000D03*
X112575000Y-118300000D03*
X113225000Y-118300000D03*
X113875000Y-118300000D03*
X114525000Y-118300000D03*
X115175000Y-118300000D03*
X115825000Y-118300000D03*
X117125000Y-123900000D03*
X116475000Y-123900000D03*
X115825000Y-123900000D03*
X115175000Y-123900000D03*
X111275000Y-123900000D03*
X111925000Y-123900000D03*
X112575000Y-123900000D03*
X113225000Y-123900000D03*
X113875000Y-123900000D03*
X114525000Y-123900000D03*
X116475000Y-118300000D03*
X117125000Y-118300000D03*
X102525000Y-118300000D03*
X101875000Y-118300000D03*
X103175000Y-118300000D03*
X103825000Y-118300000D03*
X104475000Y-118300000D03*
X105125000Y-118300000D03*
X105775000Y-118300000D03*
X106425000Y-118300000D03*
X107725000Y-123900000D03*
X107075000Y-123900000D03*
X106425000Y-123900000D03*
X105775000Y-123900000D03*
X101875000Y-123900000D03*
X102525000Y-123900000D03*
X103175000Y-123900000D03*
X103825000Y-123900000D03*
X104475000Y-123900000D03*
X105125000Y-123900000D03*
X107075000Y-118300000D03*
X107725000Y-118300000D03*
X140125000Y-101300000D03*
X139475000Y-101300000D03*
X140775000Y-101300000D03*
X141425000Y-101300000D03*
X142075000Y-101300000D03*
X142725000Y-101300000D03*
X143375000Y-101300000D03*
X144025000Y-101300000D03*
X145325000Y-106900000D03*
X144675000Y-106900000D03*
X144025000Y-106900000D03*
X143375000Y-106900000D03*
X139475000Y-106900000D03*
X140125000Y-106900000D03*
X140775000Y-106900000D03*
X141425000Y-106900000D03*
X142075000Y-106900000D03*
X142725000Y-106900000D03*
X144675000Y-101300000D03*
X145325000Y-101300000D03*
X130725000Y-101300000D03*
X130075000Y-101300000D03*
X131375000Y-101300000D03*
X132025000Y-101300000D03*
X132675000Y-101300000D03*
X133325000Y-101300000D03*
X133975000Y-101300000D03*
X134625000Y-101300000D03*
X135925000Y-106900000D03*
X135275000Y-106900000D03*
X134625000Y-106900000D03*
X133975000Y-106900000D03*
X130075000Y-106900000D03*
X130725000Y-106900000D03*
X131375000Y-106900000D03*
X132025000Y-106900000D03*
X132675000Y-106900000D03*
X133325000Y-106900000D03*
X135275000Y-101300000D03*
X135925000Y-101300000D03*
X121325000Y-101300000D03*
X120675000Y-101300000D03*
X121975000Y-101300000D03*
X122625000Y-101300000D03*
X123275000Y-101300000D03*
X123925000Y-101300000D03*
X124575000Y-101300000D03*
X125225000Y-101300000D03*
X126525000Y-106900000D03*
X125875000Y-106900000D03*
X125225000Y-106900000D03*
X124575000Y-106900000D03*
X120675000Y-106900000D03*
X121325000Y-106900000D03*
X121975000Y-106900000D03*
X122625000Y-106900000D03*
X123275000Y-106900000D03*
X123925000Y-106900000D03*
X125875000Y-101300000D03*
X126525000Y-101300000D03*
X111925000Y-101300000D03*
X111275000Y-101300000D03*
X112575000Y-101300000D03*
X113225000Y-101300000D03*
X113875000Y-101300000D03*
X114525000Y-101300000D03*
X115175000Y-101300000D03*
X115825000Y-101300000D03*
X117125000Y-106900000D03*
X116475000Y-106900000D03*
X115825000Y-106900000D03*
X115175000Y-106900000D03*
X111275000Y-106900000D03*
X111925000Y-106900000D03*
X112575000Y-106900000D03*
X113225000Y-106900000D03*
X113875000Y-106900000D03*
X114525000Y-106900000D03*
X116475000Y-101300000D03*
X117125000Y-101300000D03*
X102525000Y-101300000D03*
X101875000Y-101300000D03*
X103175000Y-101300000D03*
X103825000Y-101300000D03*
X104475000Y-101300000D03*
X105125000Y-101300000D03*
X105775000Y-101300000D03*
X106425000Y-101300000D03*
X107725000Y-106900000D03*
X107075000Y-106900000D03*
X106425000Y-106900000D03*
X105775000Y-106900000D03*
X101875000Y-106900000D03*
X102525000Y-106900000D03*
X103175000Y-106900000D03*
X103825000Y-106900000D03*
X104475000Y-106900000D03*
X105125000Y-106900000D03*
X107075000Y-101300000D03*
X107725000Y-101300000D03*
X140125000Y-84300000D03*
X139475000Y-84300000D03*
X140775000Y-84300000D03*
X141425000Y-84300000D03*
X142075000Y-84300000D03*
X142725000Y-84300000D03*
X143375000Y-84300000D03*
X144025000Y-84300000D03*
X145325000Y-89900000D03*
X144675000Y-89900000D03*
X144025000Y-89900000D03*
X143375000Y-89900000D03*
X139475000Y-89900000D03*
X140125000Y-89900000D03*
X140775000Y-89900000D03*
X141425000Y-89900000D03*
X142075000Y-89900000D03*
X142725000Y-89900000D03*
X144675000Y-84300000D03*
X145325000Y-84300000D03*
X130725000Y-84300000D03*
X130075000Y-84300000D03*
X131375000Y-84300000D03*
X132025000Y-84300000D03*
X132675000Y-84300000D03*
X133325000Y-84300000D03*
X133975000Y-84300000D03*
X134625000Y-84300000D03*
X135925000Y-89900000D03*
X135275000Y-89900000D03*
X134625000Y-89900000D03*
X133975000Y-89900000D03*
X130075000Y-89900000D03*
X130725000Y-89900000D03*
X131375000Y-89900000D03*
X132025000Y-89900000D03*
X132675000Y-89900000D03*
X133325000Y-89900000D03*
X135275000Y-84300000D03*
X135925000Y-84300000D03*
X121325000Y-84300000D03*
X120675000Y-84300000D03*
X121975000Y-84300000D03*
X122625000Y-84300000D03*
X123275000Y-84300000D03*
X123925000Y-84300000D03*
X124575000Y-84300000D03*
X125225000Y-84300000D03*
X126525000Y-89900000D03*
X125875000Y-89900000D03*
X125225000Y-89900000D03*
X124575000Y-89900000D03*
X120675000Y-89900000D03*
X121325000Y-89900000D03*
X121975000Y-89900000D03*
X122625000Y-89900000D03*
X123275000Y-89900000D03*
X123925000Y-89900000D03*
X125875000Y-84300000D03*
X126525000Y-84300000D03*
X111925000Y-84300000D03*
X111275000Y-84300000D03*
X112575000Y-84300000D03*
X113225000Y-84300000D03*
X113875000Y-84300000D03*
X114525000Y-84300000D03*
X115175000Y-84300000D03*
X115825000Y-84300000D03*
X117125000Y-89900000D03*
X116475000Y-89900000D03*
X115825000Y-89900000D03*
X115175000Y-89900000D03*
X111275000Y-89900000D03*
X111925000Y-89900000D03*
X112575000Y-89900000D03*
X113225000Y-89900000D03*
X113875000Y-89900000D03*
X114525000Y-89900000D03*
X116475000Y-84300000D03*
X117125000Y-84300000D03*
X102525000Y-84300000D03*
X101875000Y-84300000D03*
X103175000Y-84300000D03*
X103825000Y-84300000D03*
X104475000Y-84300000D03*
X105125000Y-84300000D03*
X105775000Y-84300000D03*
X106425000Y-84300000D03*
X107725000Y-89900000D03*
X107075000Y-89900000D03*
X106425000Y-89900000D03*
X105775000Y-89900000D03*
X101875000Y-89900000D03*
X102525000Y-89900000D03*
X103175000Y-89900000D03*
X103825000Y-89900000D03*
X104475000Y-89900000D03*
X105125000Y-89900000D03*
X107075000Y-84300000D03*
X107725000Y-84300000D03*
X140125000Y-67300000D03*
X139475000Y-67300000D03*
X140775000Y-67300000D03*
X141425000Y-67300000D03*
X142075000Y-67300000D03*
X142725000Y-67300000D03*
X143375000Y-67300000D03*
X144025000Y-67300000D03*
X145325000Y-72900000D03*
X144675000Y-72900000D03*
X144025000Y-72900000D03*
X143375000Y-72900000D03*
X139475000Y-72900000D03*
X140125000Y-72900000D03*
X140775000Y-72900000D03*
X141425000Y-72900000D03*
X142075000Y-72900000D03*
X142725000Y-72900000D03*
X144675000Y-67300000D03*
X145325000Y-67300000D03*
X130725000Y-67300000D03*
X130075000Y-67300000D03*
X131375000Y-67300000D03*
X132025000Y-67300000D03*
X132675000Y-67300000D03*
X133325000Y-67300000D03*
X133975000Y-67300000D03*
X134625000Y-67300000D03*
X135925000Y-72900000D03*
X135275000Y-72900000D03*
X134625000Y-72900000D03*
X133975000Y-72900000D03*
X130075000Y-72900000D03*
X130725000Y-72900000D03*
X131375000Y-72900000D03*
X132025000Y-72900000D03*
X132675000Y-72900000D03*
X133325000Y-72900000D03*
X135275000Y-67300000D03*
X135925000Y-67300000D03*
X121325000Y-67300000D03*
X120675000Y-67300000D03*
X121975000Y-67300000D03*
X122625000Y-67300000D03*
X123275000Y-67300000D03*
X123925000Y-67300000D03*
X124575000Y-67300000D03*
X125225000Y-67300000D03*
X126525000Y-72900000D03*
X125875000Y-72900000D03*
X125225000Y-72900000D03*
X124575000Y-72900000D03*
X120675000Y-72900000D03*
X121325000Y-72900000D03*
X121975000Y-72900000D03*
X122625000Y-72900000D03*
X123275000Y-72900000D03*
X123925000Y-72900000D03*
X125875000Y-67300000D03*
X126525000Y-67300000D03*
X111925000Y-67300000D03*
X111275000Y-67300000D03*
X112575000Y-67300000D03*
X113225000Y-67300000D03*
X113875000Y-67300000D03*
X114525000Y-67300000D03*
X115175000Y-67300000D03*
X115825000Y-67300000D03*
X117125000Y-72900000D03*
X116475000Y-72900000D03*
X115825000Y-72900000D03*
X115175000Y-72900000D03*
X111275000Y-72900000D03*
X111925000Y-72900000D03*
X112575000Y-72900000D03*
X113225000Y-72900000D03*
X113875000Y-72900000D03*
X114525000Y-72900000D03*
X116475000Y-67300000D03*
X117125000Y-67300000D03*
X102525000Y-67300000D03*
X101875000Y-67300000D03*
X103175000Y-67300000D03*
X103825000Y-67300000D03*
X104475000Y-67300000D03*
X105125000Y-67300000D03*
X105775000Y-67300000D03*
X106425000Y-67300000D03*
X107725000Y-72900000D03*
X107075000Y-72900000D03*
X106425000Y-72900000D03*
X105775000Y-72900000D03*
X101875000Y-72900000D03*
X102525000Y-72900000D03*
X103175000Y-72900000D03*
X103825000Y-72900000D03*
X104475000Y-72900000D03*
X105125000Y-72900000D03*
X107075000Y-67300000D03*
X107725000Y-67300000D03*
X140125000Y-50300000D03*
X139475000Y-50300000D03*
X140775000Y-50300000D03*
X141425000Y-50300000D03*
X142075000Y-50300000D03*
X142725000Y-50300000D03*
X143375000Y-50300000D03*
X144025000Y-50300000D03*
X145325000Y-55900000D03*
X144675000Y-55900000D03*
X144025000Y-55900000D03*
X143375000Y-55900000D03*
X139475000Y-55900000D03*
X140125000Y-55900000D03*
X140775000Y-55900000D03*
X141425000Y-55900000D03*
X142075000Y-55900000D03*
X142725000Y-55900000D03*
X144675000Y-50300000D03*
X145325000Y-50300000D03*
X130725000Y-50300000D03*
X130075000Y-50300000D03*
X131375000Y-50300000D03*
X132025000Y-50300000D03*
X132675000Y-50300000D03*
X133325000Y-50300000D03*
X133975000Y-50300000D03*
X134625000Y-50300000D03*
X135925000Y-55900000D03*
X135275000Y-55900000D03*
X134625000Y-55900000D03*
X133975000Y-55900000D03*
X130075000Y-55900000D03*
X130725000Y-55900000D03*
X131375000Y-55900000D03*
X132025000Y-55900000D03*
X132675000Y-55900000D03*
X133325000Y-55900000D03*
X135275000Y-50300000D03*
X135925000Y-50300000D03*
X121325000Y-50300000D03*
X120675000Y-50300000D03*
X121975000Y-50300000D03*
X122625000Y-50300000D03*
X123275000Y-50300000D03*
X123925000Y-50300000D03*
X124575000Y-50300000D03*
X125225000Y-50300000D03*
X126525000Y-55900000D03*
X125875000Y-55900000D03*
X125225000Y-55900000D03*
X124575000Y-55900000D03*
X120675000Y-55900000D03*
X121325000Y-55900000D03*
X121975000Y-55900000D03*
X122625000Y-55900000D03*
X123275000Y-55900000D03*
X123925000Y-55900000D03*
X125875000Y-50300000D03*
X126525000Y-50300000D03*
X111925000Y-50300000D03*
X111275000Y-50300000D03*
X112575000Y-50300000D03*
X113225000Y-50300000D03*
X113875000Y-50300000D03*
X114525000Y-50300000D03*
X115175000Y-50300000D03*
X115825000Y-50300000D03*
X117125000Y-55900000D03*
X116475000Y-55900000D03*
X115825000Y-55900000D03*
X115175000Y-55900000D03*
X111275000Y-55900000D03*
X111925000Y-55900000D03*
X112575000Y-55900000D03*
X113225000Y-55900000D03*
X113875000Y-55900000D03*
X114525000Y-55900000D03*
X116475000Y-50300000D03*
X117125000Y-50300000D03*
D14*
X138950000Y-126300000D03*
X140050000Y-126300000D03*
X129550000Y-126300000D03*
X130650000Y-126300000D03*
X120150000Y-126300000D03*
X121250000Y-126300000D03*
X110750000Y-126300000D03*
X111850000Y-126300000D03*
X101350000Y-126300000D03*
X102450000Y-126300000D03*
X138950000Y-109300000D03*
X140050000Y-109300000D03*
X129550000Y-109300000D03*
X130650000Y-109300000D03*
X120150000Y-109300000D03*
X121250000Y-109300000D03*
X110750000Y-109300000D03*
X111850000Y-109300000D03*
X101350000Y-109300000D03*
X102450000Y-109300000D03*
X138950000Y-92300000D03*
X140050000Y-92300000D03*
X129550000Y-92300000D03*
X130650000Y-92300000D03*
X120150000Y-92300000D03*
X121250000Y-92300000D03*
X110750000Y-92300000D03*
X111850000Y-92300000D03*
X101350000Y-92300000D03*
X102450000Y-92300000D03*
X138950000Y-75300000D03*
X140050000Y-75300000D03*
X129550000Y-75300000D03*
X130650000Y-75300000D03*
X120150000Y-75300000D03*
X121250000Y-75300000D03*
X110750000Y-75300000D03*
X111850000Y-75300000D03*
X101350000Y-75300000D03*
X102450000Y-75300000D03*
X138950000Y-58300000D03*
X140050000Y-58300000D03*
X129550000Y-58300000D03*
X130650000Y-58300000D03*
X120150000Y-58300000D03*
X121250000Y-58300000D03*
X110750000Y-58300000D03*
X111850000Y-58300000D03*
D10*
X143900000Y-128500000D03*
X144900000Y-128500000D03*
X141900000Y-128500000D03*
X142900000Y-128500000D03*
X140900000Y-128500000D03*
D11*
X138600000Y-132375000D03*
X146200000Y-132375000D03*
D10*
X139900000Y-128500000D03*
D12*
X140500000Y-132100000D03*
X144300000Y-132100000D03*
X143700000Y-130400000D03*
X145500000Y-130400000D03*
X141100000Y-130400000D03*
X139300000Y-130400000D03*
D10*
X134500000Y-128500000D03*
X135500000Y-128500000D03*
X132500000Y-128500000D03*
X133500000Y-128500000D03*
X131500000Y-128500000D03*
D11*
X129200000Y-132375000D03*
X136800000Y-132375000D03*
D10*
X130500000Y-128500000D03*
D12*
X131100000Y-132100000D03*
X134900000Y-132100000D03*
X134300000Y-130400000D03*
X136100000Y-130400000D03*
X131700000Y-130400000D03*
X129900000Y-130400000D03*
D10*
X125100000Y-128500000D03*
X126100000Y-128500000D03*
X123100000Y-128500000D03*
X124100000Y-128500000D03*
X122100000Y-128500000D03*
D11*
X119800000Y-132375000D03*
X127400000Y-132375000D03*
D10*
X121100000Y-128500000D03*
D12*
X121700000Y-132100000D03*
X125500000Y-132100000D03*
X124900000Y-130400000D03*
X126700000Y-130400000D03*
X122300000Y-130400000D03*
X120500000Y-130400000D03*
D10*
X115700000Y-128500000D03*
X116700000Y-128500000D03*
X113700000Y-128500000D03*
X114700000Y-128500000D03*
X112700000Y-128500000D03*
D11*
X110400000Y-132375000D03*
X118000000Y-132375000D03*
D10*
X111700000Y-128500000D03*
D12*
X112300000Y-132100000D03*
X116100000Y-132100000D03*
X115500000Y-130400000D03*
X117300000Y-130400000D03*
X112900000Y-130400000D03*
X111100000Y-130400000D03*
D10*
X106300000Y-128500000D03*
X107300000Y-128500000D03*
X104300000Y-128500000D03*
X105300000Y-128500000D03*
X103300000Y-128500000D03*
D11*
X101000000Y-132375000D03*
X108600000Y-132375000D03*
D10*
X102300000Y-128500000D03*
D12*
X102900000Y-132100000D03*
X106700000Y-132100000D03*
X106100000Y-130400000D03*
X107900000Y-130400000D03*
X103500000Y-130400000D03*
X101700000Y-130400000D03*
D10*
X143900000Y-111500000D03*
X144900000Y-111500000D03*
X141900000Y-111500000D03*
X142900000Y-111500000D03*
X140900000Y-111500000D03*
D11*
X138600000Y-115375000D03*
X146200000Y-115375000D03*
D10*
X139900000Y-111500000D03*
D12*
X140500000Y-115100000D03*
X144300000Y-115100000D03*
X143700000Y-113400000D03*
X145500000Y-113400000D03*
X141100000Y-113400000D03*
X139300000Y-113400000D03*
D10*
X134500000Y-111500000D03*
X135500000Y-111500000D03*
X132500000Y-111500000D03*
X133500000Y-111500000D03*
X131500000Y-111500000D03*
D11*
X129200000Y-115375000D03*
X136800000Y-115375000D03*
D10*
X130500000Y-111500000D03*
D12*
X131100000Y-115100000D03*
X134900000Y-115100000D03*
X134300000Y-113400000D03*
X136100000Y-113400000D03*
X131700000Y-113400000D03*
X129900000Y-113400000D03*
D10*
X125100000Y-111500000D03*
X126100000Y-111500000D03*
X123100000Y-111500000D03*
X124100000Y-111500000D03*
X122100000Y-111500000D03*
D11*
X119800000Y-115375000D03*
X127400000Y-115375000D03*
D10*
X121100000Y-111500000D03*
D12*
X121700000Y-115100000D03*
X125500000Y-115100000D03*
X124900000Y-113400000D03*
X126700000Y-113400000D03*
X122300000Y-113400000D03*
X120500000Y-113400000D03*
D10*
X115700000Y-111500000D03*
X116700000Y-111500000D03*
X113700000Y-111500000D03*
X114700000Y-111500000D03*
X112700000Y-111500000D03*
D11*
X110400000Y-115375000D03*
X118000000Y-115375000D03*
D10*
X111700000Y-111500000D03*
D12*
X112300000Y-115100000D03*
X116100000Y-115100000D03*
X115500000Y-113400000D03*
X117300000Y-113400000D03*
X112900000Y-113400000D03*
X111100000Y-113400000D03*
D10*
X106300000Y-111500000D03*
X107300000Y-111500000D03*
X104300000Y-111500000D03*
X105300000Y-111500000D03*
X103300000Y-111500000D03*
D11*
X101000000Y-115375000D03*
X108600000Y-115375000D03*
D10*
X102300000Y-111500000D03*
D12*
X102900000Y-115100000D03*
X106700000Y-115100000D03*
X106100000Y-113400000D03*
X107900000Y-113400000D03*
X103500000Y-113400000D03*
X101700000Y-113400000D03*
D10*
X143900000Y-94500000D03*
X144900000Y-94500000D03*
X141900000Y-94500000D03*
X142900000Y-94500000D03*
X140900000Y-94500000D03*
D11*
X138600000Y-98375000D03*
X146200000Y-98375000D03*
D10*
X139900000Y-94500000D03*
D12*
X140500000Y-98100000D03*
X144300000Y-98100000D03*
X143700000Y-96400000D03*
X145500000Y-96400000D03*
X141100000Y-96400000D03*
X139300000Y-96400000D03*
D10*
X134500000Y-94500000D03*
X135500000Y-94500000D03*
X132500000Y-94500000D03*
X133500000Y-94500000D03*
X131500000Y-94500000D03*
D11*
X129200000Y-98375000D03*
X136800000Y-98375000D03*
D10*
X130500000Y-94500000D03*
D12*
X131100000Y-98100000D03*
X134900000Y-98100000D03*
X134300000Y-96400000D03*
X136100000Y-96400000D03*
X131700000Y-96400000D03*
X129900000Y-96400000D03*
D10*
X125100000Y-94500000D03*
X126100000Y-94500000D03*
X123100000Y-94500000D03*
X124100000Y-94500000D03*
X122100000Y-94500000D03*
D11*
X119800000Y-98375000D03*
X127400000Y-98375000D03*
D10*
X121100000Y-94500000D03*
D12*
X121700000Y-98100000D03*
X125500000Y-98100000D03*
X124900000Y-96400000D03*
X126700000Y-96400000D03*
X122300000Y-96400000D03*
X120500000Y-96400000D03*
D10*
X115700000Y-94500000D03*
X116700000Y-94500000D03*
X113700000Y-94500000D03*
X114700000Y-94500000D03*
X112700000Y-94500000D03*
D11*
X110400000Y-98375000D03*
X118000000Y-98375000D03*
D10*
X111700000Y-94500000D03*
D12*
X112300000Y-98100000D03*
X116100000Y-98100000D03*
X115500000Y-96400000D03*
X117300000Y-96400000D03*
X112900000Y-96400000D03*
X111100000Y-96400000D03*
D10*
X106300000Y-94500000D03*
X107300000Y-94500000D03*
X104300000Y-94500000D03*
X105300000Y-94500000D03*
X103300000Y-94500000D03*
D11*
X101000000Y-98375000D03*
X108600000Y-98375000D03*
D10*
X102300000Y-94500000D03*
D12*
X102900000Y-98100000D03*
X106700000Y-98100000D03*
X106100000Y-96400000D03*
X107900000Y-96400000D03*
X103500000Y-96400000D03*
X101700000Y-96400000D03*
D10*
X143900000Y-77500000D03*
X144900000Y-77500000D03*
X141900000Y-77500000D03*
X142900000Y-77500000D03*
X140900000Y-77500000D03*
D11*
X138600000Y-81375000D03*
X146200000Y-81375000D03*
D10*
X139900000Y-77500000D03*
D12*
X140500000Y-81100000D03*
X144300000Y-81100000D03*
X143700000Y-79400000D03*
X145500000Y-79400000D03*
X141100000Y-79400000D03*
X139300000Y-79400000D03*
D10*
X134500000Y-77500000D03*
X135500000Y-77500000D03*
X132500000Y-77500000D03*
X133500000Y-77500000D03*
X131500000Y-77500000D03*
D11*
X129200000Y-81375000D03*
X136800000Y-81375000D03*
D10*
X130500000Y-77500000D03*
D12*
X131100000Y-81100000D03*
X134900000Y-81100000D03*
X134300000Y-79400000D03*
X136100000Y-79400000D03*
X131700000Y-79400000D03*
X129900000Y-79400000D03*
D10*
X125100000Y-77500000D03*
X126100000Y-77500000D03*
X123100000Y-77500000D03*
X124100000Y-77500000D03*
X122100000Y-77500000D03*
D11*
X119800000Y-81375000D03*
X127400000Y-81375000D03*
D10*
X121100000Y-77500000D03*
D12*
X121700000Y-81100000D03*
X125500000Y-81100000D03*
X124900000Y-79400000D03*
X126700000Y-79400000D03*
X122300000Y-79400000D03*
X120500000Y-79400000D03*
D10*
X115700000Y-77500000D03*
X116700000Y-77500000D03*
X113700000Y-77500000D03*
X114700000Y-77500000D03*
X112700000Y-77500000D03*
D11*
X110400000Y-81375000D03*
X118000000Y-81375000D03*
D10*
X111700000Y-77500000D03*
D12*
X112300000Y-81100000D03*
X116100000Y-81100000D03*
X115500000Y-79400000D03*
X117300000Y-79400000D03*
X112900000Y-79400000D03*
X111100000Y-79400000D03*
D10*
X106300000Y-77500000D03*
X107300000Y-77500000D03*
X104300000Y-77500000D03*
X105300000Y-77500000D03*
X103300000Y-77500000D03*
D11*
X101000000Y-81375000D03*
X108600000Y-81375000D03*
D10*
X102300000Y-77500000D03*
D12*
X102900000Y-81100000D03*
X106700000Y-81100000D03*
X106100000Y-79400000D03*
X107900000Y-79400000D03*
X103500000Y-79400000D03*
X101700000Y-79400000D03*
D10*
X143900000Y-60500000D03*
X144900000Y-60500000D03*
X141900000Y-60500000D03*
X142900000Y-60500000D03*
X140900000Y-60500000D03*
D11*
X138600000Y-64375000D03*
X146200000Y-64375000D03*
D10*
X139900000Y-60500000D03*
D12*
X140500000Y-64100000D03*
X144300000Y-64100000D03*
X143700000Y-62400000D03*
X145500000Y-62400000D03*
X141100000Y-62400000D03*
X139300000Y-62400000D03*
D10*
X134500000Y-60500000D03*
X135500000Y-60500000D03*
X132500000Y-60500000D03*
X133500000Y-60500000D03*
X131500000Y-60500000D03*
D11*
X129200000Y-64375000D03*
X136800000Y-64375000D03*
D10*
X130500000Y-60500000D03*
D12*
X131100000Y-64100000D03*
X134900000Y-64100000D03*
X134300000Y-62400000D03*
X136100000Y-62400000D03*
X131700000Y-62400000D03*
X129900000Y-62400000D03*
D10*
X125100000Y-60500000D03*
X126100000Y-60500000D03*
X123100000Y-60500000D03*
X124100000Y-60500000D03*
X122100000Y-60500000D03*
D11*
X119800000Y-64375000D03*
X127400000Y-64375000D03*
D10*
X121100000Y-60500000D03*
D12*
X121700000Y-64100000D03*
X125500000Y-64100000D03*
X124900000Y-62400000D03*
X126700000Y-62400000D03*
X122300000Y-62400000D03*
X120500000Y-62400000D03*
D10*
X115700000Y-60500000D03*
X116700000Y-60500000D03*
X113700000Y-60500000D03*
X114700000Y-60500000D03*
X112700000Y-60500000D03*
D11*
X110400000Y-64375000D03*
X118000000Y-64375000D03*
D10*
X111700000Y-60500000D03*
D12*
X112300000Y-64100000D03*
X116100000Y-64100000D03*
X115500000Y-62400000D03*
X117300000Y-62400000D03*
X112900000Y-62400000D03*
X111100000Y-62400000D03*
D13*
X102525000Y-50300000D03*
X101875000Y-50300000D03*
X103175000Y-50300000D03*
X103825000Y-50300000D03*
X104475000Y-50300000D03*
X105125000Y-50300000D03*
X105775000Y-50300000D03*
X106425000Y-50300000D03*
X107725000Y-55900000D03*
X107075000Y-55900000D03*
X106425000Y-55900000D03*
X105775000Y-55900000D03*
X101875000Y-55900000D03*
X102525000Y-55900000D03*
X103175000Y-55900000D03*
X103825000Y-55900000D03*
X104475000Y-55900000D03*
X105125000Y-55900000D03*
X107075000Y-50300000D03*
X107725000Y-50300000D03*
D14*
X101350000Y-58300000D03*
X102450000Y-58300000D03*
D10*
X106300000Y-60500000D03*
X107300000Y-60500000D03*
X104300000Y-60500000D03*
X105300000Y-60500000D03*
X103300000Y-60500000D03*
D11*
X101000000Y-64375000D03*
X108600000Y-64375000D03*
D10*
X102300000Y-60500000D03*
D12*
X102900000Y-64100000D03*
X106700000Y-64100000D03*
X106100000Y-62400000D03*
X107900000Y-62400000D03*
X103500000Y-62400000D03*
X101700000Y-62400000D03*
D15*
X169286000Y-105200000D03*
X178686000Y-105200000D03*
X169286000Y-122200000D03*
X178686000Y-122200000D03*
X178786000Y-58300000D03*
X173086000Y-75600000D03*
X182486000Y-75600000D03*
X171386000Y-108600000D03*
X173086000Y-92600000D03*
X182486000Y-92600000D03*
X173086000Y-109600000D03*
X182486000Y-109600000D03*
X173086000Y-126600000D03*
X182486000Y-126600000D03*
X171386000Y-74600000D03*
X180786000Y-74600000D03*
X171386000Y-91600000D03*
X180786000Y-91600000D03*
X169386000Y-75300000D03*
X178786000Y-75300000D03*
X180786000Y-108600000D03*
X171386000Y-125600000D03*
X180786000Y-125600000D03*
X182486000Y-58600000D03*
X169286000Y-54200000D03*
X170186000Y-52100000D03*
X169386000Y-58300000D03*
X173086000Y-58600000D03*
X171386000Y-57600000D03*
X169386000Y-92300000D03*
X178786000Y-92300000D03*
X169386000Y-109300000D03*
X178786000Y-109300000D03*
X169386000Y-126300000D03*
X178786000Y-126300000D03*
X180786000Y-57600000D03*
X170186000Y-120100000D03*
X179586000Y-120100000D03*
X178686000Y-54200000D03*
X169286000Y-71200000D03*
X178686000Y-71200000D03*
X169286000Y-88200000D03*
X178686000Y-88200000D03*
X179586000Y-86100000D03*
X170186000Y-103100000D03*
X179586000Y-103100000D03*
X179586000Y-52100000D03*
X170186000Y-69100000D03*
X179586000Y-69100000D03*
X170186000Y-86100000D03*
X151390000Y-52100000D03*
X150590000Y-58300000D03*
X154290000Y-58600000D03*
X152590000Y-57600000D03*
X150590000Y-92300000D03*
X159990000Y-92300000D03*
X150590000Y-109300000D03*
X159990000Y-109300000D03*
X150590000Y-126300000D03*
X159990000Y-126300000D03*
X161990000Y-57600000D03*
X151390000Y-120100000D03*
X160790000Y-120100000D03*
X159890000Y-54200000D03*
X150490000Y-71200000D03*
X159890000Y-71200000D03*
X150490000Y-88200000D03*
X159890000Y-88200000D03*
X150490000Y-105200000D03*
X159890000Y-105200000D03*
X150490000Y-122200000D03*
X159890000Y-122200000D03*
X159990000Y-58300000D03*
X154290000Y-75600000D03*
X163690000Y-75600000D03*
X152590000Y-108600000D03*
X154290000Y-92600000D03*
X163690000Y-92600000D03*
X154290000Y-109600000D03*
X163690000Y-109600000D03*
X154290000Y-126600000D03*
X163690000Y-126600000D03*
X152590000Y-74600000D03*
X161990000Y-74600000D03*
X152590000Y-91600000D03*
X161990000Y-91600000D03*
X150590000Y-75300000D03*
X159990000Y-75300000D03*
X161990000Y-108600000D03*
X152590000Y-125600000D03*
X161990000Y-125600000D03*
X163690000Y-58600000D03*
X150490000Y-54200000D03*
X160790000Y-52100000D03*
X151390000Y-69100000D03*
X160790000Y-69100000D03*
X151390000Y-86100000D03*
X160790000Y-86100000D03*
X151390000Y-103100000D03*
X160790000Y-103100000D03*
X144900000Y-126600000D03*
X135500000Y-126600000D03*
X126100000Y-126600000D03*
X116700000Y-126600000D03*
X107300000Y-126600000D03*
X144900000Y-109600000D03*
X135500000Y-109600000D03*
X126100000Y-109600000D03*
X116700000Y-109600000D03*
X107300000Y-109600000D03*
X144900000Y-92600000D03*
X135500000Y-92600000D03*
X126100000Y-92600000D03*
X116700000Y-92600000D03*
X107300000Y-92600000D03*
X144900000Y-75600000D03*
X135500000Y-75600000D03*
X126100000Y-75600000D03*
X116700000Y-75600000D03*
X107300000Y-75600000D03*
X144900000Y-58600000D03*
X135500000Y-58600000D03*
X126100000Y-58600000D03*
X116700000Y-58600000D03*
X143200000Y-125600000D03*
X133800000Y-125600000D03*
X124400000Y-125600000D03*
X115000000Y-125600000D03*
X105600000Y-125600000D03*
X143200000Y-108600000D03*
X133800000Y-108600000D03*
X124400000Y-108600000D03*
X115000000Y-108600000D03*
X105600000Y-108600000D03*
X143200000Y-91600000D03*
X133800000Y-91600000D03*
X124400000Y-91600000D03*
X115000000Y-91600000D03*
X105600000Y-91600000D03*
X143200000Y-74600000D03*
X133800000Y-74600000D03*
X124400000Y-74600000D03*
X115000000Y-74600000D03*
X105600000Y-74600000D03*
X143200000Y-57600000D03*
X133800000Y-57600000D03*
X124400000Y-57600000D03*
X115000000Y-57600000D03*
X141200000Y-126300000D03*
X131800000Y-126300000D03*
X122400000Y-126300000D03*
X113000000Y-126300000D03*
X103600000Y-126300000D03*
X141200000Y-109300000D03*
X131800000Y-109300000D03*
X122400000Y-109300000D03*
X113000000Y-109300000D03*
X103600000Y-109300000D03*
X141200000Y-92300000D03*
X131800000Y-92300000D03*
X122400000Y-92300000D03*
X113000000Y-92300000D03*
X103600000Y-92300000D03*
X141200000Y-75300000D03*
X131800000Y-75300000D03*
X122400000Y-75300000D03*
X113000000Y-75300000D03*
X103600000Y-75300000D03*
X141200000Y-58300000D03*
X131800000Y-58300000D03*
X122400000Y-58300000D03*
X113000000Y-58300000D03*
X141100000Y-122200000D03*
X131700000Y-122200000D03*
X122300000Y-122200000D03*
X112900000Y-122200000D03*
X103500000Y-122200000D03*
X141100000Y-105200000D03*
X131700000Y-105200000D03*
X122300000Y-105200000D03*
X112900000Y-105200000D03*
X103500000Y-105200000D03*
X141100000Y-88200000D03*
X131700000Y-88200000D03*
X122300000Y-88200000D03*
X112900000Y-88200000D03*
X103500000Y-88200000D03*
X141100000Y-71200000D03*
X131700000Y-71200000D03*
X122300000Y-71200000D03*
X112900000Y-71200000D03*
X103500000Y-71200000D03*
X141100000Y-54200000D03*
X131700000Y-54200000D03*
X122300000Y-54200000D03*
X112900000Y-54200000D03*
X142000000Y-120100000D03*
X132600000Y-120100000D03*
X123200000Y-120100000D03*
X113800000Y-120100000D03*
X104400000Y-120100000D03*
X142000000Y-103100000D03*
X132600000Y-103100000D03*
X123200000Y-103100000D03*
X113800000Y-103100000D03*
X104400000Y-103100000D03*
X142000000Y-86100000D03*
X132600000Y-86100000D03*
X123200000Y-86100000D03*
X113800000Y-86100000D03*
X104400000Y-86100000D03*
X142000000Y-69100000D03*
X132600000Y-69100000D03*
X123200000Y-69100000D03*
X113800000Y-69100000D03*
X104400000Y-69100000D03*
X142000000Y-52100000D03*
X132600000Y-52100000D03*
X123200000Y-52100000D03*
X113800000Y-52100000D03*
X103500000Y-54200000D03*
X105600000Y-57600000D03*
X107300000Y-58600000D03*
X103600000Y-58300000D03*
X104400000Y-52100000D03*
X169286000Y-108400000D03*
X178686000Y-108400000D03*
X169286000Y-125400000D03*
X178686000Y-125400000D03*
X169286000Y-91400000D03*
X178686000Y-91400000D03*
X169286000Y-57400000D03*
X178686000Y-59100000D03*
X169286000Y-76100000D03*
X178686000Y-76100000D03*
X169286000Y-93100000D03*
X178686000Y-93100000D03*
X169286000Y-110100000D03*
X178686000Y-110100000D03*
X169286000Y-127100000D03*
X178686000Y-127100000D03*
X178686000Y-57400000D03*
X169286000Y-74400000D03*
X178686000Y-74400000D03*
X169286000Y-59100000D03*
X150490000Y-127100000D03*
X159890000Y-127100000D03*
X159890000Y-57400000D03*
X150490000Y-74400000D03*
X159890000Y-74400000D03*
X150490000Y-108400000D03*
X159890000Y-108400000D03*
X150490000Y-125400000D03*
X159890000Y-125400000D03*
X150490000Y-91400000D03*
X159890000Y-91400000D03*
X150490000Y-57400000D03*
X159890000Y-59100000D03*
X150490000Y-76100000D03*
X159890000Y-76100000D03*
X150490000Y-93100000D03*
X159890000Y-93100000D03*
X150490000Y-110100000D03*
X159890000Y-110100000D03*
X150490000Y-59100000D03*
X141100000Y-125400000D03*
X131700000Y-125400000D03*
X122300000Y-125400000D03*
X112900000Y-125400000D03*
X103500000Y-125400000D03*
X141100000Y-108400000D03*
X131700000Y-108400000D03*
X122300000Y-108400000D03*
X112900000Y-108400000D03*
X103500000Y-108400000D03*
X141100000Y-91400000D03*
X131700000Y-91400000D03*
X122300000Y-91400000D03*
X112900000Y-91400000D03*
X103500000Y-91400000D03*
X141100000Y-74400000D03*
X131700000Y-74400000D03*
X122300000Y-74400000D03*
X112900000Y-74400000D03*
X103500000Y-74400000D03*
X141100000Y-57400000D03*
X131700000Y-57400000D03*
X122300000Y-57400000D03*
X112900000Y-57400000D03*
X141100000Y-127100000D03*
X131700000Y-127100000D03*
X122300000Y-127100000D03*
X112900000Y-127100000D03*
X103500000Y-127100000D03*
X141100000Y-110100000D03*
X131700000Y-110100000D03*
X122300000Y-110100000D03*
X112900000Y-110100000D03*
X103500000Y-110100000D03*
X141100000Y-93100000D03*
X131700000Y-93100000D03*
X122300000Y-93100000D03*
X112900000Y-93100000D03*
X103500000Y-93100000D03*
X141100000Y-76100000D03*
X131700000Y-76100000D03*
X122300000Y-76100000D03*
X112900000Y-76100000D03*
X103500000Y-76100000D03*
X141100000Y-59100000D03*
X131700000Y-59100000D03*
X122300000Y-59100000D03*
X112900000Y-59100000D03*
X103500000Y-57400000D03*
X103500000Y-59100000D03*
D16*
X167136000Y-125550000D02*
X167661000Y-125025000D01*
X176536000Y-125550000D02*
X177061000Y-125025000D01*
X177061000Y-57025000D02*
X177061000Y-55900000D01*
X167661000Y-74025000D02*
X167661000Y-72900000D01*
X177061000Y-74025000D02*
X177061000Y-72900000D01*
X167661000Y-91025000D02*
X167661000Y-89900000D01*
X180311000Y-120975000D02*
X179986000Y-121300000D01*
X176536000Y-58300000D02*
X176536000Y-57550000D01*
X167136000Y-75300000D02*
X167136000Y-74550000D01*
X176536000Y-75300000D02*
X176536000Y-74550000D01*
X167136000Y-92300000D02*
X167136000Y-91550000D01*
X176536000Y-92300000D02*
X176536000Y-91550000D01*
X167661000Y-70300000D02*
X167661000Y-67300000D01*
X177061000Y-70300000D02*
X177061000Y-67300000D01*
X167661000Y-87300000D02*
X167661000Y-84300000D01*
X177061000Y-87300000D02*
X177061000Y-84300000D01*
X167661000Y-104300000D02*
X167661000Y-101300000D01*
X177061000Y-104300000D02*
X177061000Y-101300000D01*
X170911000Y-69975000D02*
X170586000Y-70300000D01*
X180311000Y-69975000D02*
X179986000Y-70300000D01*
X170911000Y-86975000D02*
X170586000Y-87300000D01*
X180311000Y-86975000D02*
X179986000Y-87300000D01*
X170911000Y-103975000D02*
X170586000Y-104300000D01*
X180311000Y-103975000D02*
X179986000Y-104300000D01*
X170911000Y-120975000D02*
X170586000Y-121300000D01*
X168086000Y-111500000D02*
X167886000Y-111500000D01*
X177486000Y-111500000D02*
X177286000Y-111500000D01*
X168086000Y-128500000D02*
X167886000Y-128500000D01*
X177486000Y-128500000D02*
X177286000Y-128500000D01*
X167136000Y-76750000D02*
X167136000Y-75300000D01*
X176536000Y-76750000D02*
X176536000Y-75300000D01*
X168086000Y-95800000D02*
X168086000Y-94500000D01*
X177486000Y-95800000D02*
X177486000Y-94500000D01*
X167486000Y-79400000D02*
X168086000Y-78800000D01*
X176886000Y-79400000D02*
X177486000Y-78800000D01*
X177486000Y-112800000D02*
X177486000Y-111500000D01*
X168086000Y-129800000D02*
X168086000Y-128500000D01*
X177486000Y-129800000D02*
X177486000Y-128500000D01*
X176886000Y-62400000D02*
X176986000Y-62400000D01*
X167486000Y-79400000D02*
X167586000Y-79400000D01*
X168086000Y-112800000D02*
X168086000Y-111500000D01*
X167486000Y-96400000D02*
X167586000Y-96400000D01*
X176886000Y-96400000D02*
X176986000Y-96400000D01*
X177286000Y-128500000D02*
X176536000Y-127750000D01*
X177486000Y-60500000D02*
X177286000Y-60500000D01*
X168086000Y-77500000D02*
X167886000Y-77500000D01*
X177486000Y-77500000D02*
X177286000Y-77500000D01*
X168086000Y-94500000D02*
X167886000Y-94500000D01*
X177486000Y-94500000D02*
X177286000Y-94500000D01*
X167136000Y-110750000D02*
X167136000Y-109300000D01*
X167661000Y-72900000D02*
X167661000Y-70300000D01*
X177061000Y-72900000D02*
X177061000Y-70300000D01*
X167661000Y-89900000D02*
X167661000Y-87300000D01*
X177061000Y-89900000D02*
X177061000Y-87300000D01*
X167661000Y-106900000D02*
X167661000Y-104300000D01*
X177061000Y-106900000D02*
X177061000Y-104300000D01*
X167486000Y-130400000D02*
X168086000Y-129800000D01*
X176886000Y-130400000D02*
X177486000Y-129800000D01*
X177486000Y-61800000D02*
X177486000Y-60500000D01*
X168086000Y-78800000D02*
X168086000Y-77500000D01*
X177486000Y-78800000D02*
X177486000Y-77500000D01*
X167486000Y-62400000D02*
X167586000Y-62400000D01*
X167136000Y-59750000D02*
X167136000Y-58300000D01*
X167886000Y-60500000D02*
X167136000Y-59750000D01*
X168086000Y-60500000D02*
X167886000Y-60500000D01*
X167136000Y-57550000D02*
X167661000Y-57025000D01*
X167661000Y-57025000D02*
X167661000Y-55900000D01*
X167136000Y-58300000D02*
X167136000Y-57550000D01*
X167661000Y-53300000D02*
X167661000Y-50300000D01*
X167661000Y-55900000D02*
X167661000Y-53300000D01*
X170911000Y-52975000D02*
X170586000Y-53300000D01*
X170586000Y-53300000D02*
X167661000Y-53300000D01*
X170911000Y-50300000D02*
X170911000Y-52975000D01*
X168086000Y-61800000D02*
X168086000Y-60500000D01*
X167486000Y-62400000D02*
X168086000Y-61800000D01*
X167886000Y-77500000D02*
X167136000Y-76750000D01*
X177286000Y-77500000D02*
X176536000Y-76750000D01*
X167886000Y-94500000D02*
X167136000Y-93750000D01*
X177286000Y-94500000D02*
X176536000Y-93750000D01*
X167886000Y-111500000D02*
X167136000Y-110750000D01*
X177286000Y-111500000D02*
X176536000Y-110750000D01*
X167886000Y-128500000D02*
X167136000Y-127750000D01*
X167486000Y-113400000D02*
X167586000Y-113400000D01*
X176886000Y-79400000D02*
X176986000Y-79400000D01*
X176886000Y-113400000D02*
X176986000Y-113400000D01*
X167486000Y-130400000D02*
X167586000Y-130400000D01*
X176886000Y-130400000D02*
X176986000Y-130400000D01*
X170586000Y-87300000D02*
X167661000Y-87300000D01*
X179986000Y-87300000D02*
X177061000Y-87300000D01*
X170586000Y-104300000D02*
X167661000Y-104300000D01*
X179986000Y-104300000D02*
X177061000Y-104300000D01*
X170586000Y-121300000D02*
X167661000Y-121300000D01*
X179986000Y-121300000D02*
X177061000Y-121300000D01*
X177061000Y-53300000D02*
X177061000Y-50300000D01*
X177061000Y-91025000D02*
X177061000Y-89900000D01*
X167661000Y-108025000D02*
X167661000Y-106900000D01*
X177061000Y-108025000D02*
X177061000Y-106900000D01*
X167661000Y-125025000D02*
X167661000Y-123900000D01*
X177061000Y-125025000D02*
X177061000Y-123900000D01*
X177061000Y-55900000D02*
X177061000Y-53300000D01*
X167661000Y-123900000D02*
X167661000Y-121300000D01*
X177061000Y-123900000D02*
X177061000Y-121300000D01*
X179986000Y-53300000D02*
X177061000Y-53300000D01*
X176886000Y-62400000D02*
X177486000Y-61800000D01*
X167486000Y-96400000D02*
X168086000Y-95800000D01*
X176886000Y-96400000D02*
X177486000Y-95800000D01*
X167486000Y-113400000D02*
X168086000Y-112800000D01*
X176886000Y-113400000D02*
X177486000Y-112800000D01*
X170911000Y-101300000D02*
X170911000Y-103975000D01*
X180311000Y-101300000D02*
X180311000Y-103975000D01*
X170911000Y-118300000D02*
X170911000Y-120975000D01*
X180311000Y-118300000D02*
X180311000Y-120975000D01*
X180311000Y-52975000D02*
X179986000Y-53300000D01*
X167661000Y-121300000D02*
X167661000Y-118300000D01*
X177061000Y-121300000D02*
X177061000Y-118300000D01*
X180311000Y-50300000D02*
X180311000Y-52975000D01*
X170911000Y-67300000D02*
X170911000Y-69975000D01*
X180311000Y-67300000D02*
X180311000Y-69975000D01*
X170911000Y-84300000D02*
X170911000Y-86975000D01*
X180311000Y-84300000D02*
X180311000Y-86975000D01*
X167136000Y-109300000D02*
X167136000Y-108550000D01*
X176536000Y-109300000D02*
X176536000Y-108550000D01*
X167136000Y-126300000D02*
X167136000Y-125550000D01*
X176536000Y-126300000D02*
X176536000Y-125550000D01*
X176536000Y-59750000D02*
X176536000Y-58300000D01*
X170586000Y-70300000D02*
X167661000Y-70300000D01*
X179986000Y-70300000D02*
X177061000Y-70300000D01*
X167136000Y-93750000D02*
X167136000Y-92300000D01*
X176536000Y-93750000D02*
X176536000Y-92300000D01*
X176536000Y-110750000D02*
X176536000Y-109300000D01*
X167136000Y-127750000D02*
X167136000Y-126300000D01*
X176536000Y-127750000D02*
X176536000Y-126300000D01*
X177286000Y-60500000D02*
X176536000Y-59750000D01*
X176536000Y-57550000D02*
X177061000Y-57025000D01*
X167136000Y-74550000D02*
X167661000Y-74025000D01*
X176536000Y-74550000D02*
X177061000Y-74025000D01*
X167136000Y-108550000D02*
X167661000Y-108025000D01*
X176536000Y-108550000D02*
X177061000Y-108025000D01*
X167136000Y-91550000D02*
X167661000Y-91025000D01*
X176536000Y-91550000D02*
X177061000Y-91025000D01*
X148690000Y-113400000D02*
X148790000Y-113400000D01*
X158090000Y-79400000D02*
X158190000Y-79400000D01*
X158090000Y-113400000D02*
X158190000Y-113400000D01*
X148690000Y-130400000D02*
X148790000Y-130400000D01*
X158090000Y-130400000D02*
X158190000Y-130400000D01*
X151790000Y-87300000D02*
X148865000Y-87300000D01*
X161190000Y-87300000D02*
X158265000Y-87300000D01*
X151790000Y-104300000D02*
X148865000Y-104300000D01*
X161190000Y-104300000D02*
X158265000Y-104300000D01*
X151790000Y-121300000D02*
X148865000Y-121300000D01*
X161190000Y-121300000D02*
X158265000Y-121300000D01*
X158265000Y-53300000D02*
X158265000Y-50300000D01*
X158265000Y-91025000D02*
X158265000Y-89900000D01*
X148865000Y-108025000D02*
X148865000Y-106900000D01*
X158265000Y-108025000D02*
X158265000Y-106900000D01*
X148865000Y-125025000D02*
X148865000Y-123900000D01*
X158265000Y-125025000D02*
X158265000Y-123900000D01*
X158265000Y-55900000D02*
X158265000Y-53300000D01*
X148865000Y-123900000D02*
X148865000Y-121300000D01*
X158265000Y-123900000D02*
X158265000Y-121300000D01*
X161190000Y-53300000D02*
X158265000Y-53300000D01*
X158090000Y-62400000D02*
X158690000Y-61800000D01*
X148690000Y-96400000D02*
X149290000Y-95800000D01*
X158090000Y-96400000D02*
X158690000Y-95800000D01*
X148690000Y-113400000D02*
X149290000Y-112800000D01*
X158090000Y-113400000D02*
X158690000Y-112800000D01*
X148340000Y-125550000D02*
X148865000Y-125025000D01*
X157740000Y-125550000D02*
X158265000Y-125025000D01*
X158265000Y-57025000D02*
X158265000Y-55900000D01*
X148865000Y-74025000D02*
X148865000Y-72900000D01*
X158265000Y-74025000D02*
X158265000Y-72900000D01*
X148865000Y-91025000D02*
X148865000Y-89900000D01*
X161515000Y-120975000D02*
X161190000Y-121300000D01*
X157740000Y-58300000D02*
X157740000Y-57550000D01*
X148340000Y-75300000D02*
X148340000Y-74550000D01*
X157740000Y-75300000D02*
X157740000Y-74550000D01*
X148340000Y-92300000D02*
X148340000Y-91550000D01*
X157740000Y-92300000D02*
X157740000Y-91550000D01*
X148865000Y-70300000D02*
X148865000Y-67300000D01*
X158265000Y-70300000D02*
X158265000Y-67300000D01*
X148865000Y-87300000D02*
X148865000Y-84300000D01*
X158265000Y-87300000D02*
X158265000Y-84300000D01*
X148865000Y-104300000D02*
X148865000Y-101300000D01*
X158265000Y-104300000D02*
X158265000Y-101300000D01*
X152115000Y-69975000D02*
X151790000Y-70300000D01*
X161515000Y-69975000D02*
X161190000Y-70300000D01*
X152115000Y-86975000D02*
X151790000Y-87300000D01*
X161515000Y-86975000D02*
X161190000Y-87300000D01*
X152115000Y-103975000D02*
X151790000Y-104300000D01*
X161515000Y-103975000D02*
X161190000Y-104300000D01*
X152115000Y-120975000D02*
X151790000Y-121300000D01*
X152115000Y-101300000D02*
X152115000Y-103975000D01*
X161515000Y-101300000D02*
X161515000Y-103975000D01*
X152115000Y-118300000D02*
X152115000Y-120975000D01*
X161515000Y-118300000D02*
X161515000Y-120975000D01*
X161515000Y-52975000D02*
X161190000Y-53300000D01*
X148865000Y-121300000D02*
X148865000Y-118300000D01*
X158265000Y-121300000D02*
X158265000Y-118300000D01*
X161515000Y-50300000D02*
X161515000Y-52975000D01*
X152115000Y-67300000D02*
X152115000Y-69975000D01*
X161515000Y-67300000D02*
X161515000Y-69975000D01*
X152115000Y-84300000D02*
X152115000Y-86975000D01*
X161515000Y-84300000D02*
X161515000Y-86975000D01*
X148340000Y-109300000D02*
X148340000Y-108550000D01*
X157740000Y-109300000D02*
X157740000Y-108550000D01*
X148340000Y-126300000D02*
X148340000Y-125550000D01*
X157740000Y-126300000D02*
X157740000Y-125550000D01*
X157740000Y-59750000D02*
X157740000Y-58300000D01*
X151790000Y-70300000D02*
X148865000Y-70300000D01*
X161190000Y-70300000D02*
X158265000Y-70300000D01*
X148340000Y-93750000D02*
X148340000Y-92300000D01*
X157740000Y-93750000D02*
X157740000Y-92300000D01*
X157740000Y-110750000D02*
X157740000Y-109300000D01*
X148340000Y-127750000D02*
X148340000Y-126300000D01*
X157740000Y-127750000D02*
X157740000Y-126300000D01*
X158490000Y-60500000D02*
X157740000Y-59750000D01*
X148690000Y-130400000D02*
X149290000Y-129800000D01*
X158090000Y-130400000D02*
X158690000Y-129800000D01*
X158690000Y-61800000D02*
X158690000Y-60500000D01*
X149290000Y-78800000D02*
X149290000Y-77500000D01*
X158690000Y-78800000D02*
X158690000Y-77500000D01*
X148690000Y-62400000D02*
X148790000Y-62400000D01*
X148340000Y-59750000D02*
X148340000Y-58300000D01*
X149090000Y-60500000D02*
X148340000Y-59750000D01*
X149290000Y-60500000D02*
X149090000Y-60500000D01*
X148340000Y-57550000D02*
X148865000Y-57025000D01*
X148865000Y-57025000D02*
X148865000Y-55900000D01*
X148340000Y-58300000D02*
X148340000Y-57550000D01*
X148865000Y-53300000D02*
X148865000Y-50300000D01*
X148865000Y-55900000D02*
X148865000Y-53300000D01*
X152115000Y-52975000D02*
X151790000Y-53300000D01*
X151790000Y-53300000D02*
X148865000Y-53300000D01*
X152115000Y-50300000D02*
X152115000Y-52975000D01*
X149290000Y-61800000D02*
X149290000Y-60500000D01*
X148690000Y-62400000D02*
X149290000Y-61800000D01*
X149290000Y-111500000D02*
X149090000Y-111500000D01*
X158690000Y-111500000D02*
X158490000Y-111500000D01*
X149290000Y-128500000D02*
X149090000Y-128500000D01*
X158690000Y-128500000D02*
X158490000Y-128500000D01*
X148340000Y-76750000D02*
X148340000Y-75300000D01*
X157740000Y-76750000D02*
X157740000Y-75300000D01*
X149290000Y-95800000D02*
X149290000Y-94500000D01*
X158690000Y-95800000D02*
X158690000Y-94500000D01*
X148690000Y-79400000D02*
X149290000Y-78800000D01*
X158090000Y-79400000D02*
X158690000Y-78800000D01*
X158690000Y-112800000D02*
X158690000Y-111500000D01*
X149290000Y-129800000D02*
X149290000Y-128500000D01*
X158690000Y-129800000D02*
X158690000Y-128500000D01*
X158090000Y-62400000D02*
X158190000Y-62400000D01*
X148690000Y-79400000D02*
X148790000Y-79400000D01*
X149290000Y-112800000D02*
X149290000Y-111500000D01*
X148690000Y-96400000D02*
X148790000Y-96400000D01*
X158090000Y-96400000D02*
X158190000Y-96400000D01*
X158490000Y-128500000D02*
X157740000Y-127750000D01*
X158690000Y-60500000D02*
X158490000Y-60500000D01*
X149290000Y-77500000D02*
X149090000Y-77500000D01*
X158690000Y-77500000D02*
X158490000Y-77500000D01*
X149290000Y-94500000D02*
X149090000Y-94500000D01*
X158690000Y-94500000D02*
X158490000Y-94500000D01*
X148340000Y-110750000D02*
X148340000Y-109300000D01*
X148865000Y-72900000D02*
X148865000Y-70300000D01*
X158265000Y-72900000D02*
X158265000Y-70300000D01*
X148865000Y-89900000D02*
X148865000Y-87300000D01*
X158265000Y-89900000D02*
X158265000Y-87300000D01*
X148865000Y-106900000D02*
X148865000Y-104300000D01*
X158265000Y-106900000D02*
X158265000Y-104300000D01*
X149090000Y-77500000D02*
X148340000Y-76750000D01*
X158490000Y-77500000D02*
X157740000Y-76750000D01*
X149090000Y-94500000D02*
X148340000Y-93750000D01*
X158490000Y-94500000D02*
X157740000Y-93750000D01*
X149090000Y-111500000D02*
X148340000Y-110750000D01*
X158490000Y-111500000D02*
X157740000Y-110750000D01*
X149090000Y-128500000D02*
X148340000Y-127750000D01*
X157740000Y-57550000D02*
X158265000Y-57025000D01*
X148340000Y-74550000D02*
X148865000Y-74025000D01*
X157740000Y-74550000D02*
X158265000Y-74025000D01*
X148340000Y-91550000D02*
X148865000Y-91025000D01*
X157740000Y-91550000D02*
X158265000Y-91025000D01*
X148340000Y-108550000D02*
X148865000Y-108025000D01*
X157740000Y-108550000D02*
X158265000Y-108025000D01*
X139300000Y-130400000D02*
X139400000Y-130400000D01*
X129900000Y-130400000D02*
X130000000Y-130400000D01*
X120500000Y-130400000D02*
X120600000Y-130400000D01*
X111100000Y-130400000D02*
X111200000Y-130400000D01*
X101700000Y-130400000D02*
X101800000Y-130400000D01*
X139300000Y-113400000D02*
X139400000Y-113400000D01*
X129900000Y-113400000D02*
X130000000Y-113400000D01*
X120500000Y-113400000D02*
X120600000Y-113400000D01*
X111100000Y-113400000D02*
X111200000Y-113400000D01*
X101700000Y-113400000D02*
X101800000Y-113400000D01*
X139300000Y-96400000D02*
X139400000Y-96400000D01*
X129900000Y-96400000D02*
X130000000Y-96400000D01*
X120500000Y-96400000D02*
X120600000Y-96400000D01*
X111100000Y-96400000D02*
X111200000Y-96400000D01*
X101700000Y-96400000D02*
X101800000Y-96400000D01*
X139300000Y-79400000D02*
X139400000Y-79400000D01*
X129900000Y-79400000D02*
X130000000Y-79400000D01*
X120500000Y-79400000D02*
X120600000Y-79400000D01*
X111100000Y-79400000D02*
X111200000Y-79400000D01*
X101700000Y-79400000D02*
X101800000Y-79400000D01*
X139300000Y-62400000D02*
X139400000Y-62400000D01*
X129900000Y-62400000D02*
X130000000Y-62400000D01*
X120500000Y-62400000D02*
X120600000Y-62400000D01*
X111100000Y-62400000D02*
X111200000Y-62400000D01*
X139900000Y-129800000D02*
X139900000Y-128500000D01*
X130500000Y-129800000D02*
X130500000Y-128500000D01*
X121100000Y-129800000D02*
X121100000Y-128500000D01*
X111700000Y-129800000D02*
X111700000Y-128500000D01*
X102300000Y-129800000D02*
X102300000Y-128500000D01*
X139900000Y-112800000D02*
X139900000Y-111500000D01*
X130500000Y-112800000D02*
X130500000Y-111500000D01*
X121100000Y-112800000D02*
X121100000Y-111500000D01*
X111700000Y-112800000D02*
X111700000Y-111500000D01*
X102300000Y-112800000D02*
X102300000Y-111500000D01*
X139900000Y-95800000D02*
X139900000Y-94500000D01*
X130500000Y-95800000D02*
X130500000Y-94500000D01*
X121100000Y-95800000D02*
X121100000Y-94500000D01*
X111700000Y-95800000D02*
X111700000Y-94500000D01*
X102300000Y-95800000D02*
X102300000Y-94500000D01*
X139900000Y-78800000D02*
X139900000Y-77500000D01*
X130500000Y-78800000D02*
X130500000Y-77500000D01*
X121100000Y-78800000D02*
X121100000Y-77500000D01*
X111700000Y-78800000D02*
X111700000Y-77500000D01*
X102300000Y-78800000D02*
X102300000Y-77500000D01*
X139900000Y-61800000D02*
X139900000Y-60500000D01*
X130500000Y-61800000D02*
X130500000Y-60500000D01*
X121100000Y-61800000D02*
X121100000Y-60500000D01*
X111700000Y-61800000D02*
X111700000Y-60500000D01*
X139300000Y-130400000D02*
X139900000Y-129800000D01*
X129900000Y-130400000D02*
X130500000Y-129800000D01*
X120500000Y-130400000D02*
X121100000Y-129800000D01*
X111100000Y-130400000D02*
X111700000Y-129800000D01*
X101700000Y-130400000D02*
X102300000Y-129800000D01*
X139300000Y-113400000D02*
X139900000Y-112800000D01*
X129900000Y-113400000D02*
X130500000Y-112800000D01*
X120500000Y-113400000D02*
X121100000Y-112800000D01*
X111100000Y-113400000D02*
X111700000Y-112800000D01*
X101700000Y-113400000D02*
X102300000Y-112800000D01*
X139300000Y-96400000D02*
X139900000Y-95800000D01*
X129900000Y-96400000D02*
X130500000Y-95800000D01*
X120500000Y-96400000D02*
X121100000Y-95800000D01*
X111100000Y-96400000D02*
X111700000Y-95800000D01*
X101700000Y-96400000D02*
X102300000Y-95800000D01*
X139300000Y-79400000D02*
X139900000Y-78800000D01*
X129900000Y-79400000D02*
X130500000Y-78800000D01*
X120500000Y-79400000D02*
X121100000Y-78800000D01*
X111100000Y-79400000D02*
X111700000Y-78800000D01*
X101700000Y-79400000D02*
X102300000Y-78800000D01*
X139300000Y-62400000D02*
X139900000Y-61800000D01*
X129900000Y-62400000D02*
X130500000Y-61800000D01*
X120500000Y-62400000D02*
X121100000Y-61800000D01*
X111100000Y-62400000D02*
X111700000Y-61800000D01*
X139900000Y-128500000D02*
X139700000Y-128500000D01*
X130500000Y-128500000D02*
X130300000Y-128500000D01*
X121100000Y-128500000D02*
X120900000Y-128500000D01*
X111700000Y-128500000D02*
X111500000Y-128500000D01*
X102300000Y-128500000D02*
X102100000Y-128500000D01*
X139900000Y-111500000D02*
X139700000Y-111500000D01*
X130500000Y-111500000D02*
X130300000Y-111500000D01*
X121100000Y-111500000D02*
X120900000Y-111500000D01*
X111700000Y-111500000D02*
X111500000Y-111500000D01*
X102300000Y-111500000D02*
X102100000Y-111500000D01*
X139900000Y-94500000D02*
X139700000Y-94500000D01*
X130500000Y-94500000D02*
X130300000Y-94500000D01*
X121100000Y-94500000D02*
X120900000Y-94500000D01*
X111700000Y-94500000D02*
X111500000Y-94500000D01*
X102300000Y-94500000D02*
X102100000Y-94500000D01*
X139900000Y-77500000D02*
X139700000Y-77500000D01*
X130500000Y-77500000D02*
X130300000Y-77500000D01*
X121100000Y-77500000D02*
X120900000Y-77500000D01*
X111700000Y-77500000D02*
X111500000Y-77500000D01*
X102300000Y-77500000D02*
X102100000Y-77500000D01*
X139900000Y-60500000D02*
X139700000Y-60500000D01*
X130500000Y-60500000D02*
X130300000Y-60500000D01*
X121100000Y-60500000D02*
X120900000Y-60500000D01*
X111700000Y-60500000D02*
X111500000Y-60500000D01*
X139700000Y-128500000D02*
X138950000Y-127750000D01*
X130300000Y-128500000D02*
X129550000Y-127750000D01*
X120900000Y-128500000D02*
X120150000Y-127750000D01*
X111500000Y-128500000D02*
X110750000Y-127750000D01*
X102100000Y-128500000D02*
X101350000Y-127750000D01*
X139700000Y-111500000D02*
X138950000Y-110750000D01*
X130300000Y-111500000D02*
X129550000Y-110750000D01*
X120900000Y-111500000D02*
X120150000Y-110750000D01*
X111500000Y-111500000D02*
X110750000Y-110750000D01*
X102100000Y-111500000D02*
X101350000Y-110750000D01*
X139700000Y-94500000D02*
X138950000Y-93750000D01*
X130300000Y-94500000D02*
X129550000Y-93750000D01*
X120900000Y-94500000D02*
X120150000Y-93750000D01*
X111500000Y-94500000D02*
X110750000Y-93750000D01*
X102100000Y-94500000D02*
X101350000Y-93750000D01*
X139700000Y-77500000D02*
X138950000Y-76750000D01*
X130300000Y-77500000D02*
X129550000Y-76750000D01*
X120900000Y-77500000D02*
X120150000Y-76750000D01*
X111500000Y-77500000D02*
X110750000Y-76750000D01*
X102100000Y-77500000D02*
X101350000Y-76750000D01*
X139700000Y-60500000D02*
X138950000Y-59750000D01*
X130300000Y-60500000D02*
X129550000Y-59750000D01*
X120900000Y-60500000D02*
X120150000Y-59750000D01*
X111500000Y-60500000D02*
X110750000Y-59750000D01*
X138950000Y-127750000D02*
X138950000Y-126300000D01*
X129550000Y-127750000D02*
X129550000Y-126300000D01*
X120150000Y-127750000D02*
X120150000Y-126300000D01*
X110750000Y-127750000D02*
X110750000Y-126300000D01*
X101350000Y-127750000D02*
X101350000Y-126300000D01*
X138950000Y-110750000D02*
X138950000Y-109300000D01*
X129550000Y-110750000D02*
X129550000Y-109300000D01*
X120150000Y-110750000D02*
X120150000Y-109300000D01*
X110750000Y-110750000D02*
X110750000Y-109300000D01*
X101350000Y-110750000D02*
X101350000Y-109300000D01*
X138950000Y-93750000D02*
X138950000Y-92300000D01*
X129550000Y-93750000D02*
X129550000Y-92300000D01*
X120150000Y-93750000D02*
X120150000Y-92300000D01*
X110750000Y-93750000D02*
X110750000Y-92300000D01*
X101350000Y-93750000D02*
X101350000Y-92300000D01*
X138950000Y-76750000D02*
X138950000Y-75300000D01*
X129550000Y-76750000D02*
X129550000Y-75300000D01*
X120150000Y-76750000D02*
X120150000Y-75300000D01*
X110750000Y-76750000D02*
X110750000Y-75300000D01*
X101350000Y-76750000D02*
X101350000Y-75300000D01*
X138950000Y-59750000D02*
X138950000Y-58300000D01*
X129550000Y-59750000D02*
X129550000Y-58300000D01*
X120150000Y-59750000D02*
X120150000Y-58300000D01*
X110750000Y-59750000D02*
X110750000Y-58300000D01*
X138950000Y-126300000D02*
X138950000Y-125550000D01*
X129550000Y-126300000D02*
X129550000Y-125550000D01*
X120150000Y-126300000D02*
X120150000Y-125550000D01*
X110750000Y-126300000D02*
X110750000Y-125550000D01*
X101350000Y-126300000D02*
X101350000Y-125550000D01*
X138950000Y-109300000D02*
X138950000Y-108550000D01*
X129550000Y-109300000D02*
X129550000Y-108550000D01*
X120150000Y-109300000D02*
X120150000Y-108550000D01*
X110750000Y-109300000D02*
X110750000Y-108550000D01*
X101350000Y-109300000D02*
X101350000Y-108550000D01*
X138950000Y-92300000D02*
X138950000Y-91550000D01*
X129550000Y-92300000D02*
X129550000Y-91550000D01*
X120150000Y-92300000D02*
X120150000Y-91550000D01*
X110750000Y-92300000D02*
X110750000Y-91550000D01*
X101350000Y-92300000D02*
X101350000Y-91550000D01*
X138950000Y-75300000D02*
X138950000Y-74550000D01*
X129550000Y-75300000D02*
X129550000Y-74550000D01*
X120150000Y-75300000D02*
X120150000Y-74550000D01*
X110750000Y-75300000D02*
X110750000Y-74550000D01*
X101350000Y-75300000D02*
X101350000Y-74550000D01*
X138950000Y-58300000D02*
X138950000Y-57550000D01*
X129550000Y-58300000D02*
X129550000Y-57550000D01*
X120150000Y-58300000D02*
X120150000Y-57550000D01*
X110750000Y-58300000D02*
X110750000Y-57550000D01*
X142725000Y-120975000D02*
X142400000Y-121300000D01*
X133325000Y-120975000D02*
X133000000Y-121300000D01*
X123925000Y-120975000D02*
X123600000Y-121300000D01*
X114525000Y-120975000D02*
X114200000Y-121300000D01*
X105125000Y-120975000D02*
X104800000Y-121300000D01*
X142725000Y-103975000D02*
X142400000Y-104300000D01*
X133325000Y-103975000D02*
X133000000Y-104300000D01*
X123925000Y-103975000D02*
X123600000Y-104300000D01*
X114525000Y-103975000D02*
X114200000Y-104300000D01*
X105125000Y-103975000D02*
X104800000Y-104300000D01*
X142725000Y-86975000D02*
X142400000Y-87300000D01*
X133325000Y-86975000D02*
X133000000Y-87300000D01*
X123925000Y-86975000D02*
X123600000Y-87300000D01*
X114525000Y-86975000D02*
X114200000Y-87300000D01*
X105125000Y-86975000D02*
X104800000Y-87300000D01*
X142725000Y-69975000D02*
X142400000Y-70300000D01*
X133325000Y-69975000D02*
X133000000Y-70300000D01*
X123925000Y-69975000D02*
X123600000Y-70300000D01*
X114525000Y-69975000D02*
X114200000Y-70300000D01*
X105125000Y-69975000D02*
X104800000Y-70300000D01*
X142725000Y-52975000D02*
X142400000Y-53300000D01*
X133325000Y-52975000D02*
X133000000Y-53300000D01*
X123925000Y-52975000D02*
X123600000Y-53300000D01*
X114525000Y-52975000D02*
X114200000Y-53300000D01*
X142725000Y-118300000D02*
X142725000Y-120975000D01*
X133325000Y-118300000D02*
X133325000Y-120975000D01*
X123925000Y-118300000D02*
X123925000Y-120975000D01*
X114525000Y-118300000D02*
X114525000Y-120975000D01*
X105125000Y-118300000D02*
X105125000Y-120975000D01*
X142725000Y-101300000D02*
X142725000Y-103975000D01*
X133325000Y-101300000D02*
X133325000Y-103975000D01*
X123925000Y-101300000D02*
X123925000Y-103975000D01*
X114525000Y-101300000D02*
X114525000Y-103975000D01*
X105125000Y-101300000D02*
X105125000Y-103975000D01*
X142725000Y-84300000D02*
X142725000Y-86975000D01*
X133325000Y-84300000D02*
X133325000Y-86975000D01*
X123925000Y-84300000D02*
X123925000Y-86975000D01*
X114525000Y-84300000D02*
X114525000Y-86975000D01*
X105125000Y-84300000D02*
X105125000Y-86975000D01*
X142725000Y-67300000D02*
X142725000Y-69975000D01*
X133325000Y-67300000D02*
X133325000Y-69975000D01*
X123925000Y-67300000D02*
X123925000Y-69975000D01*
X114525000Y-67300000D02*
X114525000Y-69975000D01*
X105125000Y-67300000D02*
X105125000Y-69975000D01*
X142725000Y-50300000D02*
X142725000Y-52975000D01*
X133325000Y-50300000D02*
X133325000Y-52975000D01*
X123925000Y-50300000D02*
X123925000Y-52975000D01*
X114525000Y-50300000D02*
X114525000Y-52975000D01*
X139475000Y-121300000D02*
X139475000Y-118300000D01*
X130075000Y-121300000D02*
X130075000Y-118300000D01*
X120675000Y-121300000D02*
X120675000Y-118300000D01*
X111275000Y-121300000D02*
X111275000Y-118300000D01*
X101875000Y-121300000D02*
X101875000Y-118300000D01*
X139475000Y-104300000D02*
X139475000Y-101300000D01*
X130075000Y-104300000D02*
X130075000Y-101300000D01*
X120675000Y-104300000D02*
X120675000Y-101300000D01*
X111275000Y-104300000D02*
X111275000Y-101300000D01*
X101875000Y-104300000D02*
X101875000Y-101300000D01*
X139475000Y-87300000D02*
X139475000Y-84300000D01*
X130075000Y-87300000D02*
X130075000Y-84300000D01*
X120675000Y-87300000D02*
X120675000Y-84300000D01*
X111275000Y-87300000D02*
X111275000Y-84300000D01*
X101875000Y-87300000D02*
X101875000Y-84300000D01*
X139475000Y-70300000D02*
X139475000Y-67300000D01*
X130075000Y-70300000D02*
X130075000Y-67300000D01*
X120675000Y-70300000D02*
X120675000Y-67300000D01*
X111275000Y-70300000D02*
X111275000Y-67300000D01*
X101875000Y-70300000D02*
X101875000Y-67300000D01*
X139475000Y-53300000D02*
X139475000Y-50300000D01*
X130075000Y-53300000D02*
X130075000Y-50300000D01*
X120675000Y-53300000D02*
X120675000Y-50300000D01*
X111275000Y-53300000D02*
X111275000Y-50300000D01*
X142400000Y-121300000D02*
X139475000Y-121300000D01*
X133000000Y-121300000D02*
X130075000Y-121300000D01*
X123600000Y-121300000D02*
X120675000Y-121300000D01*
X114200000Y-121300000D02*
X111275000Y-121300000D01*
X104800000Y-121300000D02*
X101875000Y-121300000D01*
X142400000Y-104300000D02*
X139475000Y-104300000D01*
X133000000Y-104300000D02*
X130075000Y-104300000D01*
X123600000Y-104300000D02*
X120675000Y-104300000D01*
X114200000Y-104300000D02*
X111275000Y-104300000D01*
X104800000Y-104300000D02*
X101875000Y-104300000D01*
X142400000Y-87300000D02*
X139475000Y-87300000D01*
X133000000Y-87300000D02*
X130075000Y-87300000D01*
X123600000Y-87300000D02*
X120675000Y-87300000D01*
X114200000Y-87300000D02*
X111275000Y-87300000D01*
X104800000Y-87300000D02*
X101875000Y-87300000D01*
X142400000Y-70300000D02*
X139475000Y-70300000D01*
X133000000Y-70300000D02*
X130075000Y-70300000D01*
X123600000Y-70300000D02*
X120675000Y-70300000D01*
X114200000Y-70300000D02*
X111275000Y-70300000D01*
X104800000Y-70300000D02*
X101875000Y-70300000D01*
X142400000Y-53300000D02*
X139475000Y-53300000D01*
X133000000Y-53300000D02*
X130075000Y-53300000D01*
X123600000Y-53300000D02*
X120675000Y-53300000D01*
X114200000Y-53300000D02*
X111275000Y-53300000D01*
X139475000Y-123900000D02*
X139475000Y-121300000D01*
X130075000Y-123900000D02*
X130075000Y-121300000D01*
X120675000Y-123900000D02*
X120675000Y-121300000D01*
X111275000Y-123900000D02*
X111275000Y-121300000D01*
X101875000Y-123900000D02*
X101875000Y-121300000D01*
X139475000Y-106900000D02*
X139475000Y-104300000D01*
X130075000Y-106900000D02*
X130075000Y-104300000D01*
X120675000Y-106900000D02*
X120675000Y-104300000D01*
X111275000Y-106900000D02*
X111275000Y-104300000D01*
X101875000Y-106900000D02*
X101875000Y-104300000D01*
X139475000Y-89900000D02*
X139475000Y-87300000D01*
X130075000Y-89900000D02*
X130075000Y-87300000D01*
X120675000Y-89900000D02*
X120675000Y-87300000D01*
X111275000Y-89900000D02*
X111275000Y-87300000D01*
X101875000Y-89900000D02*
X101875000Y-87300000D01*
X139475000Y-72900000D02*
X139475000Y-70300000D01*
X130075000Y-72900000D02*
X130075000Y-70300000D01*
X120675000Y-72900000D02*
X120675000Y-70300000D01*
X111275000Y-72900000D02*
X111275000Y-70300000D01*
X101875000Y-72900000D02*
X101875000Y-70300000D01*
X139475000Y-55900000D02*
X139475000Y-53300000D01*
X130075000Y-55900000D02*
X130075000Y-53300000D01*
X120675000Y-55900000D02*
X120675000Y-53300000D01*
X111275000Y-55900000D02*
X111275000Y-53300000D01*
X139475000Y-125025000D02*
X139475000Y-123900000D01*
X130075000Y-125025000D02*
X130075000Y-123900000D01*
X120675000Y-125025000D02*
X120675000Y-123900000D01*
X111275000Y-125025000D02*
X111275000Y-123900000D01*
X101875000Y-125025000D02*
X101875000Y-123900000D01*
X139475000Y-108025000D02*
X139475000Y-106900000D01*
X130075000Y-108025000D02*
X130075000Y-106900000D01*
X120675000Y-108025000D02*
X120675000Y-106900000D01*
X111275000Y-108025000D02*
X111275000Y-106900000D01*
X101875000Y-108025000D02*
X101875000Y-106900000D01*
X139475000Y-91025000D02*
X139475000Y-89900000D01*
X130075000Y-91025000D02*
X130075000Y-89900000D01*
X120675000Y-91025000D02*
X120675000Y-89900000D01*
X111275000Y-91025000D02*
X111275000Y-89900000D01*
X101875000Y-91025000D02*
X101875000Y-89900000D01*
X139475000Y-74025000D02*
X139475000Y-72900000D01*
X130075000Y-74025000D02*
X130075000Y-72900000D01*
X120675000Y-74025000D02*
X120675000Y-72900000D01*
X111275000Y-74025000D02*
X111275000Y-72900000D01*
X101875000Y-74025000D02*
X101875000Y-72900000D01*
X139475000Y-57025000D02*
X139475000Y-55900000D01*
X130075000Y-57025000D02*
X130075000Y-55900000D01*
X120675000Y-57025000D02*
X120675000Y-55900000D01*
X111275000Y-57025000D02*
X111275000Y-55900000D01*
X138950000Y-125550000D02*
X139475000Y-125025000D01*
X129550000Y-125550000D02*
X130075000Y-125025000D01*
X120150000Y-125550000D02*
X120675000Y-125025000D01*
X110750000Y-125550000D02*
X111275000Y-125025000D01*
X101350000Y-125550000D02*
X101875000Y-125025000D01*
X138950000Y-108550000D02*
X139475000Y-108025000D01*
X129550000Y-108550000D02*
X130075000Y-108025000D01*
X120150000Y-108550000D02*
X120675000Y-108025000D01*
X110750000Y-108550000D02*
X111275000Y-108025000D01*
X101350000Y-108550000D02*
X101875000Y-108025000D01*
X138950000Y-91550000D02*
X139475000Y-91025000D01*
X129550000Y-91550000D02*
X130075000Y-91025000D01*
X120150000Y-91550000D02*
X120675000Y-91025000D01*
X110750000Y-91550000D02*
X111275000Y-91025000D01*
X101350000Y-91550000D02*
X101875000Y-91025000D01*
X138950000Y-74550000D02*
X139475000Y-74025000D01*
X129550000Y-74550000D02*
X130075000Y-74025000D01*
X120150000Y-74550000D02*
X120675000Y-74025000D01*
X110750000Y-74550000D02*
X111275000Y-74025000D01*
X101350000Y-74550000D02*
X101875000Y-74025000D01*
X138950000Y-57550000D02*
X139475000Y-57025000D01*
X129550000Y-57550000D02*
X130075000Y-57025000D01*
X120150000Y-57550000D02*
X120675000Y-57025000D01*
X110750000Y-57550000D02*
X111275000Y-57025000D01*
X101700000Y-62400000D02*
X102300000Y-61800000D01*
X102300000Y-61800000D02*
X102300000Y-60500000D01*
X105125000Y-50300000D02*
X105125000Y-52975000D01*
X104800000Y-53300000D02*
X101875000Y-53300000D01*
X105125000Y-52975000D02*
X104800000Y-53300000D01*
X101875000Y-55900000D02*
X101875000Y-53300000D01*
X101875000Y-53300000D02*
X101875000Y-50300000D01*
X101350000Y-58300000D02*
X101350000Y-57550000D01*
X101875000Y-57025000D02*
X101875000Y-55900000D01*
X101350000Y-57550000D02*
X101875000Y-57025000D01*
X102300000Y-60500000D02*
X102100000Y-60500000D01*
X102100000Y-60500000D02*
X101350000Y-59750000D01*
X101350000Y-59750000D02*
X101350000Y-58300000D01*
X101700000Y-62400000D02*
X101800000Y-62400000D01*
X171561000Y-89900000D02*
X171561000Y-91425000D01*
X180961000Y-89900000D02*
X180961000Y-91425000D01*
X171561000Y-106900000D02*
X171561000Y-108425000D01*
X180961000Y-106900000D02*
X180961000Y-108425000D01*
X171561000Y-123900000D02*
X171561000Y-125425000D01*
X180961000Y-123900000D02*
X180961000Y-125425000D01*
X178361000Y-88525000D02*
X178686000Y-88200000D01*
X168961000Y-105525000D02*
X169286000Y-105200000D01*
X178361000Y-105525000D02*
X178686000Y-105200000D01*
X168961000Y-122525000D02*
X169286000Y-122200000D01*
X178361000Y-122525000D02*
X178686000Y-122200000D01*
X178361000Y-55900000D02*
X178361000Y-54525000D01*
X168961000Y-72900000D02*
X168961000Y-71525000D01*
X179586000Y-52100000D02*
X179661000Y-52025000D01*
X170186000Y-69100000D02*
X170261000Y-69025000D01*
X179586000Y-69100000D02*
X179661000Y-69025000D01*
X170186000Y-86100000D02*
X170261000Y-86025000D01*
X179586000Y-86100000D02*
X179661000Y-86025000D01*
X170186000Y-103100000D02*
X170261000Y-103025000D01*
X179586000Y-103100000D02*
X179661000Y-103025000D01*
X168236000Y-126300000D02*
X169386000Y-126300000D01*
X177636000Y-126300000D02*
X178786000Y-126300000D01*
X178361000Y-54525000D02*
X178686000Y-54200000D01*
X168961000Y-71525000D02*
X169286000Y-71200000D01*
X178361000Y-71525000D02*
X178686000Y-71200000D01*
X168961000Y-88525000D02*
X169286000Y-88200000D01*
X173686000Y-112100000D02*
X173086000Y-111500000D01*
X183086000Y-112100000D02*
X182486000Y-111500000D01*
X173686000Y-129100000D02*
X173086000Y-128500000D01*
X183086000Y-129100000D02*
X182486000Y-128500000D01*
X183086000Y-62400000D02*
X183086000Y-61100000D01*
X178361000Y-72900000D02*
X178361000Y-71525000D01*
X168961000Y-89900000D02*
X168961000Y-88525000D01*
X178361000Y-89900000D02*
X178361000Y-88525000D01*
X168961000Y-106900000D02*
X168961000Y-105525000D01*
X178361000Y-106900000D02*
X178361000Y-105525000D01*
X168961000Y-123900000D02*
X168961000Y-122525000D01*
X178361000Y-123900000D02*
X178361000Y-122525000D01*
X170186000Y-120100000D02*
X170261000Y-120025000D01*
X179586000Y-120100000D02*
X179661000Y-120025000D01*
X179661000Y-52025000D02*
X179661000Y-50300000D01*
X170261000Y-69025000D02*
X170261000Y-67300000D01*
X179661000Y-69025000D02*
X179661000Y-67300000D01*
X170261000Y-86025000D02*
X170261000Y-84300000D01*
X179661000Y-86025000D02*
X179661000Y-84300000D01*
X173686000Y-79400000D02*
X173686000Y-78100000D01*
X183086000Y-79400000D02*
X183086000Y-78100000D01*
X173686000Y-96400000D02*
X173686000Y-95100000D01*
X183086000Y-96400000D02*
X183086000Y-95100000D01*
X173686000Y-113400000D02*
X173686000Y-112100000D01*
X183086000Y-113400000D02*
X183086000Y-112100000D01*
X173686000Y-130400000D02*
X173686000Y-129100000D01*
X183086000Y-130400000D02*
X183086000Y-129100000D01*
X182486000Y-60500000D02*
X182486000Y-58600000D01*
X173086000Y-77500000D02*
X173086000Y-75600000D01*
X182486000Y-77500000D02*
X182486000Y-75600000D01*
X173086000Y-94500000D02*
X173086000Y-92600000D01*
X182486000Y-94500000D02*
X182486000Y-92600000D01*
X173086000Y-111500000D02*
X173086000Y-109600000D01*
X182486000Y-111500000D02*
X182486000Y-109600000D01*
X183086000Y-61100000D02*
X182486000Y-60500000D01*
X173686000Y-78100000D02*
X173086000Y-77500000D01*
X183086000Y-78100000D02*
X182486000Y-77500000D01*
X173686000Y-95100000D02*
X173086000Y-94500000D01*
X183086000Y-95100000D02*
X182486000Y-94500000D01*
X168961000Y-54525000D02*
X169286000Y-54200000D01*
X171561000Y-125425000D02*
X171386000Y-125600000D01*
X180961000Y-125425000D02*
X180786000Y-125600000D01*
X173686000Y-61100000D02*
X173086000Y-60500000D01*
X173686000Y-62400000D02*
X173686000Y-61100000D01*
X170186000Y-52100000D02*
X170261000Y-52025000D01*
X170261000Y-52025000D02*
X170261000Y-50300000D01*
X168236000Y-58300000D02*
X169386000Y-58300000D01*
X173086000Y-60500000D02*
X173086000Y-58600000D01*
X171561000Y-57425000D02*
X171386000Y-57600000D01*
X171561000Y-55900000D02*
X171561000Y-57425000D01*
X170261000Y-103025000D02*
X170261000Y-101300000D01*
X179661000Y-103025000D02*
X179661000Y-101300000D01*
X170261000Y-120025000D02*
X170261000Y-118300000D01*
X179661000Y-120025000D02*
X179661000Y-118300000D01*
X180961000Y-55900000D02*
X180961000Y-57425000D01*
X171561000Y-72900000D02*
X171561000Y-74425000D01*
X180961000Y-72900000D02*
X180961000Y-74425000D01*
X180961000Y-57425000D02*
X180786000Y-57600000D01*
X171561000Y-74425000D02*
X171386000Y-74600000D01*
X180961000Y-74425000D02*
X180786000Y-74600000D01*
X171561000Y-91425000D02*
X171386000Y-91600000D01*
X180961000Y-91425000D02*
X180786000Y-91600000D01*
X171561000Y-108425000D02*
X171386000Y-108600000D01*
X180961000Y-108425000D02*
X180786000Y-108600000D01*
X173086000Y-128500000D02*
X173086000Y-126600000D01*
X182486000Y-128500000D02*
X182486000Y-126600000D01*
X177636000Y-58300000D02*
X178786000Y-58300000D01*
X168236000Y-75300000D02*
X169386000Y-75300000D01*
X177636000Y-75300000D02*
X178786000Y-75300000D01*
X168236000Y-92300000D02*
X169386000Y-92300000D01*
X177636000Y-92300000D02*
X178786000Y-92300000D01*
X168236000Y-109300000D02*
X169386000Y-109300000D01*
X177636000Y-109300000D02*
X178786000Y-109300000D01*
X168961000Y-55900000D02*
X168961000Y-54525000D01*
X154890000Y-61100000D02*
X154290000Y-60500000D01*
X154890000Y-62400000D02*
X154890000Y-61100000D01*
X151390000Y-52100000D02*
X151465000Y-52025000D01*
X151465000Y-52025000D02*
X151465000Y-50300000D01*
X149440000Y-58300000D02*
X150590000Y-58300000D01*
X154290000Y-60500000D02*
X154290000Y-58600000D01*
X152765000Y-57425000D02*
X152590000Y-57600000D01*
X152765000Y-55900000D02*
X152765000Y-57425000D01*
X152765000Y-89900000D02*
X152765000Y-91425000D01*
X162165000Y-89900000D02*
X162165000Y-91425000D01*
X152765000Y-106900000D02*
X152765000Y-108425000D01*
X162165000Y-106900000D02*
X162165000Y-108425000D01*
X152765000Y-123900000D02*
X152765000Y-125425000D01*
X162165000Y-123900000D02*
X162165000Y-125425000D01*
X159565000Y-88525000D02*
X159890000Y-88200000D01*
X150165000Y-105525000D02*
X150490000Y-105200000D01*
X159565000Y-105525000D02*
X159890000Y-105200000D01*
X150165000Y-122525000D02*
X150490000Y-122200000D01*
X159565000Y-122525000D02*
X159890000Y-122200000D01*
X159565000Y-55900000D02*
X159565000Y-54525000D01*
X150165000Y-72900000D02*
X150165000Y-71525000D01*
X160790000Y-52100000D02*
X160865000Y-52025000D01*
X151390000Y-69100000D02*
X151465000Y-69025000D01*
X160790000Y-69100000D02*
X160865000Y-69025000D01*
X151390000Y-86100000D02*
X151465000Y-86025000D01*
X160790000Y-86100000D02*
X160865000Y-86025000D01*
X151390000Y-103100000D02*
X151465000Y-103025000D01*
X160790000Y-103100000D02*
X160865000Y-103025000D01*
X149440000Y-126300000D02*
X150590000Y-126300000D01*
X158840000Y-126300000D02*
X159990000Y-126300000D01*
X159565000Y-54525000D02*
X159890000Y-54200000D01*
X150165000Y-71525000D02*
X150490000Y-71200000D01*
X159565000Y-71525000D02*
X159890000Y-71200000D01*
X150165000Y-88525000D02*
X150490000Y-88200000D01*
X154890000Y-112100000D02*
X154290000Y-111500000D01*
X164290000Y-112100000D02*
X163690000Y-111500000D01*
X154890000Y-129100000D02*
X154290000Y-128500000D01*
X164290000Y-129100000D02*
X163690000Y-128500000D01*
X164290000Y-62400000D02*
X164290000Y-61100000D01*
X151465000Y-103025000D02*
X151465000Y-101300000D01*
X160865000Y-103025000D02*
X160865000Y-101300000D01*
X151465000Y-120025000D02*
X151465000Y-118300000D01*
X160865000Y-120025000D02*
X160865000Y-118300000D01*
X162165000Y-55900000D02*
X162165000Y-57425000D01*
X152765000Y-72900000D02*
X152765000Y-74425000D01*
X162165000Y-72900000D02*
X162165000Y-74425000D01*
X162165000Y-57425000D02*
X161990000Y-57600000D01*
X152765000Y-74425000D02*
X152590000Y-74600000D01*
X162165000Y-74425000D02*
X161990000Y-74600000D01*
X152765000Y-91425000D02*
X152590000Y-91600000D01*
X162165000Y-91425000D02*
X161990000Y-91600000D01*
X152765000Y-108425000D02*
X152590000Y-108600000D01*
X162165000Y-108425000D02*
X161990000Y-108600000D01*
X154290000Y-128500000D02*
X154290000Y-126600000D01*
X163690000Y-128500000D02*
X163690000Y-126600000D01*
X158840000Y-58300000D02*
X159990000Y-58300000D01*
X149440000Y-75300000D02*
X150590000Y-75300000D01*
X158840000Y-75300000D02*
X159990000Y-75300000D01*
X149440000Y-92300000D02*
X150590000Y-92300000D01*
X158840000Y-92300000D02*
X159990000Y-92300000D01*
X149440000Y-109300000D02*
X150590000Y-109300000D01*
X158840000Y-109300000D02*
X159990000Y-109300000D01*
X159565000Y-72900000D02*
X159565000Y-71525000D01*
X150165000Y-89900000D02*
X150165000Y-88525000D01*
X159565000Y-89900000D02*
X159565000Y-88525000D01*
X150165000Y-106900000D02*
X150165000Y-105525000D01*
X159565000Y-106900000D02*
X159565000Y-105525000D01*
X150165000Y-123900000D02*
X150165000Y-122525000D01*
X159565000Y-123900000D02*
X159565000Y-122525000D01*
X151390000Y-120100000D02*
X151465000Y-120025000D01*
X160790000Y-120100000D02*
X160865000Y-120025000D01*
X160865000Y-52025000D02*
X160865000Y-50300000D01*
X151465000Y-69025000D02*
X151465000Y-67300000D01*
X160865000Y-69025000D02*
X160865000Y-67300000D01*
X151465000Y-86025000D02*
X151465000Y-84300000D01*
X160865000Y-86025000D02*
X160865000Y-84300000D01*
X163690000Y-60500000D02*
X163690000Y-58600000D01*
X154290000Y-77500000D02*
X154290000Y-75600000D01*
X163690000Y-77500000D02*
X163690000Y-75600000D01*
X154290000Y-94500000D02*
X154290000Y-92600000D01*
X163690000Y-94500000D02*
X163690000Y-92600000D01*
X154290000Y-111500000D02*
X154290000Y-109600000D01*
X163690000Y-111500000D02*
X163690000Y-109600000D01*
X154890000Y-79400000D02*
X154890000Y-78100000D01*
X164290000Y-79400000D02*
X164290000Y-78100000D01*
X154890000Y-96400000D02*
X154890000Y-95100000D01*
X164290000Y-96400000D02*
X164290000Y-95100000D01*
X154890000Y-113400000D02*
X154890000Y-112100000D01*
X164290000Y-113400000D02*
X164290000Y-112100000D01*
X154890000Y-130400000D02*
X154890000Y-129100000D01*
X164290000Y-130400000D02*
X164290000Y-129100000D01*
X152765000Y-125425000D02*
X152590000Y-125600000D01*
X162165000Y-125425000D02*
X161990000Y-125600000D01*
X164290000Y-61100000D02*
X163690000Y-60500000D01*
X154890000Y-78100000D02*
X154290000Y-77500000D01*
X164290000Y-78100000D02*
X163690000Y-77500000D01*
X154890000Y-95100000D02*
X154290000Y-94500000D01*
X164290000Y-95100000D02*
X163690000Y-94500000D01*
X150165000Y-54525000D02*
X150490000Y-54200000D01*
X150165000Y-55900000D02*
X150165000Y-54525000D01*
X144900000Y-128500000D02*
X144900000Y-126600000D01*
X135500000Y-128500000D02*
X135500000Y-126600000D01*
X126100000Y-128500000D02*
X126100000Y-126600000D01*
X116700000Y-128500000D02*
X116700000Y-126600000D01*
X107300000Y-128500000D02*
X107300000Y-126600000D01*
X144900000Y-111500000D02*
X144900000Y-109600000D01*
X135500000Y-111500000D02*
X135500000Y-109600000D01*
X126100000Y-111500000D02*
X126100000Y-109600000D01*
X116700000Y-111500000D02*
X116700000Y-109600000D01*
X107300000Y-111500000D02*
X107300000Y-109600000D01*
X144900000Y-94500000D02*
X144900000Y-92600000D01*
X135500000Y-94500000D02*
X135500000Y-92600000D01*
X126100000Y-94500000D02*
X126100000Y-92600000D01*
X116700000Y-94500000D02*
X116700000Y-92600000D01*
X107300000Y-94500000D02*
X107300000Y-92600000D01*
X144900000Y-77500000D02*
X144900000Y-75600000D01*
X135500000Y-77500000D02*
X135500000Y-75600000D01*
X126100000Y-77500000D02*
X126100000Y-75600000D01*
X116700000Y-77500000D02*
X116700000Y-75600000D01*
X107300000Y-77500000D02*
X107300000Y-75600000D01*
X144900000Y-60500000D02*
X144900000Y-58600000D01*
X135500000Y-60500000D02*
X135500000Y-58600000D01*
X126100000Y-60500000D02*
X126100000Y-58600000D01*
X116700000Y-60500000D02*
X116700000Y-58600000D01*
X145500000Y-130400000D02*
X145500000Y-129100000D01*
X136100000Y-130400000D02*
X136100000Y-129100000D01*
X126700000Y-130400000D02*
X126700000Y-129100000D01*
X117300000Y-130400000D02*
X117300000Y-129100000D01*
X107900000Y-130400000D02*
X107900000Y-129100000D01*
X145500000Y-113400000D02*
X145500000Y-112100000D01*
X136100000Y-113400000D02*
X136100000Y-112100000D01*
X126700000Y-113400000D02*
X126700000Y-112100000D01*
X117300000Y-113400000D02*
X117300000Y-112100000D01*
X107900000Y-113400000D02*
X107900000Y-112100000D01*
X145500000Y-96400000D02*
X145500000Y-95100000D01*
X136100000Y-96400000D02*
X136100000Y-95100000D01*
X126700000Y-96400000D02*
X126700000Y-95100000D01*
X117300000Y-96400000D02*
X117300000Y-95100000D01*
X107900000Y-96400000D02*
X107900000Y-95100000D01*
X145500000Y-79400000D02*
X145500000Y-78100000D01*
X136100000Y-79400000D02*
X136100000Y-78100000D01*
X126700000Y-79400000D02*
X126700000Y-78100000D01*
X117300000Y-79400000D02*
X117300000Y-78100000D01*
X107900000Y-79400000D02*
X107900000Y-78100000D01*
X145500000Y-62400000D02*
X145500000Y-61100000D01*
X136100000Y-62400000D02*
X136100000Y-61100000D01*
X126700000Y-62400000D02*
X126700000Y-61100000D01*
X117300000Y-62400000D02*
X117300000Y-61100000D01*
X145500000Y-129100000D02*
X144900000Y-128500000D01*
X136100000Y-129100000D02*
X135500000Y-128500000D01*
X126700000Y-129100000D02*
X126100000Y-128500000D01*
X117300000Y-129100000D02*
X116700000Y-128500000D01*
X107900000Y-129100000D02*
X107300000Y-128500000D01*
X145500000Y-112100000D02*
X144900000Y-111500000D01*
X136100000Y-112100000D02*
X135500000Y-111500000D01*
X126700000Y-112100000D02*
X126100000Y-111500000D01*
X117300000Y-112100000D02*
X116700000Y-111500000D01*
X107900000Y-112100000D02*
X107300000Y-111500000D01*
X145500000Y-95100000D02*
X144900000Y-94500000D01*
X136100000Y-95100000D02*
X135500000Y-94500000D01*
X126700000Y-95100000D02*
X126100000Y-94500000D01*
X117300000Y-95100000D02*
X116700000Y-94500000D01*
X107900000Y-95100000D02*
X107300000Y-94500000D01*
X145500000Y-78100000D02*
X144900000Y-77500000D01*
X136100000Y-78100000D02*
X135500000Y-77500000D01*
X126700000Y-78100000D02*
X126100000Y-77500000D01*
X117300000Y-78100000D02*
X116700000Y-77500000D01*
X107900000Y-78100000D02*
X107300000Y-77500000D01*
X145500000Y-61100000D02*
X144900000Y-60500000D01*
X136100000Y-61100000D02*
X135500000Y-60500000D01*
X126700000Y-61100000D02*
X126100000Y-60500000D01*
X117300000Y-61100000D02*
X116700000Y-60500000D01*
X143375000Y-125425000D02*
X143200000Y-125600000D01*
X133975000Y-125425000D02*
X133800000Y-125600000D01*
X124575000Y-125425000D02*
X124400000Y-125600000D01*
X115175000Y-125425000D02*
X115000000Y-125600000D01*
X105775000Y-125425000D02*
X105600000Y-125600000D01*
X143375000Y-108425000D02*
X143200000Y-108600000D01*
X133975000Y-108425000D02*
X133800000Y-108600000D01*
X124575000Y-108425000D02*
X124400000Y-108600000D01*
X115175000Y-108425000D02*
X115000000Y-108600000D01*
X105775000Y-108425000D02*
X105600000Y-108600000D01*
X143375000Y-91425000D02*
X143200000Y-91600000D01*
X133975000Y-91425000D02*
X133800000Y-91600000D01*
X124575000Y-91425000D02*
X124400000Y-91600000D01*
X115175000Y-91425000D02*
X115000000Y-91600000D01*
X105775000Y-91425000D02*
X105600000Y-91600000D01*
X143375000Y-74425000D02*
X143200000Y-74600000D01*
X133975000Y-74425000D02*
X133800000Y-74600000D01*
X124575000Y-74425000D02*
X124400000Y-74600000D01*
X115175000Y-74425000D02*
X115000000Y-74600000D01*
X105775000Y-74425000D02*
X105600000Y-74600000D01*
X143375000Y-57425000D02*
X143200000Y-57600000D01*
X133975000Y-57425000D02*
X133800000Y-57600000D01*
X124575000Y-57425000D02*
X124400000Y-57600000D01*
X115175000Y-57425000D02*
X115000000Y-57600000D01*
X143375000Y-123900000D02*
X143375000Y-125425000D01*
X133975000Y-123900000D02*
X133975000Y-125425000D01*
X124575000Y-123900000D02*
X124575000Y-125425000D01*
X115175000Y-123900000D02*
X115175000Y-125425000D01*
X105775000Y-123900000D02*
X105775000Y-125425000D01*
X143375000Y-106900000D02*
X143375000Y-108425000D01*
X133975000Y-106900000D02*
X133975000Y-108425000D01*
X124575000Y-106900000D02*
X124575000Y-108425000D01*
X115175000Y-106900000D02*
X115175000Y-108425000D01*
X105775000Y-106900000D02*
X105775000Y-108425000D01*
X143375000Y-89900000D02*
X143375000Y-91425000D01*
X133975000Y-89900000D02*
X133975000Y-91425000D01*
X124575000Y-89900000D02*
X124575000Y-91425000D01*
X115175000Y-89900000D02*
X115175000Y-91425000D01*
X105775000Y-89900000D02*
X105775000Y-91425000D01*
X143375000Y-72900000D02*
X143375000Y-74425000D01*
X133975000Y-72900000D02*
X133975000Y-74425000D01*
X124575000Y-72900000D02*
X124575000Y-74425000D01*
X115175000Y-72900000D02*
X115175000Y-74425000D01*
X105775000Y-72900000D02*
X105775000Y-74425000D01*
X143375000Y-55900000D02*
X143375000Y-57425000D01*
X133975000Y-55900000D02*
X133975000Y-57425000D01*
X124575000Y-55900000D02*
X124575000Y-57425000D01*
X115175000Y-55900000D02*
X115175000Y-57425000D01*
X142075000Y-120025000D02*
X142075000Y-118300000D01*
X132675000Y-120025000D02*
X132675000Y-118300000D01*
X123275000Y-120025000D02*
X123275000Y-118300000D01*
X113875000Y-120025000D02*
X113875000Y-118300000D01*
X104475000Y-120025000D02*
X104475000Y-118300000D01*
X142075000Y-103025000D02*
X142075000Y-101300000D01*
X132675000Y-103025000D02*
X132675000Y-101300000D01*
X123275000Y-103025000D02*
X123275000Y-101300000D01*
X113875000Y-103025000D02*
X113875000Y-101300000D01*
X104475000Y-103025000D02*
X104475000Y-101300000D01*
X142075000Y-86025000D02*
X142075000Y-84300000D01*
X132675000Y-86025000D02*
X132675000Y-84300000D01*
X123275000Y-86025000D02*
X123275000Y-84300000D01*
X113875000Y-86025000D02*
X113875000Y-84300000D01*
X104475000Y-86025000D02*
X104475000Y-84300000D01*
X142075000Y-69025000D02*
X142075000Y-67300000D01*
X132675000Y-69025000D02*
X132675000Y-67300000D01*
X123275000Y-69025000D02*
X123275000Y-67300000D01*
X113875000Y-69025000D02*
X113875000Y-67300000D01*
X104475000Y-69025000D02*
X104475000Y-67300000D01*
X142075000Y-52025000D02*
X142075000Y-50300000D01*
X132675000Y-52025000D02*
X132675000Y-50300000D01*
X123275000Y-52025000D02*
X123275000Y-50300000D01*
X113875000Y-52025000D02*
X113875000Y-50300000D01*
X142000000Y-120100000D02*
X142075000Y-120025000D01*
X132600000Y-120100000D02*
X132675000Y-120025000D01*
X123200000Y-120100000D02*
X123275000Y-120025000D01*
X113800000Y-120100000D02*
X113875000Y-120025000D01*
X104400000Y-120100000D02*
X104475000Y-120025000D01*
X142000000Y-103100000D02*
X142075000Y-103025000D01*
X132600000Y-103100000D02*
X132675000Y-103025000D01*
X123200000Y-103100000D02*
X123275000Y-103025000D01*
X113800000Y-103100000D02*
X113875000Y-103025000D01*
X104400000Y-103100000D02*
X104475000Y-103025000D01*
X142000000Y-86100000D02*
X142075000Y-86025000D01*
X132600000Y-86100000D02*
X132675000Y-86025000D01*
X123200000Y-86100000D02*
X123275000Y-86025000D01*
X113800000Y-86100000D02*
X113875000Y-86025000D01*
X104400000Y-86100000D02*
X104475000Y-86025000D01*
X142000000Y-69100000D02*
X142075000Y-69025000D01*
X132600000Y-69100000D02*
X132675000Y-69025000D01*
X123200000Y-69100000D02*
X123275000Y-69025000D01*
X113800000Y-69100000D02*
X113875000Y-69025000D01*
X104400000Y-69100000D02*
X104475000Y-69025000D01*
X142000000Y-52100000D02*
X142075000Y-52025000D01*
X132600000Y-52100000D02*
X132675000Y-52025000D01*
X123200000Y-52100000D02*
X123275000Y-52025000D01*
X113800000Y-52100000D02*
X113875000Y-52025000D01*
X140775000Y-123900000D02*
X140775000Y-122525000D01*
X131375000Y-123900000D02*
X131375000Y-122525000D01*
X121975000Y-123900000D02*
X121975000Y-122525000D01*
X112575000Y-123900000D02*
X112575000Y-122525000D01*
X103175000Y-123900000D02*
X103175000Y-122525000D01*
X140775000Y-106900000D02*
X140775000Y-105525000D01*
X131375000Y-106900000D02*
X131375000Y-105525000D01*
X121975000Y-106900000D02*
X121975000Y-105525000D01*
X112575000Y-106900000D02*
X112575000Y-105525000D01*
X103175000Y-106900000D02*
X103175000Y-105525000D01*
X140775000Y-89900000D02*
X140775000Y-88525000D01*
X131375000Y-89900000D02*
X131375000Y-88525000D01*
X121975000Y-89900000D02*
X121975000Y-88525000D01*
X112575000Y-89900000D02*
X112575000Y-88525000D01*
X103175000Y-89900000D02*
X103175000Y-88525000D01*
X140775000Y-72900000D02*
X140775000Y-71525000D01*
X131375000Y-72900000D02*
X131375000Y-71525000D01*
X121975000Y-72900000D02*
X121975000Y-71525000D01*
X112575000Y-72900000D02*
X112575000Y-71525000D01*
X103175000Y-72900000D02*
X103175000Y-71525000D01*
X140775000Y-55900000D02*
X140775000Y-54525000D01*
X131375000Y-55900000D02*
X131375000Y-54525000D01*
X121975000Y-55900000D02*
X121975000Y-54525000D01*
X112575000Y-55900000D02*
X112575000Y-54525000D01*
X140775000Y-122525000D02*
X141100000Y-122200000D01*
X131375000Y-122525000D02*
X131700000Y-122200000D01*
X121975000Y-122525000D02*
X122300000Y-122200000D01*
X112575000Y-122525000D02*
X112900000Y-122200000D01*
X103175000Y-122525000D02*
X103500000Y-122200000D01*
X140775000Y-105525000D02*
X141100000Y-105200000D01*
X131375000Y-105525000D02*
X131700000Y-105200000D01*
X121975000Y-105525000D02*
X122300000Y-105200000D01*
X112575000Y-105525000D02*
X112900000Y-105200000D01*
X103175000Y-105525000D02*
X103500000Y-105200000D01*
X140775000Y-88525000D02*
X141100000Y-88200000D01*
X131375000Y-88525000D02*
X131700000Y-88200000D01*
X121975000Y-88525000D02*
X122300000Y-88200000D01*
X112575000Y-88525000D02*
X112900000Y-88200000D01*
X103175000Y-88525000D02*
X103500000Y-88200000D01*
X140775000Y-71525000D02*
X141100000Y-71200000D01*
X131375000Y-71525000D02*
X131700000Y-71200000D01*
X121975000Y-71525000D02*
X122300000Y-71200000D01*
X112575000Y-71525000D02*
X112900000Y-71200000D01*
X103175000Y-71525000D02*
X103500000Y-71200000D01*
X140775000Y-54525000D02*
X141100000Y-54200000D01*
X131375000Y-54525000D02*
X131700000Y-54200000D01*
X121975000Y-54525000D02*
X122300000Y-54200000D01*
X112575000Y-54525000D02*
X112900000Y-54200000D01*
X140050000Y-126300000D02*
X141200000Y-126300000D01*
X130650000Y-126300000D02*
X131800000Y-126300000D01*
X121250000Y-126300000D02*
X122400000Y-126300000D01*
X111850000Y-126300000D02*
X113000000Y-126300000D01*
X102450000Y-126300000D02*
X103600000Y-126300000D01*
X140050000Y-109300000D02*
X141200000Y-109300000D01*
X130650000Y-109300000D02*
X131800000Y-109300000D01*
X121250000Y-109300000D02*
X122400000Y-109300000D01*
X111850000Y-109300000D02*
X113000000Y-109300000D01*
X102450000Y-109300000D02*
X103600000Y-109300000D01*
X140050000Y-92300000D02*
X141200000Y-92300000D01*
X130650000Y-92300000D02*
X131800000Y-92300000D01*
X121250000Y-92300000D02*
X122400000Y-92300000D01*
X111850000Y-92300000D02*
X113000000Y-92300000D01*
X102450000Y-92300000D02*
X103600000Y-92300000D01*
X140050000Y-75300000D02*
X141200000Y-75300000D01*
X130650000Y-75300000D02*
X131800000Y-75300000D01*
X121250000Y-75300000D02*
X122400000Y-75300000D01*
X111850000Y-75300000D02*
X113000000Y-75300000D01*
X102450000Y-75300000D02*
X103600000Y-75300000D01*
X140050000Y-58300000D02*
X141200000Y-58300000D01*
X130650000Y-58300000D02*
X131800000Y-58300000D01*
X121250000Y-58300000D02*
X122400000Y-58300000D01*
X111850000Y-58300000D02*
X113000000Y-58300000D01*
X103175000Y-55900000D02*
X103175000Y-54525000D01*
X103175000Y-54525000D02*
X103500000Y-54200000D01*
X105775000Y-55900000D02*
X105775000Y-57425000D01*
X105775000Y-57425000D02*
X105600000Y-57600000D01*
X107300000Y-60500000D02*
X107300000Y-58600000D01*
X102450000Y-58300000D02*
X103600000Y-58300000D01*
X104475000Y-52025000D02*
X104475000Y-50300000D01*
X104400000Y-52100000D02*
X104475000Y-52025000D01*
X107900000Y-62400000D02*
X107900000Y-61100000D01*
X107900000Y-61100000D02*
X107300000Y-60500000D01*
X181486000Y-57800000D02*
X181611000Y-57675000D01*
X172086000Y-74800000D02*
X172211000Y-74675000D01*
X181486000Y-74800000D02*
X181611000Y-74675000D01*
X172086000Y-91800000D02*
X172211000Y-91675000D01*
X181486000Y-91800000D02*
X181611000Y-91675000D01*
X172086000Y-108800000D02*
X172211000Y-108675000D01*
X172086000Y-125800000D02*
X172211000Y-125675000D01*
X181486000Y-125800000D02*
X181611000Y-125675000D01*
X181286000Y-60700000D02*
X181486000Y-60500000D01*
X171886000Y-77700000D02*
X172086000Y-77500000D01*
X181286000Y-77700000D02*
X181486000Y-77500000D01*
X171886000Y-94700000D02*
X172086000Y-94500000D01*
X181286000Y-94700000D02*
X181486000Y-94500000D01*
X181486000Y-108800000D02*
X181611000Y-108675000D01*
X171886000Y-79400000D02*
X171886000Y-77700000D01*
X181286000Y-79400000D02*
X181286000Y-77700000D01*
X171886000Y-96400000D02*
X171886000Y-94700000D01*
X181286000Y-96400000D02*
X181286000Y-94700000D01*
X171886000Y-113400000D02*
X171886000Y-111700000D01*
X181286000Y-113400000D02*
X181286000Y-111700000D01*
X171886000Y-130400000D02*
X171886000Y-128700000D01*
X181286000Y-130400000D02*
X181286000Y-128700000D01*
X171886000Y-60700000D02*
X172086000Y-60500000D01*
X171886000Y-62400000D02*
X171886000Y-60700000D01*
X172086000Y-57800000D02*
X172211000Y-57675000D01*
X172211000Y-57675000D02*
X172211000Y-55900000D01*
X172086000Y-60500000D02*
X172086000Y-57800000D01*
X181611000Y-57675000D02*
X181611000Y-55900000D01*
X172211000Y-74675000D02*
X172211000Y-72900000D01*
X181611000Y-74675000D02*
X181611000Y-72900000D01*
X172211000Y-91675000D02*
X172211000Y-89900000D01*
X181611000Y-91675000D02*
X181611000Y-89900000D01*
X172211000Y-108675000D02*
X172211000Y-106900000D01*
X181611000Y-108675000D02*
X181611000Y-106900000D01*
X172211000Y-125675000D02*
X172211000Y-123900000D01*
X181611000Y-125675000D02*
X181611000Y-123900000D01*
X172086000Y-94500000D02*
X172086000Y-91800000D01*
X181486000Y-94500000D02*
X181486000Y-91800000D01*
X172086000Y-111500000D02*
X172086000Y-108800000D01*
X181486000Y-111500000D02*
X181486000Y-108800000D01*
X172086000Y-128500000D02*
X172086000Y-125800000D01*
X181486000Y-128500000D02*
X181486000Y-125800000D01*
X181286000Y-62400000D02*
X181286000Y-60700000D01*
X171886000Y-111700000D02*
X172086000Y-111500000D01*
X181286000Y-111700000D02*
X181486000Y-111500000D01*
X171886000Y-128700000D02*
X172086000Y-128500000D01*
X181286000Y-128700000D02*
X181486000Y-128500000D01*
X181486000Y-60500000D02*
X181486000Y-57800000D01*
X172086000Y-77500000D02*
X172086000Y-74800000D01*
X181486000Y-77500000D02*
X181486000Y-74800000D01*
X153090000Y-79400000D02*
X153090000Y-77700000D01*
X162490000Y-79400000D02*
X162490000Y-77700000D01*
X153090000Y-96400000D02*
X153090000Y-94700000D01*
X162490000Y-96400000D02*
X162490000Y-94700000D01*
X153090000Y-113400000D02*
X153090000Y-111700000D01*
X162490000Y-113400000D02*
X162490000Y-111700000D01*
X153090000Y-130400000D02*
X153090000Y-128700000D01*
X162490000Y-130400000D02*
X162490000Y-128700000D01*
X153290000Y-94500000D02*
X153290000Y-91800000D01*
X162690000Y-94500000D02*
X162690000Y-91800000D01*
X153290000Y-111500000D02*
X153290000Y-108800000D01*
X162690000Y-111500000D02*
X162690000Y-108800000D01*
X153290000Y-128500000D02*
X153290000Y-125800000D01*
X162690000Y-128500000D02*
X162690000Y-125800000D01*
X162490000Y-62400000D02*
X162490000Y-60700000D01*
X162690000Y-57800000D02*
X162815000Y-57675000D01*
X153290000Y-74800000D02*
X153415000Y-74675000D01*
X162690000Y-74800000D02*
X162815000Y-74675000D01*
X153290000Y-91800000D02*
X153415000Y-91675000D01*
X162690000Y-91800000D02*
X162815000Y-91675000D01*
X153290000Y-108800000D02*
X153415000Y-108675000D01*
X162690000Y-108800000D02*
X162815000Y-108675000D01*
X153090000Y-60700000D02*
X153290000Y-60500000D01*
X153090000Y-62400000D02*
X153090000Y-60700000D01*
X153290000Y-57800000D02*
X153415000Y-57675000D01*
X153415000Y-57675000D02*
X153415000Y-55900000D01*
X153290000Y-60500000D02*
X153290000Y-57800000D01*
X162815000Y-57675000D02*
X162815000Y-55900000D01*
X153415000Y-74675000D02*
X153415000Y-72900000D01*
X162815000Y-74675000D02*
X162815000Y-72900000D01*
X153415000Y-91675000D02*
X153415000Y-89900000D01*
X162815000Y-91675000D02*
X162815000Y-89900000D01*
X153415000Y-108675000D02*
X153415000Y-106900000D01*
X162815000Y-108675000D02*
X162815000Y-106900000D01*
X153415000Y-125675000D02*
X153415000Y-123900000D01*
X162815000Y-125675000D02*
X162815000Y-123900000D01*
X153090000Y-111700000D02*
X153290000Y-111500000D01*
X162490000Y-111700000D02*
X162690000Y-111500000D01*
X153090000Y-128700000D02*
X153290000Y-128500000D01*
X162490000Y-128700000D02*
X162690000Y-128500000D01*
X162690000Y-60500000D02*
X162690000Y-57800000D01*
X153290000Y-77500000D02*
X153290000Y-74800000D01*
X162690000Y-77500000D02*
X162690000Y-74800000D01*
X153290000Y-125800000D02*
X153415000Y-125675000D01*
X162690000Y-125800000D02*
X162815000Y-125675000D01*
X162490000Y-60700000D02*
X162690000Y-60500000D01*
X153090000Y-77700000D02*
X153290000Y-77500000D01*
X162490000Y-77700000D02*
X162690000Y-77500000D01*
X153090000Y-94700000D02*
X153290000Y-94500000D01*
X162490000Y-94700000D02*
X162690000Y-94500000D01*
X143700000Y-130400000D02*
X143700000Y-128700000D01*
X134300000Y-130400000D02*
X134300000Y-128700000D01*
X124900000Y-130400000D02*
X124900000Y-128700000D01*
X115500000Y-130400000D02*
X115500000Y-128700000D01*
X106100000Y-130400000D02*
X106100000Y-128700000D01*
X143700000Y-113400000D02*
X143700000Y-111700000D01*
X134300000Y-113400000D02*
X134300000Y-111700000D01*
X124900000Y-113400000D02*
X124900000Y-111700000D01*
X115500000Y-113400000D02*
X115500000Y-111700000D01*
X106100000Y-113400000D02*
X106100000Y-111700000D01*
X143700000Y-96400000D02*
X143700000Y-94700000D01*
X134300000Y-96400000D02*
X134300000Y-94700000D01*
X124900000Y-96400000D02*
X124900000Y-94700000D01*
X115500000Y-96400000D02*
X115500000Y-94700000D01*
X106100000Y-96400000D02*
X106100000Y-94700000D01*
X143700000Y-79400000D02*
X143700000Y-77700000D01*
X134300000Y-79400000D02*
X134300000Y-77700000D01*
X124900000Y-79400000D02*
X124900000Y-77700000D01*
X115500000Y-79400000D02*
X115500000Y-77700000D01*
X106100000Y-79400000D02*
X106100000Y-77700000D01*
X143700000Y-62400000D02*
X143700000Y-60700000D01*
X134300000Y-62400000D02*
X134300000Y-60700000D01*
X124900000Y-62400000D02*
X124900000Y-60700000D01*
X115500000Y-62400000D02*
X115500000Y-60700000D01*
X143900000Y-128500000D02*
X143900000Y-125800000D01*
X134500000Y-128500000D02*
X134500000Y-125800000D01*
X125100000Y-128500000D02*
X125100000Y-125800000D01*
X115700000Y-128500000D02*
X115700000Y-125800000D01*
X106300000Y-128500000D02*
X106300000Y-125800000D01*
X143900000Y-111500000D02*
X143900000Y-108800000D01*
X134500000Y-111500000D02*
X134500000Y-108800000D01*
X125100000Y-111500000D02*
X125100000Y-108800000D01*
X115700000Y-111500000D02*
X115700000Y-108800000D01*
X106300000Y-111500000D02*
X106300000Y-108800000D01*
X143900000Y-94500000D02*
X143900000Y-91800000D01*
X134500000Y-94500000D02*
X134500000Y-91800000D01*
X125100000Y-94500000D02*
X125100000Y-91800000D01*
X115700000Y-94500000D02*
X115700000Y-91800000D01*
X106300000Y-94500000D02*
X106300000Y-91800000D01*
X143900000Y-77500000D02*
X143900000Y-74800000D01*
X134500000Y-77500000D02*
X134500000Y-74800000D01*
X125100000Y-77500000D02*
X125100000Y-74800000D01*
X115700000Y-77500000D02*
X115700000Y-74800000D01*
X106300000Y-77500000D02*
X106300000Y-74800000D01*
X143900000Y-60500000D02*
X143900000Y-57800000D01*
X134500000Y-60500000D02*
X134500000Y-57800000D01*
X125100000Y-60500000D02*
X125100000Y-57800000D01*
X115700000Y-60500000D02*
X115700000Y-57800000D01*
X143700000Y-128700000D02*
X143900000Y-128500000D01*
X134300000Y-128700000D02*
X134500000Y-128500000D01*
X124900000Y-128700000D02*
X125100000Y-128500000D01*
X115500000Y-128700000D02*
X115700000Y-128500000D01*
X106100000Y-128700000D02*
X106300000Y-128500000D01*
X143700000Y-111700000D02*
X143900000Y-111500000D01*
X134300000Y-111700000D02*
X134500000Y-111500000D01*
X124900000Y-111700000D02*
X125100000Y-111500000D01*
X115500000Y-111700000D02*
X115700000Y-111500000D01*
X106100000Y-111700000D02*
X106300000Y-111500000D01*
X143700000Y-94700000D02*
X143900000Y-94500000D01*
X134300000Y-94700000D02*
X134500000Y-94500000D01*
X124900000Y-94700000D02*
X125100000Y-94500000D01*
X115500000Y-94700000D02*
X115700000Y-94500000D01*
X106100000Y-94700000D02*
X106300000Y-94500000D01*
X143700000Y-77700000D02*
X143900000Y-77500000D01*
X134300000Y-77700000D02*
X134500000Y-77500000D01*
X124900000Y-77700000D02*
X125100000Y-77500000D01*
X115500000Y-77700000D02*
X115700000Y-77500000D01*
X106100000Y-77700000D02*
X106300000Y-77500000D01*
X143700000Y-60700000D02*
X143900000Y-60500000D01*
X134300000Y-60700000D02*
X134500000Y-60500000D01*
X124900000Y-60700000D02*
X125100000Y-60500000D01*
X115500000Y-60700000D02*
X115700000Y-60500000D01*
X143900000Y-125800000D02*
X144025000Y-125675000D01*
X134500000Y-125800000D02*
X134625000Y-125675000D01*
X125100000Y-125800000D02*
X125225000Y-125675000D01*
X115700000Y-125800000D02*
X115825000Y-125675000D01*
X106300000Y-125800000D02*
X106425000Y-125675000D01*
X143900000Y-108800000D02*
X144025000Y-108675000D01*
X134500000Y-108800000D02*
X134625000Y-108675000D01*
X125100000Y-108800000D02*
X125225000Y-108675000D01*
X115700000Y-108800000D02*
X115825000Y-108675000D01*
X106300000Y-108800000D02*
X106425000Y-108675000D01*
X143900000Y-91800000D02*
X144025000Y-91675000D01*
X134500000Y-91800000D02*
X134625000Y-91675000D01*
X125100000Y-91800000D02*
X125225000Y-91675000D01*
X115700000Y-91800000D02*
X115825000Y-91675000D01*
X106300000Y-91800000D02*
X106425000Y-91675000D01*
X143900000Y-74800000D02*
X144025000Y-74675000D01*
X134500000Y-74800000D02*
X134625000Y-74675000D01*
X125100000Y-74800000D02*
X125225000Y-74675000D01*
X115700000Y-74800000D02*
X115825000Y-74675000D01*
X106300000Y-74800000D02*
X106425000Y-74675000D01*
X143900000Y-57800000D02*
X144025000Y-57675000D01*
X134500000Y-57800000D02*
X134625000Y-57675000D01*
X125100000Y-57800000D02*
X125225000Y-57675000D01*
X115700000Y-57800000D02*
X115825000Y-57675000D01*
X144025000Y-125675000D02*
X144025000Y-123900000D01*
X134625000Y-125675000D02*
X134625000Y-123900000D01*
X125225000Y-125675000D02*
X125225000Y-123900000D01*
X115825000Y-125675000D02*
X115825000Y-123900000D01*
X106425000Y-125675000D02*
X106425000Y-123900000D01*
X144025000Y-108675000D02*
X144025000Y-106900000D01*
X134625000Y-108675000D02*
X134625000Y-106900000D01*
X125225000Y-108675000D02*
X125225000Y-106900000D01*
X115825000Y-108675000D02*
X115825000Y-106900000D01*
X106425000Y-108675000D02*
X106425000Y-106900000D01*
X144025000Y-91675000D02*
X144025000Y-89900000D01*
X134625000Y-91675000D02*
X134625000Y-89900000D01*
X125225000Y-91675000D02*
X125225000Y-89900000D01*
X115825000Y-91675000D02*
X115825000Y-89900000D01*
X106425000Y-91675000D02*
X106425000Y-89900000D01*
X144025000Y-74675000D02*
X144025000Y-72900000D01*
X134625000Y-74675000D02*
X134625000Y-72900000D01*
X125225000Y-74675000D02*
X125225000Y-72900000D01*
X115825000Y-74675000D02*
X115825000Y-72900000D01*
X106425000Y-74675000D02*
X106425000Y-72900000D01*
X144025000Y-57675000D02*
X144025000Y-55900000D01*
X134625000Y-57675000D02*
X134625000Y-55900000D01*
X125225000Y-57675000D02*
X125225000Y-55900000D01*
X115825000Y-57675000D02*
X115825000Y-55900000D01*
X106300000Y-60500000D02*
X106300000Y-57800000D01*
X106425000Y-57675000D02*
X106425000Y-55900000D01*
X106300000Y-57800000D02*
X106425000Y-57675000D01*
X106100000Y-62400000D02*
X106100000Y-60700000D01*
X106100000Y-60700000D02*
X106300000Y-60500000D01*
X169286000Y-113000000D02*
X169086000Y-112800000D01*
X178686000Y-113000000D02*
X178486000Y-112800000D01*
X169286000Y-130000000D02*
X169086000Y-129800000D01*
X178686000Y-130000000D02*
X178486000Y-129800000D01*
X169286000Y-125400000D02*
X169186000Y-125300000D01*
X178686000Y-125400000D02*
X178586000Y-125300000D01*
X177711000Y-57125000D02*
X177711000Y-55900000D01*
X168311000Y-74125000D02*
X168311000Y-72900000D01*
X177711000Y-74125000D02*
X177711000Y-72900000D01*
X168311000Y-91125000D02*
X168311000Y-89900000D01*
X177711000Y-91125000D02*
X177711000Y-89900000D01*
X168311000Y-108125000D02*
X168311000Y-106900000D01*
X169186000Y-91300000D02*
X168486000Y-91300000D01*
X178586000Y-91300000D02*
X177886000Y-91300000D01*
X169186000Y-108300000D02*
X168486000Y-108300000D01*
X178586000Y-108300000D02*
X177886000Y-108300000D01*
X169186000Y-125300000D02*
X168486000Y-125300000D01*
X178586000Y-125300000D02*
X177886000Y-125300000D01*
X177886000Y-57300000D02*
X177711000Y-57125000D01*
X178686000Y-62400000D02*
X178686000Y-62000000D01*
X169286000Y-79400000D02*
X169286000Y-79000000D01*
X178686000Y-79400000D02*
X178686000Y-79000000D01*
X169286000Y-96400000D02*
X169286000Y-96000000D01*
X178686000Y-96400000D02*
X178686000Y-96000000D01*
X169286000Y-113400000D02*
X169286000Y-113000000D01*
X178686000Y-113400000D02*
X178686000Y-113000000D01*
X178586000Y-57300000D02*
X177886000Y-57300000D01*
X169186000Y-74300000D02*
X168486000Y-74300000D01*
X178586000Y-74300000D02*
X177886000Y-74300000D01*
X177711000Y-108125000D02*
X177711000Y-106900000D01*
X168311000Y-125125000D02*
X168311000Y-123900000D01*
X177711000Y-125125000D02*
X177711000Y-123900000D01*
X178486000Y-60500000D02*
X178486000Y-59300000D01*
X169086000Y-77500000D02*
X169086000Y-76300000D01*
X178486000Y-77500000D02*
X178486000Y-76300000D01*
X169086000Y-94500000D02*
X169086000Y-93300000D01*
X178486000Y-94500000D02*
X178486000Y-93300000D01*
X178686000Y-57400000D02*
X178586000Y-57300000D01*
X169286000Y-74400000D02*
X169186000Y-74300000D01*
X178686000Y-74400000D02*
X178586000Y-74300000D01*
X169286000Y-91400000D02*
X169186000Y-91300000D01*
X169286000Y-57400000D02*
X169186000Y-57300000D01*
X169186000Y-57300000D02*
X168486000Y-57300000D01*
X168486000Y-57300000D02*
X168311000Y-57125000D01*
X168311000Y-57125000D02*
X168311000Y-55900000D01*
X169086000Y-60500000D02*
X169086000Y-59300000D01*
X178686000Y-91400000D02*
X178586000Y-91300000D01*
X169286000Y-108400000D02*
X169186000Y-108300000D01*
X178686000Y-108400000D02*
X178586000Y-108300000D01*
X169286000Y-62400000D02*
X169286000Y-62000000D01*
X169086000Y-59300000D02*
X169286000Y-59100000D01*
X169086000Y-111500000D02*
X169086000Y-110300000D01*
X178486000Y-111500000D02*
X178486000Y-110300000D01*
X169086000Y-128500000D02*
X169086000Y-127300000D01*
X178486000Y-128500000D02*
X178486000Y-127300000D01*
X178486000Y-59300000D02*
X178686000Y-59100000D01*
X169086000Y-76300000D02*
X169286000Y-76100000D01*
X178486000Y-76300000D02*
X178686000Y-76100000D01*
X169286000Y-130400000D02*
X169286000Y-130000000D01*
X178686000Y-130400000D02*
X178686000Y-130000000D01*
X178486000Y-61800000D02*
X178486000Y-60500000D01*
X169086000Y-78800000D02*
X169086000Y-77500000D01*
X178486000Y-78800000D02*
X178486000Y-77500000D01*
X169286000Y-79000000D02*
X169086000Y-78800000D01*
X178686000Y-79000000D02*
X178486000Y-78800000D01*
X169286000Y-62000000D02*
X169086000Y-61800000D01*
X168486000Y-74300000D02*
X168311000Y-74125000D01*
X177886000Y-74300000D02*
X177711000Y-74125000D01*
X168486000Y-91300000D02*
X168311000Y-91125000D01*
X177886000Y-91300000D02*
X177711000Y-91125000D01*
X168486000Y-108300000D02*
X168311000Y-108125000D01*
X177886000Y-108300000D02*
X177711000Y-108125000D01*
X168486000Y-125300000D02*
X168311000Y-125125000D01*
X177886000Y-125300000D02*
X177711000Y-125125000D01*
X169086000Y-93300000D02*
X169286000Y-93100000D01*
X178486000Y-93300000D02*
X178686000Y-93100000D01*
X169086000Y-110300000D02*
X169286000Y-110100000D01*
X178486000Y-110300000D02*
X178686000Y-110100000D01*
X169086000Y-127300000D02*
X169286000Y-127100000D01*
X178486000Y-127300000D02*
X178686000Y-127100000D01*
X178686000Y-62000000D02*
X178486000Y-61800000D01*
X169286000Y-96000000D02*
X169086000Y-95800000D01*
X178686000Y-96000000D02*
X178486000Y-95800000D01*
X169086000Y-95800000D02*
X169086000Y-94500000D01*
X178486000Y-95800000D02*
X178486000Y-94500000D01*
X169086000Y-112800000D02*
X169086000Y-111500000D01*
X178486000Y-112800000D02*
X178486000Y-111500000D01*
X169086000Y-129800000D02*
X169086000Y-128500000D01*
X178486000Y-129800000D02*
X178486000Y-128500000D01*
X169086000Y-61800000D02*
X169086000Y-60500000D01*
X150290000Y-111500000D02*
X150290000Y-110300000D01*
X159690000Y-111500000D02*
X159690000Y-110300000D01*
X150290000Y-128500000D02*
X150290000Y-127300000D01*
X159690000Y-128500000D02*
X159690000Y-127300000D01*
X159690000Y-59300000D02*
X159890000Y-59100000D01*
X150290000Y-76300000D02*
X150490000Y-76100000D01*
X159690000Y-76300000D02*
X159890000Y-76100000D01*
X150490000Y-130400000D02*
X150490000Y-130000000D01*
X159890000Y-130400000D02*
X159890000Y-130000000D01*
X159690000Y-61800000D02*
X159690000Y-60500000D01*
X150290000Y-78800000D02*
X150290000Y-77500000D01*
X159690000Y-78800000D02*
X159690000Y-77500000D01*
X150490000Y-79000000D02*
X150290000Y-78800000D01*
X159890000Y-79000000D02*
X159690000Y-78800000D01*
X150490000Y-96000000D02*
X150290000Y-95800000D01*
X159890000Y-96000000D02*
X159690000Y-95800000D01*
X150490000Y-113000000D02*
X150290000Y-112800000D01*
X159890000Y-113000000D02*
X159690000Y-112800000D01*
X150490000Y-130000000D02*
X150290000Y-129800000D01*
X159890000Y-130000000D02*
X159690000Y-129800000D01*
X150490000Y-125400000D02*
X150390000Y-125300000D01*
X159890000Y-125400000D02*
X159790000Y-125300000D01*
X158915000Y-57125000D02*
X158915000Y-55900000D01*
X149515000Y-74125000D02*
X149515000Y-72900000D01*
X158915000Y-74125000D02*
X158915000Y-72900000D01*
X149515000Y-91125000D02*
X149515000Y-89900000D01*
X158915000Y-91125000D02*
X158915000Y-89900000D01*
X149515000Y-108125000D02*
X149515000Y-106900000D01*
X150390000Y-91300000D02*
X149690000Y-91300000D01*
X159790000Y-91300000D02*
X159090000Y-91300000D01*
X150390000Y-108300000D02*
X149690000Y-108300000D01*
X159790000Y-108300000D02*
X159090000Y-108300000D01*
X150390000Y-125300000D02*
X149690000Y-125300000D01*
X159790000Y-125300000D02*
X159090000Y-125300000D01*
X159090000Y-57300000D02*
X158915000Y-57125000D01*
X150290000Y-95800000D02*
X150290000Y-94500000D01*
X159690000Y-95800000D02*
X159690000Y-94500000D01*
X150290000Y-112800000D02*
X150290000Y-111500000D01*
X159690000Y-112800000D02*
X159690000Y-111500000D01*
X150290000Y-129800000D02*
X150290000Y-128500000D01*
X159690000Y-129800000D02*
X159690000Y-128500000D01*
X159890000Y-62400000D02*
X159890000Y-62000000D01*
X150490000Y-79400000D02*
X150490000Y-79000000D01*
X159890000Y-79400000D02*
X159890000Y-79000000D01*
X150490000Y-96400000D02*
X150490000Y-96000000D01*
X159890000Y-96400000D02*
X159890000Y-96000000D01*
X150490000Y-113400000D02*
X150490000Y-113000000D01*
X159890000Y-113400000D02*
X159890000Y-113000000D01*
X149690000Y-74300000D02*
X149515000Y-74125000D01*
X159090000Y-74300000D02*
X158915000Y-74125000D01*
X149690000Y-91300000D02*
X149515000Y-91125000D01*
X159090000Y-91300000D02*
X158915000Y-91125000D01*
X149690000Y-108300000D02*
X149515000Y-108125000D01*
X159090000Y-108300000D02*
X158915000Y-108125000D01*
X149690000Y-125300000D02*
X149515000Y-125125000D01*
X159090000Y-125300000D02*
X158915000Y-125125000D01*
X150290000Y-93300000D02*
X150490000Y-93100000D01*
X159690000Y-93300000D02*
X159890000Y-93100000D01*
X150290000Y-110300000D02*
X150490000Y-110100000D01*
X159690000Y-110300000D02*
X159890000Y-110100000D01*
X150290000Y-127300000D02*
X150490000Y-127100000D01*
X159690000Y-127300000D02*
X159890000Y-127100000D01*
X159890000Y-62000000D02*
X159690000Y-61800000D01*
X159790000Y-57300000D02*
X159090000Y-57300000D01*
X150390000Y-74300000D02*
X149690000Y-74300000D01*
X159790000Y-74300000D02*
X159090000Y-74300000D01*
X158915000Y-108125000D02*
X158915000Y-106900000D01*
X149515000Y-125125000D02*
X149515000Y-123900000D01*
X158915000Y-125125000D02*
X158915000Y-123900000D01*
X159690000Y-60500000D02*
X159690000Y-59300000D01*
X150290000Y-77500000D02*
X150290000Y-76300000D01*
X159690000Y-77500000D02*
X159690000Y-76300000D01*
X150290000Y-94500000D02*
X150290000Y-93300000D01*
X159690000Y-94500000D02*
X159690000Y-93300000D01*
X159890000Y-57400000D02*
X159790000Y-57300000D01*
X150490000Y-74400000D02*
X150390000Y-74300000D01*
X159890000Y-74400000D02*
X159790000Y-74300000D01*
X150490000Y-91400000D02*
X150390000Y-91300000D01*
X159890000Y-91400000D02*
X159790000Y-91300000D01*
X150490000Y-108400000D02*
X150390000Y-108300000D01*
X159890000Y-108400000D02*
X159790000Y-108300000D01*
X150490000Y-57400000D02*
X150390000Y-57300000D01*
X150390000Y-57300000D02*
X149690000Y-57300000D01*
X149690000Y-57300000D02*
X149515000Y-57125000D01*
X149515000Y-57125000D02*
X149515000Y-55900000D01*
X150290000Y-60500000D02*
X150290000Y-59300000D01*
X150290000Y-61800000D02*
X150290000Y-60500000D01*
X150490000Y-62000000D02*
X150290000Y-61800000D01*
X150490000Y-62400000D02*
X150490000Y-62000000D01*
X150290000Y-59300000D02*
X150490000Y-59100000D01*
X140900000Y-129800000D02*
X140900000Y-128500000D01*
X131500000Y-129800000D02*
X131500000Y-128500000D01*
X122100000Y-129800000D02*
X122100000Y-128500000D01*
X112700000Y-129800000D02*
X112700000Y-128500000D01*
X103300000Y-129800000D02*
X103300000Y-128500000D01*
X140900000Y-112800000D02*
X140900000Y-111500000D01*
X131500000Y-112800000D02*
X131500000Y-111500000D01*
X122100000Y-112800000D02*
X122100000Y-111500000D01*
X112700000Y-112800000D02*
X112700000Y-111500000D01*
X103300000Y-112800000D02*
X103300000Y-111500000D01*
X140900000Y-95800000D02*
X140900000Y-94500000D01*
X131500000Y-95800000D02*
X131500000Y-94500000D01*
X122100000Y-95800000D02*
X122100000Y-94500000D01*
X112700000Y-95800000D02*
X112700000Y-94500000D01*
X103300000Y-95800000D02*
X103300000Y-94500000D01*
X140900000Y-78800000D02*
X140900000Y-77500000D01*
X131500000Y-78800000D02*
X131500000Y-77500000D01*
X122100000Y-78800000D02*
X122100000Y-77500000D01*
X112700000Y-78800000D02*
X112700000Y-77500000D01*
X103300000Y-78800000D02*
X103300000Y-77500000D01*
X140900000Y-61800000D02*
X140900000Y-60500000D01*
X131500000Y-61800000D02*
X131500000Y-60500000D01*
X122100000Y-61800000D02*
X122100000Y-60500000D01*
X112700000Y-61800000D02*
X112700000Y-60500000D01*
X141100000Y-130400000D02*
X141100000Y-130000000D01*
X131700000Y-130400000D02*
X131700000Y-130000000D01*
X122300000Y-130400000D02*
X122300000Y-130000000D01*
X112900000Y-130400000D02*
X112900000Y-130000000D01*
X103500000Y-130400000D02*
X103500000Y-130000000D01*
X141100000Y-113400000D02*
X141100000Y-113000000D01*
X131700000Y-113400000D02*
X131700000Y-113000000D01*
X122300000Y-113400000D02*
X122300000Y-113000000D01*
X112900000Y-113400000D02*
X112900000Y-113000000D01*
X103500000Y-113400000D02*
X103500000Y-113000000D01*
X141100000Y-96400000D02*
X141100000Y-96000000D01*
X131700000Y-96400000D02*
X131700000Y-96000000D01*
X122300000Y-96400000D02*
X122300000Y-96000000D01*
X112900000Y-96400000D02*
X112900000Y-96000000D01*
X103500000Y-96400000D02*
X103500000Y-96000000D01*
X141100000Y-79400000D02*
X141100000Y-79000000D01*
X131700000Y-79400000D02*
X131700000Y-79000000D01*
X122300000Y-79400000D02*
X122300000Y-79000000D01*
X112900000Y-79400000D02*
X112900000Y-79000000D01*
X103500000Y-79400000D02*
X103500000Y-79000000D01*
X141100000Y-62400000D02*
X141100000Y-62000000D01*
X131700000Y-62400000D02*
X131700000Y-62000000D01*
X122300000Y-62400000D02*
X122300000Y-62000000D01*
X112900000Y-62400000D02*
X112900000Y-62000000D01*
X141100000Y-130000000D02*
X140900000Y-129800000D01*
X131700000Y-130000000D02*
X131500000Y-129800000D01*
X122300000Y-130000000D02*
X122100000Y-129800000D01*
X112900000Y-130000000D02*
X112700000Y-129800000D01*
X103500000Y-130000000D02*
X103300000Y-129800000D01*
X141100000Y-113000000D02*
X140900000Y-112800000D01*
X131700000Y-113000000D02*
X131500000Y-112800000D01*
X122300000Y-113000000D02*
X122100000Y-112800000D01*
X112900000Y-113000000D02*
X112700000Y-112800000D01*
X103500000Y-113000000D02*
X103300000Y-112800000D01*
X141100000Y-96000000D02*
X140900000Y-95800000D01*
X131700000Y-96000000D02*
X131500000Y-95800000D01*
X122300000Y-96000000D02*
X122100000Y-95800000D01*
X112900000Y-96000000D02*
X112700000Y-95800000D01*
X103500000Y-96000000D02*
X103300000Y-95800000D01*
X141100000Y-79000000D02*
X140900000Y-78800000D01*
X131700000Y-79000000D02*
X131500000Y-78800000D01*
X122300000Y-79000000D02*
X122100000Y-78800000D01*
X112900000Y-79000000D02*
X112700000Y-78800000D01*
X103500000Y-79000000D02*
X103300000Y-78800000D01*
X141100000Y-62000000D02*
X140900000Y-61800000D01*
X131700000Y-62000000D02*
X131500000Y-61800000D01*
X122300000Y-62000000D02*
X122100000Y-61800000D01*
X112900000Y-62000000D02*
X112700000Y-61800000D01*
X140900000Y-127300000D02*
X141100000Y-127100000D01*
X131500000Y-127300000D02*
X131700000Y-127100000D01*
X122100000Y-127300000D02*
X122300000Y-127100000D01*
X112700000Y-127300000D02*
X112900000Y-127100000D01*
X103300000Y-127300000D02*
X103500000Y-127100000D01*
X140900000Y-110300000D02*
X141100000Y-110100000D01*
X131500000Y-110300000D02*
X131700000Y-110100000D01*
X122100000Y-110300000D02*
X122300000Y-110100000D01*
X112700000Y-110300000D02*
X112900000Y-110100000D01*
X103300000Y-110300000D02*
X103500000Y-110100000D01*
X140900000Y-93300000D02*
X141100000Y-93100000D01*
X131500000Y-93300000D02*
X131700000Y-93100000D01*
X122100000Y-93300000D02*
X122300000Y-93100000D01*
X112700000Y-93300000D02*
X112900000Y-93100000D01*
X103300000Y-93300000D02*
X103500000Y-93100000D01*
X140900000Y-76300000D02*
X141100000Y-76100000D01*
X131500000Y-76300000D02*
X131700000Y-76100000D01*
X122100000Y-76300000D02*
X122300000Y-76100000D01*
X112700000Y-76300000D02*
X112900000Y-76100000D01*
X103300000Y-76300000D02*
X103500000Y-76100000D01*
X140900000Y-59300000D02*
X141100000Y-59100000D01*
X131500000Y-59300000D02*
X131700000Y-59100000D01*
X122100000Y-59300000D02*
X122300000Y-59100000D01*
X112700000Y-59300000D02*
X112900000Y-59100000D01*
X140900000Y-128500000D02*
X140900000Y-127300000D01*
X131500000Y-128500000D02*
X131500000Y-127300000D01*
X122100000Y-128500000D02*
X122100000Y-127300000D01*
X112700000Y-128500000D02*
X112700000Y-127300000D01*
X103300000Y-128500000D02*
X103300000Y-127300000D01*
X140900000Y-111500000D02*
X140900000Y-110300000D01*
X131500000Y-111500000D02*
X131500000Y-110300000D01*
X122100000Y-111500000D02*
X122100000Y-110300000D01*
X112700000Y-111500000D02*
X112700000Y-110300000D01*
X103300000Y-111500000D02*
X103300000Y-110300000D01*
X140900000Y-94500000D02*
X140900000Y-93300000D01*
X131500000Y-94500000D02*
X131500000Y-93300000D01*
X122100000Y-94500000D02*
X122100000Y-93300000D01*
X112700000Y-94500000D02*
X112700000Y-93300000D01*
X103300000Y-94500000D02*
X103300000Y-93300000D01*
X140900000Y-77500000D02*
X140900000Y-76300000D01*
X131500000Y-77500000D02*
X131500000Y-76300000D01*
X122100000Y-77500000D02*
X122100000Y-76300000D01*
X112700000Y-77500000D02*
X112700000Y-76300000D01*
X103300000Y-77500000D02*
X103300000Y-76300000D01*
X140900000Y-60500000D02*
X140900000Y-59300000D01*
X131500000Y-60500000D02*
X131500000Y-59300000D01*
X122100000Y-60500000D02*
X122100000Y-59300000D01*
X112700000Y-60500000D02*
X112700000Y-59300000D01*
X140125000Y-125125000D02*
X140125000Y-123900000D01*
X130725000Y-125125000D02*
X130725000Y-123900000D01*
X121325000Y-125125000D02*
X121325000Y-123900000D01*
X111925000Y-125125000D02*
X111925000Y-123900000D01*
X102525000Y-125125000D02*
X102525000Y-123900000D01*
X140125000Y-108125000D02*
X140125000Y-106900000D01*
X130725000Y-108125000D02*
X130725000Y-106900000D01*
X121325000Y-108125000D02*
X121325000Y-106900000D01*
X111925000Y-108125000D02*
X111925000Y-106900000D01*
X102525000Y-108125000D02*
X102525000Y-106900000D01*
X140125000Y-91125000D02*
X140125000Y-89900000D01*
X130725000Y-91125000D02*
X130725000Y-89900000D01*
X121325000Y-91125000D02*
X121325000Y-89900000D01*
X111925000Y-91125000D02*
X111925000Y-89900000D01*
X102525000Y-91125000D02*
X102525000Y-89900000D01*
X140125000Y-74125000D02*
X140125000Y-72900000D01*
X130725000Y-74125000D02*
X130725000Y-72900000D01*
X121325000Y-74125000D02*
X121325000Y-72900000D01*
X111925000Y-74125000D02*
X111925000Y-72900000D01*
X102525000Y-74125000D02*
X102525000Y-72900000D01*
X140125000Y-57125000D02*
X140125000Y-55900000D01*
X130725000Y-57125000D02*
X130725000Y-55900000D01*
X121325000Y-57125000D02*
X121325000Y-55900000D01*
X111925000Y-57125000D02*
X111925000Y-55900000D01*
X141100000Y-125400000D02*
X141000000Y-125300000D01*
X131700000Y-125400000D02*
X131600000Y-125300000D01*
X122300000Y-125400000D02*
X122200000Y-125300000D01*
X112900000Y-125400000D02*
X112800000Y-125300000D01*
X103500000Y-125400000D02*
X103400000Y-125300000D01*
X141100000Y-108400000D02*
X141000000Y-108300000D01*
X131700000Y-108400000D02*
X131600000Y-108300000D01*
X122300000Y-108400000D02*
X122200000Y-108300000D01*
X112900000Y-108400000D02*
X112800000Y-108300000D01*
X103500000Y-108400000D02*
X103400000Y-108300000D01*
X141100000Y-91400000D02*
X141000000Y-91300000D01*
X131700000Y-91400000D02*
X131600000Y-91300000D01*
X122300000Y-91400000D02*
X122200000Y-91300000D01*
X112900000Y-91400000D02*
X112800000Y-91300000D01*
X103500000Y-91400000D02*
X103400000Y-91300000D01*
X141100000Y-74400000D02*
X141000000Y-74300000D01*
X131700000Y-74400000D02*
X131600000Y-74300000D01*
X122300000Y-74400000D02*
X122200000Y-74300000D01*
X112900000Y-74400000D02*
X112800000Y-74300000D01*
X103500000Y-74400000D02*
X103400000Y-74300000D01*
X141100000Y-57400000D02*
X141000000Y-57300000D01*
X131700000Y-57400000D02*
X131600000Y-57300000D01*
X122300000Y-57400000D02*
X122200000Y-57300000D01*
X112900000Y-57400000D02*
X112800000Y-57300000D01*
X140300000Y-125300000D02*
X140125000Y-125125000D01*
X130900000Y-125300000D02*
X130725000Y-125125000D01*
X121500000Y-125300000D02*
X121325000Y-125125000D01*
X112100000Y-125300000D02*
X111925000Y-125125000D01*
X102700000Y-125300000D02*
X102525000Y-125125000D01*
X140300000Y-108300000D02*
X140125000Y-108125000D01*
X130900000Y-108300000D02*
X130725000Y-108125000D01*
X121500000Y-108300000D02*
X121325000Y-108125000D01*
X112100000Y-108300000D02*
X111925000Y-108125000D01*
X102700000Y-108300000D02*
X102525000Y-108125000D01*
X140300000Y-91300000D02*
X140125000Y-91125000D01*
X130900000Y-91300000D02*
X130725000Y-91125000D01*
X121500000Y-91300000D02*
X121325000Y-91125000D01*
X112100000Y-91300000D02*
X111925000Y-91125000D01*
X102700000Y-91300000D02*
X102525000Y-91125000D01*
X140300000Y-74300000D02*
X140125000Y-74125000D01*
X130900000Y-74300000D02*
X130725000Y-74125000D01*
X121500000Y-74300000D02*
X121325000Y-74125000D01*
X112100000Y-74300000D02*
X111925000Y-74125000D01*
X102700000Y-74300000D02*
X102525000Y-74125000D01*
X140300000Y-57300000D02*
X140125000Y-57125000D01*
X130900000Y-57300000D02*
X130725000Y-57125000D01*
X121500000Y-57300000D02*
X121325000Y-57125000D01*
X112100000Y-57300000D02*
X111925000Y-57125000D01*
X141000000Y-125300000D02*
X140300000Y-125300000D01*
X131600000Y-125300000D02*
X130900000Y-125300000D01*
X122200000Y-125300000D02*
X121500000Y-125300000D01*
X112800000Y-125300000D02*
X112100000Y-125300000D01*
X103400000Y-125300000D02*
X102700000Y-125300000D01*
X141000000Y-108300000D02*
X140300000Y-108300000D01*
X131600000Y-108300000D02*
X130900000Y-108300000D01*
X122200000Y-108300000D02*
X121500000Y-108300000D01*
X112800000Y-108300000D02*
X112100000Y-108300000D01*
X103400000Y-108300000D02*
X102700000Y-108300000D01*
X141000000Y-91300000D02*
X140300000Y-91300000D01*
X131600000Y-91300000D02*
X130900000Y-91300000D01*
X122200000Y-91300000D02*
X121500000Y-91300000D01*
X112800000Y-91300000D02*
X112100000Y-91300000D01*
X103400000Y-91300000D02*
X102700000Y-91300000D01*
X141000000Y-74300000D02*
X140300000Y-74300000D01*
X131600000Y-74300000D02*
X130900000Y-74300000D01*
X122200000Y-74300000D02*
X121500000Y-74300000D01*
X112800000Y-74300000D02*
X112100000Y-74300000D01*
X103400000Y-74300000D02*
X102700000Y-74300000D01*
X141000000Y-57300000D02*
X140300000Y-57300000D01*
X131600000Y-57300000D02*
X130900000Y-57300000D01*
X122200000Y-57300000D02*
X121500000Y-57300000D01*
X112800000Y-57300000D02*
X112100000Y-57300000D01*
X103300000Y-60500000D02*
X103300000Y-59300000D01*
X102525000Y-57125000D02*
X102525000Y-55900000D01*
X102700000Y-57300000D02*
X102525000Y-57125000D01*
X103400000Y-57300000D02*
X102700000Y-57300000D01*
X103500000Y-57400000D02*
X103400000Y-57300000D01*
X103300000Y-59300000D02*
X103500000Y-59100000D01*
X103500000Y-62400000D02*
X103500000Y-62000000D01*
X103500000Y-62000000D02*
X103300000Y-61800000D01*
X103300000Y-61800000D02*
X103300000Y-60500000D01*
X179486000Y-61700000D02*
X179486000Y-60500000D01*
X170086000Y-78700000D02*
X170086000Y-77500000D01*
X179486000Y-78700000D02*
X179486000Y-77500000D01*
X170086000Y-95700000D02*
X170086000Y-94500000D01*
X179486000Y-95700000D02*
X179486000Y-94500000D01*
X170086000Y-112700000D02*
X170086000Y-111500000D01*
X179486000Y-112700000D02*
X179486000Y-111500000D01*
X170586000Y-92200000D02*
X170586000Y-91800000D01*
X179986000Y-92200000D02*
X179986000Y-91800000D01*
X170586000Y-109200000D02*
X170586000Y-108800000D01*
X179986000Y-109200000D02*
X179986000Y-108800000D01*
X170586000Y-126200000D02*
X170586000Y-125800000D01*
X179986000Y-126200000D02*
X179986000Y-125800000D01*
X179786000Y-62900000D02*
X179786000Y-62000000D01*
X178586000Y-81100000D02*
X179786000Y-79900000D01*
X169186000Y-98100000D02*
X170386000Y-96900000D01*
X178586000Y-98100000D02*
X179786000Y-96900000D01*
X169186000Y-115100000D02*
X170386000Y-113900000D01*
X170386000Y-62000000D02*
X170086000Y-61700000D01*
X170386000Y-62900000D02*
X170386000Y-62000000D01*
X169186000Y-64100000D02*
X170386000Y-62900000D01*
X168686000Y-64100000D02*
X169186000Y-64100000D01*
X170086000Y-58700000D02*
X170586000Y-58200000D01*
X170586000Y-58200000D02*
X170586000Y-57800000D01*
X170586000Y-57800000D02*
X169611000Y-56825000D01*
X169611000Y-56825000D02*
X169611000Y-55900000D01*
X178586000Y-115100000D02*
X179786000Y-113900000D01*
X169186000Y-132100000D02*
X170386000Y-130900000D01*
X178586000Y-132100000D02*
X179786000Y-130900000D01*
X170086000Y-61700000D02*
X170086000Y-60500000D01*
X178086000Y-64100000D02*
X178586000Y-64100000D01*
X168686000Y-81100000D02*
X169186000Y-81100000D01*
X178086000Y-81100000D02*
X178586000Y-81100000D01*
X168686000Y-98100000D02*
X169186000Y-98100000D01*
X178086000Y-98100000D02*
X178586000Y-98100000D01*
X169611000Y-107825000D02*
X169611000Y-106900000D01*
X179011000Y-107825000D02*
X179011000Y-106900000D01*
X170586000Y-125800000D02*
X169611000Y-124825000D01*
X179986000Y-125800000D02*
X179011000Y-124825000D01*
X179486000Y-60500000D02*
X179486000Y-58700000D01*
X170086000Y-77500000D02*
X170086000Y-75700000D01*
X179486000Y-77500000D02*
X179486000Y-75700000D01*
X170086000Y-94500000D02*
X170086000Y-92700000D01*
X179486000Y-94500000D02*
X179486000Y-92700000D01*
X170386000Y-79000000D02*
X170086000Y-78700000D01*
X179786000Y-79000000D02*
X179486000Y-78700000D01*
X170386000Y-96000000D02*
X170086000Y-95700000D01*
X179786000Y-96000000D02*
X179486000Y-95700000D01*
X170386000Y-113000000D02*
X170086000Y-112700000D01*
X179786000Y-113000000D02*
X179486000Y-112700000D01*
X170386000Y-130000000D02*
X170086000Y-129700000D01*
X179786000Y-130000000D02*
X179486000Y-129700000D01*
X170086000Y-111500000D02*
X170086000Y-109700000D01*
X179486000Y-111500000D02*
X179486000Y-109700000D01*
X170086000Y-128500000D02*
X170086000Y-126700000D01*
X179486000Y-128500000D02*
X179486000Y-126700000D01*
X179486000Y-58700000D02*
X179986000Y-58200000D01*
X170086000Y-75700000D02*
X170586000Y-75200000D01*
X179486000Y-75700000D02*
X179986000Y-75200000D01*
X170086000Y-92700000D02*
X170586000Y-92200000D01*
X179486000Y-92700000D02*
X179986000Y-92200000D01*
X170386000Y-79900000D02*
X170386000Y-79000000D01*
X179786000Y-79900000D02*
X179786000Y-79000000D01*
X170386000Y-96900000D02*
X170386000Y-96000000D01*
X179786000Y-96900000D02*
X179786000Y-96000000D01*
X170386000Y-113900000D02*
X170386000Y-113000000D01*
X179786000Y-113900000D02*
X179786000Y-113000000D01*
X170386000Y-130900000D02*
X170386000Y-130000000D01*
X179786000Y-130900000D02*
X179786000Y-130000000D01*
X179786000Y-62000000D02*
X179486000Y-61700000D01*
X179011000Y-124825000D02*
X179011000Y-123900000D01*
X179986000Y-57800000D02*
X179011000Y-56825000D01*
X170586000Y-74800000D02*
X169611000Y-73825000D01*
X179986000Y-74800000D02*
X179011000Y-73825000D01*
X170586000Y-91800000D02*
X169611000Y-90825000D01*
X179986000Y-91800000D02*
X179011000Y-90825000D01*
X170586000Y-108800000D02*
X169611000Y-107825000D01*
X179986000Y-108800000D02*
X179011000Y-107825000D01*
X170086000Y-109700000D02*
X170586000Y-109200000D01*
X179486000Y-109700000D02*
X179986000Y-109200000D01*
X170086000Y-126700000D02*
X170586000Y-126200000D01*
X179486000Y-126700000D02*
X179986000Y-126200000D01*
X179986000Y-58200000D02*
X179986000Y-57800000D01*
X170586000Y-75200000D02*
X170586000Y-74800000D01*
X179986000Y-75200000D02*
X179986000Y-74800000D01*
X170086000Y-129700000D02*
X170086000Y-128500000D01*
X179486000Y-129700000D02*
X179486000Y-128500000D01*
X178586000Y-64100000D02*
X179786000Y-62900000D01*
X169186000Y-81100000D02*
X170386000Y-79900000D01*
X179011000Y-73825000D02*
X179011000Y-72900000D01*
X169611000Y-90825000D02*
X169611000Y-89900000D01*
X179011000Y-90825000D02*
X179011000Y-89900000D01*
X170086000Y-60500000D02*
X170086000Y-58700000D01*
X179011000Y-56825000D02*
X179011000Y-55900000D01*
X169611000Y-73825000D02*
X169611000Y-72900000D01*
X169611000Y-124825000D02*
X169611000Y-123900000D01*
X168686000Y-132100000D02*
X169186000Y-132100000D01*
X178086000Y-132100000D02*
X178586000Y-132100000D01*
X168686000Y-115100000D02*
X169186000Y-115100000D01*
X178086000Y-115100000D02*
X178586000Y-115100000D01*
X151790000Y-125800000D02*
X150815000Y-124825000D01*
X161190000Y-125800000D02*
X160215000Y-124825000D01*
X160690000Y-60500000D02*
X160690000Y-58700000D01*
X151290000Y-77500000D02*
X151290000Y-75700000D01*
X160690000Y-77500000D02*
X160690000Y-75700000D01*
X151290000Y-94500000D02*
X151290000Y-92700000D01*
X160690000Y-94500000D02*
X160690000Y-92700000D01*
X151590000Y-79000000D02*
X151290000Y-78700000D01*
X160990000Y-79000000D02*
X160690000Y-78700000D01*
X151590000Y-96000000D02*
X151290000Y-95700000D01*
X160990000Y-96000000D02*
X160690000Y-95700000D01*
X151590000Y-113000000D02*
X151290000Y-112700000D01*
X160990000Y-113000000D02*
X160690000Y-112700000D01*
X151590000Y-130000000D02*
X151290000Y-129700000D01*
X160990000Y-130000000D02*
X160690000Y-129700000D01*
X160690000Y-61700000D02*
X160690000Y-60500000D01*
X151290000Y-78700000D02*
X151290000Y-77500000D01*
X160690000Y-78700000D02*
X160690000Y-77500000D01*
X151290000Y-95700000D02*
X151290000Y-94500000D01*
X160690000Y-95700000D02*
X160690000Y-94500000D01*
X151290000Y-112700000D02*
X151290000Y-111500000D01*
X160690000Y-112700000D02*
X160690000Y-111500000D01*
X151790000Y-92200000D02*
X151790000Y-91800000D01*
X161190000Y-92200000D02*
X161190000Y-91800000D01*
X151790000Y-109200000D02*
X151790000Y-108800000D01*
X161190000Y-109200000D02*
X161190000Y-108800000D01*
X151790000Y-126200000D02*
X151790000Y-125800000D01*
X161190000Y-126200000D02*
X161190000Y-125800000D01*
X160990000Y-62900000D02*
X160990000Y-62000000D01*
X151290000Y-111500000D02*
X151290000Y-109700000D01*
X160690000Y-111500000D02*
X160690000Y-109700000D01*
X151290000Y-128500000D02*
X151290000Y-126700000D01*
X160690000Y-128500000D02*
X160690000Y-126700000D01*
X160690000Y-58700000D02*
X161190000Y-58200000D01*
X151290000Y-75700000D02*
X151790000Y-75200000D01*
X160690000Y-75700000D02*
X161190000Y-75200000D01*
X151290000Y-92700000D02*
X151790000Y-92200000D01*
X160690000Y-92700000D02*
X161190000Y-92200000D01*
X151590000Y-79900000D02*
X151590000Y-79000000D01*
X160990000Y-79900000D02*
X160990000Y-79000000D01*
X151590000Y-96900000D02*
X151590000Y-96000000D01*
X160990000Y-96900000D02*
X160990000Y-96000000D01*
X151590000Y-113900000D02*
X151590000Y-113000000D01*
X160990000Y-113900000D02*
X160990000Y-113000000D01*
X151590000Y-130900000D02*
X151590000Y-130000000D01*
X160990000Y-130900000D02*
X160990000Y-130000000D01*
X160990000Y-62000000D02*
X160690000Y-61700000D01*
X160215000Y-124825000D02*
X160215000Y-123900000D01*
X161190000Y-57800000D02*
X160215000Y-56825000D01*
X151790000Y-74800000D02*
X150815000Y-73825000D01*
X161190000Y-74800000D02*
X160215000Y-73825000D01*
X151790000Y-91800000D02*
X150815000Y-90825000D01*
X161190000Y-91800000D02*
X160215000Y-90825000D01*
X151790000Y-108800000D02*
X150815000Y-107825000D01*
X161190000Y-108800000D02*
X160215000Y-107825000D01*
X151290000Y-109700000D02*
X151790000Y-109200000D01*
X160690000Y-109700000D02*
X161190000Y-109200000D01*
X151290000Y-126700000D02*
X151790000Y-126200000D01*
X160690000Y-126700000D02*
X161190000Y-126200000D01*
X161190000Y-58200000D02*
X161190000Y-57800000D01*
X151790000Y-75200000D02*
X151790000Y-74800000D01*
X161190000Y-75200000D02*
X161190000Y-74800000D01*
X151290000Y-129700000D02*
X151290000Y-128500000D01*
X160690000Y-129700000D02*
X160690000Y-128500000D01*
X159790000Y-64100000D02*
X160990000Y-62900000D01*
X150390000Y-81100000D02*
X151590000Y-79900000D01*
X159790000Y-81100000D02*
X160990000Y-79900000D01*
X150390000Y-98100000D02*
X151590000Y-96900000D01*
X159790000Y-98100000D02*
X160990000Y-96900000D01*
X150390000Y-115100000D02*
X151590000Y-113900000D01*
X151290000Y-61700000D02*
X151290000Y-60500000D01*
X151590000Y-62000000D02*
X151290000Y-61700000D01*
X151590000Y-62900000D02*
X151590000Y-62000000D01*
X150390000Y-64100000D02*
X151590000Y-62900000D01*
X149890000Y-64100000D02*
X150390000Y-64100000D01*
X151290000Y-58700000D02*
X151790000Y-58200000D01*
X151790000Y-58200000D02*
X151790000Y-57800000D01*
X151790000Y-57800000D02*
X150815000Y-56825000D01*
X150815000Y-56825000D02*
X150815000Y-55900000D01*
X159790000Y-115100000D02*
X160990000Y-113900000D01*
X150390000Y-132100000D02*
X151590000Y-130900000D01*
X159790000Y-132100000D02*
X160990000Y-130900000D01*
X159290000Y-64100000D02*
X159790000Y-64100000D01*
X149890000Y-81100000D02*
X150390000Y-81100000D01*
X159290000Y-81100000D02*
X159790000Y-81100000D01*
X149890000Y-98100000D02*
X150390000Y-98100000D01*
X159290000Y-98100000D02*
X159790000Y-98100000D01*
X151290000Y-60500000D02*
X151290000Y-58700000D01*
X160215000Y-56825000D02*
X160215000Y-55900000D01*
X150815000Y-73825000D02*
X150815000Y-72900000D01*
X160215000Y-73825000D02*
X160215000Y-72900000D01*
X150815000Y-90825000D02*
X150815000Y-89900000D01*
X160215000Y-90825000D02*
X160215000Y-89900000D01*
X150815000Y-107825000D02*
X150815000Y-106900000D01*
X160215000Y-107825000D02*
X160215000Y-106900000D01*
X150815000Y-124825000D02*
X150815000Y-123900000D01*
X149890000Y-115100000D02*
X150390000Y-115100000D01*
X159290000Y-115100000D02*
X159790000Y-115100000D01*
X149890000Y-132100000D02*
X150390000Y-132100000D01*
X159290000Y-132100000D02*
X159790000Y-132100000D01*
X140500000Y-132100000D02*
X141000000Y-132100000D01*
X131100000Y-132100000D02*
X131600000Y-132100000D01*
X121700000Y-132100000D02*
X122200000Y-132100000D01*
X112300000Y-132100000D02*
X112800000Y-132100000D01*
X102900000Y-132100000D02*
X103400000Y-132100000D01*
X140500000Y-115100000D02*
X141000000Y-115100000D01*
X131100000Y-115100000D02*
X131600000Y-115100000D01*
X121700000Y-115100000D02*
X122200000Y-115100000D01*
X112300000Y-115100000D02*
X112800000Y-115100000D01*
X102900000Y-115100000D02*
X103400000Y-115100000D01*
X140500000Y-98100000D02*
X141000000Y-98100000D01*
X131100000Y-98100000D02*
X131600000Y-98100000D01*
X121700000Y-98100000D02*
X122200000Y-98100000D01*
X112300000Y-98100000D02*
X112800000Y-98100000D01*
X102900000Y-98100000D02*
X103400000Y-98100000D01*
X140500000Y-81100000D02*
X141000000Y-81100000D01*
X131100000Y-81100000D02*
X131600000Y-81100000D01*
X121700000Y-81100000D02*
X122200000Y-81100000D01*
X112300000Y-81100000D02*
X112800000Y-81100000D01*
X102900000Y-81100000D02*
X103400000Y-81100000D01*
X140500000Y-64100000D02*
X141000000Y-64100000D01*
X131100000Y-64100000D02*
X131600000Y-64100000D01*
X121700000Y-64100000D02*
X122200000Y-64100000D01*
X112300000Y-64100000D02*
X112800000Y-64100000D01*
X141000000Y-132100000D02*
X142200000Y-130900000D01*
X131600000Y-132100000D02*
X132800000Y-130900000D01*
X122200000Y-132100000D02*
X123400000Y-130900000D01*
X112800000Y-132100000D02*
X114000000Y-130900000D01*
X103400000Y-132100000D02*
X104600000Y-130900000D01*
X141000000Y-115100000D02*
X142200000Y-113900000D01*
X131600000Y-115100000D02*
X132800000Y-113900000D01*
X122200000Y-115100000D02*
X123400000Y-113900000D01*
X112800000Y-115100000D02*
X114000000Y-113900000D01*
X103400000Y-115100000D02*
X104600000Y-113900000D01*
X141000000Y-98100000D02*
X142200000Y-96900000D01*
X131600000Y-98100000D02*
X132800000Y-96900000D01*
X122200000Y-98100000D02*
X123400000Y-96900000D01*
X112800000Y-98100000D02*
X114000000Y-96900000D01*
X103400000Y-98100000D02*
X104600000Y-96900000D01*
X141000000Y-81100000D02*
X142200000Y-79900000D01*
X131600000Y-81100000D02*
X132800000Y-79900000D01*
X122200000Y-81100000D02*
X123400000Y-79900000D01*
X112800000Y-81100000D02*
X114000000Y-79900000D01*
X103400000Y-81100000D02*
X104600000Y-79900000D01*
X141000000Y-64100000D02*
X142200000Y-62900000D01*
X131600000Y-64100000D02*
X132800000Y-62900000D01*
X122200000Y-64100000D02*
X123400000Y-62900000D01*
X112800000Y-64100000D02*
X114000000Y-62900000D01*
X141900000Y-129700000D02*
X141900000Y-128500000D01*
X132500000Y-129700000D02*
X132500000Y-128500000D01*
X123100000Y-129700000D02*
X123100000Y-128500000D01*
X113700000Y-129700000D02*
X113700000Y-128500000D01*
X104300000Y-129700000D02*
X104300000Y-128500000D01*
X141900000Y-112700000D02*
X141900000Y-111500000D01*
X132500000Y-112700000D02*
X132500000Y-111500000D01*
X123100000Y-112700000D02*
X123100000Y-111500000D01*
X113700000Y-112700000D02*
X113700000Y-111500000D01*
X104300000Y-112700000D02*
X104300000Y-111500000D01*
X141900000Y-95700000D02*
X141900000Y-94500000D01*
X132500000Y-95700000D02*
X132500000Y-94500000D01*
X123100000Y-95700000D02*
X123100000Y-94500000D01*
X113700000Y-95700000D02*
X113700000Y-94500000D01*
X104300000Y-95700000D02*
X104300000Y-94500000D01*
X141900000Y-78700000D02*
X141900000Y-77500000D01*
X132500000Y-78700000D02*
X132500000Y-77500000D01*
X123100000Y-78700000D02*
X123100000Y-77500000D01*
X113700000Y-78700000D02*
X113700000Y-77500000D01*
X104300000Y-78700000D02*
X104300000Y-77500000D01*
X141900000Y-61700000D02*
X141900000Y-60500000D01*
X132500000Y-61700000D02*
X132500000Y-60500000D01*
X123100000Y-61700000D02*
X123100000Y-60500000D01*
X113700000Y-61700000D02*
X113700000Y-60500000D01*
X142200000Y-130000000D02*
X141900000Y-129700000D01*
X132800000Y-130000000D02*
X132500000Y-129700000D01*
X123400000Y-130000000D02*
X123100000Y-129700000D01*
X114000000Y-130000000D02*
X113700000Y-129700000D01*
X104600000Y-130000000D02*
X104300000Y-129700000D01*
X142200000Y-113000000D02*
X141900000Y-112700000D01*
X132800000Y-113000000D02*
X132500000Y-112700000D01*
X123400000Y-113000000D02*
X123100000Y-112700000D01*
X114000000Y-113000000D02*
X113700000Y-112700000D01*
X104600000Y-113000000D02*
X104300000Y-112700000D01*
X142200000Y-96000000D02*
X141900000Y-95700000D01*
X132800000Y-96000000D02*
X132500000Y-95700000D01*
X123400000Y-96000000D02*
X123100000Y-95700000D01*
X114000000Y-96000000D02*
X113700000Y-95700000D01*
X104600000Y-96000000D02*
X104300000Y-95700000D01*
X142200000Y-79000000D02*
X141900000Y-78700000D01*
X132800000Y-79000000D02*
X132500000Y-78700000D01*
X123400000Y-79000000D02*
X123100000Y-78700000D01*
X114000000Y-79000000D02*
X113700000Y-78700000D01*
X104600000Y-79000000D02*
X104300000Y-78700000D01*
X142200000Y-62000000D02*
X141900000Y-61700000D01*
X132800000Y-62000000D02*
X132500000Y-61700000D01*
X123400000Y-62000000D02*
X123100000Y-61700000D01*
X114000000Y-62000000D02*
X113700000Y-61700000D01*
X142200000Y-130900000D02*
X142200000Y-130000000D01*
X132800000Y-130900000D02*
X132800000Y-130000000D01*
X123400000Y-130900000D02*
X123400000Y-130000000D01*
X114000000Y-130900000D02*
X114000000Y-130000000D01*
X104600000Y-130900000D02*
X104600000Y-130000000D01*
X142200000Y-113900000D02*
X142200000Y-113000000D01*
X132800000Y-113900000D02*
X132800000Y-113000000D01*
X123400000Y-113900000D02*
X123400000Y-113000000D01*
X114000000Y-113900000D02*
X114000000Y-113000000D01*
X104600000Y-113900000D02*
X104600000Y-113000000D01*
X142200000Y-96900000D02*
X142200000Y-96000000D01*
X132800000Y-96900000D02*
X132800000Y-96000000D01*
X123400000Y-96900000D02*
X123400000Y-96000000D01*
X114000000Y-96900000D02*
X114000000Y-96000000D01*
X104600000Y-96900000D02*
X104600000Y-96000000D01*
X142200000Y-79900000D02*
X142200000Y-79000000D01*
X132800000Y-79900000D02*
X132800000Y-79000000D01*
X123400000Y-79900000D02*
X123400000Y-79000000D01*
X114000000Y-79900000D02*
X114000000Y-79000000D01*
X104600000Y-79900000D02*
X104600000Y-79000000D01*
X142200000Y-62900000D02*
X142200000Y-62000000D01*
X132800000Y-62900000D02*
X132800000Y-62000000D01*
X123400000Y-62900000D02*
X123400000Y-62000000D01*
X114000000Y-62900000D02*
X114000000Y-62000000D01*
X142400000Y-126200000D02*
X142400000Y-125800000D01*
X133000000Y-126200000D02*
X133000000Y-125800000D01*
X123600000Y-126200000D02*
X123600000Y-125800000D01*
X114200000Y-126200000D02*
X114200000Y-125800000D01*
X104800000Y-126200000D02*
X104800000Y-125800000D01*
X142400000Y-109200000D02*
X142400000Y-108800000D01*
X133000000Y-109200000D02*
X133000000Y-108800000D01*
X123600000Y-109200000D02*
X123600000Y-108800000D01*
X114200000Y-109200000D02*
X114200000Y-108800000D01*
X104800000Y-109200000D02*
X104800000Y-108800000D01*
X142400000Y-92200000D02*
X142400000Y-91800000D01*
X133000000Y-92200000D02*
X133000000Y-91800000D01*
X123600000Y-92200000D02*
X123600000Y-91800000D01*
X114200000Y-92200000D02*
X114200000Y-91800000D01*
X104800000Y-92200000D02*
X104800000Y-91800000D01*
X142400000Y-75200000D02*
X142400000Y-74800000D01*
X133000000Y-75200000D02*
X133000000Y-74800000D01*
X123600000Y-75200000D02*
X123600000Y-74800000D01*
X114200000Y-75200000D02*
X114200000Y-74800000D01*
X104800000Y-75200000D02*
X104800000Y-74800000D01*
X142400000Y-58200000D02*
X142400000Y-57800000D01*
X133000000Y-58200000D02*
X133000000Y-57800000D01*
X123600000Y-58200000D02*
X123600000Y-57800000D01*
X114200000Y-58200000D02*
X114200000Y-57800000D01*
X141900000Y-126700000D02*
X142400000Y-126200000D01*
X132500000Y-126700000D02*
X133000000Y-126200000D01*
X123100000Y-126700000D02*
X123600000Y-126200000D01*
X113700000Y-126700000D02*
X114200000Y-126200000D01*
X104300000Y-126700000D02*
X104800000Y-126200000D01*
X141900000Y-109700000D02*
X142400000Y-109200000D01*
X132500000Y-109700000D02*
X133000000Y-109200000D01*
X123100000Y-109700000D02*
X123600000Y-109200000D01*
X113700000Y-109700000D02*
X114200000Y-109200000D01*
X104300000Y-109700000D02*
X104800000Y-109200000D01*
X141900000Y-92700000D02*
X142400000Y-92200000D01*
X132500000Y-92700000D02*
X133000000Y-92200000D01*
X123100000Y-92700000D02*
X123600000Y-92200000D01*
X113700000Y-92700000D02*
X114200000Y-92200000D01*
X104300000Y-92700000D02*
X104800000Y-92200000D01*
X141900000Y-75700000D02*
X142400000Y-75200000D01*
X132500000Y-75700000D02*
X133000000Y-75200000D01*
X123100000Y-75700000D02*
X123600000Y-75200000D01*
X113700000Y-75700000D02*
X114200000Y-75200000D01*
X104300000Y-75700000D02*
X104800000Y-75200000D01*
X141900000Y-58700000D02*
X142400000Y-58200000D01*
X132500000Y-58700000D02*
X133000000Y-58200000D01*
X123100000Y-58700000D02*
X123600000Y-58200000D01*
X113700000Y-58700000D02*
X114200000Y-58200000D01*
X141900000Y-128500000D02*
X141900000Y-126700000D01*
X132500000Y-128500000D02*
X132500000Y-126700000D01*
X123100000Y-128500000D02*
X123100000Y-126700000D01*
X113700000Y-128500000D02*
X113700000Y-126700000D01*
X104300000Y-128500000D02*
X104300000Y-126700000D01*
X141900000Y-111500000D02*
X141900000Y-109700000D01*
X132500000Y-111500000D02*
X132500000Y-109700000D01*
X123100000Y-111500000D02*
X123100000Y-109700000D01*
X113700000Y-111500000D02*
X113700000Y-109700000D01*
X104300000Y-111500000D02*
X104300000Y-109700000D01*
X141900000Y-94500000D02*
X141900000Y-92700000D01*
X132500000Y-94500000D02*
X132500000Y-92700000D01*
X123100000Y-94500000D02*
X123100000Y-92700000D01*
X113700000Y-94500000D02*
X113700000Y-92700000D01*
X104300000Y-94500000D02*
X104300000Y-92700000D01*
X141900000Y-77500000D02*
X141900000Y-75700000D01*
X132500000Y-77500000D02*
X132500000Y-75700000D01*
X123100000Y-77500000D02*
X123100000Y-75700000D01*
X113700000Y-77500000D02*
X113700000Y-75700000D01*
X104300000Y-77500000D02*
X104300000Y-75700000D01*
X141900000Y-60500000D02*
X141900000Y-58700000D01*
X132500000Y-60500000D02*
X132500000Y-58700000D01*
X123100000Y-60500000D02*
X123100000Y-58700000D01*
X113700000Y-60500000D02*
X113700000Y-58700000D01*
X142400000Y-125800000D02*
X141425000Y-124825000D01*
X133000000Y-125800000D02*
X132025000Y-124825000D01*
X123600000Y-125800000D02*
X122625000Y-124825000D01*
X114200000Y-125800000D02*
X113225000Y-124825000D01*
X104800000Y-125800000D02*
X103825000Y-124825000D01*
X142400000Y-108800000D02*
X141425000Y-107825000D01*
X133000000Y-108800000D02*
X132025000Y-107825000D01*
X123600000Y-108800000D02*
X122625000Y-107825000D01*
X114200000Y-108800000D02*
X113225000Y-107825000D01*
X104800000Y-108800000D02*
X103825000Y-107825000D01*
X142400000Y-91800000D02*
X141425000Y-90825000D01*
X133000000Y-91800000D02*
X132025000Y-90825000D01*
X123600000Y-91800000D02*
X122625000Y-90825000D01*
X114200000Y-91800000D02*
X113225000Y-90825000D01*
X104800000Y-91800000D02*
X103825000Y-90825000D01*
X142400000Y-74800000D02*
X141425000Y-73825000D01*
X133000000Y-74800000D02*
X132025000Y-73825000D01*
X123600000Y-74800000D02*
X122625000Y-73825000D01*
X114200000Y-74800000D02*
X113225000Y-73825000D01*
X104800000Y-74800000D02*
X103825000Y-73825000D01*
X142400000Y-57800000D02*
X141425000Y-56825000D01*
X133000000Y-57800000D02*
X132025000Y-56825000D01*
X123600000Y-57800000D02*
X122625000Y-56825000D01*
X114200000Y-57800000D02*
X113225000Y-56825000D01*
X141425000Y-124825000D02*
X141425000Y-123900000D01*
X132025000Y-124825000D02*
X132025000Y-123900000D01*
X122625000Y-124825000D02*
X122625000Y-123900000D01*
X113225000Y-124825000D02*
X113225000Y-123900000D01*
X103825000Y-124825000D02*
X103825000Y-123900000D01*
X141425000Y-107825000D02*
X141425000Y-106900000D01*
X132025000Y-107825000D02*
X132025000Y-106900000D01*
X122625000Y-107825000D02*
X122625000Y-106900000D01*
X113225000Y-107825000D02*
X113225000Y-106900000D01*
X103825000Y-107825000D02*
X103825000Y-106900000D01*
X141425000Y-90825000D02*
X141425000Y-89900000D01*
X132025000Y-90825000D02*
X132025000Y-89900000D01*
X122625000Y-90825000D02*
X122625000Y-89900000D01*
X113225000Y-90825000D02*
X113225000Y-89900000D01*
X103825000Y-90825000D02*
X103825000Y-89900000D01*
X141425000Y-73825000D02*
X141425000Y-72900000D01*
X132025000Y-73825000D02*
X132025000Y-72900000D01*
X122625000Y-73825000D02*
X122625000Y-72900000D01*
X113225000Y-73825000D02*
X113225000Y-72900000D01*
X103825000Y-73825000D02*
X103825000Y-72900000D01*
X141425000Y-56825000D02*
X141425000Y-55900000D01*
X132025000Y-56825000D02*
X132025000Y-55900000D01*
X122625000Y-56825000D02*
X122625000Y-55900000D01*
X113225000Y-56825000D02*
X113225000Y-55900000D01*
X104300000Y-60500000D02*
X104300000Y-58700000D01*
X103825000Y-56825000D02*
X103825000Y-55900000D01*
X104800000Y-57800000D02*
X103825000Y-56825000D01*
X104800000Y-58200000D02*
X104800000Y-57800000D01*
X104300000Y-58700000D02*
X104800000Y-58200000D01*
X102900000Y-64100000D02*
X103400000Y-64100000D01*
X103400000Y-64100000D02*
X104600000Y-62900000D01*
X104600000Y-62900000D02*
X104600000Y-62000000D01*
X104600000Y-62000000D02*
X104300000Y-61700000D01*
X104300000Y-61700000D02*
X104300000Y-60500000D01*
X172486000Y-115100000D02*
X171386000Y-115100000D01*
X181886000Y-115100000D02*
X180786000Y-115100000D01*
X172486000Y-132100000D02*
X171386000Y-132100000D01*
X181886000Y-132100000D02*
X180786000Y-132100000D01*
X180286000Y-63600000D02*
X180286000Y-60700000D01*
X170886000Y-80600000D02*
X170886000Y-77700000D01*
X180286000Y-80600000D02*
X180286000Y-77700000D01*
X170886000Y-97600000D02*
X170886000Y-94700000D01*
X180286000Y-97600000D02*
X180286000Y-94700000D01*
X170886000Y-114600000D02*
X170886000Y-111700000D01*
X180286000Y-114600000D02*
X180286000Y-111700000D01*
X170886000Y-131600000D02*
X170886000Y-128700000D01*
X180286000Y-131600000D02*
X180286000Y-128700000D01*
X170886000Y-60700000D02*
X171086000Y-60500000D01*
X170886000Y-60700000D02*
X171086000Y-60500000D01*
X171386000Y-64100000D02*
X170886000Y-63600000D01*
X170886000Y-63600000D02*
X170886000Y-60700000D01*
X172486000Y-64100000D02*
X171386000Y-64100000D01*
X180286000Y-60700000D02*
X180486000Y-60500000D01*
X171386000Y-132100000D02*
X170886000Y-131600000D01*
X180786000Y-132100000D02*
X180286000Y-131600000D01*
X181886000Y-64100000D02*
X180786000Y-64100000D01*
X172486000Y-81100000D02*
X171386000Y-81100000D01*
X181886000Y-81100000D02*
X180786000Y-81100000D01*
X172486000Y-98100000D02*
X171386000Y-98100000D01*
X181886000Y-98100000D02*
X180786000Y-98100000D01*
X170886000Y-128700000D02*
X171086000Y-128500000D01*
X180286000Y-128700000D02*
X180486000Y-128500000D01*
X180786000Y-64100000D02*
X180286000Y-63600000D01*
X171386000Y-81100000D02*
X170886000Y-80600000D01*
X180786000Y-81100000D02*
X180286000Y-80600000D01*
X171386000Y-98100000D02*
X170886000Y-97600000D01*
X180786000Y-98100000D02*
X180286000Y-97600000D01*
X171386000Y-115100000D02*
X170886000Y-114600000D01*
X180786000Y-115100000D02*
X180286000Y-114600000D01*
X180286000Y-60700000D02*
X180486000Y-60500000D01*
X170886000Y-77700000D02*
X171086000Y-77500000D01*
X180286000Y-77700000D02*
X180486000Y-77500000D01*
X170886000Y-94700000D02*
X171086000Y-94500000D01*
X180286000Y-94700000D02*
X180486000Y-94500000D01*
X170886000Y-111700000D02*
X171086000Y-111500000D01*
X180286000Y-111700000D02*
X180486000Y-111500000D01*
X170886000Y-77700000D02*
X171086000Y-77500000D01*
X180286000Y-77700000D02*
X180486000Y-77500000D01*
X170886000Y-94700000D02*
X171086000Y-94500000D01*
X180286000Y-94700000D02*
X180486000Y-94500000D01*
X170886000Y-111700000D02*
X171086000Y-111500000D01*
X180286000Y-111700000D02*
X180486000Y-111500000D01*
X170886000Y-128700000D02*
X171086000Y-128500000D01*
X180286000Y-128700000D02*
X180486000Y-128500000D01*
X152090000Y-60700000D02*
X152290000Y-60500000D01*
X152090000Y-60700000D02*
X152290000Y-60500000D01*
X152590000Y-64100000D02*
X152090000Y-63600000D01*
X152090000Y-63600000D02*
X152090000Y-60700000D01*
X153690000Y-64100000D02*
X152590000Y-64100000D01*
X161490000Y-60700000D02*
X161690000Y-60500000D01*
X152590000Y-132100000D02*
X152090000Y-131600000D01*
X161990000Y-132100000D02*
X161490000Y-131600000D01*
X163090000Y-64100000D02*
X161990000Y-64100000D01*
X153690000Y-81100000D02*
X152590000Y-81100000D01*
X163090000Y-81100000D02*
X161990000Y-81100000D01*
X153690000Y-98100000D02*
X152590000Y-98100000D01*
X163090000Y-98100000D02*
X161990000Y-98100000D01*
X152090000Y-128700000D02*
X152290000Y-128500000D01*
X161490000Y-128700000D02*
X161690000Y-128500000D01*
X161990000Y-64100000D02*
X161490000Y-63600000D01*
X152590000Y-81100000D02*
X152090000Y-80600000D01*
X161990000Y-81100000D02*
X161490000Y-80600000D01*
X152590000Y-98100000D02*
X152090000Y-97600000D01*
X161990000Y-98100000D02*
X161490000Y-97600000D01*
X152590000Y-115100000D02*
X152090000Y-114600000D01*
X161990000Y-115100000D02*
X161490000Y-114600000D01*
X161490000Y-60700000D02*
X161690000Y-60500000D01*
X152090000Y-77700000D02*
X152290000Y-77500000D01*
X161490000Y-77700000D02*
X161690000Y-77500000D01*
X152090000Y-94700000D02*
X152290000Y-94500000D01*
X161490000Y-94700000D02*
X161690000Y-94500000D01*
X152090000Y-111700000D02*
X152290000Y-111500000D01*
X161490000Y-111700000D02*
X161690000Y-111500000D01*
X153690000Y-115100000D02*
X152590000Y-115100000D01*
X163090000Y-115100000D02*
X161990000Y-115100000D01*
X153690000Y-132100000D02*
X152590000Y-132100000D01*
X163090000Y-132100000D02*
X161990000Y-132100000D01*
X161490000Y-63600000D02*
X161490000Y-60700000D01*
X152090000Y-80600000D02*
X152090000Y-77700000D01*
X161490000Y-80600000D02*
X161490000Y-77700000D01*
X152090000Y-97600000D02*
X152090000Y-94700000D01*
X161490000Y-97600000D02*
X161490000Y-94700000D01*
X152090000Y-77700000D02*
X152290000Y-77500000D01*
X161490000Y-77700000D02*
X161690000Y-77500000D01*
X152090000Y-94700000D02*
X152290000Y-94500000D01*
X161490000Y-94700000D02*
X161690000Y-94500000D01*
X152090000Y-111700000D02*
X152290000Y-111500000D01*
X161490000Y-111700000D02*
X161690000Y-111500000D01*
X152090000Y-128700000D02*
X152290000Y-128500000D01*
X161490000Y-128700000D02*
X161690000Y-128500000D01*
X152090000Y-114600000D02*
X152090000Y-111700000D01*
X161490000Y-114600000D02*
X161490000Y-111700000D01*
X152090000Y-131600000D02*
X152090000Y-128700000D01*
X161490000Y-131600000D02*
X161490000Y-128700000D01*
X142700000Y-131600000D02*
X142700000Y-128700000D01*
X133300000Y-131600000D02*
X133300000Y-128700000D01*
X123900000Y-131600000D02*
X123900000Y-128700000D01*
X114500000Y-131600000D02*
X114500000Y-128700000D01*
X105100000Y-131600000D02*
X105100000Y-128700000D01*
X142700000Y-114600000D02*
X142700000Y-111700000D01*
X133300000Y-114600000D02*
X133300000Y-111700000D01*
X123900000Y-114600000D02*
X123900000Y-111700000D01*
X114500000Y-114600000D02*
X114500000Y-111700000D01*
X105100000Y-114600000D02*
X105100000Y-111700000D01*
X142700000Y-97600000D02*
X142700000Y-94700000D01*
X133300000Y-97600000D02*
X133300000Y-94700000D01*
X123900000Y-97600000D02*
X123900000Y-94700000D01*
X114500000Y-97600000D02*
X114500000Y-94700000D01*
X105100000Y-97600000D02*
X105100000Y-94700000D01*
X142700000Y-80600000D02*
X142700000Y-77700000D01*
X133300000Y-80600000D02*
X133300000Y-77700000D01*
X123900000Y-80600000D02*
X123900000Y-77700000D01*
X114500000Y-80600000D02*
X114500000Y-77700000D01*
X105100000Y-80600000D02*
X105100000Y-77700000D01*
X142700000Y-63600000D02*
X142700000Y-60700000D01*
X133300000Y-63600000D02*
X133300000Y-60700000D01*
X123900000Y-63600000D02*
X123900000Y-60700000D01*
X114500000Y-63600000D02*
X114500000Y-60700000D01*
X144300000Y-132100000D02*
X143200000Y-132100000D01*
X134900000Y-132100000D02*
X133800000Y-132100000D01*
X125500000Y-132100000D02*
X124400000Y-132100000D01*
X116100000Y-132100000D02*
X115000000Y-132100000D01*
X106700000Y-132100000D02*
X105600000Y-132100000D01*
X144300000Y-115100000D02*
X143200000Y-115100000D01*
X134900000Y-115100000D02*
X133800000Y-115100000D01*
X125500000Y-115100000D02*
X124400000Y-115100000D01*
X116100000Y-115100000D02*
X115000000Y-115100000D01*
X106700000Y-115100000D02*
X105600000Y-115100000D01*
X144300000Y-98100000D02*
X143200000Y-98100000D01*
X134900000Y-98100000D02*
X133800000Y-98100000D01*
X125500000Y-98100000D02*
X124400000Y-98100000D01*
X116100000Y-98100000D02*
X115000000Y-98100000D01*
X106700000Y-98100000D02*
X105600000Y-98100000D01*
X144300000Y-81100000D02*
X143200000Y-81100000D01*
X134900000Y-81100000D02*
X133800000Y-81100000D01*
X125500000Y-81100000D02*
X124400000Y-81100000D01*
X116100000Y-81100000D02*
X115000000Y-81100000D01*
X106700000Y-81100000D02*
X105600000Y-81100000D01*
X144300000Y-64100000D02*
X143200000Y-64100000D01*
X134900000Y-64100000D02*
X133800000Y-64100000D01*
X125500000Y-64100000D02*
X124400000Y-64100000D01*
X116100000Y-64100000D02*
X115000000Y-64100000D01*
X143200000Y-132100000D02*
X142700000Y-131600000D01*
X133800000Y-132100000D02*
X133300000Y-131600000D01*
X124400000Y-132100000D02*
X123900000Y-131600000D01*
X115000000Y-132100000D02*
X114500000Y-131600000D01*
X105600000Y-132100000D02*
X105100000Y-131600000D01*
X143200000Y-115100000D02*
X142700000Y-114600000D01*
X133800000Y-115100000D02*
X133300000Y-114600000D01*
X124400000Y-115100000D02*
X123900000Y-114600000D01*
X115000000Y-115100000D02*
X114500000Y-114600000D01*
X105600000Y-115100000D02*
X105100000Y-114600000D01*
X143200000Y-98100000D02*
X142700000Y-97600000D01*
X133800000Y-98100000D02*
X133300000Y-97600000D01*
X124400000Y-98100000D02*
X123900000Y-97600000D01*
X115000000Y-98100000D02*
X114500000Y-97600000D01*
X105600000Y-98100000D02*
X105100000Y-97600000D01*
X143200000Y-81100000D02*
X142700000Y-80600000D01*
X133800000Y-81100000D02*
X133300000Y-80600000D01*
X124400000Y-81100000D02*
X123900000Y-80600000D01*
X115000000Y-81100000D02*
X114500000Y-80600000D01*
X105600000Y-81100000D02*
X105100000Y-80600000D01*
X143200000Y-64100000D02*
X142700000Y-63600000D01*
X133800000Y-64100000D02*
X133300000Y-63600000D01*
X124400000Y-64100000D02*
X123900000Y-63600000D01*
X115000000Y-64100000D02*
X114500000Y-63600000D01*
X142700000Y-128700000D02*
X142900000Y-128500000D01*
X133300000Y-128700000D02*
X133500000Y-128500000D01*
X123900000Y-128700000D02*
X124100000Y-128500000D01*
X114500000Y-128700000D02*
X114700000Y-128500000D01*
X105100000Y-128700000D02*
X105300000Y-128500000D01*
X142700000Y-111700000D02*
X142900000Y-111500000D01*
X133300000Y-111700000D02*
X133500000Y-111500000D01*
X123900000Y-111700000D02*
X124100000Y-111500000D01*
X114500000Y-111700000D02*
X114700000Y-111500000D01*
X105100000Y-111700000D02*
X105300000Y-111500000D01*
X142700000Y-94700000D02*
X142900000Y-94500000D01*
X133300000Y-94700000D02*
X133500000Y-94500000D01*
X123900000Y-94700000D02*
X124100000Y-94500000D01*
X114500000Y-94700000D02*
X114700000Y-94500000D01*
X105100000Y-94700000D02*
X105300000Y-94500000D01*
X142700000Y-77700000D02*
X142900000Y-77500000D01*
X133300000Y-77700000D02*
X133500000Y-77500000D01*
X123900000Y-77700000D02*
X124100000Y-77500000D01*
X114500000Y-77700000D02*
X114700000Y-77500000D01*
X105100000Y-77700000D02*
X105300000Y-77500000D01*
X142700000Y-60700000D02*
X142900000Y-60500000D01*
X133300000Y-60700000D02*
X133500000Y-60500000D01*
X123900000Y-60700000D02*
X124100000Y-60500000D01*
X114500000Y-60700000D02*
X114700000Y-60500000D01*
X142700000Y-128700000D02*
X142900000Y-128500000D01*
X133300000Y-128700000D02*
X133500000Y-128500000D01*
X123900000Y-128700000D02*
X124100000Y-128500000D01*
X114500000Y-128700000D02*
X114700000Y-128500000D01*
X105100000Y-128700000D02*
X105300000Y-128500000D01*
X142700000Y-111700000D02*
X142900000Y-111500000D01*
X133300000Y-111700000D02*
X133500000Y-111500000D01*
X123900000Y-111700000D02*
X124100000Y-111500000D01*
X114500000Y-111700000D02*
X114700000Y-111500000D01*
X105100000Y-111700000D02*
X105300000Y-111500000D01*
X142700000Y-94700000D02*
X142900000Y-94500000D01*
X133300000Y-94700000D02*
X133500000Y-94500000D01*
X123900000Y-94700000D02*
X124100000Y-94500000D01*
X114500000Y-94700000D02*
X114700000Y-94500000D01*
X105100000Y-94700000D02*
X105300000Y-94500000D01*
X142700000Y-77700000D02*
X142900000Y-77500000D01*
X133300000Y-77700000D02*
X133500000Y-77500000D01*
X123900000Y-77700000D02*
X124100000Y-77500000D01*
X114500000Y-77700000D02*
X114700000Y-77500000D01*
X105100000Y-77700000D02*
X105300000Y-77500000D01*
X142700000Y-60700000D02*
X142900000Y-60500000D01*
X133300000Y-60700000D02*
X133500000Y-60500000D01*
X123900000Y-60700000D02*
X124100000Y-60500000D01*
X114500000Y-60700000D02*
X114700000Y-60500000D01*
X106700000Y-64100000D02*
X105600000Y-64100000D01*
X105100000Y-63600000D02*
X105100000Y-60700000D01*
X105600000Y-64100000D02*
X105100000Y-63600000D01*
X105100000Y-60700000D02*
X105300000Y-60500000D01*
X105100000Y-60700000D02*
X105300000Y-60500000D01*
M02*
