G04 #@! TF.GenerationSoftware,KiCad,Pcbnew,5.0.0-rc2-dev-unknown-c6ef0d5~62~ubuntu16.04.1*
G04 #@! TF.CreationDate,2018-03-19T15:53:38+01:00*
G04 #@! TF.ProjectId,AS5306A_board_5x9_panel,415335333036415F626F6172645F3578,rev?*
G04 #@! TF.SameCoordinates,Original*
G04 #@! TF.FileFunction,Other,Comment*
%FSLAX46Y46*%
G04 Gerber Fmt 4.6, Leading zero omitted, Abs format (unit mm)*
G04 Created by KiCad (PCBNEW 5.0.0-rc2-dev-unknown-c6ef0d5~62~ubuntu16.04.1) date Mon Mar 19 15:53:38 2018*
%MOMM*%
%LPD*%
G01*
G04 APERTURE LIST*
%ADD10C,0.300000*%
%ADD11C,0.200000*%
G04 APERTURE END LIST*
D10*
X198315071Y-85416178D02*
X198386500Y-85273321D01*
X198457928Y-85201892D01*
X198600785Y-85130464D01*
X198672214Y-85130464D01*
X198815071Y-85201892D01*
X198886500Y-85273321D01*
X198957928Y-85416178D01*
X198957928Y-85701892D01*
X198886500Y-85844750D01*
X198815071Y-85916178D01*
X198672214Y-85987607D01*
X198600785Y-85987607D01*
X198457928Y-85916178D01*
X198386500Y-85844750D01*
X198315071Y-85701892D01*
X198315071Y-85416178D01*
X198243642Y-85273321D01*
X198172214Y-85201892D01*
X198029357Y-85130464D01*
X197743642Y-85130464D01*
X197600785Y-85201892D01*
X197529357Y-85273321D01*
X197457928Y-85416178D01*
X197457928Y-85701892D01*
X197529357Y-85844750D01*
X197600785Y-85916178D01*
X197743642Y-85987607D01*
X198029357Y-85987607D01*
X198172214Y-85916178D01*
X198243642Y-85844750D01*
X198315071Y-85701892D01*
X198457928Y-87273321D02*
X197457928Y-87273321D01*
X199029357Y-86916178D02*
X197957928Y-86559035D01*
X197957928Y-87487607D01*
X197529357Y-88130464D02*
X197457928Y-88130464D01*
X197315071Y-88059035D01*
X197243642Y-87987607D01*
X198957928Y-89487607D02*
X198957928Y-88773321D01*
X198243642Y-88701892D01*
X198315071Y-88773321D01*
X198386500Y-88916178D01*
X198386500Y-89273321D01*
X198315071Y-89416178D01*
X198243642Y-89487607D01*
X198100785Y-89559035D01*
X197743642Y-89559035D01*
X197600785Y-89487607D01*
X197529357Y-89416178D01*
X197457928Y-89273321D01*
X197457928Y-88916178D01*
X197529357Y-88773321D01*
X197600785Y-88701892D01*
X197457928Y-90987607D02*
X197457928Y-90130464D01*
X197457928Y-90559035D02*
X198957928Y-90559035D01*
X198743642Y-90416178D01*
X198600785Y-90273321D01*
X198529357Y-90130464D01*
X197457928Y-91701892D02*
X197457928Y-91987607D01*
X197529357Y-92130464D01*
X197600785Y-92201892D01*
X197815071Y-92344750D01*
X198100785Y-92416178D01*
X198672214Y-92416178D01*
X198815071Y-92344750D01*
X198886500Y-92273321D01*
X198957928Y-92130464D01*
X198957928Y-91844750D01*
X198886500Y-91701892D01*
X198815071Y-91630464D01*
X198672214Y-91559035D01*
X198315071Y-91559035D01*
X198172214Y-91630464D01*
X198100785Y-91701892D01*
X198029357Y-91844750D01*
X198029357Y-92130464D01*
X198100785Y-92273321D01*
X198172214Y-92344750D01*
X198315071Y-92416178D01*
X197457928Y-94201892D02*
X198457928Y-94201892D01*
X198315071Y-94201892D02*
X198386500Y-94273321D01*
X198457928Y-94416178D01*
X198457928Y-94630464D01*
X198386500Y-94773321D01*
X198243642Y-94844750D01*
X197457928Y-94844750D01*
X198243642Y-94844750D02*
X198386500Y-94916178D01*
X198457928Y-95059035D01*
X198457928Y-95273321D01*
X198386500Y-95416178D01*
X198243642Y-95487607D01*
X197457928Y-95487607D01*
X197457928Y-96201892D02*
X198457928Y-96201892D01*
X198315071Y-96201892D02*
X198386500Y-96273321D01*
X198457928Y-96416178D01*
X198457928Y-96630464D01*
X198386500Y-96773321D01*
X198243642Y-96844750D01*
X197457928Y-96844750D01*
X198243642Y-96844750D02*
X198386500Y-96916178D01*
X198457928Y-97059035D01*
X198457928Y-97273321D01*
X198386500Y-97416178D01*
X198243642Y-97487607D01*
X197457928Y-97487607D01*
X196786500Y-49085500D02*
X196786500Y-133604000D01*
X184721500Y-49085500D02*
X199486500Y-49085500D01*
X184721500Y-133604000D02*
X199486500Y-133604000D01*
X196786500Y-133604000D02*
X196200079Y-132477496D01*
X196786500Y-133604000D02*
X197372921Y-132477496D01*
X196786500Y-49085500D02*
X196200079Y-50212004D01*
X196786500Y-49085500D02*
X197372921Y-50212004D01*
D11*
X147082000Y-47672500D02*
X147072000Y-140602500D01*
D10*
X145470571Y-140408214D02*
X146470571Y-140051071D01*
X145470571Y-139693928D01*
X145899142Y-139122500D02*
X145899142Y-137979642D01*
X146399142Y-136622500D02*
X146470571Y-136765357D01*
X146470571Y-137051071D01*
X146399142Y-137193928D01*
X146327714Y-137265357D01*
X146184857Y-137336785D01*
X145756285Y-137336785D01*
X145613428Y-137265357D01*
X145542000Y-137193928D01*
X145470571Y-137051071D01*
X145470571Y-136765357D01*
X145542000Y-136622500D01*
X145470571Y-135336785D02*
X146470571Y-135336785D01*
X145470571Y-135979642D02*
X146256285Y-135979642D01*
X146399142Y-135908214D01*
X146470571Y-135765357D01*
X146470571Y-135551071D01*
X146399142Y-135408214D01*
X146327714Y-135336785D01*
X145470571Y-134836785D02*
X145470571Y-134265357D01*
X144970571Y-134622500D02*
X146256285Y-134622500D01*
X146399142Y-134551071D01*
X146470571Y-134408214D01*
X146470571Y-134265357D01*
X154880571Y-140288214D02*
X155880571Y-139931071D01*
X154880571Y-139573928D01*
X155309142Y-139002500D02*
X155309142Y-137859642D01*
X155809142Y-136502500D02*
X155880571Y-136645357D01*
X155880571Y-136931071D01*
X155809142Y-137073928D01*
X155737714Y-137145357D01*
X155594857Y-137216785D01*
X155166285Y-137216785D01*
X155023428Y-137145357D01*
X154952000Y-137073928D01*
X154880571Y-136931071D01*
X154880571Y-136645357D01*
X154952000Y-136502500D01*
X154880571Y-135216785D02*
X155880571Y-135216785D01*
X154880571Y-135859642D02*
X155666285Y-135859642D01*
X155809142Y-135788214D01*
X155880571Y-135645357D01*
X155880571Y-135431071D01*
X155809142Y-135288214D01*
X155737714Y-135216785D01*
X154880571Y-134716785D02*
X154880571Y-134145357D01*
X154380571Y-134502500D02*
X155666285Y-134502500D01*
X155809142Y-134431071D01*
X155880571Y-134288214D01*
X155880571Y-134145357D01*
D11*
X156492000Y-47552500D02*
X156482000Y-140482500D01*
D10*
X173680571Y-140068214D02*
X174680571Y-139711071D01*
X173680571Y-139353928D01*
X174109142Y-138782500D02*
X174109142Y-137639642D01*
X174609142Y-136282500D02*
X174680571Y-136425357D01*
X174680571Y-136711071D01*
X174609142Y-136853928D01*
X174537714Y-136925357D01*
X174394857Y-136996785D01*
X173966285Y-136996785D01*
X173823428Y-136925357D01*
X173752000Y-136853928D01*
X173680571Y-136711071D01*
X173680571Y-136425357D01*
X173752000Y-136282500D01*
X173680571Y-134996785D02*
X174680571Y-134996785D01*
X173680571Y-135639642D02*
X174466285Y-135639642D01*
X174609142Y-135568214D01*
X174680571Y-135425357D01*
X174680571Y-135211071D01*
X174609142Y-135068214D01*
X174537714Y-134996785D01*
X173680571Y-134496785D02*
X173680571Y-133925357D01*
X173180571Y-134282500D02*
X174466285Y-134282500D01*
X174609142Y-134211071D01*
X174680571Y-134068214D01*
X174680571Y-133925357D01*
D11*
X175292000Y-47332500D02*
X175282000Y-140262500D01*
D10*
X164270571Y-140188214D02*
X165270571Y-139831071D01*
X164270571Y-139473928D01*
X164699142Y-138902500D02*
X164699142Y-137759642D01*
X165199142Y-136402500D02*
X165270571Y-136545357D01*
X165270571Y-136831071D01*
X165199142Y-136973928D01*
X165127714Y-137045357D01*
X164984857Y-137116785D01*
X164556285Y-137116785D01*
X164413428Y-137045357D01*
X164342000Y-136973928D01*
X164270571Y-136831071D01*
X164270571Y-136545357D01*
X164342000Y-136402500D01*
X164270571Y-135116785D02*
X165270571Y-135116785D01*
X164270571Y-135759642D02*
X165056285Y-135759642D01*
X165199142Y-135688214D01*
X165270571Y-135545357D01*
X165270571Y-135331071D01*
X165199142Y-135188214D01*
X165127714Y-135116785D01*
X164270571Y-134616785D02*
X164270571Y-134045357D01*
X163770571Y-134402500D02*
X165056285Y-134402500D01*
X165199142Y-134331071D01*
X165270571Y-134188214D01*
X165270571Y-134045357D01*
D11*
X165882000Y-47452500D02*
X165872000Y-140382500D01*
X128290000Y-47770000D02*
X128280000Y-140700000D01*
D10*
X126678571Y-140505714D02*
X127678571Y-140148571D01*
X126678571Y-139791428D01*
X127107142Y-139220000D02*
X127107142Y-138077142D01*
X127607142Y-136720000D02*
X127678571Y-136862857D01*
X127678571Y-137148571D01*
X127607142Y-137291428D01*
X127535714Y-137362857D01*
X127392857Y-137434285D01*
X126964285Y-137434285D01*
X126821428Y-137362857D01*
X126750000Y-137291428D01*
X126678571Y-137148571D01*
X126678571Y-136862857D01*
X126750000Y-136720000D01*
X126678571Y-135434285D02*
X127678571Y-135434285D01*
X126678571Y-136077142D02*
X127464285Y-136077142D01*
X127607142Y-136005714D01*
X127678571Y-135862857D01*
X127678571Y-135648571D01*
X127607142Y-135505714D01*
X127535714Y-135434285D01*
X126678571Y-134934285D02*
X126678571Y-134362857D01*
X126178571Y-134720000D02*
X127464285Y-134720000D01*
X127607142Y-134648571D01*
X127678571Y-134505714D01*
X127678571Y-134362857D01*
D11*
X137700000Y-47650000D02*
X137690000Y-140580000D01*
D10*
X136088571Y-140385714D02*
X137088571Y-140028571D01*
X136088571Y-139671428D01*
X136517142Y-139100000D02*
X136517142Y-137957142D01*
X137017142Y-136600000D02*
X137088571Y-136742857D01*
X137088571Y-137028571D01*
X137017142Y-137171428D01*
X136945714Y-137242857D01*
X136802857Y-137314285D01*
X136374285Y-137314285D01*
X136231428Y-137242857D01*
X136160000Y-137171428D01*
X136088571Y-137028571D01*
X136088571Y-136742857D01*
X136160000Y-136600000D01*
X136088571Y-135314285D02*
X137088571Y-135314285D01*
X136088571Y-135957142D02*
X136874285Y-135957142D01*
X137017142Y-135885714D01*
X137088571Y-135742857D01*
X137088571Y-135528571D01*
X137017142Y-135385714D01*
X136945714Y-135314285D01*
X136088571Y-134814285D02*
X136088571Y-134242857D01*
X135588571Y-134600000D02*
X136874285Y-134600000D01*
X137017142Y-134528571D01*
X137088571Y-134385714D01*
X137088571Y-134242857D01*
D11*
X118900000Y-47870000D02*
X118890000Y-140800000D01*
D10*
X117288571Y-140605714D02*
X118288571Y-140248571D01*
X117288571Y-139891428D01*
X117717142Y-139320000D02*
X117717142Y-138177142D01*
X118217142Y-136820000D02*
X118288571Y-136962857D01*
X118288571Y-137248571D01*
X118217142Y-137391428D01*
X118145714Y-137462857D01*
X118002857Y-137534285D01*
X117574285Y-137534285D01*
X117431428Y-137462857D01*
X117360000Y-137391428D01*
X117288571Y-137248571D01*
X117288571Y-136962857D01*
X117360000Y-136820000D01*
X117288571Y-135534285D02*
X118288571Y-135534285D01*
X117288571Y-136177142D02*
X118074285Y-136177142D01*
X118217142Y-136105714D01*
X118288571Y-135962857D01*
X118288571Y-135748571D01*
X118217142Y-135605714D01*
X118145714Y-135534285D01*
X117288571Y-135034285D02*
X117288571Y-134462857D01*
X116788571Y-134820000D02*
X118074285Y-134820000D01*
X118217142Y-134748571D01*
X118288571Y-134605714D01*
X118288571Y-134462857D01*
X107878571Y-140725714D02*
X108878571Y-140368571D01*
X107878571Y-140011428D01*
X108307142Y-139440000D02*
X108307142Y-138297142D01*
X108807142Y-136940000D02*
X108878571Y-137082857D01*
X108878571Y-137368571D01*
X108807142Y-137511428D01*
X108735714Y-137582857D01*
X108592857Y-137654285D01*
X108164285Y-137654285D01*
X108021428Y-137582857D01*
X107950000Y-137511428D01*
X107878571Y-137368571D01*
X107878571Y-137082857D01*
X107950000Y-136940000D01*
X107878571Y-135654285D02*
X108878571Y-135654285D01*
X107878571Y-136297142D02*
X108664285Y-136297142D01*
X108807142Y-136225714D01*
X108878571Y-136082857D01*
X108878571Y-135868571D01*
X108807142Y-135725714D01*
X108735714Y-135654285D01*
X107878571Y-135154285D02*
X107878571Y-134582857D01*
X107378571Y-134940000D02*
X108664285Y-134940000D01*
X108807142Y-134868571D01*
X108878571Y-134725714D01*
X108878571Y-134582857D01*
D11*
X109490000Y-47990000D02*
X109480000Y-140920000D01*
X187452000Y-116840000D02*
X91930000Y-116870000D01*
D10*
X91814285Y-115378571D02*
X92171428Y-116378571D01*
X92528571Y-115378571D01*
X93100000Y-115807142D02*
X94242857Y-115807142D01*
X95600000Y-116307142D02*
X95457142Y-116378571D01*
X95171428Y-116378571D01*
X95028571Y-116307142D01*
X94957142Y-116235714D01*
X94885714Y-116092857D01*
X94885714Y-115664285D01*
X94957142Y-115521428D01*
X95028571Y-115450000D01*
X95171428Y-115378571D01*
X95457142Y-115378571D01*
X95600000Y-115450000D01*
X96885714Y-115378571D02*
X96885714Y-116378571D01*
X96242857Y-115378571D02*
X96242857Y-116164285D01*
X96314285Y-116307142D01*
X96457142Y-116378571D01*
X96671428Y-116378571D01*
X96814285Y-116307142D01*
X96885714Y-116235714D01*
X97385714Y-115378571D02*
X97957142Y-115378571D01*
X97600000Y-114878571D02*
X97600000Y-116164285D01*
X97671428Y-116307142D01*
X97814285Y-116378571D01*
X97957142Y-116378571D01*
D11*
X187579000Y-99822000D02*
X91530000Y-99840000D01*
D10*
X91414285Y-98348571D02*
X91771428Y-99348571D01*
X92128571Y-98348571D01*
X92700000Y-98777142D02*
X93842857Y-98777142D01*
X95200000Y-99277142D02*
X95057142Y-99348571D01*
X94771428Y-99348571D01*
X94628571Y-99277142D01*
X94557142Y-99205714D01*
X94485714Y-99062857D01*
X94485714Y-98634285D01*
X94557142Y-98491428D01*
X94628571Y-98420000D01*
X94771428Y-98348571D01*
X95057142Y-98348571D01*
X95200000Y-98420000D01*
X96485714Y-98348571D02*
X96485714Y-99348571D01*
X95842857Y-98348571D02*
X95842857Y-99134285D01*
X95914285Y-99277142D01*
X96057142Y-99348571D01*
X96271428Y-99348571D01*
X96414285Y-99277142D01*
X96485714Y-99205714D01*
X96985714Y-98348571D02*
X97557142Y-98348571D01*
X97200000Y-97848571D02*
X97200000Y-99134285D01*
X97271428Y-99277142D01*
X97414285Y-99348571D01*
X97557142Y-99348571D01*
D11*
X188087000Y-82867500D02*
X91630000Y-82840000D01*
D10*
X91514285Y-81348571D02*
X91871428Y-82348571D01*
X92228571Y-81348571D01*
X92800000Y-81777142D02*
X93942857Y-81777142D01*
X95300000Y-82277142D02*
X95157142Y-82348571D01*
X94871428Y-82348571D01*
X94728571Y-82277142D01*
X94657142Y-82205714D01*
X94585714Y-82062857D01*
X94585714Y-81634285D01*
X94657142Y-81491428D01*
X94728571Y-81420000D01*
X94871428Y-81348571D01*
X95157142Y-81348571D01*
X95300000Y-81420000D01*
X96585714Y-81348571D02*
X96585714Y-82348571D01*
X95942857Y-81348571D02*
X95942857Y-82134285D01*
X96014285Y-82277142D01*
X96157142Y-82348571D01*
X96371428Y-82348571D01*
X96514285Y-82277142D01*
X96585714Y-82205714D01*
X97085714Y-81348571D02*
X97657142Y-81348571D01*
X97300000Y-80848571D02*
X97300000Y-82134285D01*
X97371428Y-82277142D01*
X97514285Y-82348571D01*
X97657142Y-82348571D01*
X92274285Y-64348571D02*
X92631428Y-65348571D01*
X92988571Y-64348571D01*
X93560000Y-64777142D02*
X94702857Y-64777142D01*
X96060000Y-65277142D02*
X95917142Y-65348571D01*
X95631428Y-65348571D01*
X95488571Y-65277142D01*
X95417142Y-65205714D01*
X95345714Y-65062857D01*
X95345714Y-64634285D01*
X95417142Y-64491428D01*
X95488571Y-64420000D01*
X95631428Y-64348571D01*
X95917142Y-64348571D01*
X96060000Y-64420000D01*
X97345714Y-64348571D02*
X97345714Y-65348571D01*
X96702857Y-64348571D02*
X96702857Y-65134285D01*
X96774285Y-65277142D01*
X96917142Y-65348571D01*
X97131428Y-65348571D01*
X97274285Y-65277142D01*
X97345714Y-65205714D01*
X97845714Y-64348571D02*
X98417142Y-64348571D01*
X98060000Y-63848571D02*
X98060000Y-65134285D01*
X98131428Y-65277142D01*
X98274285Y-65348571D01*
X98417142Y-65348571D01*
D11*
X187960000Y-65849500D02*
X92390000Y-65840000D01*
D10*
X136479826Y-35365194D02*
X136336956Y-35293790D01*
X136265515Y-35222374D01*
X136194062Y-35079529D01*
X136194050Y-35008100D01*
X136265454Y-34865231D01*
X136336871Y-34793790D01*
X136479715Y-34722337D01*
X136765430Y-34722288D01*
X136908299Y-34793692D01*
X136979740Y-34865108D01*
X137051193Y-35007953D01*
X137051205Y-35079382D01*
X136979801Y-35222251D01*
X136908385Y-35293692D01*
X136765540Y-35365145D01*
X136479826Y-35365194D01*
X136336981Y-35436647D01*
X136265564Y-35508088D01*
X136194160Y-35650957D01*
X136194209Y-35936671D01*
X136265662Y-36079516D01*
X136337103Y-36150933D01*
X136479972Y-36222337D01*
X136765687Y-36222288D01*
X136908532Y-36150835D01*
X136979948Y-36079394D01*
X137051352Y-35936525D01*
X137051303Y-35650810D01*
X136979850Y-35507965D01*
X136908409Y-35436549D01*
X136765540Y-35365145D01*
X138336944Y-35222019D02*
X138337115Y-36222019D01*
X137979703Y-34650651D02*
X137622744Y-35722141D01*
X138551315Y-35721982D01*
X139194246Y-36150443D02*
X139194258Y-36221872D01*
X139122854Y-36364741D01*
X139051438Y-36436182D01*
X140479715Y-34721651D02*
X140194001Y-34721700D01*
X140051156Y-34793153D01*
X139979740Y-34864594D01*
X139836919Y-35078904D01*
X139765540Y-35364631D01*
X139765638Y-35936059D01*
X139837091Y-36078904D01*
X139908532Y-36150321D01*
X140051401Y-36221725D01*
X140337115Y-36221676D01*
X140479960Y-36150223D01*
X140551376Y-36078782D01*
X140622781Y-35935913D01*
X140622719Y-35578770D01*
X140551266Y-35435925D01*
X140479826Y-35364509D01*
X140336956Y-35293104D01*
X140051242Y-35293153D01*
X139908397Y-35364606D01*
X139836981Y-35436047D01*
X139765577Y-35578917D01*
X141194026Y-34864386D02*
X141265442Y-34792945D01*
X141408287Y-34721492D01*
X141765430Y-34721431D01*
X141908299Y-34792835D01*
X141979740Y-34864252D01*
X142051193Y-35007096D01*
X142051217Y-35149954D01*
X141979825Y-35364252D01*
X141122830Y-36221541D01*
X142051401Y-36221382D01*
X142622597Y-34864141D02*
X142694013Y-34792701D01*
X142836858Y-34721248D01*
X143194001Y-34721186D01*
X143336870Y-34792590D01*
X143408311Y-34864007D01*
X143479764Y-35006852D01*
X143479789Y-35149709D01*
X143408397Y-35364007D01*
X142551401Y-36221296D01*
X143479972Y-36221137D01*
X145265687Y-36220831D02*
X145265515Y-35220831D01*
X145265540Y-35363688D02*
X145336956Y-35292248D01*
X145479801Y-35220795D01*
X145694087Y-35220758D01*
X145836956Y-35292162D01*
X145908409Y-35435007D01*
X145908544Y-36220721D01*
X145908409Y-35435007D02*
X145979813Y-35292138D01*
X146122658Y-35220684D01*
X146336944Y-35220648D01*
X146479813Y-35292052D01*
X146551266Y-35434897D01*
X146551401Y-36220611D01*
X147265687Y-36220489D02*
X147265515Y-35220489D01*
X147265540Y-35363346D02*
X147336956Y-35291905D01*
X147479801Y-35220452D01*
X147694087Y-35220415D01*
X147836956Y-35291819D01*
X147908409Y-35434664D01*
X147908544Y-36220378D01*
X147908409Y-35434664D02*
X147979813Y-35291795D01*
X148122658Y-35220342D01*
X148336944Y-35220305D01*
X148479813Y-35291709D01*
X148551266Y-35434554D01*
X148551401Y-36220268D01*
X100097910Y-36900000D02*
X184719410Y-36885500D01*
X100100000Y-49100000D02*
X100097447Y-34200000D01*
X184721500Y-49085500D02*
X184718947Y-34185500D01*
X184719410Y-36885500D02*
X183593007Y-37472114D01*
X184719410Y-36885500D02*
X183592806Y-36299272D01*
X100097910Y-36900000D02*
X101224514Y-37486228D01*
X100097910Y-36900000D02*
X101224313Y-36313386D01*
M02*
