G04 #@! TF.GenerationSoftware,KiCad,Pcbnew,5.0.0-rc2-dev-unknown-c6ef0d5~62~ubuntu16.04.1*
G04 #@! TF.CreationDate,2018-03-19T15:53:38+01:00*
G04 #@! TF.ProjectId,AS5306A_board_5x9_panel,415335333036415F626F6172645F3578,rev?*
G04 #@! TF.SameCoordinates,Original*
G04 #@! TF.FileFunction,Copper,L2,Bot,Signal*
G04 #@! TF.FilePolarity,Positive*
%FSLAX46Y46*%
G04 Gerber Fmt 4.6, Leading zero omitted, Abs format (unit mm)*
G04 Created by KiCad (PCBNEW 5.0.0-rc2-dev-unknown-c6ef0d5~62~ubuntu16.04.1) date Mon Mar 19 15:53:38 2018*
%MOMM*%
%LPD*%
G01*
G04 APERTURE LIST*
%ADD10C,1.100000*%
%ADD11C,0.600000*%
%ADD12C,0.250000*%
G04 APERTURE END LIST*
D10*
X178086000Y-64100000D03*
X181886000Y-64100000D03*
X181286000Y-62400000D03*
X183086000Y-62400000D03*
X178686000Y-62400000D03*
X176886000Y-62400000D03*
X178086000Y-132100000D03*
X181886000Y-132100000D03*
X181286000Y-130400000D03*
X183086000Y-130400000D03*
X178686000Y-130400000D03*
X176886000Y-130400000D03*
X178086000Y-81100000D03*
X181886000Y-81100000D03*
X181286000Y-79400000D03*
X183086000Y-79400000D03*
X178686000Y-79400000D03*
X176886000Y-79400000D03*
X168686000Y-64100000D03*
X172486000Y-64100000D03*
X171886000Y-62400000D03*
X173686000Y-62400000D03*
X169286000Y-62400000D03*
X167486000Y-62400000D03*
X168686000Y-81100000D03*
X172486000Y-81100000D03*
X171886000Y-79400000D03*
X173686000Y-79400000D03*
X169286000Y-79400000D03*
X167486000Y-79400000D03*
X168686000Y-98100000D03*
X172486000Y-98100000D03*
X171886000Y-96400000D03*
X173686000Y-96400000D03*
X169286000Y-96400000D03*
X167486000Y-96400000D03*
X168686000Y-115100000D03*
X172486000Y-115100000D03*
X171886000Y-113400000D03*
X173686000Y-113400000D03*
X169286000Y-113400000D03*
X167486000Y-113400000D03*
X178086000Y-98100000D03*
X181886000Y-98100000D03*
X181286000Y-96400000D03*
X183086000Y-96400000D03*
X178686000Y-96400000D03*
X176886000Y-96400000D03*
X168686000Y-132100000D03*
X172486000Y-132100000D03*
X171886000Y-130400000D03*
X173686000Y-130400000D03*
X169286000Y-130400000D03*
X167486000Y-130400000D03*
X178086000Y-115100000D03*
X181886000Y-115100000D03*
X181286000Y-113400000D03*
X183086000Y-113400000D03*
X178686000Y-113400000D03*
X176886000Y-113400000D03*
X148690000Y-62400000D03*
X150490000Y-62400000D03*
X154890000Y-62400000D03*
X153090000Y-62400000D03*
X153690000Y-64100000D03*
X149890000Y-64100000D03*
X158090000Y-62400000D03*
X159890000Y-62400000D03*
X164290000Y-62400000D03*
X162490000Y-62400000D03*
X163090000Y-64100000D03*
X159290000Y-64100000D03*
X148690000Y-130400000D03*
X150490000Y-130400000D03*
X154890000Y-130400000D03*
X153090000Y-130400000D03*
X153690000Y-132100000D03*
X149890000Y-132100000D03*
X158090000Y-130400000D03*
X159890000Y-130400000D03*
X164290000Y-130400000D03*
X162490000Y-130400000D03*
X163090000Y-132100000D03*
X159290000Y-132100000D03*
X158090000Y-79400000D03*
X159890000Y-79400000D03*
X164290000Y-79400000D03*
X162490000Y-79400000D03*
X163090000Y-81100000D03*
X159290000Y-81100000D03*
X148690000Y-79400000D03*
X150490000Y-79400000D03*
X154890000Y-79400000D03*
X153090000Y-79400000D03*
X153690000Y-81100000D03*
X149890000Y-81100000D03*
X148690000Y-96400000D03*
X150490000Y-96400000D03*
X154890000Y-96400000D03*
X153090000Y-96400000D03*
X153690000Y-98100000D03*
X149890000Y-98100000D03*
X148690000Y-113400000D03*
X150490000Y-113400000D03*
X154890000Y-113400000D03*
X153090000Y-113400000D03*
X153690000Y-115100000D03*
X149890000Y-115100000D03*
X158090000Y-96400000D03*
X159890000Y-96400000D03*
X164290000Y-96400000D03*
X162490000Y-96400000D03*
X163090000Y-98100000D03*
X159290000Y-98100000D03*
X158090000Y-113400000D03*
X159890000Y-113400000D03*
X164290000Y-113400000D03*
X162490000Y-113400000D03*
X163090000Y-115100000D03*
X159290000Y-115100000D03*
X140500000Y-132100000D03*
X144300000Y-132100000D03*
X143700000Y-130400000D03*
X145500000Y-130400000D03*
X141100000Y-130400000D03*
X139300000Y-130400000D03*
X131100000Y-132100000D03*
X134900000Y-132100000D03*
X134300000Y-130400000D03*
X136100000Y-130400000D03*
X131700000Y-130400000D03*
X129900000Y-130400000D03*
X121700000Y-132100000D03*
X125500000Y-132100000D03*
X124900000Y-130400000D03*
X126700000Y-130400000D03*
X122300000Y-130400000D03*
X120500000Y-130400000D03*
X112300000Y-132100000D03*
X116100000Y-132100000D03*
X115500000Y-130400000D03*
X117300000Y-130400000D03*
X112900000Y-130400000D03*
X111100000Y-130400000D03*
X102900000Y-132100000D03*
X106700000Y-132100000D03*
X106100000Y-130400000D03*
X107900000Y-130400000D03*
X103500000Y-130400000D03*
X101700000Y-130400000D03*
X140500000Y-115100000D03*
X144300000Y-115100000D03*
X143700000Y-113400000D03*
X145500000Y-113400000D03*
X141100000Y-113400000D03*
X139300000Y-113400000D03*
X131100000Y-115100000D03*
X134900000Y-115100000D03*
X134300000Y-113400000D03*
X136100000Y-113400000D03*
X131700000Y-113400000D03*
X129900000Y-113400000D03*
X121700000Y-115100000D03*
X125500000Y-115100000D03*
X124900000Y-113400000D03*
X126700000Y-113400000D03*
X122300000Y-113400000D03*
X120500000Y-113400000D03*
X112300000Y-115100000D03*
X116100000Y-115100000D03*
X115500000Y-113400000D03*
X117300000Y-113400000D03*
X112900000Y-113400000D03*
X111100000Y-113400000D03*
X102900000Y-115100000D03*
X106700000Y-115100000D03*
X106100000Y-113400000D03*
X107900000Y-113400000D03*
X103500000Y-113400000D03*
X101700000Y-113400000D03*
X140500000Y-98100000D03*
X144300000Y-98100000D03*
X143700000Y-96400000D03*
X145500000Y-96400000D03*
X141100000Y-96400000D03*
X139300000Y-96400000D03*
X131100000Y-98100000D03*
X134900000Y-98100000D03*
X134300000Y-96400000D03*
X136100000Y-96400000D03*
X131700000Y-96400000D03*
X129900000Y-96400000D03*
X121700000Y-98100000D03*
X125500000Y-98100000D03*
X124900000Y-96400000D03*
X126700000Y-96400000D03*
X122300000Y-96400000D03*
X120500000Y-96400000D03*
X112300000Y-98100000D03*
X116100000Y-98100000D03*
X115500000Y-96400000D03*
X117300000Y-96400000D03*
X112900000Y-96400000D03*
X111100000Y-96400000D03*
X102900000Y-98100000D03*
X106700000Y-98100000D03*
X106100000Y-96400000D03*
X107900000Y-96400000D03*
X103500000Y-96400000D03*
X101700000Y-96400000D03*
X140500000Y-81100000D03*
X144300000Y-81100000D03*
X143700000Y-79400000D03*
X145500000Y-79400000D03*
X141100000Y-79400000D03*
X139300000Y-79400000D03*
X131100000Y-81100000D03*
X134900000Y-81100000D03*
X134300000Y-79400000D03*
X136100000Y-79400000D03*
X131700000Y-79400000D03*
X129900000Y-79400000D03*
X121700000Y-81100000D03*
X125500000Y-81100000D03*
X124900000Y-79400000D03*
X126700000Y-79400000D03*
X122300000Y-79400000D03*
X120500000Y-79400000D03*
X112300000Y-81100000D03*
X116100000Y-81100000D03*
X115500000Y-79400000D03*
X117300000Y-79400000D03*
X112900000Y-79400000D03*
X111100000Y-79400000D03*
X102900000Y-81100000D03*
X106700000Y-81100000D03*
X106100000Y-79400000D03*
X107900000Y-79400000D03*
X103500000Y-79400000D03*
X101700000Y-79400000D03*
X140500000Y-64100000D03*
X144300000Y-64100000D03*
X143700000Y-62400000D03*
X145500000Y-62400000D03*
X141100000Y-62400000D03*
X139300000Y-62400000D03*
X131100000Y-64100000D03*
X134900000Y-64100000D03*
X134300000Y-62400000D03*
X136100000Y-62400000D03*
X131700000Y-62400000D03*
X129900000Y-62400000D03*
X121700000Y-64100000D03*
X125500000Y-64100000D03*
X124900000Y-62400000D03*
X126700000Y-62400000D03*
X122300000Y-62400000D03*
X120500000Y-62400000D03*
X112300000Y-64100000D03*
X116100000Y-64100000D03*
X115500000Y-62400000D03*
X117300000Y-62400000D03*
X112900000Y-62400000D03*
X111100000Y-62400000D03*
X102900000Y-64100000D03*
X106700000Y-64100000D03*
X106100000Y-62400000D03*
X107900000Y-62400000D03*
X103500000Y-62400000D03*
X101700000Y-62400000D03*
D11*
X169286000Y-105200000D03*
X178686000Y-105200000D03*
X169286000Y-122200000D03*
X178686000Y-122200000D03*
X178786000Y-58300000D03*
X173086000Y-75600000D03*
X182486000Y-75600000D03*
X171386000Y-108600000D03*
X173086000Y-92600000D03*
X182486000Y-92600000D03*
X173086000Y-109600000D03*
X182486000Y-109600000D03*
X173086000Y-126600000D03*
X182486000Y-126600000D03*
X171386000Y-74600000D03*
X180786000Y-74600000D03*
X171386000Y-91600000D03*
X180786000Y-91600000D03*
X169386000Y-75300000D03*
X178786000Y-75300000D03*
X180786000Y-108600000D03*
X171386000Y-125600000D03*
X180786000Y-125600000D03*
X182486000Y-58600000D03*
X169286000Y-54200000D03*
X170186000Y-52100000D03*
X169386000Y-58300000D03*
X173086000Y-58600000D03*
X171386000Y-57600000D03*
X169386000Y-92300000D03*
X178786000Y-92300000D03*
X169386000Y-109300000D03*
X178786000Y-109300000D03*
X169386000Y-126300000D03*
X178786000Y-126300000D03*
X180786000Y-57600000D03*
X170186000Y-120100000D03*
X179586000Y-120100000D03*
X178686000Y-54200000D03*
X169286000Y-71200000D03*
X178686000Y-71200000D03*
X169286000Y-88200000D03*
X178686000Y-88200000D03*
X179586000Y-86100000D03*
X170186000Y-103100000D03*
X179586000Y-103100000D03*
X179586000Y-52100000D03*
X170186000Y-69100000D03*
X179586000Y-69100000D03*
X170186000Y-86100000D03*
X151390000Y-52100000D03*
X150590000Y-58300000D03*
X154290000Y-58600000D03*
X152590000Y-57600000D03*
X150590000Y-92300000D03*
X159990000Y-92300000D03*
X150590000Y-109300000D03*
X159990000Y-109300000D03*
X150590000Y-126300000D03*
X159990000Y-126300000D03*
X161990000Y-57600000D03*
X151390000Y-120100000D03*
X160790000Y-120100000D03*
X159890000Y-54200000D03*
X150490000Y-71200000D03*
X159890000Y-71200000D03*
X150490000Y-88200000D03*
X159890000Y-88200000D03*
X150490000Y-105200000D03*
X159890000Y-105200000D03*
X150490000Y-122200000D03*
X159890000Y-122200000D03*
X159990000Y-58300000D03*
X154290000Y-75600000D03*
X163690000Y-75600000D03*
X152590000Y-108600000D03*
X154290000Y-92600000D03*
X163690000Y-92600000D03*
X154290000Y-109600000D03*
X163690000Y-109600000D03*
X154290000Y-126600000D03*
X163690000Y-126600000D03*
X152590000Y-74600000D03*
X161990000Y-74600000D03*
X152590000Y-91600000D03*
X161990000Y-91600000D03*
X150590000Y-75300000D03*
X159990000Y-75300000D03*
X161990000Y-108600000D03*
X152590000Y-125600000D03*
X161990000Y-125600000D03*
X163690000Y-58600000D03*
X150490000Y-54200000D03*
X160790000Y-52100000D03*
X151390000Y-69100000D03*
X160790000Y-69100000D03*
X151390000Y-86100000D03*
X160790000Y-86100000D03*
X151390000Y-103100000D03*
X160790000Y-103100000D03*
X144900000Y-126600000D03*
X135500000Y-126600000D03*
X126100000Y-126600000D03*
X116700000Y-126600000D03*
X107300000Y-126600000D03*
X144900000Y-109600000D03*
X135500000Y-109600000D03*
X126100000Y-109600000D03*
X116700000Y-109600000D03*
X107300000Y-109600000D03*
X144900000Y-92600000D03*
X135500000Y-92600000D03*
X126100000Y-92600000D03*
X116700000Y-92600000D03*
X107300000Y-92600000D03*
X144900000Y-75600000D03*
X135500000Y-75600000D03*
X126100000Y-75600000D03*
X116700000Y-75600000D03*
X107300000Y-75600000D03*
X144900000Y-58600000D03*
X135500000Y-58600000D03*
X126100000Y-58600000D03*
X116700000Y-58600000D03*
X143200000Y-125600000D03*
X133800000Y-125600000D03*
X124400000Y-125600000D03*
X115000000Y-125600000D03*
X105600000Y-125600000D03*
X143200000Y-108600000D03*
X133800000Y-108600000D03*
X124400000Y-108600000D03*
X115000000Y-108600000D03*
X105600000Y-108600000D03*
X143200000Y-91600000D03*
X133800000Y-91600000D03*
X124400000Y-91600000D03*
X115000000Y-91600000D03*
X105600000Y-91600000D03*
X143200000Y-74600000D03*
X133800000Y-74600000D03*
X124400000Y-74600000D03*
X115000000Y-74600000D03*
X105600000Y-74600000D03*
X143200000Y-57600000D03*
X133800000Y-57600000D03*
X124400000Y-57600000D03*
X115000000Y-57600000D03*
X141200000Y-126300000D03*
X131800000Y-126300000D03*
X122400000Y-126300000D03*
X113000000Y-126300000D03*
X103600000Y-126300000D03*
X141200000Y-109300000D03*
X131800000Y-109300000D03*
X122400000Y-109300000D03*
X113000000Y-109300000D03*
X103600000Y-109300000D03*
X141200000Y-92300000D03*
X131800000Y-92300000D03*
X122400000Y-92300000D03*
X113000000Y-92300000D03*
X103600000Y-92300000D03*
X141200000Y-75300000D03*
X131800000Y-75300000D03*
X122400000Y-75300000D03*
X113000000Y-75300000D03*
X103600000Y-75300000D03*
X141200000Y-58300000D03*
X131800000Y-58300000D03*
X122400000Y-58300000D03*
X113000000Y-58300000D03*
X141100000Y-122200000D03*
X131700000Y-122200000D03*
X122300000Y-122200000D03*
X112900000Y-122200000D03*
X103500000Y-122200000D03*
X141100000Y-105200000D03*
X131700000Y-105200000D03*
X122300000Y-105200000D03*
X112900000Y-105200000D03*
X103500000Y-105200000D03*
X141100000Y-88200000D03*
X131700000Y-88200000D03*
X122300000Y-88200000D03*
X112900000Y-88200000D03*
X103500000Y-88200000D03*
X141100000Y-71200000D03*
X131700000Y-71200000D03*
X122300000Y-71200000D03*
X112900000Y-71200000D03*
X103500000Y-71200000D03*
X141100000Y-54200000D03*
X131700000Y-54200000D03*
X122300000Y-54200000D03*
X112900000Y-54200000D03*
X142000000Y-120100000D03*
X132600000Y-120100000D03*
X123200000Y-120100000D03*
X113800000Y-120100000D03*
X104400000Y-120100000D03*
X142000000Y-103100000D03*
X132600000Y-103100000D03*
X123200000Y-103100000D03*
X113800000Y-103100000D03*
X104400000Y-103100000D03*
X142000000Y-86100000D03*
X132600000Y-86100000D03*
X123200000Y-86100000D03*
X113800000Y-86100000D03*
X104400000Y-86100000D03*
X142000000Y-69100000D03*
X132600000Y-69100000D03*
X123200000Y-69100000D03*
X113800000Y-69100000D03*
X104400000Y-69100000D03*
X142000000Y-52100000D03*
X132600000Y-52100000D03*
X123200000Y-52100000D03*
X113800000Y-52100000D03*
X103500000Y-54200000D03*
X105600000Y-57600000D03*
X107300000Y-58600000D03*
X103600000Y-58300000D03*
X104400000Y-52100000D03*
X169286000Y-108400000D03*
X178686000Y-108400000D03*
X169286000Y-125400000D03*
X178686000Y-125400000D03*
X169286000Y-91400000D03*
X178686000Y-91400000D03*
X169286000Y-57400000D03*
X178686000Y-59100000D03*
X169286000Y-76100000D03*
X178686000Y-76100000D03*
X169286000Y-93100000D03*
X178686000Y-93100000D03*
X169286000Y-110100000D03*
X178686000Y-110100000D03*
X169286000Y-127100000D03*
X178686000Y-127100000D03*
X178686000Y-57400000D03*
X169286000Y-74400000D03*
X178686000Y-74400000D03*
X169286000Y-59100000D03*
X150490000Y-127100000D03*
X159890000Y-127100000D03*
X159890000Y-57400000D03*
X150490000Y-74400000D03*
X159890000Y-74400000D03*
X150490000Y-108400000D03*
X159890000Y-108400000D03*
X150490000Y-125400000D03*
X159890000Y-125400000D03*
X150490000Y-91400000D03*
X159890000Y-91400000D03*
X150490000Y-57400000D03*
X159890000Y-59100000D03*
X150490000Y-76100000D03*
X159890000Y-76100000D03*
X150490000Y-93100000D03*
X159890000Y-93100000D03*
X150490000Y-110100000D03*
X159890000Y-110100000D03*
X150490000Y-59100000D03*
X141100000Y-125400000D03*
X131700000Y-125400000D03*
X122300000Y-125400000D03*
X112900000Y-125400000D03*
X103500000Y-125400000D03*
X141100000Y-108400000D03*
X131700000Y-108400000D03*
X122300000Y-108400000D03*
X112900000Y-108400000D03*
X103500000Y-108400000D03*
X141100000Y-91400000D03*
X131700000Y-91400000D03*
X122300000Y-91400000D03*
X112900000Y-91400000D03*
X103500000Y-91400000D03*
X141100000Y-74400000D03*
X131700000Y-74400000D03*
X122300000Y-74400000D03*
X112900000Y-74400000D03*
X103500000Y-74400000D03*
X141100000Y-57400000D03*
X131700000Y-57400000D03*
X122300000Y-57400000D03*
X112900000Y-57400000D03*
X141100000Y-127100000D03*
X131700000Y-127100000D03*
X122300000Y-127100000D03*
X112900000Y-127100000D03*
X103500000Y-127100000D03*
X141100000Y-110100000D03*
X131700000Y-110100000D03*
X122300000Y-110100000D03*
X112900000Y-110100000D03*
X103500000Y-110100000D03*
X141100000Y-93100000D03*
X131700000Y-93100000D03*
X122300000Y-93100000D03*
X112900000Y-93100000D03*
X103500000Y-93100000D03*
X141100000Y-76100000D03*
X131700000Y-76100000D03*
X122300000Y-76100000D03*
X112900000Y-76100000D03*
X103500000Y-76100000D03*
X141100000Y-59100000D03*
X131700000Y-59100000D03*
X122300000Y-59100000D03*
X112900000Y-59100000D03*
X103500000Y-57400000D03*
X103500000Y-59100000D03*
D12*
X169286000Y-88200000D02*
X169386000Y-88300000D01*
X178686000Y-88200000D02*
X178786000Y-88300000D01*
X169286000Y-105200000D02*
X169386000Y-105300000D01*
X178686000Y-105200000D02*
X178786000Y-105300000D01*
X169286000Y-122200000D02*
X169386000Y-122300000D01*
X178686000Y-122200000D02*
X178786000Y-122300000D01*
X178786000Y-54300000D02*
X179586000Y-54300000D01*
X170186000Y-74500000D02*
X170186000Y-71300000D01*
X179586000Y-74500000D02*
X179586000Y-71300000D01*
X170186000Y-91500000D02*
X170186000Y-88300000D01*
X179586000Y-91500000D02*
X179586000Y-88300000D01*
X170186000Y-108500000D02*
X170186000Y-105300000D01*
X179586000Y-108500000D02*
X179586000Y-105300000D01*
X170186000Y-88300000D02*
X170186000Y-86100000D01*
X179586000Y-88300000D02*
X179586000Y-86100000D01*
X170186000Y-105300000D02*
X170186000Y-103100000D01*
X179586000Y-105300000D02*
X179586000Y-103100000D01*
X170186000Y-122300000D02*
X170186000Y-120100000D01*
X179586000Y-122300000D02*
X179586000Y-120100000D01*
X179586000Y-57500000D02*
X179586000Y-54300000D01*
X169386000Y-71300000D02*
X170186000Y-71300000D01*
X178786000Y-71300000D02*
X179586000Y-71300000D01*
X169386000Y-88300000D02*
X170186000Y-88300000D01*
X178786000Y-88300000D02*
X179586000Y-88300000D01*
X169386000Y-105300000D02*
X170186000Y-105300000D01*
X178786000Y-105300000D02*
X179586000Y-105300000D01*
X179586000Y-71300000D02*
X179586000Y-69100000D01*
X171386000Y-109300000D02*
X169386000Y-109300000D01*
X180786000Y-109300000D02*
X178786000Y-109300000D01*
X171386000Y-126300000D02*
X169386000Y-126300000D01*
X180786000Y-126300000D02*
X178786000Y-126300000D01*
X178786000Y-58300000D02*
X179586000Y-57500000D01*
X169386000Y-75300000D02*
X170186000Y-74500000D01*
X178786000Y-75300000D02*
X179586000Y-74500000D01*
X171386000Y-125600000D02*
X171386000Y-126300000D01*
X180786000Y-125600000D02*
X180786000Y-126300000D01*
X182186000Y-58300000D02*
X180786000Y-58300000D01*
X172786000Y-75300000D02*
X171386000Y-75300000D01*
X182186000Y-75300000D02*
X180786000Y-75300000D01*
X172786000Y-92300000D02*
X171386000Y-92300000D01*
X180786000Y-57600000D02*
X180786000Y-58300000D01*
X171386000Y-74600000D02*
X171386000Y-75300000D01*
X180786000Y-74600000D02*
X180786000Y-75300000D01*
X171386000Y-91600000D02*
X171386000Y-92300000D01*
X180786000Y-91600000D02*
X180786000Y-92300000D01*
X171386000Y-108600000D02*
X171386000Y-109300000D01*
X180786000Y-108600000D02*
X180786000Y-109300000D01*
X169386000Y-122300000D02*
X170186000Y-122300000D01*
X178786000Y-122300000D02*
X179586000Y-122300000D01*
X179586000Y-54300000D02*
X179586000Y-52100000D01*
X170186000Y-71300000D02*
X170186000Y-69100000D01*
X170186000Y-54300000D02*
X170186000Y-52100000D01*
X170186000Y-57500000D02*
X170186000Y-54300000D01*
X169386000Y-58300000D02*
X170186000Y-57500000D01*
X173086000Y-58600000D02*
X172786000Y-58300000D01*
X171386000Y-58300000D02*
X169386000Y-58300000D01*
X172786000Y-58300000D02*
X171386000Y-58300000D01*
X171386000Y-57600000D02*
X171386000Y-58300000D01*
X182186000Y-92300000D02*
X180786000Y-92300000D01*
X172786000Y-109300000D02*
X171386000Y-109300000D01*
X182186000Y-109300000D02*
X180786000Y-109300000D01*
X172786000Y-126300000D02*
X171386000Y-126300000D01*
X182186000Y-126300000D02*
X180786000Y-126300000D01*
X182486000Y-58600000D02*
X182186000Y-58300000D01*
X178686000Y-54200000D02*
X178786000Y-54300000D01*
X169286000Y-71200000D02*
X169386000Y-71300000D01*
X178686000Y-71200000D02*
X178786000Y-71300000D01*
X173086000Y-75600000D02*
X172786000Y-75300000D01*
X182486000Y-75600000D02*
X182186000Y-75300000D01*
X173086000Y-92600000D02*
X172786000Y-92300000D01*
X182486000Y-92600000D02*
X182186000Y-92300000D01*
X173086000Y-109600000D02*
X172786000Y-109300000D01*
X182486000Y-109600000D02*
X182186000Y-109300000D01*
X173086000Y-126600000D02*
X172786000Y-126300000D01*
X182486000Y-126600000D02*
X182186000Y-126300000D01*
X169386000Y-92300000D02*
X170186000Y-91500000D01*
X178786000Y-92300000D02*
X179586000Y-91500000D01*
X169386000Y-109300000D02*
X170186000Y-108500000D01*
X178786000Y-109300000D02*
X179586000Y-108500000D01*
X169386000Y-126300000D02*
X170186000Y-125500000D01*
X178786000Y-126300000D02*
X179586000Y-125500000D01*
X170186000Y-125500000D02*
X170186000Y-122300000D01*
X179586000Y-125500000D02*
X179586000Y-122300000D01*
X180786000Y-58300000D02*
X178786000Y-58300000D01*
X171386000Y-75300000D02*
X169386000Y-75300000D01*
X180786000Y-75300000D02*
X178786000Y-75300000D01*
X171386000Y-92300000D02*
X169386000Y-92300000D01*
X180786000Y-92300000D02*
X178786000Y-92300000D01*
X169286000Y-54200000D02*
X169386000Y-54300000D01*
X169386000Y-54300000D02*
X170186000Y-54300000D01*
X150590000Y-122300000D02*
X151390000Y-122300000D01*
X159990000Y-122300000D02*
X160790000Y-122300000D01*
X160790000Y-54300000D02*
X160790000Y-52100000D01*
X151390000Y-71300000D02*
X151390000Y-69100000D01*
X151390000Y-54300000D02*
X151390000Y-52100000D01*
X151390000Y-57500000D02*
X151390000Y-54300000D01*
X150590000Y-58300000D02*
X151390000Y-57500000D01*
X154290000Y-58600000D02*
X153990000Y-58300000D01*
X152590000Y-58300000D02*
X150590000Y-58300000D01*
X153990000Y-58300000D02*
X152590000Y-58300000D01*
X152590000Y-57600000D02*
X152590000Y-58300000D01*
X150490000Y-88200000D02*
X150590000Y-88300000D01*
X159890000Y-88200000D02*
X159990000Y-88300000D01*
X150490000Y-105200000D02*
X150590000Y-105300000D01*
X159890000Y-105200000D02*
X159990000Y-105300000D01*
X150490000Y-122200000D02*
X150590000Y-122300000D01*
X159890000Y-122200000D02*
X159990000Y-122300000D01*
X159990000Y-54300000D02*
X160790000Y-54300000D01*
X151390000Y-74500000D02*
X151390000Y-71300000D01*
X160790000Y-74500000D02*
X160790000Y-71300000D01*
X151390000Y-91500000D02*
X151390000Y-88300000D01*
X160790000Y-91500000D02*
X160790000Y-88300000D01*
X151390000Y-108500000D02*
X151390000Y-105300000D01*
X160790000Y-108500000D02*
X160790000Y-105300000D01*
X151390000Y-88300000D02*
X151390000Y-86100000D01*
X160790000Y-88300000D02*
X160790000Y-86100000D01*
X151390000Y-105300000D02*
X151390000Y-103100000D01*
X160790000Y-105300000D02*
X160790000Y-103100000D01*
X151390000Y-122300000D02*
X151390000Y-120100000D01*
X160790000Y-122300000D02*
X160790000Y-120100000D01*
X160790000Y-57500000D02*
X160790000Y-54300000D01*
X150590000Y-71300000D02*
X151390000Y-71300000D01*
X159990000Y-71300000D02*
X160790000Y-71300000D01*
X150590000Y-88300000D02*
X151390000Y-88300000D01*
X159990000Y-88300000D02*
X160790000Y-88300000D01*
X150590000Y-105300000D02*
X151390000Y-105300000D01*
X159990000Y-105300000D02*
X160790000Y-105300000D01*
X160790000Y-71300000D02*
X160790000Y-69100000D01*
X152590000Y-109300000D02*
X150590000Y-109300000D01*
X161990000Y-109300000D02*
X159990000Y-109300000D01*
X152590000Y-126300000D02*
X150590000Y-126300000D01*
X161990000Y-126300000D02*
X159990000Y-126300000D01*
X159990000Y-58300000D02*
X160790000Y-57500000D01*
X150590000Y-75300000D02*
X151390000Y-74500000D01*
X159990000Y-75300000D02*
X160790000Y-74500000D01*
X163390000Y-92300000D02*
X161990000Y-92300000D01*
X153990000Y-109300000D02*
X152590000Y-109300000D01*
X163390000Y-109300000D02*
X161990000Y-109300000D01*
X153990000Y-126300000D02*
X152590000Y-126300000D01*
X163390000Y-126300000D02*
X161990000Y-126300000D01*
X163690000Y-58600000D02*
X163390000Y-58300000D01*
X159890000Y-54200000D02*
X159990000Y-54300000D01*
X150490000Y-71200000D02*
X150590000Y-71300000D01*
X159890000Y-71200000D02*
X159990000Y-71300000D01*
X154290000Y-75600000D02*
X153990000Y-75300000D01*
X163690000Y-75600000D02*
X163390000Y-75300000D01*
X154290000Y-92600000D02*
X153990000Y-92300000D01*
X163690000Y-92600000D02*
X163390000Y-92300000D01*
X154290000Y-109600000D02*
X153990000Y-109300000D01*
X163690000Y-109600000D02*
X163390000Y-109300000D01*
X154290000Y-126600000D02*
X153990000Y-126300000D01*
X163690000Y-126600000D02*
X163390000Y-126300000D01*
X150590000Y-92300000D02*
X151390000Y-91500000D01*
X159990000Y-92300000D02*
X160790000Y-91500000D01*
X150590000Y-109300000D02*
X151390000Y-108500000D01*
X159990000Y-109300000D02*
X160790000Y-108500000D01*
X150590000Y-126300000D02*
X151390000Y-125500000D01*
X159990000Y-126300000D02*
X160790000Y-125500000D01*
X151390000Y-125500000D02*
X151390000Y-122300000D01*
X160790000Y-125500000D02*
X160790000Y-122300000D01*
X161990000Y-58300000D02*
X159990000Y-58300000D01*
X152590000Y-75300000D02*
X150590000Y-75300000D01*
X161990000Y-75300000D02*
X159990000Y-75300000D01*
X152590000Y-92300000D02*
X150590000Y-92300000D01*
X161990000Y-92300000D02*
X159990000Y-92300000D01*
X152590000Y-125600000D02*
X152590000Y-126300000D01*
X161990000Y-125600000D02*
X161990000Y-126300000D01*
X163390000Y-58300000D02*
X161990000Y-58300000D01*
X153990000Y-75300000D02*
X152590000Y-75300000D01*
X163390000Y-75300000D02*
X161990000Y-75300000D01*
X153990000Y-92300000D02*
X152590000Y-92300000D01*
X161990000Y-57600000D02*
X161990000Y-58300000D01*
X152590000Y-74600000D02*
X152590000Y-75300000D01*
X161990000Y-74600000D02*
X161990000Y-75300000D01*
X152590000Y-91600000D02*
X152590000Y-92300000D01*
X161990000Y-91600000D02*
X161990000Y-92300000D01*
X152590000Y-108600000D02*
X152590000Y-109300000D01*
X161990000Y-108600000D02*
X161990000Y-109300000D01*
X150490000Y-54200000D02*
X150590000Y-54300000D01*
X150590000Y-54300000D02*
X151390000Y-54300000D01*
X144900000Y-126600000D02*
X144600000Y-126300000D01*
X135500000Y-126600000D02*
X135200000Y-126300000D01*
X126100000Y-126600000D02*
X125800000Y-126300000D01*
X116700000Y-126600000D02*
X116400000Y-126300000D01*
X107300000Y-126600000D02*
X107000000Y-126300000D01*
X144900000Y-109600000D02*
X144600000Y-109300000D01*
X135500000Y-109600000D02*
X135200000Y-109300000D01*
X126100000Y-109600000D02*
X125800000Y-109300000D01*
X116700000Y-109600000D02*
X116400000Y-109300000D01*
X107300000Y-109600000D02*
X107000000Y-109300000D01*
X144900000Y-92600000D02*
X144600000Y-92300000D01*
X135500000Y-92600000D02*
X135200000Y-92300000D01*
X126100000Y-92600000D02*
X125800000Y-92300000D01*
X116700000Y-92600000D02*
X116400000Y-92300000D01*
X107300000Y-92600000D02*
X107000000Y-92300000D01*
X144900000Y-75600000D02*
X144600000Y-75300000D01*
X135500000Y-75600000D02*
X135200000Y-75300000D01*
X126100000Y-75600000D02*
X125800000Y-75300000D01*
X116700000Y-75600000D02*
X116400000Y-75300000D01*
X107300000Y-75600000D02*
X107000000Y-75300000D01*
X144900000Y-58600000D02*
X144600000Y-58300000D01*
X135500000Y-58600000D02*
X135200000Y-58300000D01*
X126100000Y-58600000D02*
X125800000Y-58300000D01*
X116700000Y-58600000D02*
X116400000Y-58300000D01*
X144600000Y-126300000D02*
X143200000Y-126300000D01*
X135200000Y-126300000D02*
X133800000Y-126300000D01*
X125800000Y-126300000D02*
X124400000Y-126300000D01*
X116400000Y-126300000D02*
X115000000Y-126300000D01*
X107000000Y-126300000D02*
X105600000Y-126300000D01*
X144600000Y-109300000D02*
X143200000Y-109300000D01*
X135200000Y-109300000D02*
X133800000Y-109300000D01*
X125800000Y-109300000D02*
X124400000Y-109300000D01*
X116400000Y-109300000D02*
X115000000Y-109300000D01*
X107000000Y-109300000D02*
X105600000Y-109300000D01*
X144600000Y-92300000D02*
X143200000Y-92300000D01*
X135200000Y-92300000D02*
X133800000Y-92300000D01*
X125800000Y-92300000D02*
X124400000Y-92300000D01*
X116400000Y-92300000D02*
X115000000Y-92300000D01*
X107000000Y-92300000D02*
X105600000Y-92300000D01*
X144600000Y-75300000D02*
X143200000Y-75300000D01*
X135200000Y-75300000D02*
X133800000Y-75300000D01*
X125800000Y-75300000D02*
X124400000Y-75300000D01*
X116400000Y-75300000D02*
X115000000Y-75300000D01*
X107000000Y-75300000D02*
X105600000Y-75300000D01*
X144600000Y-58300000D02*
X143200000Y-58300000D01*
X135200000Y-58300000D02*
X133800000Y-58300000D01*
X125800000Y-58300000D02*
X124400000Y-58300000D01*
X116400000Y-58300000D02*
X115000000Y-58300000D01*
X143200000Y-125600000D02*
X143200000Y-126300000D01*
X133800000Y-125600000D02*
X133800000Y-126300000D01*
X124400000Y-125600000D02*
X124400000Y-126300000D01*
X115000000Y-125600000D02*
X115000000Y-126300000D01*
X105600000Y-125600000D02*
X105600000Y-126300000D01*
X143200000Y-108600000D02*
X143200000Y-109300000D01*
X133800000Y-108600000D02*
X133800000Y-109300000D01*
X124400000Y-108600000D02*
X124400000Y-109300000D01*
X115000000Y-108600000D02*
X115000000Y-109300000D01*
X105600000Y-108600000D02*
X105600000Y-109300000D01*
X143200000Y-91600000D02*
X143200000Y-92300000D01*
X133800000Y-91600000D02*
X133800000Y-92300000D01*
X124400000Y-91600000D02*
X124400000Y-92300000D01*
X115000000Y-91600000D02*
X115000000Y-92300000D01*
X105600000Y-91600000D02*
X105600000Y-92300000D01*
X143200000Y-74600000D02*
X143200000Y-75300000D01*
X133800000Y-74600000D02*
X133800000Y-75300000D01*
X124400000Y-74600000D02*
X124400000Y-75300000D01*
X115000000Y-74600000D02*
X115000000Y-75300000D01*
X105600000Y-74600000D02*
X105600000Y-75300000D01*
X143200000Y-57600000D02*
X143200000Y-58300000D01*
X133800000Y-57600000D02*
X133800000Y-58300000D01*
X124400000Y-57600000D02*
X124400000Y-58300000D01*
X115000000Y-57600000D02*
X115000000Y-58300000D01*
X141200000Y-126300000D02*
X142000000Y-125500000D01*
X131800000Y-126300000D02*
X132600000Y-125500000D01*
X122400000Y-126300000D02*
X123200000Y-125500000D01*
X113000000Y-126300000D02*
X113800000Y-125500000D01*
X103600000Y-126300000D02*
X104400000Y-125500000D01*
X141200000Y-109300000D02*
X142000000Y-108500000D01*
X131800000Y-109300000D02*
X132600000Y-108500000D01*
X122400000Y-109300000D02*
X123200000Y-108500000D01*
X113000000Y-109300000D02*
X113800000Y-108500000D01*
X103600000Y-109300000D02*
X104400000Y-108500000D01*
X141200000Y-92300000D02*
X142000000Y-91500000D01*
X131800000Y-92300000D02*
X132600000Y-91500000D01*
X122400000Y-92300000D02*
X123200000Y-91500000D01*
X113000000Y-92300000D02*
X113800000Y-91500000D01*
X103600000Y-92300000D02*
X104400000Y-91500000D01*
X141200000Y-75300000D02*
X142000000Y-74500000D01*
X131800000Y-75300000D02*
X132600000Y-74500000D01*
X122400000Y-75300000D02*
X123200000Y-74500000D01*
X113000000Y-75300000D02*
X113800000Y-74500000D01*
X103600000Y-75300000D02*
X104400000Y-74500000D01*
X141200000Y-58300000D02*
X142000000Y-57500000D01*
X131800000Y-58300000D02*
X132600000Y-57500000D01*
X122400000Y-58300000D02*
X123200000Y-57500000D01*
X113000000Y-58300000D02*
X113800000Y-57500000D01*
X143200000Y-126300000D02*
X141200000Y-126300000D01*
X133800000Y-126300000D02*
X131800000Y-126300000D01*
X124400000Y-126300000D02*
X122400000Y-126300000D01*
X115000000Y-126300000D02*
X113000000Y-126300000D01*
X105600000Y-126300000D02*
X103600000Y-126300000D01*
X143200000Y-109300000D02*
X141200000Y-109300000D01*
X133800000Y-109300000D02*
X131800000Y-109300000D01*
X124400000Y-109300000D02*
X122400000Y-109300000D01*
X115000000Y-109300000D02*
X113000000Y-109300000D01*
X105600000Y-109300000D02*
X103600000Y-109300000D01*
X143200000Y-92300000D02*
X141200000Y-92300000D01*
X133800000Y-92300000D02*
X131800000Y-92300000D01*
X124400000Y-92300000D02*
X122400000Y-92300000D01*
X115000000Y-92300000D02*
X113000000Y-92300000D01*
X105600000Y-92300000D02*
X103600000Y-92300000D01*
X143200000Y-75300000D02*
X141200000Y-75300000D01*
X133800000Y-75300000D02*
X131800000Y-75300000D01*
X124400000Y-75300000D02*
X122400000Y-75300000D01*
X115000000Y-75300000D02*
X113000000Y-75300000D01*
X105600000Y-75300000D02*
X103600000Y-75300000D01*
X143200000Y-58300000D02*
X141200000Y-58300000D01*
X133800000Y-58300000D02*
X131800000Y-58300000D01*
X124400000Y-58300000D02*
X122400000Y-58300000D01*
X115000000Y-58300000D02*
X113000000Y-58300000D01*
X142000000Y-125500000D02*
X142000000Y-122300000D01*
X132600000Y-125500000D02*
X132600000Y-122300000D01*
X123200000Y-125500000D02*
X123200000Y-122300000D01*
X113800000Y-125500000D02*
X113800000Y-122300000D01*
X104400000Y-125500000D02*
X104400000Y-122300000D01*
X142000000Y-108500000D02*
X142000000Y-105300000D01*
X132600000Y-108500000D02*
X132600000Y-105300000D01*
X123200000Y-108500000D02*
X123200000Y-105300000D01*
X113800000Y-108500000D02*
X113800000Y-105300000D01*
X104400000Y-108500000D02*
X104400000Y-105300000D01*
X142000000Y-91500000D02*
X142000000Y-88300000D01*
X132600000Y-91500000D02*
X132600000Y-88300000D01*
X123200000Y-91500000D02*
X123200000Y-88300000D01*
X113800000Y-91500000D02*
X113800000Y-88300000D01*
X104400000Y-91500000D02*
X104400000Y-88300000D01*
X142000000Y-74500000D02*
X142000000Y-71300000D01*
X132600000Y-74500000D02*
X132600000Y-71300000D01*
X123200000Y-74500000D02*
X123200000Y-71300000D01*
X113800000Y-74500000D02*
X113800000Y-71300000D01*
X104400000Y-74500000D02*
X104400000Y-71300000D01*
X142000000Y-57500000D02*
X142000000Y-54300000D01*
X132600000Y-57500000D02*
X132600000Y-54300000D01*
X123200000Y-57500000D02*
X123200000Y-54300000D01*
X113800000Y-57500000D02*
X113800000Y-54300000D01*
X142000000Y-122300000D02*
X142000000Y-120100000D01*
X132600000Y-122300000D02*
X132600000Y-120100000D01*
X123200000Y-122300000D02*
X123200000Y-120100000D01*
X113800000Y-122300000D02*
X113800000Y-120100000D01*
X104400000Y-122300000D02*
X104400000Y-120100000D01*
X142000000Y-105300000D02*
X142000000Y-103100000D01*
X132600000Y-105300000D02*
X132600000Y-103100000D01*
X123200000Y-105300000D02*
X123200000Y-103100000D01*
X113800000Y-105300000D02*
X113800000Y-103100000D01*
X104400000Y-105300000D02*
X104400000Y-103100000D01*
X142000000Y-88300000D02*
X142000000Y-86100000D01*
X132600000Y-88300000D02*
X132600000Y-86100000D01*
X123200000Y-88300000D02*
X123200000Y-86100000D01*
X113800000Y-88300000D02*
X113800000Y-86100000D01*
X104400000Y-88300000D02*
X104400000Y-86100000D01*
X142000000Y-71300000D02*
X142000000Y-69100000D01*
X132600000Y-71300000D02*
X132600000Y-69100000D01*
X123200000Y-71300000D02*
X123200000Y-69100000D01*
X113800000Y-71300000D02*
X113800000Y-69100000D01*
X104400000Y-71300000D02*
X104400000Y-69100000D01*
X142000000Y-54300000D02*
X142000000Y-52100000D01*
X132600000Y-54300000D02*
X132600000Y-52100000D01*
X123200000Y-54300000D02*
X123200000Y-52100000D01*
X113800000Y-54300000D02*
X113800000Y-52100000D01*
X141200000Y-122300000D02*
X142000000Y-122300000D01*
X131800000Y-122300000D02*
X132600000Y-122300000D01*
X122400000Y-122300000D02*
X123200000Y-122300000D01*
X113000000Y-122300000D02*
X113800000Y-122300000D01*
X103600000Y-122300000D02*
X104400000Y-122300000D01*
X141200000Y-105300000D02*
X142000000Y-105300000D01*
X131800000Y-105300000D02*
X132600000Y-105300000D01*
X122400000Y-105300000D02*
X123200000Y-105300000D01*
X113000000Y-105300000D02*
X113800000Y-105300000D01*
X103600000Y-105300000D02*
X104400000Y-105300000D01*
X141200000Y-88300000D02*
X142000000Y-88300000D01*
X131800000Y-88300000D02*
X132600000Y-88300000D01*
X122400000Y-88300000D02*
X123200000Y-88300000D01*
X113000000Y-88300000D02*
X113800000Y-88300000D01*
X103600000Y-88300000D02*
X104400000Y-88300000D01*
X141200000Y-71300000D02*
X142000000Y-71300000D01*
X131800000Y-71300000D02*
X132600000Y-71300000D01*
X122400000Y-71300000D02*
X123200000Y-71300000D01*
X113000000Y-71300000D02*
X113800000Y-71300000D01*
X103600000Y-71300000D02*
X104400000Y-71300000D01*
X141200000Y-54300000D02*
X142000000Y-54300000D01*
X131800000Y-54300000D02*
X132600000Y-54300000D01*
X122400000Y-54300000D02*
X123200000Y-54300000D01*
X113000000Y-54300000D02*
X113800000Y-54300000D01*
X141100000Y-122200000D02*
X141200000Y-122300000D01*
X131700000Y-122200000D02*
X131800000Y-122300000D01*
X122300000Y-122200000D02*
X122400000Y-122300000D01*
X112900000Y-122200000D02*
X113000000Y-122300000D01*
X103500000Y-122200000D02*
X103600000Y-122300000D01*
X141100000Y-105200000D02*
X141200000Y-105300000D01*
X131700000Y-105200000D02*
X131800000Y-105300000D01*
X122300000Y-105200000D02*
X122400000Y-105300000D01*
X112900000Y-105200000D02*
X113000000Y-105300000D01*
X103500000Y-105200000D02*
X103600000Y-105300000D01*
X141100000Y-88200000D02*
X141200000Y-88300000D01*
X131700000Y-88200000D02*
X131800000Y-88300000D01*
X122300000Y-88200000D02*
X122400000Y-88300000D01*
X112900000Y-88200000D02*
X113000000Y-88300000D01*
X103500000Y-88200000D02*
X103600000Y-88300000D01*
X141100000Y-71200000D02*
X141200000Y-71300000D01*
X131700000Y-71200000D02*
X131800000Y-71300000D01*
X122300000Y-71200000D02*
X122400000Y-71300000D01*
X112900000Y-71200000D02*
X113000000Y-71300000D01*
X103500000Y-71200000D02*
X103600000Y-71300000D01*
X141100000Y-54200000D02*
X141200000Y-54300000D01*
X131700000Y-54200000D02*
X131800000Y-54300000D01*
X122300000Y-54200000D02*
X122400000Y-54300000D01*
X112900000Y-54200000D02*
X113000000Y-54300000D01*
X103600000Y-54300000D02*
X104400000Y-54300000D01*
X103500000Y-54200000D02*
X103600000Y-54300000D01*
X105600000Y-57600000D02*
X105600000Y-58300000D01*
X107000000Y-58300000D02*
X105600000Y-58300000D01*
X105600000Y-58300000D02*
X103600000Y-58300000D01*
X107300000Y-58600000D02*
X107000000Y-58300000D01*
X103600000Y-58300000D02*
X104400000Y-57500000D01*
X104400000Y-57500000D02*
X104400000Y-54300000D01*
X104400000Y-54300000D02*
X104400000Y-52100000D01*
X169286000Y-59100000D02*
X168686000Y-58500000D01*
X169286000Y-127100000D02*
X168686000Y-126500000D01*
X178686000Y-127100000D02*
X178086000Y-126500000D01*
X178086000Y-58500000D02*
X178086000Y-58000000D01*
X168686000Y-75500000D02*
X168686000Y-75000000D01*
X178086000Y-75500000D02*
X178086000Y-75000000D01*
X168686000Y-92500000D02*
X168686000Y-92000000D01*
X178086000Y-92500000D02*
X178086000Y-92000000D01*
X178686000Y-59100000D02*
X178086000Y-58500000D01*
X169286000Y-76100000D02*
X168686000Y-75500000D01*
X178686000Y-76100000D02*
X178086000Y-75500000D01*
X169286000Y-93100000D02*
X168686000Y-92500000D01*
X178686000Y-93100000D02*
X178086000Y-92500000D01*
X169286000Y-110100000D02*
X168686000Y-109500000D01*
X178686000Y-110100000D02*
X178086000Y-109500000D01*
X168686000Y-75000000D02*
X169286000Y-74400000D01*
X178086000Y-75000000D02*
X178686000Y-74400000D01*
X168686000Y-92000000D02*
X169286000Y-91400000D01*
X178086000Y-92000000D02*
X178686000Y-91400000D01*
X168686000Y-109000000D02*
X169286000Y-108400000D01*
X178086000Y-109000000D02*
X178686000Y-108400000D01*
X168686000Y-126000000D02*
X169286000Y-125400000D01*
X178086000Y-126000000D02*
X178686000Y-125400000D01*
X168686000Y-109500000D02*
X168686000Y-109000000D01*
X178086000Y-109500000D02*
X178086000Y-109000000D01*
X168686000Y-126500000D02*
X168686000Y-126000000D01*
X178086000Y-126500000D02*
X178086000Y-126000000D01*
X178086000Y-58000000D02*
X178686000Y-57400000D01*
X168686000Y-58500000D02*
X168686000Y-58000000D01*
X168686000Y-58000000D02*
X169286000Y-57400000D01*
X150490000Y-127100000D02*
X149890000Y-126500000D01*
X159890000Y-127100000D02*
X159290000Y-126500000D01*
X159290000Y-58500000D02*
X159290000Y-58000000D01*
X149890000Y-75500000D02*
X149890000Y-75000000D01*
X159290000Y-75500000D02*
X159290000Y-75000000D01*
X149890000Y-92500000D02*
X149890000Y-92000000D01*
X159290000Y-92500000D02*
X159290000Y-92000000D01*
X159890000Y-59100000D02*
X159290000Y-58500000D01*
X150490000Y-76100000D02*
X149890000Y-75500000D01*
X159890000Y-76100000D02*
X159290000Y-75500000D01*
X150490000Y-93100000D02*
X149890000Y-92500000D01*
X159890000Y-93100000D02*
X159290000Y-92500000D01*
X150490000Y-110100000D02*
X149890000Y-109500000D01*
X159890000Y-110100000D02*
X159290000Y-109500000D01*
X149890000Y-75000000D02*
X150490000Y-74400000D01*
X159290000Y-75000000D02*
X159890000Y-74400000D01*
X149890000Y-92000000D02*
X150490000Y-91400000D01*
X159290000Y-92000000D02*
X159890000Y-91400000D01*
X149890000Y-109000000D02*
X150490000Y-108400000D01*
X159290000Y-109000000D02*
X159890000Y-108400000D01*
X149890000Y-126000000D02*
X150490000Y-125400000D01*
X159290000Y-126000000D02*
X159890000Y-125400000D01*
X159290000Y-58000000D02*
X159890000Y-57400000D01*
X149890000Y-109500000D02*
X149890000Y-109000000D01*
X159290000Y-109500000D02*
X159290000Y-109000000D01*
X149890000Y-126500000D02*
X149890000Y-126000000D01*
X159290000Y-126500000D02*
X159290000Y-126000000D01*
X150490000Y-59100000D02*
X149890000Y-58500000D01*
X149890000Y-58500000D02*
X149890000Y-58000000D01*
X149890000Y-58000000D02*
X150490000Y-57400000D01*
X140500000Y-126500000D02*
X140500000Y-126000000D01*
X131100000Y-126500000D02*
X131100000Y-126000000D01*
X121700000Y-126500000D02*
X121700000Y-126000000D01*
X112300000Y-126500000D02*
X112300000Y-126000000D01*
X102900000Y-126500000D02*
X102900000Y-126000000D01*
X140500000Y-109500000D02*
X140500000Y-109000000D01*
X131100000Y-109500000D02*
X131100000Y-109000000D01*
X121700000Y-109500000D02*
X121700000Y-109000000D01*
X112300000Y-109500000D02*
X112300000Y-109000000D01*
X102900000Y-109500000D02*
X102900000Y-109000000D01*
X140500000Y-92500000D02*
X140500000Y-92000000D01*
X131100000Y-92500000D02*
X131100000Y-92000000D01*
X121700000Y-92500000D02*
X121700000Y-92000000D01*
X112300000Y-92500000D02*
X112300000Y-92000000D01*
X102900000Y-92500000D02*
X102900000Y-92000000D01*
X140500000Y-75500000D02*
X140500000Y-75000000D01*
X131100000Y-75500000D02*
X131100000Y-75000000D01*
X121700000Y-75500000D02*
X121700000Y-75000000D01*
X112300000Y-75500000D02*
X112300000Y-75000000D01*
X102900000Y-75500000D02*
X102900000Y-75000000D01*
X140500000Y-58500000D02*
X140500000Y-58000000D01*
X131100000Y-58500000D02*
X131100000Y-58000000D01*
X121700000Y-58500000D02*
X121700000Y-58000000D01*
X112300000Y-58500000D02*
X112300000Y-58000000D01*
X141100000Y-127100000D02*
X140500000Y-126500000D01*
X131700000Y-127100000D02*
X131100000Y-126500000D01*
X122300000Y-127100000D02*
X121700000Y-126500000D01*
X112900000Y-127100000D02*
X112300000Y-126500000D01*
X103500000Y-127100000D02*
X102900000Y-126500000D01*
X141100000Y-110100000D02*
X140500000Y-109500000D01*
X131700000Y-110100000D02*
X131100000Y-109500000D01*
X122300000Y-110100000D02*
X121700000Y-109500000D01*
X112900000Y-110100000D02*
X112300000Y-109500000D01*
X103500000Y-110100000D02*
X102900000Y-109500000D01*
X141100000Y-93100000D02*
X140500000Y-92500000D01*
X131700000Y-93100000D02*
X131100000Y-92500000D01*
X122300000Y-93100000D02*
X121700000Y-92500000D01*
X112900000Y-93100000D02*
X112300000Y-92500000D01*
X103500000Y-93100000D02*
X102900000Y-92500000D01*
X141100000Y-76100000D02*
X140500000Y-75500000D01*
X131700000Y-76100000D02*
X131100000Y-75500000D01*
X122300000Y-76100000D02*
X121700000Y-75500000D01*
X112900000Y-76100000D02*
X112300000Y-75500000D01*
X103500000Y-76100000D02*
X102900000Y-75500000D01*
X141100000Y-59100000D02*
X140500000Y-58500000D01*
X131700000Y-59100000D02*
X131100000Y-58500000D01*
X122300000Y-59100000D02*
X121700000Y-58500000D01*
X112900000Y-59100000D02*
X112300000Y-58500000D01*
X140500000Y-126000000D02*
X141100000Y-125400000D01*
X131100000Y-126000000D02*
X131700000Y-125400000D01*
X121700000Y-126000000D02*
X122300000Y-125400000D01*
X112300000Y-126000000D02*
X112900000Y-125400000D01*
X102900000Y-126000000D02*
X103500000Y-125400000D01*
X140500000Y-109000000D02*
X141100000Y-108400000D01*
X131100000Y-109000000D02*
X131700000Y-108400000D01*
X121700000Y-109000000D02*
X122300000Y-108400000D01*
X112300000Y-109000000D02*
X112900000Y-108400000D01*
X102900000Y-109000000D02*
X103500000Y-108400000D01*
X140500000Y-92000000D02*
X141100000Y-91400000D01*
X131100000Y-92000000D02*
X131700000Y-91400000D01*
X121700000Y-92000000D02*
X122300000Y-91400000D01*
X112300000Y-92000000D02*
X112900000Y-91400000D01*
X102900000Y-92000000D02*
X103500000Y-91400000D01*
X140500000Y-75000000D02*
X141100000Y-74400000D01*
X131100000Y-75000000D02*
X131700000Y-74400000D01*
X121700000Y-75000000D02*
X122300000Y-74400000D01*
X112300000Y-75000000D02*
X112900000Y-74400000D01*
X102900000Y-75000000D02*
X103500000Y-74400000D01*
X140500000Y-58000000D02*
X141100000Y-57400000D01*
X131100000Y-58000000D02*
X131700000Y-57400000D01*
X121700000Y-58000000D02*
X122300000Y-57400000D01*
X112300000Y-58000000D02*
X112900000Y-57400000D01*
X102900000Y-58000000D02*
X103500000Y-57400000D01*
X102900000Y-58500000D02*
X102900000Y-58000000D01*
X103500000Y-59100000D02*
X102900000Y-58500000D01*
M02*
