M48
;DRILL file {KiCad 4.0.2+dfsg1-stable} date Mi 03 Jan 2018 18:03:04 CET
;FORMAT={-:-/ absolute / inch / decimal}
FMAT,2
INCH,TZ
T1C0.016
T2C0.024
%
G90
G05
M72
T1
X4.0748Y-2.1339
X4.0748Y-2.2598
X4.0748Y-2.3268
X4.0748Y-2.8031
X4.0748Y-2.9291
X4.0748Y-2.9961
X4.0748Y-3.4724
X4.0748Y-3.5984
X4.0748Y-3.6654
X4.0748Y-4.1417
X4.0748Y-4.2677
X4.0748Y-4.3346
X4.0748Y-4.811
X4.0748Y-4.937
X4.0748Y-5.0039
X4.0787Y-2.2953
X4.0787Y-2.9646
X4.0787Y-3.6339
X4.0787Y-4.3031
X4.0787Y-4.9724
X4.1102Y-2.0512
X4.1102Y-2.7205
X4.1102Y-3.3898
X4.1102Y-4.0591
X4.1102Y-4.7283
X4.1575Y-2.2677
X4.1575Y-2.937
X4.1575Y-3.6063
X4.1575Y-4.2756
X4.1575Y-4.9449
X4.2244Y-2.3071
X4.2244Y-2.9764
X4.2244Y-3.6457
X4.2244Y-4.315
X4.2244Y-4.9843
X4.4449Y-2.1339
X4.4449Y-2.2598
X4.4449Y-2.3268
X4.4449Y-2.8031
X4.4449Y-2.9291
X4.4449Y-2.9961
X4.4449Y-3.4724
X4.4449Y-3.5984
X4.4449Y-3.6654
X4.4449Y-4.1417
X4.4449Y-4.2677
X4.4449Y-4.3346
X4.4449Y-4.811
X4.4449Y-4.937
X4.4449Y-5.0039
X4.4488Y-2.2953
X4.4488Y-2.9646
X4.4488Y-3.6339
X4.4488Y-4.3031
X4.4488Y-4.9724
X4.4803Y-2.0512
X4.4803Y-2.7205
X4.4803Y-3.3898
X4.4803Y-4.0591
X4.4803Y-4.7283
X4.5276Y-2.2677
X4.5276Y-2.937
X4.5276Y-3.6063
X4.5276Y-4.2756
X4.5276Y-4.9449
X4.5945Y-2.3071
X4.5945Y-2.9764
X4.5945Y-3.6457
X4.5945Y-4.315
X4.5945Y-4.9843
X4.815Y-2.1339
X4.815Y-2.2598
X4.815Y-2.3268
X4.815Y-2.8031
X4.815Y-2.9291
X4.815Y-2.9961
X4.815Y-3.4724
X4.815Y-3.5984
X4.815Y-3.6654
X4.815Y-4.1417
X4.815Y-4.2677
X4.815Y-4.3346
X4.815Y-4.811
X4.815Y-4.937
X4.815Y-5.0039
X4.8189Y-2.2953
X4.8189Y-2.9646
X4.8189Y-3.6339
X4.8189Y-4.3031
X4.8189Y-4.9724
X4.8504Y-2.0512
X4.8504Y-2.7205
X4.8504Y-3.3898
X4.8504Y-4.0591
X4.8504Y-4.7283
X4.8976Y-2.2677
X4.8976Y-2.937
X4.8976Y-3.6063
X4.8976Y-4.2756
X4.8976Y-4.9449
X4.9646Y-2.3071
X4.9646Y-2.9764
X4.9646Y-3.6457
X4.9646Y-4.315
X4.9646Y-4.9843
X5.185Y-2.1339
X5.185Y-2.2598
X5.185Y-2.3268
X5.185Y-2.8031
X5.185Y-2.9291
X5.185Y-2.9961
X5.185Y-3.4724
X5.185Y-3.5984
X5.185Y-3.6654
X5.185Y-4.1417
X5.185Y-4.2677
X5.185Y-4.3346
X5.185Y-4.811
X5.185Y-4.937
X5.185Y-5.0039
X5.189Y-2.2953
X5.189Y-2.9646
X5.189Y-3.6339
X5.189Y-4.3031
X5.189Y-4.9724
X5.2205Y-2.0512
X5.2205Y-2.7205
X5.2205Y-3.3898
X5.2205Y-4.0591
X5.2205Y-4.7283
X5.2677Y-2.2677
X5.2677Y-2.937
X5.2677Y-3.6063
X5.2677Y-4.2756
X5.2677Y-4.9449
X5.3346Y-2.3071
X5.3346Y-2.9764
X5.3346Y-3.6457
X5.3346Y-4.315
X5.3346Y-4.9843
X5.5551Y-2.1339
X5.5551Y-2.2598
X5.5551Y-2.3268
X5.5551Y-2.8031
X5.5551Y-2.9291
X5.5551Y-2.9961
X5.5551Y-3.4724
X5.5551Y-3.5984
X5.5551Y-3.6654
X5.5551Y-4.1417
X5.5551Y-4.2677
X5.5551Y-4.3346
X5.5551Y-4.811
X5.5551Y-4.937
X5.5551Y-5.0039
X5.5591Y-2.2953
X5.5591Y-2.9646
X5.5591Y-3.6339
X5.5591Y-4.3031
X5.5591Y-4.9724
X5.5906Y-2.0512
X5.5906Y-2.7205
X5.5906Y-3.3898
X5.5906Y-4.0591
X5.5906Y-4.7283
X5.6378Y-2.2677
X5.6378Y-2.937
X5.6378Y-3.6063
X5.6378Y-4.2756
X5.6378Y-4.9449
X5.7047Y-2.3071
X5.7047Y-2.9764
X5.7047Y-3.6457
X5.7047Y-4.315
X5.7047Y-4.9843
T2
X4.0039Y-2.4567
X4.0039Y-3.126
X4.0039Y-3.7953
X4.0039Y-4.4646
X4.0039Y-5.1339
X4.0512Y-2.5236
X4.0512Y-3.1929
X4.0512Y-3.8622
X4.0512Y-4.5315
X4.0512Y-5.2008
X4.0748Y-2.4567
X4.0748Y-3.126
X4.0748Y-3.7953
X4.0748Y-4.4646
X4.0748Y-5.1339
X4.1772Y-2.4567
X4.1772Y-3.126
X4.1772Y-3.7953
X4.1772Y-4.4646
X4.1772Y-5.1339
X4.2008Y-2.5236
X4.2008Y-3.1929
X4.2008Y-3.8622
X4.2008Y-4.5315
X4.2008Y-5.2008
X4.248Y-2.4567
X4.248Y-3.126
X4.248Y-3.7953
X4.248Y-4.4646
X4.248Y-5.1339
X4.374Y-2.4567
X4.374Y-3.126
X4.374Y-3.7953
X4.374Y-4.4646
X4.374Y-5.1339
X4.4213Y-2.5236
X4.4213Y-3.1929
X4.4213Y-3.8622
X4.4213Y-4.5315
X4.4213Y-5.2008
X4.4449Y-2.4567
X4.4449Y-3.126
X4.4449Y-3.7953
X4.4449Y-4.4646
X4.4449Y-5.1339
X4.5472Y-2.4567
X4.5472Y-3.126
X4.5472Y-3.7953
X4.5472Y-4.4646
X4.5472Y-5.1339
X4.5709Y-2.5236
X4.5709Y-3.1929
X4.5709Y-3.8622
X4.5709Y-4.5315
X4.5709Y-5.2008
X4.6181Y-2.4567
X4.6181Y-3.126
X4.6181Y-3.7953
X4.6181Y-4.4646
X4.6181Y-5.1339
X4.7441Y-2.4567
X4.7441Y-3.126
X4.7441Y-3.7953
X4.7441Y-4.4646
X4.7441Y-5.1339
X4.7913Y-2.5236
X4.7913Y-3.1929
X4.7913Y-3.8622
X4.7913Y-4.5315
X4.7913Y-5.2008
X4.815Y-2.4567
X4.815Y-3.126
X4.815Y-3.7953
X4.815Y-4.4646
X4.815Y-5.1339
X4.9173Y-2.4567
X4.9173Y-3.126
X4.9173Y-3.7953
X4.9173Y-4.4646
X4.9173Y-5.1339
X4.9409Y-2.5236
X4.9409Y-3.1929
X4.9409Y-3.8622
X4.9409Y-4.5315
X4.9409Y-5.2008
X4.9882Y-2.4567
X4.9882Y-3.126
X4.9882Y-3.7953
X4.9882Y-4.4646
X4.9882Y-5.1339
X5.1142Y-2.4567
X5.1142Y-3.126
X5.1142Y-3.7953
X5.1142Y-4.4646
X5.1142Y-5.1339
X5.1614Y-2.5236
X5.1614Y-3.1929
X5.1614Y-3.8622
X5.1614Y-4.5315
X5.1614Y-5.2008
X5.185Y-2.4567
X5.185Y-3.126
X5.185Y-3.7953
X5.185Y-4.4646
X5.185Y-5.1339
X5.2874Y-2.4567
X5.2874Y-3.126
X5.2874Y-3.7953
X5.2874Y-4.4646
X5.2874Y-5.1339
X5.311Y-2.5236
X5.311Y-3.1929
X5.311Y-3.8622
X5.311Y-4.5315
X5.311Y-5.2008
X5.3583Y-2.4567
X5.3583Y-3.126
X5.3583Y-3.7953
X5.3583Y-4.4646
X5.3583Y-5.1339
X5.4843Y-2.4567
X5.4843Y-3.126
X5.4843Y-3.7953
X5.4843Y-4.4646
X5.4843Y-5.1339
X5.5315Y-2.5236
X5.5315Y-3.1929
X5.5315Y-3.8622
X5.5315Y-4.5315
X5.5315Y-5.2008
X5.5551Y-2.4567
X5.5551Y-3.126
X5.5551Y-3.7953
X5.5551Y-4.4646
X5.5551Y-5.1339
X5.6575Y-2.4567
X5.6575Y-3.126
X5.6575Y-3.7953
X5.6575Y-4.4646
X5.6575Y-5.1339
X5.6811Y-2.5236
X5.6811Y-3.1929
X5.6811Y-3.8622
X5.6811Y-4.5315
X5.6811Y-5.2008
X5.7283Y-2.4567
X5.7283Y-3.126
X5.7283Y-3.7953
X5.7283Y-4.4646
X5.7283Y-5.1339
T0
M30
