G04 #@! TF.FileFunction,Copper,L1,Top,Signal*
%FSLAX46Y46*%
G04 Gerber Fmt 4.6, Leading zero omitted, Abs format (unit mm)*
G04 Created by KiCad (PCBNEW 4.0.2+dfsg1-stable) date Mi 03 Jan 2018 18:02:16 CET*
%MOMM*%
G01*
G04 APERTURE LIST*
%ADD10C,0.100000*%
%ADD11R,0.300000X1.600000*%
%ADD12R,0.600000X0.500000*%
%ADD13R,0.600000X1.550000*%
%ADD14R,1.200000X1.800000*%
%ADD15C,1.100000*%
%ADD16C,0.600000*%
%ADD17C,0.250000*%
G04 APERTURE END LIST*
D10*
D11*
X140125000Y-118300000D03*
X139475000Y-118300000D03*
X140775000Y-118300000D03*
X141425000Y-118300000D03*
X142075000Y-118300000D03*
X142725000Y-118300000D03*
X143375000Y-118300000D03*
X144025000Y-118300000D03*
X145325000Y-123900000D03*
X144675000Y-123900000D03*
X144025000Y-123900000D03*
X143375000Y-123900000D03*
X139475000Y-123900000D03*
X140125000Y-123900000D03*
X140775000Y-123900000D03*
X141425000Y-123900000D03*
X142075000Y-123900000D03*
X142725000Y-123900000D03*
X144675000Y-118300000D03*
X145325000Y-118300000D03*
X130725000Y-118300000D03*
X130075000Y-118300000D03*
X131375000Y-118300000D03*
X132025000Y-118300000D03*
X132675000Y-118300000D03*
X133325000Y-118300000D03*
X133975000Y-118300000D03*
X134625000Y-118300000D03*
X135925000Y-123900000D03*
X135275000Y-123900000D03*
X134625000Y-123900000D03*
X133975000Y-123900000D03*
X130075000Y-123900000D03*
X130725000Y-123900000D03*
X131375000Y-123900000D03*
X132025000Y-123900000D03*
X132675000Y-123900000D03*
X133325000Y-123900000D03*
X135275000Y-118300000D03*
X135925000Y-118300000D03*
X121325000Y-118300000D03*
X120675000Y-118300000D03*
X121975000Y-118300000D03*
X122625000Y-118300000D03*
X123275000Y-118300000D03*
X123925000Y-118300000D03*
X124575000Y-118300000D03*
X125225000Y-118300000D03*
X126525000Y-123900000D03*
X125875000Y-123900000D03*
X125225000Y-123900000D03*
X124575000Y-123900000D03*
X120675000Y-123900000D03*
X121325000Y-123900000D03*
X121975000Y-123900000D03*
X122625000Y-123900000D03*
X123275000Y-123900000D03*
X123925000Y-123900000D03*
X125875000Y-118300000D03*
X126525000Y-118300000D03*
X111925000Y-118300000D03*
X111275000Y-118300000D03*
X112575000Y-118300000D03*
X113225000Y-118300000D03*
X113875000Y-118300000D03*
X114525000Y-118300000D03*
X115175000Y-118300000D03*
X115825000Y-118300000D03*
X117125000Y-123900000D03*
X116475000Y-123900000D03*
X115825000Y-123900000D03*
X115175000Y-123900000D03*
X111275000Y-123900000D03*
X111925000Y-123900000D03*
X112575000Y-123900000D03*
X113225000Y-123900000D03*
X113875000Y-123900000D03*
X114525000Y-123900000D03*
X116475000Y-118300000D03*
X117125000Y-118300000D03*
X102525000Y-118300000D03*
X101875000Y-118300000D03*
X103175000Y-118300000D03*
X103825000Y-118300000D03*
X104475000Y-118300000D03*
X105125000Y-118300000D03*
X105775000Y-118300000D03*
X106425000Y-118300000D03*
X107725000Y-123900000D03*
X107075000Y-123900000D03*
X106425000Y-123900000D03*
X105775000Y-123900000D03*
X101875000Y-123900000D03*
X102525000Y-123900000D03*
X103175000Y-123900000D03*
X103825000Y-123900000D03*
X104475000Y-123900000D03*
X105125000Y-123900000D03*
X107075000Y-118300000D03*
X107725000Y-118300000D03*
X140125000Y-101300000D03*
X139475000Y-101300000D03*
X140775000Y-101300000D03*
X141425000Y-101300000D03*
X142075000Y-101300000D03*
X142725000Y-101300000D03*
X143375000Y-101300000D03*
X144025000Y-101300000D03*
X145325000Y-106900000D03*
X144675000Y-106900000D03*
X144025000Y-106900000D03*
X143375000Y-106900000D03*
X139475000Y-106900000D03*
X140125000Y-106900000D03*
X140775000Y-106900000D03*
X141425000Y-106900000D03*
X142075000Y-106900000D03*
X142725000Y-106900000D03*
X144675000Y-101300000D03*
X145325000Y-101300000D03*
X130725000Y-101300000D03*
X130075000Y-101300000D03*
X131375000Y-101300000D03*
X132025000Y-101300000D03*
X132675000Y-101300000D03*
X133325000Y-101300000D03*
X133975000Y-101300000D03*
X134625000Y-101300000D03*
X135925000Y-106900000D03*
X135275000Y-106900000D03*
X134625000Y-106900000D03*
X133975000Y-106900000D03*
X130075000Y-106900000D03*
X130725000Y-106900000D03*
X131375000Y-106900000D03*
X132025000Y-106900000D03*
X132675000Y-106900000D03*
X133325000Y-106900000D03*
X135275000Y-101300000D03*
X135925000Y-101300000D03*
X121325000Y-101300000D03*
X120675000Y-101300000D03*
X121975000Y-101300000D03*
X122625000Y-101300000D03*
X123275000Y-101300000D03*
X123925000Y-101300000D03*
X124575000Y-101300000D03*
X125225000Y-101300000D03*
X126525000Y-106900000D03*
X125875000Y-106900000D03*
X125225000Y-106900000D03*
X124575000Y-106900000D03*
X120675000Y-106900000D03*
X121325000Y-106900000D03*
X121975000Y-106900000D03*
X122625000Y-106900000D03*
X123275000Y-106900000D03*
X123925000Y-106900000D03*
X125875000Y-101300000D03*
X126525000Y-101300000D03*
X111925000Y-101300000D03*
X111275000Y-101300000D03*
X112575000Y-101300000D03*
X113225000Y-101300000D03*
X113875000Y-101300000D03*
X114525000Y-101300000D03*
X115175000Y-101300000D03*
X115825000Y-101300000D03*
X117125000Y-106900000D03*
X116475000Y-106900000D03*
X115825000Y-106900000D03*
X115175000Y-106900000D03*
X111275000Y-106900000D03*
X111925000Y-106900000D03*
X112575000Y-106900000D03*
X113225000Y-106900000D03*
X113875000Y-106900000D03*
X114525000Y-106900000D03*
X116475000Y-101300000D03*
X117125000Y-101300000D03*
X102525000Y-101300000D03*
X101875000Y-101300000D03*
X103175000Y-101300000D03*
X103825000Y-101300000D03*
X104475000Y-101300000D03*
X105125000Y-101300000D03*
X105775000Y-101300000D03*
X106425000Y-101300000D03*
X107725000Y-106900000D03*
X107075000Y-106900000D03*
X106425000Y-106900000D03*
X105775000Y-106900000D03*
X101875000Y-106900000D03*
X102525000Y-106900000D03*
X103175000Y-106900000D03*
X103825000Y-106900000D03*
X104475000Y-106900000D03*
X105125000Y-106900000D03*
X107075000Y-101300000D03*
X107725000Y-101300000D03*
X140125000Y-84300000D03*
X139475000Y-84300000D03*
X140775000Y-84300000D03*
X141425000Y-84300000D03*
X142075000Y-84300000D03*
X142725000Y-84300000D03*
X143375000Y-84300000D03*
X144025000Y-84300000D03*
X145325000Y-89900000D03*
X144675000Y-89900000D03*
X144025000Y-89900000D03*
X143375000Y-89900000D03*
X139475000Y-89900000D03*
X140125000Y-89900000D03*
X140775000Y-89900000D03*
X141425000Y-89900000D03*
X142075000Y-89900000D03*
X142725000Y-89900000D03*
X144675000Y-84300000D03*
X145325000Y-84300000D03*
X130725000Y-84300000D03*
X130075000Y-84300000D03*
X131375000Y-84300000D03*
X132025000Y-84300000D03*
X132675000Y-84300000D03*
X133325000Y-84300000D03*
X133975000Y-84300000D03*
X134625000Y-84300000D03*
X135925000Y-89900000D03*
X135275000Y-89900000D03*
X134625000Y-89900000D03*
X133975000Y-89900000D03*
X130075000Y-89900000D03*
X130725000Y-89900000D03*
X131375000Y-89900000D03*
X132025000Y-89900000D03*
X132675000Y-89900000D03*
X133325000Y-89900000D03*
X135275000Y-84300000D03*
X135925000Y-84300000D03*
X121325000Y-84300000D03*
X120675000Y-84300000D03*
X121975000Y-84300000D03*
X122625000Y-84300000D03*
X123275000Y-84300000D03*
X123925000Y-84300000D03*
X124575000Y-84300000D03*
X125225000Y-84300000D03*
X126525000Y-89900000D03*
X125875000Y-89900000D03*
X125225000Y-89900000D03*
X124575000Y-89900000D03*
X120675000Y-89900000D03*
X121325000Y-89900000D03*
X121975000Y-89900000D03*
X122625000Y-89900000D03*
X123275000Y-89900000D03*
X123925000Y-89900000D03*
X125875000Y-84300000D03*
X126525000Y-84300000D03*
X111925000Y-84300000D03*
X111275000Y-84300000D03*
X112575000Y-84300000D03*
X113225000Y-84300000D03*
X113875000Y-84300000D03*
X114525000Y-84300000D03*
X115175000Y-84300000D03*
X115825000Y-84300000D03*
X117125000Y-89900000D03*
X116475000Y-89900000D03*
X115825000Y-89900000D03*
X115175000Y-89900000D03*
X111275000Y-89900000D03*
X111925000Y-89900000D03*
X112575000Y-89900000D03*
X113225000Y-89900000D03*
X113875000Y-89900000D03*
X114525000Y-89900000D03*
X116475000Y-84300000D03*
X117125000Y-84300000D03*
X102525000Y-84300000D03*
X101875000Y-84300000D03*
X103175000Y-84300000D03*
X103825000Y-84300000D03*
X104475000Y-84300000D03*
X105125000Y-84300000D03*
X105775000Y-84300000D03*
X106425000Y-84300000D03*
X107725000Y-89900000D03*
X107075000Y-89900000D03*
X106425000Y-89900000D03*
X105775000Y-89900000D03*
X101875000Y-89900000D03*
X102525000Y-89900000D03*
X103175000Y-89900000D03*
X103825000Y-89900000D03*
X104475000Y-89900000D03*
X105125000Y-89900000D03*
X107075000Y-84300000D03*
X107725000Y-84300000D03*
X140125000Y-67300000D03*
X139475000Y-67300000D03*
X140775000Y-67300000D03*
X141425000Y-67300000D03*
X142075000Y-67300000D03*
X142725000Y-67300000D03*
X143375000Y-67300000D03*
X144025000Y-67300000D03*
X145325000Y-72900000D03*
X144675000Y-72900000D03*
X144025000Y-72900000D03*
X143375000Y-72900000D03*
X139475000Y-72900000D03*
X140125000Y-72900000D03*
X140775000Y-72900000D03*
X141425000Y-72900000D03*
X142075000Y-72900000D03*
X142725000Y-72900000D03*
X144675000Y-67300000D03*
X145325000Y-67300000D03*
X130725000Y-67300000D03*
X130075000Y-67300000D03*
X131375000Y-67300000D03*
X132025000Y-67300000D03*
X132675000Y-67300000D03*
X133325000Y-67300000D03*
X133975000Y-67300000D03*
X134625000Y-67300000D03*
X135925000Y-72900000D03*
X135275000Y-72900000D03*
X134625000Y-72900000D03*
X133975000Y-72900000D03*
X130075000Y-72900000D03*
X130725000Y-72900000D03*
X131375000Y-72900000D03*
X132025000Y-72900000D03*
X132675000Y-72900000D03*
X133325000Y-72900000D03*
X135275000Y-67300000D03*
X135925000Y-67300000D03*
X121325000Y-67300000D03*
X120675000Y-67300000D03*
X121975000Y-67300000D03*
X122625000Y-67300000D03*
X123275000Y-67300000D03*
X123925000Y-67300000D03*
X124575000Y-67300000D03*
X125225000Y-67300000D03*
X126525000Y-72900000D03*
X125875000Y-72900000D03*
X125225000Y-72900000D03*
X124575000Y-72900000D03*
X120675000Y-72900000D03*
X121325000Y-72900000D03*
X121975000Y-72900000D03*
X122625000Y-72900000D03*
X123275000Y-72900000D03*
X123925000Y-72900000D03*
X125875000Y-67300000D03*
X126525000Y-67300000D03*
X111925000Y-67300000D03*
X111275000Y-67300000D03*
X112575000Y-67300000D03*
X113225000Y-67300000D03*
X113875000Y-67300000D03*
X114525000Y-67300000D03*
X115175000Y-67300000D03*
X115825000Y-67300000D03*
X117125000Y-72900000D03*
X116475000Y-72900000D03*
X115825000Y-72900000D03*
X115175000Y-72900000D03*
X111275000Y-72900000D03*
X111925000Y-72900000D03*
X112575000Y-72900000D03*
X113225000Y-72900000D03*
X113875000Y-72900000D03*
X114525000Y-72900000D03*
X116475000Y-67300000D03*
X117125000Y-67300000D03*
X102525000Y-67300000D03*
X101875000Y-67300000D03*
X103175000Y-67300000D03*
X103825000Y-67300000D03*
X104475000Y-67300000D03*
X105125000Y-67300000D03*
X105775000Y-67300000D03*
X106425000Y-67300000D03*
X107725000Y-72900000D03*
X107075000Y-72900000D03*
X106425000Y-72900000D03*
X105775000Y-72900000D03*
X101875000Y-72900000D03*
X102525000Y-72900000D03*
X103175000Y-72900000D03*
X103825000Y-72900000D03*
X104475000Y-72900000D03*
X105125000Y-72900000D03*
X107075000Y-67300000D03*
X107725000Y-67300000D03*
X140125000Y-50300000D03*
X139475000Y-50300000D03*
X140775000Y-50300000D03*
X141425000Y-50300000D03*
X142075000Y-50300000D03*
X142725000Y-50300000D03*
X143375000Y-50300000D03*
X144025000Y-50300000D03*
X145325000Y-55900000D03*
X144675000Y-55900000D03*
X144025000Y-55900000D03*
X143375000Y-55900000D03*
X139475000Y-55900000D03*
X140125000Y-55900000D03*
X140775000Y-55900000D03*
X141425000Y-55900000D03*
X142075000Y-55900000D03*
X142725000Y-55900000D03*
X144675000Y-50300000D03*
X145325000Y-50300000D03*
X130725000Y-50300000D03*
X130075000Y-50300000D03*
X131375000Y-50300000D03*
X132025000Y-50300000D03*
X132675000Y-50300000D03*
X133325000Y-50300000D03*
X133975000Y-50300000D03*
X134625000Y-50300000D03*
X135925000Y-55900000D03*
X135275000Y-55900000D03*
X134625000Y-55900000D03*
X133975000Y-55900000D03*
X130075000Y-55900000D03*
X130725000Y-55900000D03*
X131375000Y-55900000D03*
X132025000Y-55900000D03*
X132675000Y-55900000D03*
X133325000Y-55900000D03*
X135275000Y-50300000D03*
X135925000Y-50300000D03*
X121325000Y-50300000D03*
X120675000Y-50300000D03*
X121975000Y-50300000D03*
X122625000Y-50300000D03*
X123275000Y-50300000D03*
X123925000Y-50300000D03*
X124575000Y-50300000D03*
X125225000Y-50300000D03*
X126525000Y-55900000D03*
X125875000Y-55900000D03*
X125225000Y-55900000D03*
X124575000Y-55900000D03*
X120675000Y-55900000D03*
X121325000Y-55900000D03*
X121975000Y-55900000D03*
X122625000Y-55900000D03*
X123275000Y-55900000D03*
X123925000Y-55900000D03*
X125875000Y-50300000D03*
X126525000Y-50300000D03*
X111925000Y-50300000D03*
X111275000Y-50300000D03*
X112575000Y-50300000D03*
X113225000Y-50300000D03*
X113875000Y-50300000D03*
X114525000Y-50300000D03*
X115175000Y-50300000D03*
X115825000Y-50300000D03*
X117125000Y-55900000D03*
X116475000Y-55900000D03*
X115825000Y-55900000D03*
X115175000Y-55900000D03*
X111275000Y-55900000D03*
X111925000Y-55900000D03*
X112575000Y-55900000D03*
X113225000Y-55900000D03*
X113875000Y-55900000D03*
X114525000Y-55900000D03*
X116475000Y-50300000D03*
X117125000Y-50300000D03*
D12*
X138950000Y-126300000D03*
X140050000Y-126300000D03*
X129550000Y-126300000D03*
X130650000Y-126300000D03*
X120150000Y-126300000D03*
X121250000Y-126300000D03*
X110750000Y-126300000D03*
X111850000Y-126300000D03*
X101350000Y-126300000D03*
X102450000Y-126300000D03*
X138950000Y-109300000D03*
X140050000Y-109300000D03*
X129550000Y-109300000D03*
X130650000Y-109300000D03*
X120150000Y-109300000D03*
X121250000Y-109300000D03*
X110750000Y-109300000D03*
X111850000Y-109300000D03*
X101350000Y-109300000D03*
X102450000Y-109300000D03*
X138950000Y-92300000D03*
X140050000Y-92300000D03*
X129550000Y-92300000D03*
X130650000Y-92300000D03*
X120150000Y-92300000D03*
X121250000Y-92300000D03*
X110750000Y-92300000D03*
X111850000Y-92300000D03*
X101350000Y-92300000D03*
X102450000Y-92300000D03*
X138950000Y-75300000D03*
X140050000Y-75300000D03*
X129550000Y-75300000D03*
X130650000Y-75300000D03*
X120150000Y-75300000D03*
X121250000Y-75300000D03*
X110750000Y-75300000D03*
X111850000Y-75300000D03*
X101350000Y-75300000D03*
X102450000Y-75300000D03*
X138950000Y-58300000D03*
X140050000Y-58300000D03*
X129550000Y-58300000D03*
X130650000Y-58300000D03*
X120150000Y-58300000D03*
X121250000Y-58300000D03*
X110750000Y-58300000D03*
X111850000Y-58300000D03*
D13*
X143900000Y-128500000D03*
X144900000Y-128500000D03*
X141900000Y-128500000D03*
X142900000Y-128500000D03*
X140900000Y-128500000D03*
D14*
X138600000Y-132375000D03*
X146200000Y-132375000D03*
D13*
X139900000Y-128500000D03*
D15*
X140500000Y-132100000D03*
X144300000Y-132100000D03*
X143700000Y-130400000D03*
X145500000Y-130400000D03*
X141100000Y-130400000D03*
X139300000Y-130400000D03*
D13*
X134500000Y-128500000D03*
X135500000Y-128500000D03*
X132500000Y-128500000D03*
X133500000Y-128500000D03*
X131500000Y-128500000D03*
D14*
X129200000Y-132375000D03*
X136800000Y-132375000D03*
D13*
X130500000Y-128500000D03*
D15*
X131100000Y-132100000D03*
X134900000Y-132100000D03*
X134300000Y-130400000D03*
X136100000Y-130400000D03*
X131700000Y-130400000D03*
X129900000Y-130400000D03*
D13*
X125100000Y-128500000D03*
X126100000Y-128500000D03*
X123100000Y-128500000D03*
X124100000Y-128500000D03*
X122100000Y-128500000D03*
D14*
X119800000Y-132375000D03*
X127400000Y-132375000D03*
D13*
X121100000Y-128500000D03*
D15*
X121700000Y-132100000D03*
X125500000Y-132100000D03*
X124900000Y-130400000D03*
X126700000Y-130400000D03*
X122300000Y-130400000D03*
X120500000Y-130400000D03*
D13*
X115700000Y-128500000D03*
X116700000Y-128500000D03*
X113700000Y-128500000D03*
X114700000Y-128500000D03*
X112700000Y-128500000D03*
D14*
X110400000Y-132375000D03*
X118000000Y-132375000D03*
D13*
X111700000Y-128500000D03*
D15*
X112300000Y-132100000D03*
X116100000Y-132100000D03*
X115500000Y-130400000D03*
X117300000Y-130400000D03*
X112900000Y-130400000D03*
X111100000Y-130400000D03*
D13*
X106300000Y-128500000D03*
X107300000Y-128500000D03*
X104300000Y-128500000D03*
X105300000Y-128500000D03*
X103300000Y-128500000D03*
D14*
X101000000Y-132375000D03*
X108600000Y-132375000D03*
D13*
X102300000Y-128500000D03*
D15*
X102900000Y-132100000D03*
X106700000Y-132100000D03*
X106100000Y-130400000D03*
X107900000Y-130400000D03*
X103500000Y-130400000D03*
X101700000Y-130400000D03*
D13*
X143900000Y-111500000D03*
X144900000Y-111500000D03*
X141900000Y-111500000D03*
X142900000Y-111500000D03*
X140900000Y-111500000D03*
D14*
X138600000Y-115375000D03*
X146200000Y-115375000D03*
D13*
X139900000Y-111500000D03*
D15*
X140500000Y-115100000D03*
X144300000Y-115100000D03*
X143700000Y-113400000D03*
X145500000Y-113400000D03*
X141100000Y-113400000D03*
X139300000Y-113400000D03*
D13*
X134500000Y-111500000D03*
X135500000Y-111500000D03*
X132500000Y-111500000D03*
X133500000Y-111500000D03*
X131500000Y-111500000D03*
D14*
X129200000Y-115375000D03*
X136800000Y-115375000D03*
D13*
X130500000Y-111500000D03*
D15*
X131100000Y-115100000D03*
X134900000Y-115100000D03*
X134300000Y-113400000D03*
X136100000Y-113400000D03*
X131700000Y-113400000D03*
X129900000Y-113400000D03*
D13*
X125100000Y-111500000D03*
X126100000Y-111500000D03*
X123100000Y-111500000D03*
X124100000Y-111500000D03*
X122100000Y-111500000D03*
D14*
X119800000Y-115375000D03*
X127400000Y-115375000D03*
D13*
X121100000Y-111500000D03*
D15*
X121700000Y-115100000D03*
X125500000Y-115100000D03*
X124900000Y-113400000D03*
X126700000Y-113400000D03*
X122300000Y-113400000D03*
X120500000Y-113400000D03*
D13*
X115700000Y-111500000D03*
X116700000Y-111500000D03*
X113700000Y-111500000D03*
X114700000Y-111500000D03*
X112700000Y-111500000D03*
D14*
X110400000Y-115375000D03*
X118000000Y-115375000D03*
D13*
X111700000Y-111500000D03*
D15*
X112300000Y-115100000D03*
X116100000Y-115100000D03*
X115500000Y-113400000D03*
X117300000Y-113400000D03*
X112900000Y-113400000D03*
X111100000Y-113400000D03*
D13*
X106300000Y-111500000D03*
X107300000Y-111500000D03*
X104300000Y-111500000D03*
X105300000Y-111500000D03*
X103300000Y-111500000D03*
D14*
X101000000Y-115375000D03*
X108600000Y-115375000D03*
D13*
X102300000Y-111500000D03*
D15*
X102900000Y-115100000D03*
X106700000Y-115100000D03*
X106100000Y-113400000D03*
X107900000Y-113400000D03*
X103500000Y-113400000D03*
X101700000Y-113400000D03*
D13*
X143900000Y-94500000D03*
X144900000Y-94500000D03*
X141900000Y-94500000D03*
X142900000Y-94500000D03*
X140900000Y-94500000D03*
D14*
X138600000Y-98375000D03*
X146200000Y-98375000D03*
D13*
X139900000Y-94500000D03*
D15*
X140500000Y-98100000D03*
X144300000Y-98100000D03*
X143700000Y-96400000D03*
X145500000Y-96400000D03*
X141100000Y-96400000D03*
X139300000Y-96400000D03*
D13*
X134500000Y-94500000D03*
X135500000Y-94500000D03*
X132500000Y-94500000D03*
X133500000Y-94500000D03*
X131500000Y-94500000D03*
D14*
X129200000Y-98375000D03*
X136800000Y-98375000D03*
D13*
X130500000Y-94500000D03*
D15*
X131100000Y-98100000D03*
X134900000Y-98100000D03*
X134300000Y-96400000D03*
X136100000Y-96400000D03*
X131700000Y-96400000D03*
X129900000Y-96400000D03*
D13*
X125100000Y-94500000D03*
X126100000Y-94500000D03*
X123100000Y-94500000D03*
X124100000Y-94500000D03*
X122100000Y-94500000D03*
D14*
X119800000Y-98375000D03*
X127400000Y-98375000D03*
D13*
X121100000Y-94500000D03*
D15*
X121700000Y-98100000D03*
X125500000Y-98100000D03*
X124900000Y-96400000D03*
X126700000Y-96400000D03*
X122300000Y-96400000D03*
X120500000Y-96400000D03*
D13*
X115700000Y-94500000D03*
X116700000Y-94500000D03*
X113700000Y-94500000D03*
X114700000Y-94500000D03*
X112700000Y-94500000D03*
D14*
X110400000Y-98375000D03*
X118000000Y-98375000D03*
D13*
X111700000Y-94500000D03*
D15*
X112300000Y-98100000D03*
X116100000Y-98100000D03*
X115500000Y-96400000D03*
X117300000Y-96400000D03*
X112900000Y-96400000D03*
X111100000Y-96400000D03*
D13*
X106300000Y-94500000D03*
X107300000Y-94500000D03*
X104300000Y-94500000D03*
X105300000Y-94500000D03*
X103300000Y-94500000D03*
D14*
X101000000Y-98375000D03*
X108600000Y-98375000D03*
D13*
X102300000Y-94500000D03*
D15*
X102900000Y-98100000D03*
X106700000Y-98100000D03*
X106100000Y-96400000D03*
X107900000Y-96400000D03*
X103500000Y-96400000D03*
X101700000Y-96400000D03*
D13*
X143900000Y-77500000D03*
X144900000Y-77500000D03*
X141900000Y-77500000D03*
X142900000Y-77500000D03*
X140900000Y-77500000D03*
D14*
X138600000Y-81375000D03*
X146200000Y-81375000D03*
D13*
X139900000Y-77500000D03*
D15*
X140500000Y-81100000D03*
X144300000Y-81100000D03*
X143700000Y-79400000D03*
X145500000Y-79400000D03*
X141100000Y-79400000D03*
X139300000Y-79400000D03*
D13*
X134500000Y-77500000D03*
X135500000Y-77500000D03*
X132500000Y-77500000D03*
X133500000Y-77500000D03*
X131500000Y-77500000D03*
D14*
X129200000Y-81375000D03*
X136800000Y-81375000D03*
D13*
X130500000Y-77500000D03*
D15*
X131100000Y-81100000D03*
X134900000Y-81100000D03*
X134300000Y-79400000D03*
X136100000Y-79400000D03*
X131700000Y-79400000D03*
X129900000Y-79400000D03*
D13*
X125100000Y-77500000D03*
X126100000Y-77500000D03*
X123100000Y-77500000D03*
X124100000Y-77500000D03*
X122100000Y-77500000D03*
D14*
X119800000Y-81375000D03*
X127400000Y-81375000D03*
D13*
X121100000Y-77500000D03*
D15*
X121700000Y-81100000D03*
X125500000Y-81100000D03*
X124900000Y-79400000D03*
X126700000Y-79400000D03*
X122300000Y-79400000D03*
X120500000Y-79400000D03*
D13*
X115700000Y-77500000D03*
X116700000Y-77500000D03*
X113700000Y-77500000D03*
X114700000Y-77500000D03*
X112700000Y-77500000D03*
D14*
X110400000Y-81375000D03*
X118000000Y-81375000D03*
D13*
X111700000Y-77500000D03*
D15*
X112300000Y-81100000D03*
X116100000Y-81100000D03*
X115500000Y-79400000D03*
X117300000Y-79400000D03*
X112900000Y-79400000D03*
X111100000Y-79400000D03*
D13*
X106300000Y-77500000D03*
X107300000Y-77500000D03*
X104300000Y-77500000D03*
X105300000Y-77500000D03*
X103300000Y-77500000D03*
D14*
X101000000Y-81375000D03*
X108600000Y-81375000D03*
D13*
X102300000Y-77500000D03*
D15*
X102900000Y-81100000D03*
X106700000Y-81100000D03*
X106100000Y-79400000D03*
X107900000Y-79400000D03*
X103500000Y-79400000D03*
X101700000Y-79400000D03*
D13*
X143900000Y-60500000D03*
X144900000Y-60500000D03*
X141900000Y-60500000D03*
X142900000Y-60500000D03*
X140900000Y-60500000D03*
D14*
X138600000Y-64375000D03*
X146200000Y-64375000D03*
D13*
X139900000Y-60500000D03*
D15*
X140500000Y-64100000D03*
X144300000Y-64100000D03*
X143700000Y-62400000D03*
X145500000Y-62400000D03*
X141100000Y-62400000D03*
X139300000Y-62400000D03*
D13*
X134500000Y-60500000D03*
X135500000Y-60500000D03*
X132500000Y-60500000D03*
X133500000Y-60500000D03*
X131500000Y-60500000D03*
D14*
X129200000Y-64375000D03*
X136800000Y-64375000D03*
D13*
X130500000Y-60500000D03*
D15*
X131100000Y-64100000D03*
X134900000Y-64100000D03*
X134300000Y-62400000D03*
X136100000Y-62400000D03*
X131700000Y-62400000D03*
X129900000Y-62400000D03*
D13*
X125100000Y-60500000D03*
X126100000Y-60500000D03*
X123100000Y-60500000D03*
X124100000Y-60500000D03*
X122100000Y-60500000D03*
D14*
X119800000Y-64375000D03*
X127400000Y-64375000D03*
D13*
X121100000Y-60500000D03*
D15*
X121700000Y-64100000D03*
X125500000Y-64100000D03*
X124900000Y-62400000D03*
X126700000Y-62400000D03*
X122300000Y-62400000D03*
X120500000Y-62400000D03*
D13*
X115700000Y-60500000D03*
X116700000Y-60500000D03*
X113700000Y-60500000D03*
X114700000Y-60500000D03*
X112700000Y-60500000D03*
D14*
X110400000Y-64375000D03*
X118000000Y-64375000D03*
D13*
X111700000Y-60500000D03*
D15*
X112300000Y-64100000D03*
X116100000Y-64100000D03*
X115500000Y-62400000D03*
X117300000Y-62400000D03*
X112900000Y-62400000D03*
X111100000Y-62400000D03*
D11*
X102525000Y-50300000D03*
X101875000Y-50300000D03*
X103175000Y-50300000D03*
X103825000Y-50300000D03*
X104475000Y-50300000D03*
X105125000Y-50300000D03*
X105775000Y-50300000D03*
X106425000Y-50300000D03*
X107725000Y-55900000D03*
X107075000Y-55900000D03*
X106425000Y-55900000D03*
X105775000Y-55900000D03*
X101875000Y-55900000D03*
X102525000Y-55900000D03*
X103175000Y-55900000D03*
X103825000Y-55900000D03*
X104475000Y-55900000D03*
X105125000Y-55900000D03*
X107075000Y-50300000D03*
X107725000Y-50300000D03*
D12*
X101350000Y-58300000D03*
X102450000Y-58300000D03*
D13*
X106300000Y-60500000D03*
X107300000Y-60500000D03*
X104300000Y-60500000D03*
X105300000Y-60500000D03*
X103300000Y-60500000D03*
D14*
X101000000Y-64375000D03*
X108600000Y-64375000D03*
D13*
X102300000Y-60500000D03*
D15*
X102900000Y-64100000D03*
X106700000Y-64100000D03*
X106100000Y-62400000D03*
X107900000Y-62400000D03*
X103500000Y-62400000D03*
X101700000Y-62400000D03*
D16*
X144900000Y-126600000D03*
X135500000Y-126600000D03*
X126100000Y-126600000D03*
X116700000Y-126600000D03*
X107300000Y-126600000D03*
X144900000Y-109600000D03*
X135500000Y-109600000D03*
X126100000Y-109600000D03*
X116700000Y-109600000D03*
X107300000Y-109600000D03*
X144900000Y-92600000D03*
X135500000Y-92600000D03*
X126100000Y-92600000D03*
X116700000Y-92600000D03*
X107300000Y-92600000D03*
X144900000Y-75600000D03*
X135500000Y-75600000D03*
X126100000Y-75600000D03*
X116700000Y-75600000D03*
X107300000Y-75600000D03*
X144900000Y-58600000D03*
X135500000Y-58600000D03*
X126100000Y-58600000D03*
X116700000Y-58600000D03*
X143200000Y-125600000D03*
X133800000Y-125600000D03*
X124400000Y-125600000D03*
X115000000Y-125600000D03*
X105600000Y-125600000D03*
X143200000Y-108600000D03*
X133800000Y-108600000D03*
X124400000Y-108600000D03*
X115000000Y-108600000D03*
X105600000Y-108600000D03*
X143200000Y-91600000D03*
X133800000Y-91600000D03*
X124400000Y-91600000D03*
X115000000Y-91600000D03*
X105600000Y-91600000D03*
X143200000Y-74600000D03*
X133800000Y-74600000D03*
X124400000Y-74600000D03*
X115000000Y-74600000D03*
X105600000Y-74600000D03*
X143200000Y-57600000D03*
X133800000Y-57600000D03*
X124400000Y-57600000D03*
X115000000Y-57600000D03*
X141200000Y-126300000D03*
X131800000Y-126300000D03*
X122400000Y-126300000D03*
X113000000Y-126300000D03*
X103600000Y-126300000D03*
X141200000Y-109300000D03*
X131800000Y-109300000D03*
X122400000Y-109300000D03*
X113000000Y-109300000D03*
X103600000Y-109300000D03*
X141200000Y-92300000D03*
X131800000Y-92300000D03*
X122400000Y-92300000D03*
X113000000Y-92300000D03*
X103600000Y-92300000D03*
X141200000Y-75300000D03*
X131800000Y-75300000D03*
X122400000Y-75300000D03*
X113000000Y-75300000D03*
X103600000Y-75300000D03*
X141200000Y-58300000D03*
X131800000Y-58300000D03*
X122400000Y-58300000D03*
X113000000Y-58300000D03*
X141100000Y-122200000D03*
X131700000Y-122200000D03*
X122300000Y-122200000D03*
X112900000Y-122200000D03*
X103500000Y-122200000D03*
X141100000Y-105200000D03*
X131700000Y-105200000D03*
X122300000Y-105200000D03*
X112900000Y-105200000D03*
X103500000Y-105200000D03*
X141100000Y-88200000D03*
X131700000Y-88200000D03*
X122300000Y-88200000D03*
X112900000Y-88200000D03*
X103500000Y-88200000D03*
X141100000Y-71200000D03*
X131700000Y-71200000D03*
X122300000Y-71200000D03*
X112900000Y-71200000D03*
X103500000Y-71200000D03*
X141100000Y-54200000D03*
X131700000Y-54200000D03*
X122300000Y-54200000D03*
X112900000Y-54200000D03*
X142000000Y-120100000D03*
X132600000Y-120100000D03*
X123200000Y-120100000D03*
X113800000Y-120100000D03*
X104400000Y-120100000D03*
X142000000Y-103100000D03*
X132600000Y-103100000D03*
X123200000Y-103100000D03*
X113800000Y-103100000D03*
X104400000Y-103100000D03*
X142000000Y-86100000D03*
X132600000Y-86100000D03*
X123200000Y-86100000D03*
X113800000Y-86100000D03*
X104400000Y-86100000D03*
X142000000Y-69100000D03*
X132600000Y-69100000D03*
X123200000Y-69100000D03*
X113800000Y-69100000D03*
X104400000Y-69100000D03*
X142000000Y-52100000D03*
X132600000Y-52100000D03*
X123200000Y-52100000D03*
X113800000Y-52100000D03*
X103500000Y-54200000D03*
X105600000Y-57600000D03*
X107300000Y-58600000D03*
X103600000Y-58300000D03*
X104400000Y-52100000D03*
X141100000Y-125400000D03*
X131700000Y-125400000D03*
X122300000Y-125400000D03*
X112900000Y-125400000D03*
X103500000Y-125400000D03*
X141100000Y-108400000D03*
X131700000Y-108400000D03*
X122300000Y-108400000D03*
X112900000Y-108400000D03*
X103500000Y-108400000D03*
X141100000Y-91400000D03*
X131700000Y-91400000D03*
X122300000Y-91400000D03*
X112900000Y-91400000D03*
X103500000Y-91400000D03*
X141100000Y-74400000D03*
X131700000Y-74400000D03*
X122300000Y-74400000D03*
X112900000Y-74400000D03*
X103500000Y-74400000D03*
X141100000Y-57400000D03*
X131700000Y-57400000D03*
X122300000Y-57400000D03*
X112900000Y-57400000D03*
X141100000Y-127100000D03*
X131700000Y-127100000D03*
X122300000Y-127100000D03*
X112900000Y-127100000D03*
X103500000Y-127100000D03*
X141100000Y-110100000D03*
X131700000Y-110100000D03*
X122300000Y-110100000D03*
X112900000Y-110100000D03*
X103500000Y-110100000D03*
X141100000Y-93100000D03*
X131700000Y-93100000D03*
X122300000Y-93100000D03*
X112900000Y-93100000D03*
X103500000Y-93100000D03*
X141100000Y-76100000D03*
X131700000Y-76100000D03*
X122300000Y-76100000D03*
X112900000Y-76100000D03*
X103500000Y-76100000D03*
X141100000Y-59100000D03*
X131700000Y-59100000D03*
X122300000Y-59100000D03*
X112900000Y-59100000D03*
X103500000Y-57400000D03*
X103500000Y-59100000D03*
D17*
X139300000Y-130400000D02*
X139400000Y-130400000D01*
X129900000Y-130400000D02*
X130000000Y-130400000D01*
X120500000Y-130400000D02*
X120600000Y-130400000D01*
X111100000Y-130400000D02*
X111200000Y-130400000D01*
X101700000Y-130400000D02*
X101800000Y-130400000D01*
X139300000Y-113400000D02*
X139400000Y-113400000D01*
X129900000Y-113400000D02*
X130000000Y-113400000D01*
X120500000Y-113400000D02*
X120600000Y-113400000D01*
X111100000Y-113400000D02*
X111200000Y-113400000D01*
X101700000Y-113400000D02*
X101800000Y-113400000D01*
X139300000Y-96400000D02*
X139400000Y-96400000D01*
X129900000Y-96400000D02*
X130000000Y-96400000D01*
X120500000Y-96400000D02*
X120600000Y-96400000D01*
X111100000Y-96400000D02*
X111200000Y-96400000D01*
X101700000Y-96400000D02*
X101800000Y-96400000D01*
X139300000Y-79400000D02*
X139400000Y-79400000D01*
X129900000Y-79400000D02*
X130000000Y-79400000D01*
X120500000Y-79400000D02*
X120600000Y-79400000D01*
X111100000Y-79400000D02*
X111200000Y-79400000D01*
X101700000Y-79400000D02*
X101800000Y-79400000D01*
X139300000Y-62400000D02*
X139400000Y-62400000D01*
X129900000Y-62400000D02*
X130000000Y-62400000D01*
X120500000Y-62400000D02*
X120600000Y-62400000D01*
X111100000Y-62400000D02*
X111200000Y-62400000D01*
X139900000Y-129800000D02*
X139900000Y-128500000D01*
X130500000Y-129800000D02*
X130500000Y-128500000D01*
X121100000Y-129800000D02*
X121100000Y-128500000D01*
X111700000Y-129800000D02*
X111700000Y-128500000D01*
X102300000Y-129800000D02*
X102300000Y-128500000D01*
X139900000Y-112800000D02*
X139900000Y-111500000D01*
X130500000Y-112800000D02*
X130500000Y-111500000D01*
X121100000Y-112800000D02*
X121100000Y-111500000D01*
X111700000Y-112800000D02*
X111700000Y-111500000D01*
X102300000Y-112800000D02*
X102300000Y-111500000D01*
X139900000Y-95800000D02*
X139900000Y-94500000D01*
X130500000Y-95800000D02*
X130500000Y-94500000D01*
X121100000Y-95800000D02*
X121100000Y-94500000D01*
X111700000Y-95800000D02*
X111700000Y-94500000D01*
X102300000Y-95800000D02*
X102300000Y-94500000D01*
X139900000Y-78800000D02*
X139900000Y-77500000D01*
X130500000Y-78800000D02*
X130500000Y-77500000D01*
X121100000Y-78800000D02*
X121100000Y-77500000D01*
X111700000Y-78800000D02*
X111700000Y-77500000D01*
X102300000Y-78800000D02*
X102300000Y-77500000D01*
X139900000Y-61800000D02*
X139900000Y-60500000D01*
X130500000Y-61800000D02*
X130500000Y-60500000D01*
X121100000Y-61800000D02*
X121100000Y-60500000D01*
X111700000Y-61800000D02*
X111700000Y-60500000D01*
X139300000Y-130400000D02*
X139900000Y-129800000D01*
X129900000Y-130400000D02*
X130500000Y-129800000D01*
X120500000Y-130400000D02*
X121100000Y-129800000D01*
X111100000Y-130400000D02*
X111700000Y-129800000D01*
X101700000Y-130400000D02*
X102300000Y-129800000D01*
X139300000Y-113400000D02*
X139900000Y-112800000D01*
X129900000Y-113400000D02*
X130500000Y-112800000D01*
X120500000Y-113400000D02*
X121100000Y-112800000D01*
X111100000Y-113400000D02*
X111700000Y-112800000D01*
X101700000Y-113400000D02*
X102300000Y-112800000D01*
X139300000Y-96400000D02*
X139900000Y-95800000D01*
X129900000Y-96400000D02*
X130500000Y-95800000D01*
X120500000Y-96400000D02*
X121100000Y-95800000D01*
X111100000Y-96400000D02*
X111700000Y-95800000D01*
X101700000Y-96400000D02*
X102300000Y-95800000D01*
X139300000Y-79400000D02*
X139900000Y-78800000D01*
X129900000Y-79400000D02*
X130500000Y-78800000D01*
X120500000Y-79400000D02*
X121100000Y-78800000D01*
X111100000Y-79400000D02*
X111700000Y-78800000D01*
X101700000Y-79400000D02*
X102300000Y-78800000D01*
X139300000Y-62400000D02*
X139900000Y-61800000D01*
X129900000Y-62400000D02*
X130500000Y-61800000D01*
X120500000Y-62400000D02*
X121100000Y-61800000D01*
X111100000Y-62400000D02*
X111700000Y-61800000D01*
X139900000Y-128500000D02*
X139700000Y-128500000D01*
X130500000Y-128500000D02*
X130300000Y-128500000D01*
X121100000Y-128500000D02*
X120900000Y-128500000D01*
X111700000Y-128500000D02*
X111500000Y-128500000D01*
X102300000Y-128500000D02*
X102100000Y-128500000D01*
X139900000Y-111500000D02*
X139700000Y-111500000D01*
X130500000Y-111500000D02*
X130300000Y-111500000D01*
X121100000Y-111500000D02*
X120900000Y-111500000D01*
X111700000Y-111500000D02*
X111500000Y-111500000D01*
X102300000Y-111500000D02*
X102100000Y-111500000D01*
X139900000Y-94500000D02*
X139700000Y-94500000D01*
X130500000Y-94500000D02*
X130300000Y-94500000D01*
X121100000Y-94500000D02*
X120900000Y-94500000D01*
X111700000Y-94500000D02*
X111500000Y-94500000D01*
X102300000Y-94500000D02*
X102100000Y-94500000D01*
X139900000Y-77500000D02*
X139700000Y-77500000D01*
X130500000Y-77500000D02*
X130300000Y-77500000D01*
X121100000Y-77500000D02*
X120900000Y-77500000D01*
X111700000Y-77500000D02*
X111500000Y-77500000D01*
X102300000Y-77500000D02*
X102100000Y-77500000D01*
X139900000Y-60500000D02*
X139700000Y-60500000D01*
X130500000Y-60500000D02*
X130300000Y-60500000D01*
X121100000Y-60500000D02*
X120900000Y-60500000D01*
X111700000Y-60500000D02*
X111500000Y-60500000D01*
X139700000Y-128500000D02*
X138950000Y-127750000D01*
X130300000Y-128500000D02*
X129550000Y-127750000D01*
X120900000Y-128500000D02*
X120150000Y-127750000D01*
X111500000Y-128500000D02*
X110750000Y-127750000D01*
X102100000Y-128500000D02*
X101350000Y-127750000D01*
X139700000Y-111500000D02*
X138950000Y-110750000D01*
X130300000Y-111500000D02*
X129550000Y-110750000D01*
X120900000Y-111500000D02*
X120150000Y-110750000D01*
X111500000Y-111500000D02*
X110750000Y-110750000D01*
X102100000Y-111500000D02*
X101350000Y-110750000D01*
X139700000Y-94500000D02*
X138950000Y-93750000D01*
X130300000Y-94500000D02*
X129550000Y-93750000D01*
X120900000Y-94500000D02*
X120150000Y-93750000D01*
X111500000Y-94500000D02*
X110750000Y-93750000D01*
X102100000Y-94500000D02*
X101350000Y-93750000D01*
X139700000Y-77500000D02*
X138950000Y-76750000D01*
X130300000Y-77500000D02*
X129550000Y-76750000D01*
X120900000Y-77500000D02*
X120150000Y-76750000D01*
X111500000Y-77500000D02*
X110750000Y-76750000D01*
X102100000Y-77500000D02*
X101350000Y-76750000D01*
X139700000Y-60500000D02*
X138950000Y-59750000D01*
X130300000Y-60500000D02*
X129550000Y-59750000D01*
X120900000Y-60500000D02*
X120150000Y-59750000D01*
X111500000Y-60500000D02*
X110750000Y-59750000D01*
X138950000Y-127750000D02*
X138950000Y-126300000D01*
X129550000Y-127750000D02*
X129550000Y-126300000D01*
X120150000Y-127750000D02*
X120150000Y-126300000D01*
X110750000Y-127750000D02*
X110750000Y-126300000D01*
X101350000Y-127750000D02*
X101350000Y-126300000D01*
X138950000Y-110750000D02*
X138950000Y-109300000D01*
X129550000Y-110750000D02*
X129550000Y-109300000D01*
X120150000Y-110750000D02*
X120150000Y-109300000D01*
X110750000Y-110750000D02*
X110750000Y-109300000D01*
X101350000Y-110750000D02*
X101350000Y-109300000D01*
X138950000Y-93750000D02*
X138950000Y-92300000D01*
X129550000Y-93750000D02*
X129550000Y-92300000D01*
X120150000Y-93750000D02*
X120150000Y-92300000D01*
X110750000Y-93750000D02*
X110750000Y-92300000D01*
X101350000Y-93750000D02*
X101350000Y-92300000D01*
X138950000Y-76750000D02*
X138950000Y-75300000D01*
X129550000Y-76750000D02*
X129550000Y-75300000D01*
X120150000Y-76750000D02*
X120150000Y-75300000D01*
X110750000Y-76750000D02*
X110750000Y-75300000D01*
X101350000Y-76750000D02*
X101350000Y-75300000D01*
X138950000Y-59750000D02*
X138950000Y-58300000D01*
X129550000Y-59750000D02*
X129550000Y-58300000D01*
X120150000Y-59750000D02*
X120150000Y-58300000D01*
X110750000Y-59750000D02*
X110750000Y-58300000D01*
X138950000Y-126300000D02*
X138950000Y-125550000D01*
X129550000Y-126300000D02*
X129550000Y-125550000D01*
X120150000Y-126300000D02*
X120150000Y-125550000D01*
X110750000Y-126300000D02*
X110750000Y-125550000D01*
X101350000Y-126300000D02*
X101350000Y-125550000D01*
X138950000Y-109300000D02*
X138950000Y-108550000D01*
X129550000Y-109300000D02*
X129550000Y-108550000D01*
X120150000Y-109300000D02*
X120150000Y-108550000D01*
X110750000Y-109300000D02*
X110750000Y-108550000D01*
X101350000Y-109300000D02*
X101350000Y-108550000D01*
X138950000Y-92300000D02*
X138950000Y-91550000D01*
X129550000Y-92300000D02*
X129550000Y-91550000D01*
X120150000Y-92300000D02*
X120150000Y-91550000D01*
X110750000Y-92300000D02*
X110750000Y-91550000D01*
X101350000Y-92300000D02*
X101350000Y-91550000D01*
X138950000Y-75300000D02*
X138950000Y-74550000D01*
X129550000Y-75300000D02*
X129550000Y-74550000D01*
X120150000Y-75300000D02*
X120150000Y-74550000D01*
X110750000Y-75300000D02*
X110750000Y-74550000D01*
X101350000Y-75300000D02*
X101350000Y-74550000D01*
X138950000Y-58300000D02*
X138950000Y-57550000D01*
X129550000Y-58300000D02*
X129550000Y-57550000D01*
X120150000Y-58300000D02*
X120150000Y-57550000D01*
X110750000Y-58300000D02*
X110750000Y-57550000D01*
X142725000Y-120975000D02*
X142400000Y-121300000D01*
X133325000Y-120975000D02*
X133000000Y-121300000D01*
X123925000Y-120975000D02*
X123600000Y-121300000D01*
X114525000Y-120975000D02*
X114200000Y-121300000D01*
X105125000Y-120975000D02*
X104800000Y-121300000D01*
X142725000Y-103975000D02*
X142400000Y-104300000D01*
X133325000Y-103975000D02*
X133000000Y-104300000D01*
X123925000Y-103975000D02*
X123600000Y-104300000D01*
X114525000Y-103975000D02*
X114200000Y-104300000D01*
X105125000Y-103975000D02*
X104800000Y-104300000D01*
X142725000Y-86975000D02*
X142400000Y-87300000D01*
X133325000Y-86975000D02*
X133000000Y-87300000D01*
X123925000Y-86975000D02*
X123600000Y-87300000D01*
X114525000Y-86975000D02*
X114200000Y-87300000D01*
X105125000Y-86975000D02*
X104800000Y-87300000D01*
X142725000Y-69975000D02*
X142400000Y-70300000D01*
X133325000Y-69975000D02*
X133000000Y-70300000D01*
X123925000Y-69975000D02*
X123600000Y-70300000D01*
X114525000Y-69975000D02*
X114200000Y-70300000D01*
X105125000Y-69975000D02*
X104800000Y-70300000D01*
X142725000Y-52975000D02*
X142400000Y-53300000D01*
X133325000Y-52975000D02*
X133000000Y-53300000D01*
X123925000Y-52975000D02*
X123600000Y-53300000D01*
X114525000Y-52975000D02*
X114200000Y-53300000D01*
X142725000Y-118300000D02*
X142725000Y-120975000D01*
X133325000Y-118300000D02*
X133325000Y-120975000D01*
X123925000Y-118300000D02*
X123925000Y-120975000D01*
X114525000Y-118300000D02*
X114525000Y-120975000D01*
X105125000Y-118300000D02*
X105125000Y-120975000D01*
X142725000Y-101300000D02*
X142725000Y-103975000D01*
X133325000Y-101300000D02*
X133325000Y-103975000D01*
X123925000Y-101300000D02*
X123925000Y-103975000D01*
X114525000Y-101300000D02*
X114525000Y-103975000D01*
X105125000Y-101300000D02*
X105125000Y-103975000D01*
X142725000Y-84300000D02*
X142725000Y-86975000D01*
X133325000Y-84300000D02*
X133325000Y-86975000D01*
X123925000Y-84300000D02*
X123925000Y-86975000D01*
X114525000Y-84300000D02*
X114525000Y-86975000D01*
X105125000Y-84300000D02*
X105125000Y-86975000D01*
X142725000Y-67300000D02*
X142725000Y-69975000D01*
X133325000Y-67300000D02*
X133325000Y-69975000D01*
X123925000Y-67300000D02*
X123925000Y-69975000D01*
X114525000Y-67300000D02*
X114525000Y-69975000D01*
X105125000Y-67300000D02*
X105125000Y-69975000D01*
X142725000Y-50300000D02*
X142725000Y-52975000D01*
X133325000Y-50300000D02*
X133325000Y-52975000D01*
X123925000Y-50300000D02*
X123925000Y-52975000D01*
X114525000Y-50300000D02*
X114525000Y-52975000D01*
X139475000Y-121300000D02*
X139475000Y-118300000D01*
X130075000Y-121300000D02*
X130075000Y-118300000D01*
X120675000Y-121300000D02*
X120675000Y-118300000D01*
X111275000Y-121300000D02*
X111275000Y-118300000D01*
X101875000Y-121300000D02*
X101875000Y-118300000D01*
X139475000Y-104300000D02*
X139475000Y-101300000D01*
X130075000Y-104300000D02*
X130075000Y-101300000D01*
X120675000Y-104300000D02*
X120675000Y-101300000D01*
X111275000Y-104300000D02*
X111275000Y-101300000D01*
X101875000Y-104300000D02*
X101875000Y-101300000D01*
X139475000Y-87300000D02*
X139475000Y-84300000D01*
X130075000Y-87300000D02*
X130075000Y-84300000D01*
X120675000Y-87300000D02*
X120675000Y-84300000D01*
X111275000Y-87300000D02*
X111275000Y-84300000D01*
X101875000Y-87300000D02*
X101875000Y-84300000D01*
X139475000Y-70300000D02*
X139475000Y-67300000D01*
X130075000Y-70300000D02*
X130075000Y-67300000D01*
X120675000Y-70300000D02*
X120675000Y-67300000D01*
X111275000Y-70300000D02*
X111275000Y-67300000D01*
X101875000Y-70300000D02*
X101875000Y-67300000D01*
X139475000Y-53300000D02*
X139475000Y-50300000D01*
X130075000Y-53300000D02*
X130075000Y-50300000D01*
X120675000Y-53300000D02*
X120675000Y-50300000D01*
X111275000Y-53300000D02*
X111275000Y-50300000D01*
X142400000Y-121300000D02*
X139475000Y-121300000D01*
X133000000Y-121300000D02*
X130075000Y-121300000D01*
X123600000Y-121300000D02*
X120675000Y-121300000D01*
X114200000Y-121300000D02*
X111275000Y-121300000D01*
X104800000Y-121300000D02*
X101875000Y-121300000D01*
X142400000Y-104300000D02*
X139475000Y-104300000D01*
X133000000Y-104300000D02*
X130075000Y-104300000D01*
X123600000Y-104300000D02*
X120675000Y-104300000D01*
X114200000Y-104300000D02*
X111275000Y-104300000D01*
X104800000Y-104300000D02*
X101875000Y-104300000D01*
X142400000Y-87300000D02*
X139475000Y-87300000D01*
X133000000Y-87300000D02*
X130075000Y-87300000D01*
X123600000Y-87300000D02*
X120675000Y-87300000D01*
X114200000Y-87300000D02*
X111275000Y-87300000D01*
X104800000Y-87300000D02*
X101875000Y-87300000D01*
X142400000Y-70300000D02*
X139475000Y-70300000D01*
X133000000Y-70300000D02*
X130075000Y-70300000D01*
X123600000Y-70300000D02*
X120675000Y-70300000D01*
X114200000Y-70300000D02*
X111275000Y-70300000D01*
X104800000Y-70300000D02*
X101875000Y-70300000D01*
X142400000Y-53300000D02*
X139475000Y-53300000D01*
X133000000Y-53300000D02*
X130075000Y-53300000D01*
X123600000Y-53300000D02*
X120675000Y-53300000D01*
X114200000Y-53300000D02*
X111275000Y-53300000D01*
X139475000Y-123900000D02*
X139475000Y-121300000D01*
X130075000Y-123900000D02*
X130075000Y-121300000D01*
X120675000Y-123900000D02*
X120675000Y-121300000D01*
X111275000Y-123900000D02*
X111275000Y-121300000D01*
X101875000Y-123900000D02*
X101875000Y-121300000D01*
X139475000Y-106900000D02*
X139475000Y-104300000D01*
X130075000Y-106900000D02*
X130075000Y-104300000D01*
X120675000Y-106900000D02*
X120675000Y-104300000D01*
X111275000Y-106900000D02*
X111275000Y-104300000D01*
X101875000Y-106900000D02*
X101875000Y-104300000D01*
X139475000Y-89900000D02*
X139475000Y-87300000D01*
X130075000Y-89900000D02*
X130075000Y-87300000D01*
X120675000Y-89900000D02*
X120675000Y-87300000D01*
X111275000Y-89900000D02*
X111275000Y-87300000D01*
X101875000Y-89900000D02*
X101875000Y-87300000D01*
X139475000Y-72900000D02*
X139475000Y-70300000D01*
X130075000Y-72900000D02*
X130075000Y-70300000D01*
X120675000Y-72900000D02*
X120675000Y-70300000D01*
X111275000Y-72900000D02*
X111275000Y-70300000D01*
X101875000Y-72900000D02*
X101875000Y-70300000D01*
X139475000Y-55900000D02*
X139475000Y-53300000D01*
X130075000Y-55900000D02*
X130075000Y-53300000D01*
X120675000Y-55900000D02*
X120675000Y-53300000D01*
X111275000Y-55900000D02*
X111275000Y-53300000D01*
X139475000Y-125025000D02*
X139475000Y-123900000D01*
X130075000Y-125025000D02*
X130075000Y-123900000D01*
X120675000Y-125025000D02*
X120675000Y-123900000D01*
X111275000Y-125025000D02*
X111275000Y-123900000D01*
X101875000Y-125025000D02*
X101875000Y-123900000D01*
X139475000Y-108025000D02*
X139475000Y-106900000D01*
X130075000Y-108025000D02*
X130075000Y-106900000D01*
X120675000Y-108025000D02*
X120675000Y-106900000D01*
X111275000Y-108025000D02*
X111275000Y-106900000D01*
X101875000Y-108025000D02*
X101875000Y-106900000D01*
X139475000Y-91025000D02*
X139475000Y-89900000D01*
X130075000Y-91025000D02*
X130075000Y-89900000D01*
X120675000Y-91025000D02*
X120675000Y-89900000D01*
X111275000Y-91025000D02*
X111275000Y-89900000D01*
X101875000Y-91025000D02*
X101875000Y-89900000D01*
X139475000Y-74025000D02*
X139475000Y-72900000D01*
X130075000Y-74025000D02*
X130075000Y-72900000D01*
X120675000Y-74025000D02*
X120675000Y-72900000D01*
X111275000Y-74025000D02*
X111275000Y-72900000D01*
X101875000Y-74025000D02*
X101875000Y-72900000D01*
X139475000Y-57025000D02*
X139475000Y-55900000D01*
X130075000Y-57025000D02*
X130075000Y-55900000D01*
X120675000Y-57025000D02*
X120675000Y-55900000D01*
X111275000Y-57025000D02*
X111275000Y-55900000D01*
X138950000Y-125550000D02*
X139475000Y-125025000D01*
X129550000Y-125550000D02*
X130075000Y-125025000D01*
X120150000Y-125550000D02*
X120675000Y-125025000D01*
X110750000Y-125550000D02*
X111275000Y-125025000D01*
X101350000Y-125550000D02*
X101875000Y-125025000D01*
X138950000Y-108550000D02*
X139475000Y-108025000D01*
X129550000Y-108550000D02*
X130075000Y-108025000D01*
X120150000Y-108550000D02*
X120675000Y-108025000D01*
X110750000Y-108550000D02*
X111275000Y-108025000D01*
X101350000Y-108550000D02*
X101875000Y-108025000D01*
X138950000Y-91550000D02*
X139475000Y-91025000D01*
X129550000Y-91550000D02*
X130075000Y-91025000D01*
X120150000Y-91550000D02*
X120675000Y-91025000D01*
X110750000Y-91550000D02*
X111275000Y-91025000D01*
X101350000Y-91550000D02*
X101875000Y-91025000D01*
X138950000Y-74550000D02*
X139475000Y-74025000D01*
X129550000Y-74550000D02*
X130075000Y-74025000D01*
X120150000Y-74550000D02*
X120675000Y-74025000D01*
X110750000Y-74550000D02*
X111275000Y-74025000D01*
X101350000Y-74550000D02*
X101875000Y-74025000D01*
X138950000Y-57550000D02*
X139475000Y-57025000D01*
X129550000Y-57550000D02*
X130075000Y-57025000D01*
X120150000Y-57550000D02*
X120675000Y-57025000D01*
X110750000Y-57550000D02*
X111275000Y-57025000D01*
X101700000Y-62400000D02*
X102300000Y-61800000D01*
X102300000Y-61800000D02*
X102300000Y-60500000D01*
X105125000Y-50300000D02*
X105125000Y-52975000D01*
X104800000Y-53300000D02*
X101875000Y-53300000D01*
X105125000Y-52975000D02*
X104800000Y-53300000D01*
X101875000Y-55900000D02*
X101875000Y-53300000D01*
X101875000Y-53300000D02*
X101875000Y-50300000D01*
X101350000Y-58300000D02*
X101350000Y-57550000D01*
X101875000Y-57025000D02*
X101875000Y-55900000D01*
X101350000Y-57550000D02*
X101875000Y-57025000D01*
X102300000Y-60500000D02*
X102100000Y-60500000D01*
X102100000Y-60500000D02*
X101350000Y-59750000D01*
X101350000Y-59750000D02*
X101350000Y-58300000D01*
X101700000Y-62400000D02*
X101800000Y-62400000D01*
X144900000Y-128500000D02*
X144900000Y-126600000D01*
X135500000Y-128500000D02*
X135500000Y-126600000D01*
X126100000Y-128500000D02*
X126100000Y-126600000D01*
X116700000Y-128500000D02*
X116700000Y-126600000D01*
X107300000Y-128500000D02*
X107300000Y-126600000D01*
X144900000Y-111500000D02*
X144900000Y-109600000D01*
X135500000Y-111500000D02*
X135500000Y-109600000D01*
X126100000Y-111500000D02*
X126100000Y-109600000D01*
X116700000Y-111500000D02*
X116700000Y-109600000D01*
X107300000Y-111500000D02*
X107300000Y-109600000D01*
X144900000Y-94500000D02*
X144900000Y-92600000D01*
X135500000Y-94500000D02*
X135500000Y-92600000D01*
X126100000Y-94500000D02*
X126100000Y-92600000D01*
X116700000Y-94500000D02*
X116700000Y-92600000D01*
X107300000Y-94500000D02*
X107300000Y-92600000D01*
X144900000Y-77500000D02*
X144900000Y-75600000D01*
X135500000Y-77500000D02*
X135500000Y-75600000D01*
X126100000Y-77500000D02*
X126100000Y-75600000D01*
X116700000Y-77500000D02*
X116700000Y-75600000D01*
X107300000Y-77500000D02*
X107300000Y-75600000D01*
X144900000Y-60500000D02*
X144900000Y-58600000D01*
X135500000Y-60500000D02*
X135500000Y-58600000D01*
X126100000Y-60500000D02*
X126100000Y-58600000D01*
X116700000Y-60500000D02*
X116700000Y-58600000D01*
X145500000Y-130400000D02*
X145500000Y-129100000D01*
X136100000Y-130400000D02*
X136100000Y-129100000D01*
X126700000Y-130400000D02*
X126700000Y-129100000D01*
X117300000Y-130400000D02*
X117300000Y-129100000D01*
X107900000Y-130400000D02*
X107900000Y-129100000D01*
X145500000Y-113400000D02*
X145500000Y-112100000D01*
X136100000Y-113400000D02*
X136100000Y-112100000D01*
X126700000Y-113400000D02*
X126700000Y-112100000D01*
X117300000Y-113400000D02*
X117300000Y-112100000D01*
X107900000Y-113400000D02*
X107900000Y-112100000D01*
X145500000Y-96400000D02*
X145500000Y-95100000D01*
X136100000Y-96400000D02*
X136100000Y-95100000D01*
X126700000Y-96400000D02*
X126700000Y-95100000D01*
X117300000Y-96400000D02*
X117300000Y-95100000D01*
X107900000Y-96400000D02*
X107900000Y-95100000D01*
X145500000Y-79400000D02*
X145500000Y-78100000D01*
X136100000Y-79400000D02*
X136100000Y-78100000D01*
X126700000Y-79400000D02*
X126700000Y-78100000D01*
X117300000Y-79400000D02*
X117300000Y-78100000D01*
X107900000Y-79400000D02*
X107900000Y-78100000D01*
X145500000Y-62400000D02*
X145500000Y-61100000D01*
X136100000Y-62400000D02*
X136100000Y-61100000D01*
X126700000Y-62400000D02*
X126700000Y-61100000D01*
X117300000Y-62400000D02*
X117300000Y-61100000D01*
X145500000Y-129100000D02*
X144900000Y-128500000D01*
X136100000Y-129100000D02*
X135500000Y-128500000D01*
X126700000Y-129100000D02*
X126100000Y-128500000D01*
X117300000Y-129100000D02*
X116700000Y-128500000D01*
X107900000Y-129100000D02*
X107300000Y-128500000D01*
X145500000Y-112100000D02*
X144900000Y-111500000D01*
X136100000Y-112100000D02*
X135500000Y-111500000D01*
X126700000Y-112100000D02*
X126100000Y-111500000D01*
X117300000Y-112100000D02*
X116700000Y-111500000D01*
X107900000Y-112100000D02*
X107300000Y-111500000D01*
X145500000Y-95100000D02*
X144900000Y-94500000D01*
X136100000Y-95100000D02*
X135500000Y-94500000D01*
X126700000Y-95100000D02*
X126100000Y-94500000D01*
X117300000Y-95100000D02*
X116700000Y-94500000D01*
X107900000Y-95100000D02*
X107300000Y-94500000D01*
X145500000Y-78100000D02*
X144900000Y-77500000D01*
X136100000Y-78100000D02*
X135500000Y-77500000D01*
X126700000Y-78100000D02*
X126100000Y-77500000D01*
X117300000Y-78100000D02*
X116700000Y-77500000D01*
X107900000Y-78100000D02*
X107300000Y-77500000D01*
X145500000Y-61100000D02*
X144900000Y-60500000D01*
X136100000Y-61100000D02*
X135500000Y-60500000D01*
X126700000Y-61100000D02*
X126100000Y-60500000D01*
X117300000Y-61100000D02*
X116700000Y-60500000D01*
X143375000Y-125425000D02*
X143200000Y-125600000D01*
X133975000Y-125425000D02*
X133800000Y-125600000D01*
X124575000Y-125425000D02*
X124400000Y-125600000D01*
X115175000Y-125425000D02*
X115000000Y-125600000D01*
X105775000Y-125425000D02*
X105600000Y-125600000D01*
X143375000Y-108425000D02*
X143200000Y-108600000D01*
X133975000Y-108425000D02*
X133800000Y-108600000D01*
X124575000Y-108425000D02*
X124400000Y-108600000D01*
X115175000Y-108425000D02*
X115000000Y-108600000D01*
X105775000Y-108425000D02*
X105600000Y-108600000D01*
X143375000Y-91425000D02*
X143200000Y-91600000D01*
X133975000Y-91425000D02*
X133800000Y-91600000D01*
X124575000Y-91425000D02*
X124400000Y-91600000D01*
X115175000Y-91425000D02*
X115000000Y-91600000D01*
X105775000Y-91425000D02*
X105600000Y-91600000D01*
X143375000Y-74425000D02*
X143200000Y-74600000D01*
X133975000Y-74425000D02*
X133800000Y-74600000D01*
X124575000Y-74425000D02*
X124400000Y-74600000D01*
X115175000Y-74425000D02*
X115000000Y-74600000D01*
X105775000Y-74425000D02*
X105600000Y-74600000D01*
X143375000Y-57425000D02*
X143200000Y-57600000D01*
X133975000Y-57425000D02*
X133800000Y-57600000D01*
X124575000Y-57425000D02*
X124400000Y-57600000D01*
X115175000Y-57425000D02*
X115000000Y-57600000D01*
X143375000Y-123900000D02*
X143375000Y-125425000D01*
X133975000Y-123900000D02*
X133975000Y-125425000D01*
X124575000Y-123900000D02*
X124575000Y-125425000D01*
X115175000Y-123900000D02*
X115175000Y-125425000D01*
X105775000Y-123900000D02*
X105775000Y-125425000D01*
X143375000Y-106900000D02*
X143375000Y-108425000D01*
X133975000Y-106900000D02*
X133975000Y-108425000D01*
X124575000Y-106900000D02*
X124575000Y-108425000D01*
X115175000Y-106900000D02*
X115175000Y-108425000D01*
X105775000Y-106900000D02*
X105775000Y-108425000D01*
X143375000Y-89900000D02*
X143375000Y-91425000D01*
X133975000Y-89900000D02*
X133975000Y-91425000D01*
X124575000Y-89900000D02*
X124575000Y-91425000D01*
X115175000Y-89900000D02*
X115175000Y-91425000D01*
X105775000Y-89900000D02*
X105775000Y-91425000D01*
X143375000Y-72900000D02*
X143375000Y-74425000D01*
X133975000Y-72900000D02*
X133975000Y-74425000D01*
X124575000Y-72900000D02*
X124575000Y-74425000D01*
X115175000Y-72900000D02*
X115175000Y-74425000D01*
X105775000Y-72900000D02*
X105775000Y-74425000D01*
X143375000Y-55900000D02*
X143375000Y-57425000D01*
X133975000Y-55900000D02*
X133975000Y-57425000D01*
X124575000Y-55900000D02*
X124575000Y-57425000D01*
X115175000Y-55900000D02*
X115175000Y-57425000D01*
X142075000Y-120025000D02*
X142075000Y-118300000D01*
X132675000Y-120025000D02*
X132675000Y-118300000D01*
X123275000Y-120025000D02*
X123275000Y-118300000D01*
X113875000Y-120025000D02*
X113875000Y-118300000D01*
X104475000Y-120025000D02*
X104475000Y-118300000D01*
X142075000Y-103025000D02*
X142075000Y-101300000D01*
X132675000Y-103025000D02*
X132675000Y-101300000D01*
X123275000Y-103025000D02*
X123275000Y-101300000D01*
X113875000Y-103025000D02*
X113875000Y-101300000D01*
X104475000Y-103025000D02*
X104475000Y-101300000D01*
X142075000Y-86025000D02*
X142075000Y-84300000D01*
X132675000Y-86025000D02*
X132675000Y-84300000D01*
X123275000Y-86025000D02*
X123275000Y-84300000D01*
X113875000Y-86025000D02*
X113875000Y-84300000D01*
X104475000Y-86025000D02*
X104475000Y-84300000D01*
X142075000Y-69025000D02*
X142075000Y-67300000D01*
X132675000Y-69025000D02*
X132675000Y-67300000D01*
X123275000Y-69025000D02*
X123275000Y-67300000D01*
X113875000Y-69025000D02*
X113875000Y-67300000D01*
X104475000Y-69025000D02*
X104475000Y-67300000D01*
X142075000Y-52025000D02*
X142075000Y-50300000D01*
X132675000Y-52025000D02*
X132675000Y-50300000D01*
X123275000Y-52025000D02*
X123275000Y-50300000D01*
X113875000Y-52025000D02*
X113875000Y-50300000D01*
X142000000Y-120100000D02*
X142075000Y-120025000D01*
X132600000Y-120100000D02*
X132675000Y-120025000D01*
X123200000Y-120100000D02*
X123275000Y-120025000D01*
X113800000Y-120100000D02*
X113875000Y-120025000D01*
X104400000Y-120100000D02*
X104475000Y-120025000D01*
X142000000Y-103100000D02*
X142075000Y-103025000D01*
X132600000Y-103100000D02*
X132675000Y-103025000D01*
X123200000Y-103100000D02*
X123275000Y-103025000D01*
X113800000Y-103100000D02*
X113875000Y-103025000D01*
X104400000Y-103100000D02*
X104475000Y-103025000D01*
X142000000Y-86100000D02*
X142075000Y-86025000D01*
X132600000Y-86100000D02*
X132675000Y-86025000D01*
X123200000Y-86100000D02*
X123275000Y-86025000D01*
X113800000Y-86100000D02*
X113875000Y-86025000D01*
X104400000Y-86100000D02*
X104475000Y-86025000D01*
X142000000Y-69100000D02*
X142075000Y-69025000D01*
X132600000Y-69100000D02*
X132675000Y-69025000D01*
X123200000Y-69100000D02*
X123275000Y-69025000D01*
X113800000Y-69100000D02*
X113875000Y-69025000D01*
X104400000Y-69100000D02*
X104475000Y-69025000D01*
X142000000Y-52100000D02*
X142075000Y-52025000D01*
X132600000Y-52100000D02*
X132675000Y-52025000D01*
X123200000Y-52100000D02*
X123275000Y-52025000D01*
X113800000Y-52100000D02*
X113875000Y-52025000D01*
X140775000Y-123900000D02*
X140775000Y-122525000D01*
X131375000Y-123900000D02*
X131375000Y-122525000D01*
X121975000Y-123900000D02*
X121975000Y-122525000D01*
X112575000Y-123900000D02*
X112575000Y-122525000D01*
X103175000Y-123900000D02*
X103175000Y-122525000D01*
X140775000Y-106900000D02*
X140775000Y-105525000D01*
X131375000Y-106900000D02*
X131375000Y-105525000D01*
X121975000Y-106900000D02*
X121975000Y-105525000D01*
X112575000Y-106900000D02*
X112575000Y-105525000D01*
X103175000Y-106900000D02*
X103175000Y-105525000D01*
X140775000Y-89900000D02*
X140775000Y-88525000D01*
X131375000Y-89900000D02*
X131375000Y-88525000D01*
X121975000Y-89900000D02*
X121975000Y-88525000D01*
X112575000Y-89900000D02*
X112575000Y-88525000D01*
X103175000Y-89900000D02*
X103175000Y-88525000D01*
X140775000Y-72900000D02*
X140775000Y-71525000D01*
X131375000Y-72900000D02*
X131375000Y-71525000D01*
X121975000Y-72900000D02*
X121975000Y-71525000D01*
X112575000Y-72900000D02*
X112575000Y-71525000D01*
X103175000Y-72900000D02*
X103175000Y-71525000D01*
X140775000Y-55900000D02*
X140775000Y-54525000D01*
X131375000Y-55900000D02*
X131375000Y-54525000D01*
X121975000Y-55900000D02*
X121975000Y-54525000D01*
X112575000Y-55900000D02*
X112575000Y-54525000D01*
X140775000Y-122525000D02*
X141100000Y-122200000D01*
X131375000Y-122525000D02*
X131700000Y-122200000D01*
X121975000Y-122525000D02*
X122300000Y-122200000D01*
X112575000Y-122525000D02*
X112900000Y-122200000D01*
X103175000Y-122525000D02*
X103500000Y-122200000D01*
X140775000Y-105525000D02*
X141100000Y-105200000D01*
X131375000Y-105525000D02*
X131700000Y-105200000D01*
X121975000Y-105525000D02*
X122300000Y-105200000D01*
X112575000Y-105525000D02*
X112900000Y-105200000D01*
X103175000Y-105525000D02*
X103500000Y-105200000D01*
X140775000Y-88525000D02*
X141100000Y-88200000D01*
X131375000Y-88525000D02*
X131700000Y-88200000D01*
X121975000Y-88525000D02*
X122300000Y-88200000D01*
X112575000Y-88525000D02*
X112900000Y-88200000D01*
X103175000Y-88525000D02*
X103500000Y-88200000D01*
X140775000Y-71525000D02*
X141100000Y-71200000D01*
X131375000Y-71525000D02*
X131700000Y-71200000D01*
X121975000Y-71525000D02*
X122300000Y-71200000D01*
X112575000Y-71525000D02*
X112900000Y-71200000D01*
X103175000Y-71525000D02*
X103500000Y-71200000D01*
X140775000Y-54525000D02*
X141100000Y-54200000D01*
X131375000Y-54525000D02*
X131700000Y-54200000D01*
X121975000Y-54525000D02*
X122300000Y-54200000D01*
X112575000Y-54525000D02*
X112900000Y-54200000D01*
X140050000Y-126300000D02*
X141200000Y-126300000D01*
X130650000Y-126300000D02*
X131800000Y-126300000D01*
X121250000Y-126300000D02*
X122400000Y-126300000D01*
X111850000Y-126300000D02*
X113000000Y-126300000D01*
X102450000Y-126300000D02*
X103600000Y-126300000D01*
X140050000Y-109300000D02*
X141200000Y-109300000D01*
X130650000Y-109300000D02*
X131800000Y-109300000D01*
X121250000Y-109300000D02*
X122400000Y-109300000D01*
X111850000Y-109300000D02*
X113000000Y-109300000D01*
X102450000Y-109300000D02*
X103600000Y-109300000D01*
X140050000Y-92300000D02*
X141200000Y-92300000D01*
X130650000Y-92300000D02*
X131800000Y-92300000D01*
X121250000Y-92300000D02*
X122400000Y-92300000D01*
X111850000Y-92300000D02*
X113000000Y-92300000D01*
X102450000Y-92300000D02*
X103600000Y-92300000D01*
X140050000Y-75300000D02*
X141200000Y-75300000D01*
X130650000Y-75300000D02*
X131800000Y-75300000D01*
X121250000Y-75300000D02*
X122400000Y-75300000D01*
X111850000Y-75300000D02*
X113000000Y-75300000D01*
X102450000Y-75300000D02*
X103600000Y-75300000D01*
X140050000Y-58300000D02*
X141200000Y-58300000D01*
X130650000Y-58300000D02*
X131800000Y-58300000D01*
X121250000Y-58300000D02*
X122400000Y-58300000D01*
X111850000Y-58300000D02*
X113000000Y-58300000D01*
X103175000Y-55900000D02*
X103175000Y-54525000D01*
X103175000Y-54525000D02*
X103500000Y-54200000D01*
X105775000Y-55900000D02*
X105775000Y-57425000D01*
X105775000Y-57425000D02*
X105600000Y-57600000D01*
X107300000Y-60500000D02*
X107300000Y-58600000D01*
X102450000Y-58300000D02*
X103600000Y-58300000D01*
X104475000Y-52025000D02*
X104475000Y-50300000D01*
X104400000Y-52100000D02*
X104475000Y-52025000D01*
X107900000Y-62400000D02*
X107900000Y-61100000D01*
X107900000Y-61100000D02*
X107300000Y-60500000D01*
X143700000Y-130400000D02*
X143700000Y-128700000D01*
X134300000Y-130400000D02*
X134300000Y-128700000D01*
X124900000Y-130400000D02*
X124900000Y-128700000D01*
X115500000Y-130400000D02*
X115500000Y-128700000D01*
X106100000Y-130400000D02*
X106100000Y-128700000D01*
X143700000Y-113400000D02*
X143700000Y-111700000D01*
X134300000Y-113400000D02*
X134300000Y-111700000D01*
X124900000Y-113400000D02*
X124900000Y-111700000D01*
X115500000Y-113400000D02*
X115500000Y-111700000D01*
X106100000Y-113400000D02*
X106100000Y-111700000D01*
X143700000Y-96400000D02*
X143700000Y-94700000D01*
X134300000Y-96400000D02*
X134300000Y-94700000D01*
X124900000Y-96400000D02*
X124900000Y-94700000D01*
X115500000Y-96400000D02*
X115500000Y-94700000D01*
X106100000Y-96400000D02*
X106100000Y-94700000D01*
X143700000Y-79400000D02*
X143700000Y-77700000D01*
X134300000Y-79400000D02*
X134300000Y-77700000D01*
X124900000Y-79400000D02*
X124900000Y-77700000D01*
X115500000Y-79400000D02*
X115500000Y-77700000D01*
X106100000Y-79400000D02*
X106100000Y-77700000D01*
X143700000Y-62400000D02*
X143700000Y-60700000D01*
X134300000Y-62400000D02*
X134300000Y-60700000D01*
X124900000Y-62400000D02*
X124900000Y-60700000D01*
X115500000Y-62400000D02*
X115500000Y-60700000D01*
X143900000Y-128500000D02*
X143900000Y-125800000D01*
X134500000Y-128500000D02*
X134500000Y-125800000D01*
X125100000Y-128500000D02*
X125100000Y-125800000D01*
X115700000Y-128500000D02*
X115700000Y-125800000D01*
X106300000Y-128500000D02*
X106300000Y-125800000D01*
X143900000Y-111500000D02*
X143900000Y-108800000D01*
X134500000Y-111500000D02*
X134500000Y-108800000D01*
X125100000Y-111500000D02*
X125100000Y-108800000D01*
X115700000Y-111500000D02*
X115700000Y-108800000D01*
X106300000Y-111500000D02*
X106300000Y-108800000D01*
X143900000Y-94500000D02*
X143900000Y-91800000D01*
X134500000Y-94500000D02*
X134500000Y-91800000D01*
X125100000Y-94500000D02*
X125100000Y-91800000D01*
X115700000Y-94500000D02*
X115700000Y-91800000D01*
X106300000Y-94500000D02*
X106300000Y-91800000D01*
X143900000Y-77500000D02*
X143900000Y-74800000D01*
X134500000Y-77500000D02*
X134500000Y-74800000D01*
X125100000Y-77500000D02*
X125100000Y-74800000D01*
X115700000Y-77500000D02*
X115700000Y-74800000D01*
X106300000Y-77500000D02*
X106300000Y-74800000D01*
X143900000Y-60500000D02*
X143900000Y-57800000D01*
X134500000Y-60500000D02*
X134500000Y-57800000D01*
X125100000Y-60500000D02*
X125100000Y-57800000D01*
X115700000Y-60500000D02*
X115700000Y-57800000D01*
X143700000Y-128700000D02*
X143900000Y-128500000D01*
X134300000Y-128700000D02*
X134500000Y-128500000D01*
X124900000Y-128700000D02*
X125100000Y-128500000D01*
X115500000Y-128700000D02*
X115700000Y-128500000D01*
X106100000Y-128700000D02*
X106300000Y-128500000D01*
X143700000Y-111700000D02*
X143900000Y-111500000D01*
X134300000Y-111700000D02*
X134500000Y-111500000D01*
X124900000Y-111700000D02*
X125100000Y-111500000D01*
X115500000Y-111700000D02*
X115700000Y-111500000D01*
X106100000Y-111700000D02*
X106300000Y-111500000D01*
X143700000Y-94700000D02*
X143900000Y-94500000D01*
X134300000Y-94700000D02*
X134500000Y-94500000D01*
X124900000Y-94700000D02*
X125100000Y-94500000D01*
X115500000Y-94700000D02*
X115700000Y-94500000D01*
X106100000Y-94700000D02*
X106300000Y-94500000D01*
X143700000Y-77700000D02*
X143900000Y-77500000D01*
X134300000Y-77700000D02*
X134500000Y-77500000D01*
X124900000Y-77700000D02*
X125100000Y-77500000D01*
X115500000Y-77700000D02*
X115700000Y-77500000D01*
X106100000Y-77700000D02*
X106300000Y-77500000D01*
X143700000Y-60700000D02*
X143900000Y-60500000D01*
X134300000Y-60700000D02*
X134500000Y-60500000D01*
X124900000Y-60700000D02*
X125100000Y-60500000D01*
X115500000Y-60700000D02*
X115700000Y-60500000D01*
X143900000Y-125800000D02*
X144025000Y-125675000D01*
X134500000Y-125800000D02*
X134625000Y-125675000D01*
X125100000Y-125800000D02*
X125225000Y-125675000D01*
X115700000Y-125800000D02*
X115825000Y-125675000D01*
X106300000Y-125800000D02*
X106425000Y-125675000D01*
X143900000Y-108800000D02*
X144025000Y-108675000D01*
X134500000Y-108800000D02*
X134625000Y-108675000D01*
X125100000Y-108800000D02*
X125225000Y-108675000D01*
X115700000Y-108800000D02*
X115825000Y-108675000D01*
X106300000Y-108800000D02*
X106425000Y-108675000D01*
X143900000Y-91800000D02*
X144025000Y-91675000D01*
X134500000Y-91800000D02*
X134625000Y-91675000D01*
X125100000Y-91800000D02*
X125225000Y-91675000D01*
X115700000Y-91800000D02*
X115825000Y-91675000D01*
X106300000Y-91800000D02*
X106425000Y-91675000D01*
X143900000Y-74800000D02*
X144025000Y-74675000D01*
X134500000Y-74800000D02*
X134625000Y-74675000D01*
X125100000Y-74800000D02*
X125225000Y-74675000D01*
X115700000Y-74800000D02*
X115825000Y-74675000D01*
X106300000Y-74800000D02*
X106425000Y-74675000D01*
X143900000Y-57800000D02*
X144025000Y-57675000D01*
X134500000Y-57800000D02*
X134625000Y-57675000D01*
X125100000Y-57800000D02*
X125225000Y-57675000D01*
X115700000Y-57800000D02*
X115825000Y-57675000D01*
X144025000Y-125675000D02*
X144025000Y-123900000D01*
X134625000Y-125675000D02*
X134625000Y-123900000D01*
X125225000Y-125675000D02*
X125225000Y-123900000D01*
X115825000Y-125675000D02*
X115825000Y-123900000D01*
X106425000Y-125675000D02*
X106425000Y-123900000D01*
X144025000Y-108675000D02*
X144025000Y-106900000D01*
X134625000Y-108675000D02*
X134625000Y-106900000D01*
X125225000Y-108675000D02*
X125225000Y-106900000D01*
X115825000Y-108675000D02*
X115825000Y-106900000D01*
X106425000Y-108675000D02*
X106425000Y-106900000D01*
X144025000Y-91675000D02*
X144025000Y-89900000D01*
X134625000Y-91675000D02*
X134625000Y-89900000D01*
X125225000Y-91675000D02*
X125225000Y-89900000D01*
X115825000Y-91675000D02*
X115825000Y-89900000D01*
X106425000Y-91675000D02*
X106425000Y-89900000D01*
X144025000Y-74675000D02*
X144025000Y-72900000D01*
X134625000Y-74675000D02*
X134625000Y-72900000D01*
X125225000Y-74675000D02*
X125225000Y-72900000D01*
X115825000Y-74675000D02*
X115825000Y-72900000D01*
X106425000Y-74675000D02*
X106425000Y-72900000D01*
X144025000Y-57675000D02*
X144025000Y-55900000D01*
X134625000Y-57675000D02*
X134625000Y-55900000D01*
X125225000Y-57675000D02*
X125225000Y-55900000D01*
X115825000Y-57675000D02*
X115825000Y-55900000D01*
X106300000Y-60500000D02*
X106300000Y-57800000D01*
X106425000Y-57675000D02*
X106425000Y-55900000D01*
X106300000Y-57800000D02*
X106425000Y-57675000D01*
X106100000Y-62400000D02*
X106100000Y-60700000D01*
X106100000Y-60700000D02*
X106300000Y-60500000D01*
X140900000Y-129800000D02*
X140900000Y-128500000D01*
X131500000Y-129800000D02*
X131500000Y-128500000D01*
X122100000Y-129800000D02*
X122100000Y-128500000D01*
X112700000Y-129800000D02*
X112700000Y-128500000D01*
X103300000Y-129800000D02*
X103300000Y-128500000D01*
X140900000Y-112800000D02*
X140900000Y-111500000D01*
X131500000Y-112800000D02*
X131500000Y-111500000D01*
X122100000Y-112800000D02*
X122100000Y-111500000D01*
X112700000Y-112800000D02*
X112700000Y-111500000D01*
X103300000Y-112800000D02*
X103300000Y-111500000D01*
X140900000Y-95800000D02*
X140900000Y-94500000D01*
X131500000Y-95800000D02*
X131500000Y-94500000D01*
X122100000Y-95800000D02*
X122100000Y-94500000D01*
X112700000Y-95800000D02*
X112700000Y-94500000D01*
X103300000Y-95800000D02*
X103300000Y-94500000D01*
X140900000Y-78800000D02*
X140900000Y-77500000D01*
X131500000Y-78800000D02*
X131500000Y-77500000D01*
X122100000Y-78800000D02*
X122100000Y-77500000D01*
X112700000Y-78800000D02*
X112700000Y-77500000D01*
X103300000Y-78800000D02*
X103300000Y-77500000D01*
X140900000Y-61800000D02*
X140900000Y-60500000D01*
X131500000Y-61800000D02*
X131500000Y-60500000D01*
X122100000Y-61800000D02*
X122100000Y-60500000D01*
X112700000Y-61800000D02*
X112700000Y-60500000D01*
X141100000Y-130400000D02*
X141100000Y-130000000D01*
X131700000Y-130400000D02*
X131700000Y-130000000D01*
X122300000Y-130400000D02*
X122300000Y-130000000D01*
X112900000Y-130400000D02*
X112900000Y-130000000D01*
X103500000Y-130400000D02*
X103500000Y-130000000D01*
X141100000Y-113400000D02*
X141100000Y-113000000D01*
X131700000Y-113400000D02*
X131700000Y-113000000D01*
X122300000Y-113400000D02*
X122300000Y-113000000D01*
X112900000Y-113400000D02*
X112900000Y-113000000D01*
X103500000Y-113400000D02*
X103500000Y-113000000D01*
X141100000Y-96400000D02*
X141100000Y-96000000D01*
X131700000Y-96400000D02*
X131700000Y-96000000D01*
X122300000Y-96400000D02*
X122300000Y-96000000D01*
X112900000Y-96400000D02*
X112900000Y-96000000D01*
X103500000Y-96400000D02*
X103500000Y-96000000D01*
X141100000Y-79400000D02*
X141100000Y-79000000D01*
X131700000Y-79400000D02*
X131700000Y-79000000D01*
X122300000Y-79400000D02*
X122300000Y-79000000D01*
X112900000Y-79400000D02*
X112900000Y-79000000D01*
X103500000Y-79400000D02*
X103500000Y-79000000D01*
X141100000Y-62400000D02*
X141100000Y-62000000D01*
X131700000Y-62400000D02*
X131700000Y-62000000D01*
X122300000Y-62400000D02*
X122300000Y-62000000D01*
X112900000Y-62400000D02*
X112900000Y-62000000D01*
X141100000Y-130000000D02*
X140900000Y-129800000D01*
X131700000Y-130000000D02*
X131500000Y-129800000D01*
X122300000Y-130000000D02*
X122100000Y-129800000D01*
X112900000Y-130000000D02*
X112700000Y-129800000D01*
X103500000Y-130000000D02*
X103300000Y-129800000D01*
X141100000Y-113000000D02*
X140900000Y-112800000D01*
X131700000Y-113000000D02*
X131500000Y-112800000D01*
X122300000Y-113000000D02*
X122100000Y-112800000D01*
X112900000Y-113000000D02*
X112700000Y-112800000D01*
X103500000Y-113000000D02*
X103300000Y-112800000D01*
X141100000Y-96000000D02*
X140900000Y-95800000D01*
X131700000Y-96000000D02*
X131500000Y-95800000D01*
X122300000Y-96000000D02*
X122100000Y-95800000D01*
X112900000Y-96000000D02*
X112700000Y-95800000D01*
X103500000Y-96000000D02*
X103300000Y-95800000D01*
X141100000Y-79000000D02*
X140900000Y-78800000D01*
X131700000Y-79000000D02*
X131500000Y-78800000D01*
X122300000Y-79000000D02*
X122100000Y-78800000D01*
X112900000Y-79000000D02*
X112700000Y-78800000D01*
X103500000Y-79000000D02*
X103300000Y-78800000D01*
X141100000Y-62000000D02*
X140900000Y-61800000D01*
X131700000Y-62000000D02*
X131500000Y-61800000D01*
X122300000Y-62000000D02*
X122100000Y-61800000D01*
X112900000Y-62000000D02*
X112700000Y-61800000D01*
X140900000Y-127300000D02*
X141100000Y-127100000D01*
X131500000Y-127300000D02*
X131700000Y-127100000D01*
X122100000Y-127300000D02*
X122300000Y-127100000D01*
X112700000Y-127300000D02*
X112900000Y-127100000D01*
X103300000Y-127300000D02*
X103500000Y-127100000D01*
X140900000Y-110300000D02*
X141100000Y-110100000D01*
X131500000Y-110300000D02*
X131700000Y-110100000D01*
X122100000Y-110300000D02*
X122300000Y-110100000D01*
X112700000Y-110300000D02*
X112900000Y-110100000D01*
X103300000Y-110300000D02*
X103500000Y-110100000D01*
X140900000Y-93300000D02*
X141100000Y-93100000D01*
X131500000Y-93300000D02*
X131700000Y-93100000D01*
X122100000Y-93300000D02*
X122300000Y-93100000D01*
X112700000Y-93300000D02*
X112900000Y-93100000D01*
X103300000Y-93300000D02*
X103500000Y-93100000D01*
X140900000Y-76300000D02*
X141100000Y-76100000D01*
X131500000Y-76300000D02*
X131700000Y-76100000D01*
X122100000Y-76300000D02*
X122300000Y-76100000D01*
X112700000Y-76300000D02*
X112900000Y-76100000D01*
X103300000Y-76300000D02*
X103500000Y-76100000D01*
X140900000Y-59300000D02*
X141100000Y-59100000D01*
X131500000Y-59300000D02*
X131700000Y-59100000D01*
X122100000Y-59300000D02*
X122300000Y-59100000D01*
X112700000Y-59300000D02*
X112900000Y-59100000D01*
X140900000Y-128500000D02*
X140900000Y-127300000D01*
X131500000Y-128500000D02*
X131500000Y-127300000D01*
X122100000Y-128500000D02*
X122100000Y-127300000D01*
X112700000Y-128500000D02*
X112700000Y-127300000D01*
X103300000Y-128500000D02*
X103300000Y-127300000D01*
X140900000Y-111500000D02*
X140900000Y-110300000D01*
X131500000Y-111500000D02*
X131500000Y-110300000D01*
X122100000Y-111500000D02*
X122100000Y-110300000D01*
X112700000Y-111500000D02*
X112700000Y-110300000D01*
X103300000Y-111500000D02*
X103300000Y-110300000D01*
X140900000Y-94500000D02*
X140900000Y-93300000D01*
X131500000Y-94500000D02*
X131500000Y-93300000D01*
X122100000Y-94500000D02*
X122100000Y-93300000D01*
X112700000Y-94500000D02*
X112700000Y-93300000D01*
X103300000Y-94500000D02*
X103300000Y-93300000D01*
X140900000Y-77500000D02*
X140900000Y-76300000D01*
X131500000Y-77500000D02*
X131500000Y-76300000D01*
X122100000Y-77500000D02*
X122100000Y-76300000D01*
X112700000Y-77500000D02*
X112700000Y-76300000D01*
X103300000Y-77500000D02*
X103300000Y-76300000D01*
X140900000Y-60500000D02*
X140900000Y-59300000D01*
X131500000Y-60500000D02*
X131500000Y-59300000D01*
X122100000Y-60500000D02*
X122100000Y-59300000D01*
X112700000Y-60500000D02*
X112700000Y-59300000D01*
X140125000Y-125125000D02*
X140125000Y-123900000D01*
X130725000Y-125125000D02*
X130725000Y-123900000D01*
X121325000Y-125125000D02*
X121325000Y-123900000D01*
X111925000Y-125125000D02*
X111925000Y-123900000D01*
X102525000Y-125125000D02*
X102525000Y-123900000D01*
X140125000Y-108125000D02*
X140125000Y-106900000D01*
X130725000Y-108125000D02*
X130725000Y-106900000D01*
X121325000Y-108125000D02*
X121325000Y-106900000D01*
X111925000Y-108125000D02*
X111925000Y-106900000D01*
X102525000Y-108125000D02*
X102525000Y-106900000D01*
X140125000Y-91125000D02*
X140125000Y-89900000D01*
X130725000Y-91125000D02*
X130725000Y-89900000D01*
X121325000Y-91125000D02*
X121325000Y-89900000D01*
X111925000Y-91125000D02*
X111925000Y-89900000D01*
X102525000Y-91125000D02*
X102525000Y-89900000D01*
X140125000Y-74125000D02*
X140125000Y-72900000D01*
X130725000Y-74125000D02*
X130725000Y-72900000D01*
X121325000Y-74125000D02*
X121325000Y-72900000D01*
X111925000Y-74125000D02*
X111925000Y-72900000D01*
X102525000Y-74125000D02*
X102525000Y-72900000D01*
X140125000Y-57125000D02*
X140125000Y-55900000D01*
X130725000Y-57125000D02*
X130725000Y-55900000D01*
X121325000Y-57125000D02*
X121325000Y-55900000D01*
X111925000Y-57125000D02*
X111925000Y-55900000D01*
X141100000Y-125400000D02*
X141000000Y-125300000D01*
X131700000Y-125400000D02*
X131600000Y-125300000D01*
X122300000Y-125400000D02*
X122200000Y-125300000D01*
X112900000Y-125400000D02*
X112800000Y-125300000D01*
X103500000Y-125400000D02*
X103400000Y-125300000D01*
X141100000Y-108400000D02*
X141000000Y-108300000D01*
X131700000Y-108400000D02*
X131600000Y-108300000D01*
X122300000Y-108400000D02*
X122200000Y-108300000D01*
X112900000Y-108400000D02*
X112800000Y-108300000D01*
X103500000Y-108400000D02*
X103400000Y-108300000D01*
X141100000Y-91400000D02*
X141000000Y-91300000D01*
X131700000Y-91400000D02*
X131600000Y-91300000D01*
X122300000Y-91400000D02*
X122200000Y-91300000D01*
X112900000Y-91400000D02*
X112800000Y-91300000D01*
X103500000Y-91400000D02*
X103400000Y-91300000D01*
X141100000Y-74400000D02*
X141000000Y-74300000D01*
X131700000Y-74400000D02*
X131600000Y-74300000D01*
X122300000Y-74400000D02*
X122200000Y-74300000D01*
X112900000Y-74400000D02*
X112800000Y-74300000D01*
X103500000Y-74400000D02*
X103400000Y-74300000D01*
X141100000Y-57400000D02*
X141000000Y-57300000D01*
X131700000Y-57400000D02*
X131600000Y-57300000D01*
X122300000Y-57400000D02*
X122200000Y-57300000D01*
X112900000Y-57400000D02*
X112800000Y-57300000D01*
X140300000Y-125300000D02*
X140125000Y-125125000D01*
X130900000Y-125300000D02*
X130725000Y-125125000D01*
X121500000Y-125300000D02*
X121325000Y-125125000D01*
X112100000Y-125300000D02*
X111925000Y-125125000D01*
X102700000Y-125300000D02*
X102525000Y-125125000D01*
X140300000Y-108300000D02*
X140125000Y-108125000D01*
X130900000Y-108300000D02*
X130725000Y-108125000D01*
X121500000Y-108300000D02*
X121325000Y-108125000D01*
X112100000Y-108300000D02*
X111925000Y-108125000D01*
X102700000Y-108300000D02*
X102525000Y-108125000D01*
X140300000Y-91300000D02*
X140125000Y-91125000D01*
X130900000Y-91300000D02*
X130725000Y-91125000D01*
X121500000Y-91300000D02*
X121325000Y-91125000D01*
X112100000Y-91300000D02*
X111925000Y-91125000D01*
X102700000Y-91300000D02*
X102525000Y-91125000D01*
X140300000Y-74300000D02*
X140125000Y-74125000D01*
X130900000Y-74300000D02*
X130725000Y-74125000D01*
X121500000Y-74300000D02*
X121325000Y-74125000D01*
X112100000Y-74300000D02*
X111925000Y-74125000D01*
X102700000Y-74300000D02*
X102525000Y-74125000D01*
X140300000Y-57300000D02*
X140125000Y-57125000D01*
X130900000Y-57300000D02*
X130725000Y-57125000D01*
X121500000Y-57300000D02*
X121325000Y-57125000D01*
X112100000Y-57300000D02*
X111925000Y-57125000D01*
X141000000Y-125300000D02*
X140300000Y-125300000D01*
X131600000Y-125300000D02*
X130900000Y-125300000D01*
X122200000Y-125300000D02*
X121500000Y-125300000D01*
X112800000Y-125300000D02*
X112100000Y-125300000D01*
X103400000Y-125300000D02*
X102700000Y-125300000D01*
X141000000Y-108300000D02*
X140300000Y-108300000D01*
X131600000Y-108300000D02*
X130900000Y-108300000D01*
X122200000Y-108300000D02*
X121500000Y-108300000D01*
X112800000Y-108300000D02*
X112100000Y-108300000D01*
X103400000Y-108300000D02*
X102700000Y-108300000D01*
X141000000Y-91300000D02*
X140300000Y-91300000D01*
X131600000Y-91300000D02*
X130900000Y-91300000D01*
X122200000Y-91300000D02*
X121500000Y-91300000D01*
X112800000Y-91300000D02*
X112100000Y-91300000D01*
X103400000Y-91300000D02*
X102700000Y-91300000D01*
X141000000Y-74300000D02*
X140300000Y-74300000D01*
X131600000Y-74300000D02*
X130900000Y-74300000D01*
X122200000Y-74300000D02*
X121500000Y-74300000D01*
X112800000Y-74300000D02*
X112100000Y-74300000D01*
X103400000Y-74300000D02*
X102700000Y-74300000D01*
X141000000Y-57300000D02*
X140300000Y-57300000D01*
X131600000Y-57300000D02*
X130900000Y-57300000D01*
X122200000Y-57300000D02*
X121500000Y-57300000D01*
X112800000Y-57300000D02*
X112100000Y-57300000D01*
X103300000Y-60500000D02*
X103300000Y-59300000D01*
X102525000Y-57125000D02*
X102525000Y-55900000D01*
X102700000Y-57300000D02*
X102525000Y-57125000D01*
X103400000Y-57300000D02*
X102700000Y-57300000D01*
X103500000Y-57400000D02*
X103400000Y-57300000D01*
X103300000Y-59300000D02*
X103500000Y-59100000D01*
X103500000Y-62400000D02*
X103500000Y-62000000D01*
X103500000Y-62000000D02*
X103300000Y-61800000D01*
X103300000Y-61800000D02*
X103300000Y-60500000D01*
X140500000Y-132100000D02*
X141000000Y-132100000D01*
X131100000Y-132100000D02*
X131600000Y-132100000D01*
X121700000Y-132100000D02*
X122200000Y-132100000D01*
X112300000Y-132100000D02*
X112800000Y-132100000D01*
X102900000Y-132100000D02*
X103400000Y-132100000D01*
X140500000Y-115100000D02*
X141000000Y-115100000D01*
X131100000Y-115100000D02*
X131600000Y-115100000D01*
X121700000Y-115100000D02*
X122200000Y-115100000D01*
X112300000Y-115100000D02*
X112800000Y-115100000D01*
X102900000Y-115100000D02*
X103400000Y-115100000D01*
X140500000Y-98100000D02*
X141000000Y-98100000D01*
X131100000Y-98100000D02*
X131600000Y-98100000D01*
X121700000Y-98100000D02*
X122200000Y-98100000D01*
X112300000Y-98100000D02*
X112800000Y-98100000D01*
X102900000Y-98100000D02*
X103400000Y-98100000D01*
X140500000Y-81100000D02*
X141000000Y-81100000D01*
X131100000Y-81100000D02*
X131600000Y-81100000D01*
X121700000Y-81100000D02*
X122200000Y-81100000D01*
X112300000Y-81100000D02*
X112800000Y-81100000D01*
X102900000Y-81100000D02*
X103400000Y-81100000D01*
X140500000Y-64100000D02*
X141000000Y-64100000D01*
X131100000Y-64100000D02*
X131600000Y-64100000D01*
X121700000Y-64100000D02*
X122200000Y-64100000D01*
X112300000Y-64100000D02*
X112800000Y-64100000D01*
X141000000Y-132100000D02*
X142200000Y-130900000D01*
X131600000Y-132100000D02*
X132800000Y-130900000D01*
X122200000Y-132100000D02*
X123400000Y-130900000D01*
X112800000Y-132100000D02*
X114000000Y-130900000D01*
X103400000Y-132100000D02*
X104600000Y-130900000D01*
X141000000Y-115100000D02*
X142200000Y-113900000D01*
X131600000Y-115100000D02*
X132800000Y-113900000D01*
X122200000Y-115100000D02*
X123400000Y-113900000D01*
X112800000Y-115100000D02*
X114000000Y-113900000D01*
X103400000Y-115100000D02*
X104600000Y-113900000D01*
X141000000Y-98100000D02*
X142200000Y-96900000D01*
X131600000Y-98100000D02*
X132800000Y-96900000D01*
X122200000Y-98100000D02*
X123400000Y-96900000D01*
X112800000Y-98100000D02*
X114000000Y-96900000D01*
X103400000Y-98100000D02*
X104600000Y-96900000D01*
X141000000Y-81100000D02*
X142200000Y-79900000D01*
X131600000Y-81100000D02*
X132800000Y-79900000D01*
X122200000Y-81100000D02*
X123400000Y-79900000D01*
X112800000Y-81100000D02*
X114000000Y-79900000D01*
X103400000Y-81100000D02*
X104600000Y-79900000D01*
X141000000Y-64100000D02*
X142200000Y-62900000D01*
X131600000Y-64100000D02*
X132800000Y-62900000D01*
X122200000Y-64100000D02*
X123400000Y-62900000D01*
X112800000Y-64100000D02*
X114000000Y-62900000D01*
X141900000Y-129700000D02*
X141900000Y-128500000D01*
X132500000Y-129700000D02*
X132500000Y-128500000D01*
X123100000Y-129700000D02*
X123100000Y-128500000D01*
X113700000Y-129700000D02*
X113700000Y-128500000D01*
X104300000Y-129700000D02*
X104300000Y-128500000D01*
X141900000Y-112700000D02*
X141900000Y-111500000D01*
X132500000Y-112700000D02*
X132500000Y-111500000D01*
X123100000Y-112700000D02*
X123100000Y-111500000D01*
X113700000Y-112700000D02*
X113700000Y-111500000D01*
X104300000Y-112700000D02*
X104300000Y-111500000D01*
X141900000Y-95700000D02*
X141900000Y-94500000D01*
X132500000Y-95700000D02*
X132500000Y-94500000D01*
X123100000Y-95700000D02*
X123100000Y-94500000D01*
X113700000Y-95700000D02*
X113700000Y-94500000D01*
X104300000Y-95700000D02*
X104300000Y-94500000D01*
X141900000Y-78700000D02*
X141900000Y-77500000D01*
X132500000Y-78700000D02*
X132500000Y-77500000D01*
X123100000Y-78700000D02*
X123100000Y-77500000D01*
X113700000Y-78700000D02*
X113700000Y-77500000D01*
X104300000Y-78700000D02*
X104300000Y-77500000D01*
X141900000Y-61700000D02*
X141900000Y-60500000D01*
X132500000Y-61700000D02*
X132500000Y-60500000D01*
X123100000Y-61700000D02*
X123100000Y-60500000D01*
X113700000Y-61700000D02*
X113700000Y-60500000D01*
X142200000Y-130000000D02*
X141900000Y-129700000D01*
X132800000Y-130000000D02*
X132500000Y-129700000D01*
X123400000Y-130000000D02*
X123100000Y-129700000D01*
X114000000Y-130000000D02*
X113700000Y-129700000D01*
X104600000Y-130000000D02*
X104300000Y-129700000D01*
X142200000Y-113000000D02*
X141900000Y-112700000D01*
X132800000Y-113000000D02*
X132500000Y-112700000D01*
X123400000Y-113000000D02*
X123100000Y-112700000D01*
X114000000Y-113000000D02*
X113700000Y-112700000D01*
X104600000Y-113000000D02*
X104300000Y-112700000D01*
X142200000Y-96000000D02*
X141900000Y-95700000D01*
X132800000Y-96000000D02*
X132500000Y-95700000D01*
X123400000Y-96000000D02*
X123100000Y-95700000D01*
X114000000Y-96000000D02*
X113700000Y-95700000D01*
X104600000Y-96000000D02*
X104300000Y-95700000D01*
X142200000Y-79000000D02*
X141900000Y-78700000D01*
X132800000Y-79000000D02*
X132500000Y-78700000D01*
X123400000Y-79000000D02*
X123100000Y-78700000D01*
X114000000Y-79000000D02*
X113700000Y-78700000D01*
X104600000Y-79000000D02*
X104300000Y-78700000D01*
X142200000Y-62000000D02*
X141900000Y-61700000D01*
X132800000Y-62000000D02*
X132500000Y-61700000D01*
X123400000Y-62000000D02*
X123100000Y-61700000D01*
X114000000Y-62000000D02*
X113700000Y-61700000D01*
X142200000Y-130900000D02*
X142200000Y-130000000D01*
X132800000Y-130900000D02*
X132800000Y-130000000D01*
X123400000Y-130900000D02*
X123400000Y-130000000D01*
X114000000Y-130900000D02*
X114000000Y-130000000D01*
X104600000Y-130900000D02*
X104600000Y-130000000D01*
X142200000Y-113900000D02*
X142200000Y-113000000D01*
X132800000Y-113900000D02*
X132800000Y-113000000D01*
X123400000Y-113900000D02*
X123400000Y-113000000D01*
X114000000Y-113900000D02*
X114000000Y-113000000D01*
X104600000Y-113900000D02*
X104600000Y-113000000D01*
X142200000Y-96900000D02*
X142200000Y-96000000D01*
X132800000Y-96900000D02*
X132800000Y-96000000D01*
X123400000Y-96900000D02*
X123400000Y-96000000D01*
X114000000Y-96900000D02*
X114000000Y-96000000D01*
X104600000Y-96900000D02*
X104600000Y-96000000D01*
X142200000Y-79900000D02*
X142200000Y-79000000D01*
X132800000Y-79900000D02*
X132800000Y-79000000D01*
X123400000Y-79900000D02*
X123400000Y-79000000D01*
X114000000Y-79900000D02*
X114000000Y-79000000D01*
X104600000Y-79900000D02*
X104600000Y-79000000D01*
X142200000Y-62900000D02*
X142200000Y-62000000D01*
X132800000Y-62900000D02*
X132800000Y-62000000D01*
X123400000Y-62900000D02*
X123400000Y-62000000D01*
X114000000Y-62900000D02*
X114000000Y-62000000D01*
X142400000Y-126200000D02*
X142400000Y-125800000D01*
X133000000Y-126200000D02*
X133000000Y-125800000D01*
X123600000Y-126200000D02*
X123600000Y-125800000D01*
X114200000Y-126200000D02*
X114200000Y-125800000D01*
X104800000Y-126200000D02*
X104800000Y-125800000D01*
X142400000Y-109200000D02*
X142400000Y-108800000D01*
X133000000Y-109200000D02*
X133000000Y-108800000D01*
X123600000Y-109200000D02*
X123600000Y-108800000D01*
X114200000Y-109200000D02*
X114200000Y-108800000D01*
X104800000Y-109200000D02*
X104800000Y-108800000D01*
X142400000Y-92200000D02*
X142400000Y-91800000D01*
X133000000Y-92200000D02*
X133000000Y-91800000D01*
X123600000Y-92200000D02*
X123600000Y-91800000D01*
X114200000Y-92200000D02*
X114200000Y-91800000D01*
X104800000Y-92200000D02*
X104800000Y-91800000D01*
X142400000Y-75200000D02*
X142400000Y-74800000D01*
X133000000Y-75200000D02*
X133000000Y-74800000D01*
X123600000Y-75200000D02*
X123600000Y-74800000D01*
X114200000Y-75200000D02*
X114200000Y-74800000D01*
X104800000Y-75200000D02*
X104800000Y-74800000D01*
X142400000Y-58200000D02*
X142400000Y-57800000D01*
X133000000Y-58200000D02*
X133000000Y-57800000D01*
X123600000Y-58200000D02*
X123600000Y-57800000D01*
X114200000Y-58200000D02*
X114200000Y-57800000D01*
X141900000Y-126700000D02*
X142400000Y-126200000D01*
X132500000Y-126700000D02*
X133000000Y-126200000D01*
X123100000Y-126700000D02*
X123600000Y-126200000D01*
X113700000Y-126700000D02*
X114200000Y-126200000D01*
X104300000Y-126700000D02*
X104800000Y-126200000D01*
X141900000Y-109700000D02*
X142400000Y-109200000D01*
X132500000Y-109700000D02*
X133000000Y-109200000D01*
X123100000Y-109700000D02*
X123600000Y-109200000D01*
X113700000Y-109700000D02*
X114200000Y-109200000D01*
X104300000Y-109700000D02*
X104800000Y-109200000D01*
X141900000Y-92700000D02*
X142400000Y-92200000D01*
X132500000Y-92700000D02*
X133000000Y-92200000D01*
X123100000Y-92700000D02*
X123600000Y-92200000D01*
X113700000Y-92700000D02*
X114200000Y-92200000D01*
X104300000Y-92700000D02*
X104800000Y-92200000D01*
X141900000Y-75700000D02*
X142400000Y-75200000D01*
X132500000Y-75700000D02*
X133000000Y-75200000D01*
X123100000Y-75700000D02*
X123600000Y-75200000D01*
X113700000Y-75700000D02*
X114200000Y-75200000D01*
X104300000Y-75700000D02*
X104800000Y-75200000D01*
X141900000Y-58700000D02*
X142400000Y-58200000D01*
X132500000Y-58700000D02*
X133000000Y-58200000D01*
X123100000Y-58700000D02*
X123600000Y-58200000D01*
X113700000Y-58700000D02*
X114200000Y-58200000D01*
X141900000Y-128500000D02*
X141900000Y-126700000D01*
X132500000Y-128500000D02*
X132500000Y-126700000D01*
X123100000Y-128500000D02*
X123100000Y-126700000D01*
X113700000Y-128500000D02*
X113700000Y-126700000D01*
X104300000Y-128500000D02*
X104300000Y-126700000D01*
X141900000Y-111500000D02*
X141900000Y-109700000D01*
X132500000Y-111500000D02*
X132500000Y-109700000D01*
X123100000Y-111500000D02*
X123100000Y-109700000D01*
X113700000Y-111500000D02*
X113700000Y-109700000D01*
X104300000Y-111500000D02*
X104300000Y-109700000D01*
X141900000Y-94500000D02*
X141900000Y-92700000D01*
X132500000Y-94500000D02*
X132500000Y-92700000D01*
X123100000Y-94500000D02*
X123100000Y-92700000D01*
X113700000Y-94500000D02*
X113700000Y-92700000D01*
X104300000Y-94500000D02*
X104300000Y-92700000D01*
X141900000Y-77500000D02*
X141900000Y-75700000D01*
X132500000Y-77500000D02*
X132500000Y-75700000D01*
X123100000Y-77500000D02*
X123100000Y-75700000D01*
X113700000Y-77500000D02*
X113700000Y-75700000D01*
X104300000Y-77500000D02*
X104300000Y-75700000D01*
X141900000Y-60500000D02*
X141900000Y-58700000D01*
X132500000Y-60500000D02*
X132500000Y-58700000D01*
X123100000Y-60500000D02*
X123100000Y-58700000D01*
X113700000Y-60500000D02*
X113700000Y-58700000D01*
X142400000Y-125800000D02*
X141425000Y-124825000D01*
X133000000Y-125800000D02*
X132025000Y-124825000D01*
X123600000Y-125800000D02*
X122625000Y-124825000D01*
X114200000Y-125800000D02*
X113225000Y-124825000D01*
X104800000Y-125800000D02*
X103825000Y-124825000D01*
X142400000Y-108800000D02*
X141425000Y-107825000D01*
X133000000Y-108800000D02*
X132025000Y-107825000D01*
X123600000Y-108800000D02*
X122625000Y-107825000D01*
X114200000Y-108800000D02*
X113225000Y-107825000D01*
X104800000Y-108800000D02*
X103825000Y-107825000D01*
X142400000Y-91800000D02*
X141425000Y-90825000D01*
X133000000Y-91800000D02*
X132025000Y-90825000D01*
X123600000Y-91800000D02*
X122625000Y-90825000D01*
X114200000Y-91800000D02*
X113225000Y-90825000D01*
X104800000Y-91800000D02*
X103825000Y-90825000D01*
X142400000Y-74800000D02*
X141425000Y-73825000D01*
X133000000Y-74800000D02*
X132025000Y-73825000D01*
X123600000Y-74800000D02*
X122625000Y-73825000D01*
X114200000Y-74800000D02*
X113225000Y-73825000D01*
X104800000Y-74800000D02*
X103825000Y-73825000D01*
X142400000Y-57800000D02*
X141425000Y-56825000D01*
X133000000Y-57800000D02*
X132025000Y-56825000D01*
X123600000Y-57800000D02*
X122625000Y-56825000D01*
X114200000Y-57800000D02*
X113225000Y-56825000D01*
X141425000Y-124825000D02*
X141425000Y-123900000D01*
X132025000Y-124825000D02*
X132025000Y-123900000D01*
X122625000Y-124825000D02*
X122625000Y-123900000D01*
X113225000Y-124825000D02*
X113225000Y-123900000D01*
X103825000Y-124825000D02*
X103825000Y-123900000D01*
X141425000Y-107825000D02*
X141425000Y-106900000D01*
X132025000Y-107825000D02*
X132025000Y-106900000D01*
X122625000Y-107825000D02*
X122625000Y-106900000D01*
X113225000Y-107825000D02*
X113225000Y-106900000D01*
X103825000Y-107825000D02*
X103825000Y-106900000D01*
X141425000Y-90825000D02*
X141425000Y-89900000D01*
X132025000Y-90825000D02*
X132025000Y-89900000D01*
X122625000Y-90825000D02*
X122625000Y-89900000D01*
X113225000Y-90825000D02*
X113225000Y-89900000D01*
X103825000Y-90825000D02*
X103825000Y-89900000D01*
X141425000Y-73825000D02*
X141425000Y-72900000D01*
X132025000Y-73825000D02*
X132025000Y-72900000D01*
X122625000Y-73825000D02*
X122625000Y-72900000D01*
X113225000Y-73825000D02*
X113225000Y-72900000D01*
X103825000Y-73825000D02*
X103825000Y-72900000D01*
X141425000Y-56825000D02*
X141425000Y-55900000D01*
X132025000Y-56825000D02*
X132025000Y-55900000D01*
X122625000Y-56825000D02*
X122625000Y-55900000D01*
X113225000Y-56825000D02*
X113225000Y-55900000D01*
X104300000Y-60500000D02*
X104300000Y-58700000D01*
X103825000Y-56825000D02*
X103825000Y-55900000D01*
X104800000Y-57800000D02*
X103825000Y-56825000D01*
X104800000Y-58200000D02*
X104800000Y-57800000D01*
X104300000Y-58700000D02*
X104800000Y-58200000D01*
X102900000Y-64100000D02*
X103400000Y-64100000D01*
X103400000Y-64100000D02*
X104600000Y-62900000D01*
X104600000Y-62900000D02*
X104600000Y-62000000D01*
X104600000Y-62000000D02*
X104300000Y-61700000D01*
X104300000Y-61700000D02*
X104300000Y-60500000D01*
X142700000Y-131600000D02*
X142700000Y-128700000D01*
X133300000Y-131600000D02*
X133300000Y-128700000D01*
X123900000Y-131600000D02*
X123900000Y-128700000D01*
X114500000Y-131600000D02*
X114500000Y-128700000D01*
X105100000Y-131600000D02*
X105100000Y-128700000D01*
X142700000Y-114600000D02*
X142700000Y-111700000D01*
X133300000Y-114600000D02*
X133300000Y-111700000D01*
X123900000Y-114600000D02*
X123900000Y-111700000D01*
X114500000Y-114600000D02*
X114500000Y-111700000D01*
X105100000Y-114600000D02*
X105100000Y-111700000D01*
X142700000Y-97600000D02*
X142700000Y-94700000D01*
X133300000Y-97600000D02*
X133300000Y-94700000D01*
X123900000Y-97600000D02*
X123900000Y-94700000D01*
X114500000Y-97600000D02*
X114500000Y-94700000D01*
X105100000Y-97600000D02*
X105100000Y-94700000D01*
X142700000Y-80600000D02*
X142700000Y-77700000D01*
X133300000Y-80600000D02*
X133300000Y-77700000D01*
X123900000Y-80600000D02*
X123900000Y-77700000D01*
X114500000Y-80600000D02*
X114500000Y-77700000D01*
X105100000Y-80600000D02*
X105100000Y-77700000D01*
X142700000Y-63600000D02*
X142700000Y-60700000D01*
X133300000Y-63600000D02*
X133300000Y-60700000D01*
X123900000Y-63600000D02*
X123900000Y-60700000D01*
X114500000Y-63600000D02*
X114500000Y-60700000D01*
X144300000Y-132100000D02*
X143200000Y-132100000D01*
X134900000Y-132100000D02*
X133800000Y-132100000D01*
X125500000Y-132100000D02*
X124400000Y-132100000D01*
X116100000Y-132100000D02*
X115000000Y-132100000D01*
X106700000Y-132100000D02*
X105600000Y-132100000D01*
X144300000Y-115100000D02*
X143200000Y-115100000D01*
X134900000Y-115100000D02*
X133800000Y-115100000D01*
X125500000Y-115100000D02*
X124400000Y-115100000D01*
X116100000Y-115100000D02*
X115000000Y-115100000D01*
X106700000Y-115100000D02*
X105600000Y-115100000D01*
X144300000Y-98100000D02*
X143200000Y-98100000D01*
X134900000Y-98100000D02*
X133800000Y-98100000D01*
X125500000Y-98100000D02*
X124400000Y-98100000D01*
X116100000Y-98100000D02*
X115000000Y-98100000D01*
X106700000Y-98100000D02*
X105600000Y-98100000D01*
X144300000Y-81100000D02*
X143200000Y-81100000D01*
X134900000Y-81100000D02*
X133800000Y-81100000D01*
X125500000Y-81100000D02*
X124400000Y-81100000D01*
X116100000Y-81100000D02*
X115000000Y-81100000D01*
X106700000Y-81100000D02*
X105600000Y-81100000D01*
X144300000Y-64100000D02*
X143200000Y-64100000D01*
X134900000Y-64100000D02*
X133800000Y-64100000D01*
X125500000Y-64100000D02*
X124400000Y-64100000D01*
X116100000Y-64100000D02*
X115000000Y-64100000D01*
X143200000Y-132100000D02*
X142700000Y-131600000D01*
X133800000Y-132100000D02*
X133300000Y-131600000D01*
X124400000Y-132100000D02*
X123900000Y-131600000D01*
X115000000Y-132100000D02*
X114500000Y-131600000D01*
X105600000Y-132100000D02*
X105100000Y-131600000D01*
X143200000Y-115100000D02*
X142700000Y-114600000D01*
X133800000Y-115100000D02*
X133300000Y-114600000D01*
X124400000Y-115100000D02*
X123900000Y-114600000D01*
X115000000Y-115100000D02*
X114500000Y-114600000D01*
X105600000Y-115100000D02*
X105100000Y-114600000D01*
X143200000Y-98100000D02*
X142700000Y-97600000D01*
X133800000Y-98100000D02*
X133300000Y-97600000D01*
X124400000Y-98100000D02*
X123900000Y-97600000D01*
X115000000Y-98100000D02*
X114500000Y-97600000D01*
X105600000Y-98100000D02*
X105100000Y-97600000D01*
X143200000Y-81100000D02*
X142700000Y-80600000D01*
X133800000Y-81100000D02*
X133300000Y-80600000D01*
X124400000Y-81100000D02*
X123900000Y-80600000D01*
X115000000Y-81100000D02*
X114500000Y-80600000D01*
X105600000Y-81100000D02*
X105100000Y-80600000D01*
X143200000Y-64100000D02*
X142700000Y-63600000D01*
X133800000Y-64100000D02*
X133300000Y-63600000D01*
X124400000Y-64100000D02*
X123900000Y-63600000D01*
X115000000Y-64100000D02*
X114500000Y-63600000D01*
X142700000Y-128700000D02*
X142900000Y-128500000D01*
X133300000Y-128700000D02*
X133500000Y-128500000D01*
X123900000Y-128700000D02*
X124100000Y-128500000D01*
X114500000Y-128700000D02*
X114700000Y-128500000D01*
X105100000Y-128700000D02*
X105300000Y-128500000D01*
X142700000Y-111700000D02*
X142900000Y-111500000D01*
X133300000Y-111700000D02*
X133500000Y-111500000D01*
X123900000Y-111700000D02*
X124100000Y-111500000D01*
X114500000Y-111700000D02*
X114700000Y-111500000D01*
X105100000Y-111700000D02*
X105300000Y-111500000D01*
X142700000Y-94700000D02*
X142900000Y-94500000D01*
X133300000Y-94700000D02*
X133500000Y-94500000D01*
X123900000Y-94700000D02*
X124100000Y-94500000D01*
X114500000Y-94700000D02*
X114700000Y-94500000D01*
X105100000Y-94700000D02*
X105300000Y-94500000D01*
X142700000Y-77700000D02*
X142900000Y-77500000D01*
X133300000Y-77700000D02*
X133500000Y-77500000D01*
X123900000Y-77700000D02*
X124100000Y-77500000D01*
X114500000Y-77700000D02*
X114700000Y-77500000D01*
X105100000Y-77700000D02*
X105300000Y-77500000D01*
X142700000Y-60700000D02*
X142900000Y-60500000D01*
X133300000Y-60700000D02*
X133500000Y-60500000D01*
X123900000Y-60700000D02*
X124100000Y-60500000D01*
X114500000Y-60700000D02*
X114700000Y-60500000D01*
X142700000Y-128700000D02*
X142900000Y-128500000D01*
X133300000Y-128700000D02*
X133500000Y-128500000D01*
X123900000Y-128700000D02*
X124100000Y-128500000D01*
X114500000Y-128700000D02*
X114700000Y-128500000D01*
X105100000Y-128700000D02*
X105300000Y-128500000D01*
X142700000Y-111700000D02*
X142900000Y-111500000D01*
X133300000Y-111700000D02*
X133500000Y-111500000D01*
X123900000Y-111700000D02*
X124100000Y-111500000D01*
X114500000Y-111700000D02*
X114700000Y-111500000D01*
X105100000Y-111700000D02*
X105300000Y-111500000D01*
X142700000Y-94700000D02*
X142900000Y-94500000D01*
X133300000Y-94700000D02*
X133500000Y-94500000D01*
X123900000Y-94700000D02*
X124100000Y-94500000D01*
X114500000Y-94700000D02*
X114700000Y-94500000D01*
X105100000Y-94700000D02*
X105300000Y-94500000D01*
X142700000Y-77700000D02*
X142900000Y-77500000D01*
X133300000Y-77700000D02*
X133500000Y-77500000D01*
X123900000Y-77700000D02*
X124100000Y-77500000D01*
X114500000Y-77700000D02*
X114700000Y-77500000D01*
X105100000Y-77700000D02*
X105300000Y-77500000D01*
X142700000Y-60700000D02*
X142900000Y-60500000D01*
X133300000Y-60700000D02*
X133500000Y-60500000D01*
X123900000Y-60700000D02*
X124100000Y-60500000D01*
X114500000Y-60700000D02*
X114700000Y-60500000D01*
X106700000Y-64100000D02*
X105600000Y-64100000D01*
X105100000Y-63600000D02*
X105100000Y-60700000D01*
X105600000Y-64100000D02*
X105100000Y-63600000D01*
X105100000Y-60700000D02*
X105300000Y-60500000D01*
X105100000Y-60700000D02*
X105300000Y-60500000D01*
M02*
