G04 #@! TF.FileFunction,Copper,L2,Bot,Signal*
%FSLAX46Y46*%
G04 Gerber Fmt 4.6, Leading zero omitted, Abs format (unit mm)*
G04 Created by KiCad (PCBNEW 4.0.2+dfsg1-stable) date Mi 03 Jan 2018 18:02:16 CET*
%MOMM*%
G01*
G04 APERTURE LIST*
%ADD10C,0.100000*%
%ADD11C,1.100000*%
%ADD12C,0.600000*%
%ADD13C,0.250000*%
G04 APERTURE END LIST*
D10*
D11*
X140500000Y-132100000D03*
X144300000Y-132100000D03*
X143700000Y-130400000D03*
X145500000Y-130400000D03*
X141100000Y-130400000D03*
X139300000Y-130400000D03*
X131100000Y-132100000D03*
X134900000Y-132100000D03*
X134300000Y-130400000D03*
X136100000Y-130400000D03*
X131700000Y-130400000D03*
X129900000Y-130400000D03*
X121700000Y-132100000D03*
X125500000Y-132100000D03*
X124900000Y-130400000D03*
X126700000Y-130400000D03*
X122300000Y-130400000D03*
X120500000Y-130400000D03*
X112300000Y-132100000D03*
X116100000Y-132100000D03*
X115500000Y-130400000D03*
X117300000Y-130400000D03*
X112900000Y-130400000D03*
X111100000Y-130400000D03*
X102900000Y-132100000D03*
X106700000Y-132100000D03*
X106100000Y-130400000D03*
X107900000Y-130400000D03*
X103500000Y-130400000D03*
X101700000Y-130400000D03*
X140500000Y-115100000D03*
X144300000Y-115100000D03*
X143700000Y-113400000D03*
X145500000Y-113400000D03*
X141100000Y-113400000D03*
X139300000Y-113400000D03*
X131100000Y-115100000D03*
X134900000Y-115100000D03*
X134300000Y-113400000D03*
X136100000Y-113400000D03*
X131700000Y-113400000D03*
X129900000Y-113400000D03*
X121700000Y-115100000D03*
X125500000Y-115100000D03*
X124900000Y-113400000D03*
X126700000Y-113400000D03*
X122300000Y-113400000D03*
X120500000Y-113400000D03*
X112300000Y-115100000D03*
X116100000Y-115100000D03*
X115500000Y-113400000D03*
X117300000Y-113400000D03*
X112900000Y-113400000D03*
X111100000Y-113400000D03*
X102900000Y-115100000D03*
X106700000Y-115100000D03*
X106100000Y-113400000D03*
X107900000Y-113400000D03*
X103500000Y-113400000D03*
X101700000Y-113400000D03*
X140500000Y-98100000D03*
X144300000Y-98100000D03*
X143700000Y-96400000D03*
X145500000Y-96400000D03*
X141100000Y-96400000D03*
X139300000Y-96400000D03*
X131100000Y-98100000D03*
X134900000Y-98100000D03*
X134300000Y-96400000D03*
X136100000Y-96400000D03*
X131700000Y-96400000D03*
X129900000Y-96400000D03*
X121700000Y-98100000D03*
X125500000Y-98100000D03*
X124900000Y-96400000D03*
X126700000Y-96400000D03*
X122300000Y-96400000D03*
X120500000Y-96400000D03*
X112300000Y-98100000D03*
X116100000Y-98100000D03*
X115500000Y-96400000D03*
X117300000Y-96400000D03*
X112900000Y-96400000D03*
X111100000Y-96400000D03*
X102900000Y-98100000D03*
X106700000Y-98100000D03*
X106100000Y-96400000D03*
X107900000Y-96400000D03*
X103500000Y-96400000D03*
X101700000Y-96400000D03*
X140500000Y-81100000D03*
X144300000Y-81100000D03*
X143700000Y-79400000D03*
X145500000Y-79400000D03*
X141100000Y-79400000D03*
X139300000Y-79400000D03*
X131100000Y-81100000D03*
X134900000Y-81100000D03*
X134300000Y-79400000D03*
X136100000Y-79400000D03*
X131700000Y-79400000D03*
X129900000Y-79400000D03*
X121700000Y-81100000D03*
X125500000Y-81100000D03*
X124900000Y-79400000D03*
X126700000Y-79400000D03*
X122300000Y-79400000D03*
X120500000Y-79400000D03*
X112300000Y-81100000D03*
X116100000Y-81100000D03*
X115500000Y-79400000D03*
X117300000Y-79400000D03*
X112900000Y-79400000D03*
X111100000Y-79400000D03*
X102900000Y-81100000D03*
X106700000Y-81100000D03*
X106100000Y-79400000D03*
X107900000Y-79400000D03*
X103500000Y-79400000D03*
X101700000Y-79400000D03*
X140500000Y-64100000D03*
X144300000Y-64100000D03*
X143700000Y-62400000D03*
X145500000Y-62400000D03*
X141100000Y-62400000D03*
X139300000Y-62400000D03*
X131100000Y-64100000D03*
X134900000Y-64100000D03*
X134300000Y-62400000D03*
X136100000Y-62400000D03*
X131700000Y-62400000D03*
X129900000Y-62400000D03*
X121700000Y-64100000D03*
X125500000Y-64100000D03*
X124900000Y-62400000D03*
X126700000Y-62400000D03*
X122300000Y-62400000D03*
X120500000Y-62400000D03*
X112300000Y-64100000D03*
X116100000Y-64100000D03*
X115500000Y-62400000D03*
X117300000Y-62400000D03*
X112900000Y-62400000D03*
X111100000Y-62400000D03*
X102900000Y-64100000D03*
X106700000Y-64100000D03*
X106100000Y-62400000D03*
X107900000Y-62400000D03*
X103500000Y-62400000D03*
X101700000Y-62400000D03*
D12*
X144900000Y-126600000D03*
X135500000Y-126600000D03*
X126100000Y-126600000D03*
X116700000Y-126600000D03*
X107300000Y-126600000D03*
X144900000Y-109600000D03*
X135500000Y-109600000D03*
X126100000Y-109600000D03*
X116700000Y-109600000D03*
X107300000Y-109600000D03*
X144900000Y-92600000D03*
X135500000Y-92600000D03*
X126100000Y-92600000D03*
X116700000Y-92600000D03*
X107300000Y-92600000D03*
X144900000Y-75600000D03*
X135500000Y-75600000D03*
X126100000Y-75600000D03*
X116700000Y-75600000D03*
X107300000Y-75600000D03*
X144900000Y-58600000D03*
X135500000Y-58600000D03*
X126100000Y-58600000D03*
X116700000Y-58600000D03*
X143200000Y-125600000D03*
X133800000Y-125600000D03*
X124400000Y-125600000D03*
X115000000Y-125600000D03*
X105600000Y-125600000D03*
X143200000Y-108600000D03*
X133800000Y-108600000D03*
X124400000Y-108600000D03*
X115000000Y-108600000D03*
X105600000Y-108600000D03*
X143200000Y-91600000D03*
X133800000Y-91600000D03*
X124400000Y-91600000D03*
X115000000Y-91600000D03*
X105600000Y-91600000D03*
X143200000Y-74600000D03*
X133800000Y-74600000D03*
X124400000Y-74600000D03*
X115000000Y-74600000D03*
X105600000Y-74600000D03*
X143200000Y-57600000D03*
X133800000Y-57600000D03*
X124400000Y-57600000D03*
X115000000Y-57600000D03*
X141200000Y-126300000D03*
X131800000Y-126300000D03*
X122400000Y-126300000D03*
X113000000Y-126300000D03*
X103600000Y-126300000D03*
X141200000Y-109300000D03*
X131800000Y-109300000D03*
X122400000Y-109300000D03*
X113000000Y-109300000D03*
X103600000Y-109300000D03*
X141200000Y-92300000D03*
X131800000Y-92300000D03*
X122400000Y-92300000D03*
X113000000Y-92300000D03*
X103600000Y-92300000D03*
X141200000Y-75300000D03*
X131800000Y-75300000D03*
X122400000Y-75300000D03*
X113000000Y-75300000D03*
X103600000Y-75300000D03*
X141200000Y-58300000D03*
X131800000Y-58300000D03*
X122400000Y-58300000D03*
X113000000Y-58300000D03*
X141100000Y-122200000D03*
X131700000Y-122200000D03*
X122300000Y-122200000D03*
X112900000Y-122200000D03*
X103500000Y-122200000D03*
X141100000Y-105200000D03*
X131700000Y-105200000D03*
X122300000Y-105200000D03*
X112900000Y-105200000D03*
X103500000Y-105200000D03*
X141100000Y-88200000D03*
X131700000Y-88200000D03*
X122300000Y-88200000D03*
X112900000Y-88200000D03*
X103500000Y-88200000D03*
X141100000Y-71200000D03*
X131700000Y-71200000D03*
X122300000Y-71200000D03*
X112900000Y-71200000D03*
X103500000Y-71200000D03*
X141100000Y-54200000D03*
X131700000Y-54200000D03*
X122300000Y-54200000D03*
X112900000Y-54200000D03*
X142000000Y-120100000D03*
X132600000Y-120100000D03*
X123200000Y-120100000D03*
X113800000Y-120100000D03*
X104400000Y-120100000D03*
X142000000Y-103100000D03*
X132600000Y-103100000D03*
X123200000Y-103100000D03*
X113800000Y-103100000D03*
X104400000Y-103100000D03*
X142000000Y-86100000D03*
X132600000Y-86100000D03*
X123200000Y-86100000D03*
X113800000Y-86100000D03*
X104400000Y-86100000D03*
X142000000Y-69100000D03*
X132600000Y-69100000D03*
X123200000Y-69100000D03*
X113800000Y-69100000D03*
X104400000Y-69100000D03*
X142000000Y-52100000D03*
X132600000Y-52100000D03*
X123200000Y-52100000D03*
X113800000Y-52100000D03*
X103500000Y-54200000D03*
X105600000Y-57600000D03*
X107300000Y-58600000D03*
X103600000Y-58300000D03*
X104400000Y-52100000D03*
X141100000Y-125400000D03*
X131700000Y-125400000D03*
X122300000Y-125400000D03*
X112900000Y-125400000D03*
X103500000Y-125400000D03*
X141100000Y-108400000D03*
X131700000Y-108400000D03*
X122300000Y-108400000D03*
X112900000Y-108400000D03*
X103500000Y-108400000D03*
X141100000Y-91400000D03*
X131700000Y-91400000D03*
X122300000Y-91400000D03*
X112900000Y-91400000D03*
X103500000Y-91400000D03*
X141100000Y-74400000D03*
X131700000Y-74400000D03*
X122300000Y-74400000D03*
X112900000Y-74400000D03*
X103500000Y-74400000D03*
X141100000Y-57400000D03*
X131700000Y-57400000D03*
X122300000Y-57400000D03*
X112900000Y-57400000D03*
X141100000Y-127100000D03*
X131700000Y-127100000D03*
X122300000Y-127100000D03*
X112900000Y-127100000D03*
X103500000Y-127100000D03*
X141100000Y-110100000D03*
X131700000Y-110100000D03*
X122300000Y-110100000D03*
X112900000Y-110100000D03*
X103500000Y-110100000D03*
X141100000Y-93100000D03*
X131700000Y-93100000D03*
X122300000Y-93100000D03*
X112900000Y-93100000D03*
X103500000Y-93100000D03*
X141100000Y-76100000D03*
X131700000Y-76100000D03*
X122300000Y-76100000D03*
X112900000Y-76100000D03*
X103500000Y-76100000D03*
X141100000Y-59100000D03*
X131700000Y-59100000D03*
X122300000Y-59100000D03*
X112900000Y-59100000D03*
X103500000Y-57400000D03*
X103500000Y-59100000D03*
D13*
X144900000Y-126600000D02*
X144600000Y-126300000D01*
X135500000Y-126600000D02*
X135200000Y-126300000D01*
X126100000Y-126600000D02*
X125800000Y-126300000D01*
X116700000Y-126600000D02*
X116400000Y-126300000D01*
X107300000Y-126600000D02*
X107000000Y-126300000D01*
X144900000Y-109600000D02*
X144600000Y-109300000D01*
X135500000Y-109600000D02*
X135200000Y-109300000D01*
X126100000Y-109600000D02*
X125800000Y-109300000D01*
X116700000Y-109600000D02*
X116400000Y-109300000D01*
X107300000Y-109600000D02*
X107000000Y-109300000D01*
X144900000Y-92600000D02*
X144600000Y-92300000D01*
X135500000Y-92600000D02*
X135200000Y-92300000D01*
X126100000Y-92600000D02*
X125800000Y-92300000D01*
X116700000Y-92600000D02*
X116400000Y-92300000D01*
X107300000Y-92600000D02*
X107000000Y-92300000D01*
X144900000Y-75600000D02*
X144600000Y-75300000D01*
X135500000Y-75600000D02*
X135200000Y-75300000D01*
X126100000Y-75600000D02*
X125800000Y-75300000D01*
X116700000Y-75600000D02*
X116400000Y-75300000D01*
X107300000Y-75600000D02*
X107000000Y-75300000D01*
X144900000Y-58600000D02*
X144600000Y-58300000D01*
X135500000Y-58600000D02*
X135200000Y-58300000D01*
X126100000Y-58600000D02*
X125800000Y-58300000D01*
X116700000Y-58600000D02*
X116400000Y-58300000D01*
X144600000Y-126300000D02*
X143200000Y-126300000D01*
X135200000Y-126300000D02*
X133800000Y-126300000D01*
X125800000Y-126300000D02*
X124400000Y-126300000D01*
X116400000Y-126300000D02*
X115000000Y-126300000D01*
X107000000Y-126300000D02*
X105600000Y-126300000D01*
X144600000Y-109300000D02*
X143200000Y-109300000D01*
X135200000Y-109300000D02*
X133800000Y-109300000D01*
X125800000Y-109300000D02*
X124400000Y-109300000D01*
X116400000Y-109300000D02*
X115000000Y-109300000D01*
X107000000Y-109300000D02*
X105600000Y-109300000D01*
X144600000Y-92300000D02*
X143200000Y-92300000D01*
X135200000Y-92300000D02*
X133800000Y-92300000D01*
X125800000Y-92300000D02*
X124400000Y-92300000D01*
X116400000Y-92300000D02*
X115000000Y-92300000D01*
X107000000Y-92300000D02*
X105600000Y-92300000D01*
X144600000Y-75300000D02*
X143200000Y-75300000D01*
X135200000Y-75300000D02*
X133800000Y-75300000D01*
X125800000Y-75300000D02*
X124400000Y-75300000D01*
X116400000Y-75300000D02*
X115000000Y-75300000D01*
X107000000Y-75300000D02*
X105600000Y-75300000D01*
X144600000Y-58300000D02*
X143200000Y-58300000D01*
X135200000Y-58300000D02*
X133800000Y-58300000D01*
X125800000Y-58300000D02*
X124400000Y-58300000D01*
X116400000Y-58300000D02*
X115000000Y-58300000D01*
X143200000Y-125600000D02*
X143200000Y-126300000D01*
X133800000Y-125600000D02*
X133800000Y-126300000D01*
X124400000Y-125600000D02*
X124400000Y-126300000D01*
X115000000Y-125600000D02*
X115000000Y-126300000D01*
X105600000Y-125600000D02*
X105600000Y-126300000D01*
X143200000Y-108600000D02*
X143200000Y-109300000D01*
X133800000Y-108600000D02*
X133800000Y-109300000D01*
X124400000Y-108600000D02*
X124400000Y-109300000D01*
X115000000Y-108600000D02*
X115000000Y-109300000D01*
X105600000Y-108600000D02*
X105600000Y-109300000D01*
X143200000Y-91600000D02*
X143200000Y-92300000D01*
X133800000Y-91600000D02*
X133800000Y-92300000D01*
X124400000Y-91600000D02*
X124400000Y-92300000D01*
X115000000Y-91600000D02*
X115000000Y-92300000D01*
X105600000Y-91600000D02*
X105600000Y-92300000D01*
X143200000Y-74600000D02*
X143200000Y-75300000D01*
X133800000Y-74600000D02*
X133800000Y-75300000D01*
X124400000Y-74600000D02*
X124400000Y-75300000D01*
X115000000Y-74600000D02*
X115000000Y-75300000D01*
X105600000Y-74600000D02*
X105600000Y-75300000D01*
X143200000Y-57600000D02*
X143200000Y-58300000D01*
X133800000Y-57600000D02*
X133800000Y-58300000D01*
X124400000Y-57600000D02*
X124400000Y-58300000D01*
X115000000Y-57600000D02*
X115000000Y-58300000D01*
X141200000Y-126300000D02*
X142000000Y-125500000D01*
X131800000Y-126300000D02*
X132600000Y-125500000D01*
X122400000Y-126300000D02*
X123200000Y-125500000D01*
X113000000Y-126300000D02*
X113800000Y-125500000D01*
X103600000Y-126300000D02*
X104400000Y-125500000D01*
X141200000Y-109300000D02*
X142000000Y-108500000D01*
X131800000Y-109300000D02*
X132600000Y-108500000D01*
X122400000Y-109300000D02*
X123200000Y-108500000D01*
X113000000Y-109300000D02*
X113800000Y-108500000D01*
X103600000Y-109300000D02*
X104400000Y-108500000D01*
X141200000Y-92300000D02*
X142000000Y-91500000D01*
X131800000Y-92300000D02*
X132600000Y-91500000D01*
X122400000Y-92300000D02*
X123200000Y-91500000D01*
X113000000Y-92300000D02*
X113800000Y-91500000D01*
X103600000Y-92300000D02*
X104400000Y-91500000D01*
X141200000Y-75300000D02*
X142000000Y-74500000D01*
X131800000Y-75300000D02*
X132600000Y-74500000D01*
X122400000Y-75300000D02*
X123200000Y-74500000D01*
X113000000Y-75300000D02*
X113800000Y-74500000D01*
X103600000Y-75300000D02*
X104400000Y-74500000D01*
X141200000Y-58300000D02*
X142000000Y-57500000D01*
X131800000Y-58300000D02*
X132600000Y-57500000D01*
X122400000Y-58300000D02*
X123200000Y-57500000D01*
X113000000Y-58300000D02*
X113800000Y-57500000D01*
X143200000Y-126300000D02*
X141200000Y-126300000D01*
X133800000Y-126300000D02*
X131800000Y-126300000D01*
X124400000Y-126300000D02*
X122400000Y-126300000D01*
X115000000Y-126300000D02*
X113000000Y-126300000D01*
X105600000Y-126300000D02*
X103600000Y-126300000D01*
X143200000Y-109300000D02*
X141200000Y-109300000D01*
X133800000Y-109300000D02*
X131800000Y-109300000D01*
X124400000Y-109300000D02*
X122400000Y-109300000D01*
X115000000Y-109300000D02*
X113000000Y-109300000D01*
X105600000Y-109300000D02*
X103600000Y-109300000D01*
X143200000Y-92300000D02*
X141200000Y-92300000D01*
X133800000Y-92300000D02*
X131800000Y-92300000D01*
X124400000Y-92300000D02*
X122400000Y-92300000D01*
X115000000Y-92300000D02*
X113000000Y-92300000D01*
X105600000Y-92300000D02*
X103600000Y-92300000D01*
X143200000Y-75300000D02*
X141200000Y-75300000D01*
X133800000Y-75300000D02*
X131800000Y-75300000D01*
X124400000Y-75300000D02*
X122400000Y-75300000D01*
X115000000Y-75300000D02*
X113000000Y-75300000D01*
X105600000Y-75300000D02*
X103600000Y-75300000D01*
X143200000Y-58300000D02*
X141200000Y-58300000D01*
X133800000Y-58300000D02*
X131800000Y-58300000D01*
X124400000Y-58300000D02*
X122400000Y-58300000D01*
X115000000Y-58300000D02*
X113000000Y-58300000D01*
X142000000Y-125500000D02*
X142000000Y-122300000D01*
X132600000Y-125500000D02*
X132600000Y-122300000D01*
X123200000Y-125500000D02*
X123200000Y-122300000D01*
X113800000Y-125500000D02*
X113800000Y-122300000D01*
X104400000Y-125500000D02*
X104400000Y-122300000D01*
X142000000Y-108500000D02*
X142000000Y-105300000D01*
X132600000Y-108500000D02*
X132600000Y-105300000D01*
X123200000Y-108500000D02*
X123200000Y-105300000D01*
X113800000Y-108500000D02*
X113800000Y-105300000D01*
X104400000Y-108500000D02*
X104400000Y-105300000D01*
X142000000Y-91500000D02*
X142000000Y-88300000D01*
X132600000Y-91500000D02*
X132600000Y-88300000D01*
X123200000Y-91500000D02*
X123200000Y-88300000D01*
X113800000Y-91500000D02*
X113800000Y-88300000D01*
X104400000Y-91500000D02*
X104400000Y-88300000D01*
X142000000Y-74500000D02*
X142000000Y-71300000D01*
X132600000Y-74500000D02*
X132600000Y-71300000D01*
X123200000Y-74500000D02*
X123200000Y-71300000D01*
X113800000Y-74500000D02*
X113800000Y-71300000D01*
X104400000Y-74500000D02*
X104400000Y-71300000D01*
X142000000Y-57500000D02*
X142000000Y-54300000D01*
X132600000Y-57500000D02*
X132600000Y-54300000D01*
X123200000Y-57500000D02*
X123200000Y-54300000D01*
X113800000Y-57500000D02*
X113800000Y-54300000D01*
X142000000Y-122300000D02*
X142000000Y-120100000D01*
X132600000Y-122300000D02*
X132600000Y-120100000D01*
X123200000Y-122300000D02*
X123200000Y-120100000D01*
X113800000Y-122300000D02*
X113800000Y-120100000D01*
X104400000Y-122300000D02*
X104400000Y-120100000D01*
X142000000Y-105300000D02*
X142000000Y-103100000D01*
X132600000Y-105300000D02*
X132600000Y-103100000D01*
X123200000Y-105300000D02*
X123200000Y-103100000D01*
X113800000Y-105300000D02*
X113800000Y-103100000D01*
X104400000Y-105300000D02*
X104400000Y-103100000D01*
X142000000Y-88300000D02*
X142000000Y-86100000D01*
X132600000Y-88300000D02*
X132600000Y-86100000D01*
X123200000Y-88300000D02*
X123200000Y-86100000D01*
X113800000Y-88300000D02*
X113800000Y-86100000D01*
X104400000Y-88300000D02*
X104400000Y-86100000D01*
X142000000Y-71300000D02*
X142000000Y-69100000D01*
X132600000Y-71300000D02*
X132600000Y-69100000D01*
X123200000Y-71300000D02*
X123200000Y-69100000D01*
X113800000Y-71300000D02*
X113800000Y-69100000D01*
X104400000Y-71300000D02*
X104400000Y-69100000D01*
X142000000Y-54300000D02*
X142000000Y-52100000D01*
X132600000Y-54300000D02*
X132600000Y-52100000D01*
X123200000Y-54300000D02*
X123200000Y-52100000D01*
X113800000Y-54300000D02*
X113800000Y-52100000D01*
X141200000Y-122300000D02*
X142000000Y-122300000D01*
X131800000Y-122300000D02*
X132600000Y-122300000D01*
X122400000Y-122300000D02*
X123200000Y-122300000D01*
X113000000Y-122300000D02*
X113800000Y-122300000D01*
X103600000Y-122300000D02*
X104400000Y-122300000D01*
X141200000Y-105300000D02*
X142000000Y-105300000D01*
X131800000Y-105300000D02*
X132600000Y-105300000D01*
X122400000Y-105300000D02*
X123200000Y-105300000D01*
X113000000Y-105300000D02*
X113800000Y-105300000D01*
X103600000Y-105300000D02*
X104400000Y-105300000D01*
X141200000Y-88300000D02*
X142000000Y-88300000D01*
X131800000Y-88300000D02*
X132600000Y-88300000D01*
X122400000Y-88300000D02*
X123200000Y-88300000D01*
X113000000Y-88300000D02*
X113800000Y-88300000D01*
X103600000Y-88300000D02*
X104400000Y-88300000D01*
X141200000Y-71300000D02*
X142000000Y-71300000D01*
X131800000Y-71300000D02*
X132600000Y-71300000D01*
X122400000Y-71300000D02*
X123200000Y-71300000D01*
X113000000Y-71300000D02*
X113800000Y-71300000D01*
X103600000Y-71300000D02*
X104400000Y-71300000D01*
X141200000Y-54300000D02*
X142000000Y-54300000D01*
X131800000Y-54300000D02*
X132600000Y-54300000D01*
X122400000Y-54300000D02*
X123200000Y-54300000D01*
X113000000Y-54300000D02*
X113800000Y-54300000D01*
X141100000Y-122200000D02*
X141200000Y-122300000D01*
X131700000Y-122200000D02*
X131800000Y-122300000D01*
X122300000Y-122200000D02*
X122400000Y-122300000D01*
X112900000Y-122200000D02*
X113000000Y-122300000D01*
X103500000Y-122200000D02*
X103600000Y-122300000D01*
X141100000Y-105200000D02*
X141200000Y-105300000D01*
X131700000Y-105200000D02*
X131800000Y-105300000D01*
X122300000Y-105200000D02*
X122400000Y-105300000D01*
X112900000Y-105200000D02*
X113000000Y-105300000D01*
X103500000Y-105200000D02*
X103600000Y-105300000D01*
X141100000Y-88200000D02*
X141200000Y-88300000D01*
X131700000Y-88200000D02*
X131800000Y-88300000D01*
X122300000Y-88200000D02*
X122400000Y-88300000D01*
X112900000Y-88200000D02*
X113000000Y-88300000D01*
X103500000Y-88200000D02*
X103600000Y-88300000D01*
X141100000Y-71200000D02*
X141200000Y-71300000D01*
X131700000Y-71200000D02*
X131800000Y-71300000D01*
X122300000Y-71200000D02*
X122400000Y-71300000D01*
X112900000Y-71200000D02*
X113000000Y-71300000D01*
X103500000Y-71200000D02*
X103600000Y-71300000D01*
X141100000Y-54200000D02*
X141200000Y-54300000D01*
X131700000Y-54200000D02*
X131800000Y-54300000D01*
X122300000Y-54200000D02*
X122400000Y-54300000D01*
X112900000Y-54200000D02*
X113000000Y-54300000D01*
X103600000Y-54300000D02*
X104400000Y-54300000D01*
X103500000Y-54200000D02*
X103600000Y-54300000D01*
X105600000Y-57600000D02*
X105600000Y-58300000D01*
X107000000Y-58300000D02*
X105600000Y-58300000D01*
X105600000Y-58300000D02*
X103600000Y-58300000D01*
X107300000Y-58600000D02*
X107000000Y-58300000D01*
X103600000Y-58300000D02*
X104400000Y-57500000D01*
X104400000Y-57500000D02*
X104400000Y-54300000D01*
X104400000Y-54300000D02*
X104400000Y-52100000D01*
X140500000Y-126500000D02*
X140500000Y-126000000D01*
X131100000Y-126500000D02*
X131100000Y-126000000D01*
X121700000Y-126500000D02*
X121700000Y-126000000D01*
X112300000Y-126500000D02*
X112300000Y-126000000D01*
X102900000Y-126500000D02*
X102900000Y-126000000D01*
X140500000Y-109500000D02*
X140500000Y-109000000D01*
X131100000Y-109500000D02*
X131100000Y-109000000D01*
X121700000Y-109500000D02*
X121700000Y-109000000D01*
X112300000Y-109500000D02*
X112300000Y-109000000D01*
X102900000Y-109500000D02*
X102900000Y-109000000D01*
X140500000Y-92500000D02*
X140500000Y-92000000D01*
X131100000Y-92500000D02*
X131100000Y-92000000D01*
X121700000Y-92500000D02*
X121700000Y-92000000D01*
X112300000Y-92500000D02*
X112300000Y-92000000D01*
X102900000Y-92500000D02*
X102900000Y-92000000D01*
X140500000Y-75500000D02*
X140500000Y-75000000D01*
X131100000Y-75500000D02*
X131100000Y-75000000D01*
X121700000Y-75500000D02*
X121700000Y-75000000D01*
X112300000Y-75500000D02*
X112300000Y-75000000D01*
X102900000Y-75500000D02*
X102900000Y-75000000D01*
X140500000Y-58500000D02*
X140500000Y-58000000D01*
X131100000Y-58500000D02*
X131100000Y-58000000D01*
X121700000Y-58500000D02*
X121700000Y-58000000D01*
X112300000Y-58500000D02*
X112300000Y-58000000D01*
X141100000Y-127100000D02*
X140500000Y-126500000D01*
X131700000Y-127100000D02*
X131100000Y-126500000D01*
X122300000Y-127100000D02*
X121700000Y-126500000D01*
X112900000Y-127100000D02*
X112300000Y-126500000D01*
X103500000Y-127100000D02*
X102900000Y-126500000D01*
X141100000Y-110100000D02*
X140500000Y-109500000D01*
X131700000Y-110100000D02*
X131100000Y-109500000D01*
X122300000Y-110100000D02*
X121700000Y-109500000D01*
X112900000Y-110100000D02*
X112300000Y-109500000D01*
X103500000Y-110100000D02*
X102900000Y-109500000D01*
X141100000Y-93100000D02*
X140500000Y-92500000D01*
X131700000Y-93100000D02*
X131100000Y-92500000D01*
X122300000Y-93100000D02*
X121700000Y-92500000D01*
X112900000Y-93100000D02*
X112300000Y-92500000D01*
X103500000Y-93100000D02*
X102900000Y-92500000D01*
X141100000Y-76100000D02*
X140500000Y-75500000D01*
X131700000Y-76100000D02*
X131100000Y-75500000D01*
X122300000Y-76100000D02*
X121700000Y-75500000D01*
X112900000Y-76100000D02*
X112300000Y-75500000D01*
X103500000Y-76100000D02*
X102900000Y-75500000D01*
X141100000Y-59100000D02*
X140500000Y-58500000D01*
X131700000Y-59100000D02*
X131100000Y-58500000D01*
X122300000Y-59100000D02*
X121700000Y-58500000D01*
X112900000Y-59100000D02*
X112300000Y-58500000D01*
X140500000Y-126000000D02*
X141100000Y-125400000D01*
X131100000Y-126000000D02*
X131700000Y-125400000D01*
X121700000Y-126000000D02*
X122300000Y-125400000D01*
X112300000Y-126000000D02*
X112900000Y-125400000D01*
X102900000Y-126000000D02*
X103500000Y-125400000D01*
X140500000Y-109000000D02*
X141100000Y-108400000D01*
X131100000Y-109000000D02*
X131700000Y-108400000D01*
X121700000Y-109000000D02*
X122300000Y-108400000D01*
X112300000Y-109000000D02*
X112900000Y-108400000D01*
X102900000Y-109000000D02*
X103500000Y-108400000D01*
X140500000Y-92000000D02*
X141100000Y-91400000D01*
X131100000Y-92000000D02*
X131700000Y-91400000D01*
X121700000Y-92000000D02*
X122300000Y-91400000D01*
X112300000Y-92000000D02*
X112900000Y-91400000D01*
X102900000Y-92000000D02*
X103500000Y-91400000D01*
X140500000Y-75000000D02*
X141100000Y-74400000D01*
X131100000Y-75000000D02*
X131700000Y-74400000D01*
X121700000Y-75000000D02*
X122300000Y-74400000D01*
X112300000Y-75000000D02*
X112900000Y-74400000D01*
X102900000Y-75000000D02*
X103500000Y-74400000D01*
X140500000Y-58000000D02*
X141100000Y-57400000D01*
X131100000Y-58000000D02*
X131700000Y-57400000D01*
X121700000Y-58000000D02*
X122300000Y-57400000D01*
X112300000Y-58000000D02*
X112900000Y-57400000D01*
X102900000Y-58000000D02*
X103500000Y-57400000D01*
X102900000Y-58500000D02*
X102900000Y-58000000D01*
X103500000Y-59100000D02*
X102900000Y-58500000D01*
M02*
